<svg width="112" height="112" viewBox="0 0 112 112" fill="none" xmlns="http://www.w3.org/2000/svg">
<path fill-rule="evenodd" clip-rule="evenodd" d="M21.0625 25.825V37.95H8.87502C8.23428 37.9481 7.59949 38.0722 7.00716 38.3153C6.41482 38.5583 5.87664 38.9155 5.42357 39.3662C4.9705 39.817 4.61148 40.3524 4.36718 40.9417C4.12287 41.531 3.99809 42.1625 4.00002 42.8V96.1548C4.00131 97.4403 4.5155 98.6727 5.4296 99.5812C6.3437 100.49 7.58293 101 8.87502 101H66.0187C62.8553 96.4646 61 90.949 61 85C61 71.9531 69.9234 60.9904 82 57.8821V42.7951C81.9987 41.5097 81.4845 40.2773 80.5704 39.3688C79.6563 38.4603 78.4171 37.95 77.125 37.95H64.9375V25.825C64.9375 20.0366 62.6262 14.4854 58.5121 10.3924C54.3981 6.29941 48.8182 4 43 4C37.1818 4 31.6019 6.29941 27.4879 10.3924C23.3738 14.4854 21.0625 20.0366 21.0625 25.825ZM57.625 25.825V37.95H28.375V25.825C28.375 21.9661 29.9158 18.2652 32.6586 15.5366C35.4013 12.8079 39.1212 11.275 43 11.275C46.8788 11.275 50.5987 12.8079 53.3414 15.5366C56.0842 18.2652 57.625 21.9661 57.625 25.825ZM40.075 81.6V71.2937C38.5353 70.6252 37.2739 69.4496 36.5029 67.9646C35.732 66.4796 35.4985 64.7758 35.8418 63.1397C36.185 61.5036 37.084 60.035 38.3876 58.9808C39.6913 57.9266 41.32 57.3511 43 57.3511C44.68 57.3511 46.3087 57.9266 47.6124 58.9808C48.916 60.035 49.815 61.5036 50.1582 63.1397C50.5015 64.7758 50.268 66.4796 49.4971 67.9646C48.7261 69.4496 47.4647 70.6252 45.925 71.2937V81.6H40.075Z" fill="#666666"/>
<path fill-rule="evenodd" clip-rule="evenodd" d="M89 107C101.15 107 111 97.1503 111 85C111 72.8497 101.15 63 89 63C76.8497 63 67 72.8497 67 85C67 97.1503 76.8497 107 89 107ZM89 72C90.1046 72 91 72.8954 91 74V83H100C101.105 83 102 83.8954 102 85C102 86.1046 101.105 87 100 87H91V96C91 97.1046 90.1046 98 89 98C87.8954 98 87 97.1046 87 96V87H78C76.8954 87 76 86.1046 76 85C76 83.8954 76.8954 83 78 83H87V74C87 72.8954 87.8954 72 89 72Z" fill="#CCCCCC"/>
</svg>
