<svg width="370" height="108" viewBox="0 0 370 108" fill="none" xmlns="http://www.w3.org/2000/svg">
<rect width="370" height="108" rx="16" fill="black"/>
<rect x="1" y="1" width="368" height="82" rx="15" fill="white"/>
<rect x="1" y="1" width="368" height="82" rx="15" stroke="black" stroke-width="2"/>
<rect x="103.5" y="26" width="32" height="32" fill="black"/>
<path d="M164.436 59.768C162.292 59.768 160.34 59.528 158.58 59.048C156.852 58.568 155.364 57.848 154.116 56.888C152.9 55.896 151.956 54.664 151.284 53.192C150.612 51.688 150.276 49.912 150.276 47.864V47.48H155.604V47.768C155.604 49.016 155.828 50.104 156.276 51.032C156.756 51.96 157.396 52.744 158.196 53.384C158.996 54.024 159.94 54.504 161.028 54.824C162.148 55.144 163.316 55.304 164.532 55.304C165.684 55.304 166.756 55.224 167.748 55.064C168.74 54.872 169.572 54.568 170.244 54.152C170.948 53.736 171.492 53.192 171.876 52.52C172.26 51.816 172.452 50.936 172.452 49.88V49.4C172.452 48.344 172.148 47.512 171.54 46.904C170.964 46.264 170.18 45.736 169.188 45.32C168.196 44.904 167.06 44.568 165.78 44.312C164.5 44.056 163.204 43.8 161.892 43.544C160.612 43.256 159.332 42.92 158.052 42.536C156.804 42.152 155.684 41.624 154.692 40.952C153.7 40.28 152.9 39.432 152.292 38.408C151.684 37.384 151.38 36.088 151.38 34.52V34.184C151.38 32.36 151.764 30.84 152.532 29.624C153.3 28.408 154.292 27.432 155.508 26.696C156.756 25.96 158.164 25.432 159.732 25.112C161.3 24.792 162.9 24.632 164.532 24.632C166.452 24.632 168.18 24.888 169.716 25.4C171.284 25.88 172.628 26.6 173.748 27.56C174.868 28.488 175.732 29.624 176.34 30.968C176.948 32.312 177.252 33.816 177.252 35.48V35.864H171.972V35.576C171.972 34.488 171.78 33.544 171.396 32.744C171.012 31.944 170.484 31.272 169.812 30.728C169.14 30.184 168.324 29.784 167.364 29.528C166.404 29.24 165.348 29.096 164.196 29.096C163.3 29.096 162.404 29.192 161.508 29.384C160.644 29.544 159.86 29.816 159.156 30.2C158.484 30.584 157.94 31.08 157.524 31.688C157.108 32.264 156.9 32.984 156.9 33.848V34.328C156.9 35.32 157.188 36.12 157.764 36.728C158.372 37.304 159.172 37.784 160.164 38.168C161.156 38.552 162.276 38.872 163.524 39.128C164.804 39.352 166.1 39.608 167.412 39.896C168.724 40.152 170.004 40.472 171.252 40.856C172.532 41.24 173.668 41.784 174.66 42.488C175.652 43.192 176.436 44.088 177.012 45.176C177.62 46.264 177.924 47.624 177.924 49.256V49.592C177.924 51.48 177.572 53.064 176.868 54.344C176.164 55.624 175.204 56.68 173.988 57.512C172.772 58.312 171.332 58.888 169.668 59.24C168.036 59.592 166.292 59.768 164.436 59.768ZM188.751 59V30.008H177.807V25.4H204.879V30.008H193.935V59H188.751ZM220.371 59.768C217.747 59.768 215.427 59.352 213.411 58.52C211.427 57.688 209.763 56.52 208.419 55.016C207.075 53.48 206.051 51.64 205.347 49.496C204.675 47.352 204.339 44.968 204.339 42.344V42.056C204.339 39.56 204.691 37.256 205.395 35.144C206.099 33 207.107 31.16 208.419 29.624C209.763 28.088 211.411 26.872 213.363 25.976C215.347 25.08 217.603 24.632 220.131 24.632C222.819 24.632 225.155 25.064 227.139 25.928C229.155 26.792 230.835 27.992 232.179 29.528C233.555 31.064 234.563 32.904 235.203 35.048C235.875 37.16 236.211 39.496 236.211 42.056V42.344C236.211 44.904 235.875 47.256 235.203 49.4C234.531 51.512 233.523 53.336 232.179 54.872C230.835 56.408 229.171 57.608 227.187 58.472C225.235 59.336 222.963 59.768 220.371 59.768ZM220.323 55.16C222.211 55.16 223.811 54.84 225.123 54.2C226.467 53.528 227.555 52.616 228.387 51.464C229.251 50.312 229.875 48.968 230.259 47.432C230.643 45.896 230.835 44.232 230.835 42.44V42.152C230.835 40.296 230.627 38.584 230.211 37.016C229.795 35.448 229.155 34.088 228.291 32.936C227.427 31.784 226.339 30.888 225.027 30.248C223.715 29.576 222.147 29.24 220.323 29.24C218.499 29.24 216.915 29.576 215.571 30.248C214.227 30.888 213.123 31.784 212.259 32.936C211.427 34.088 210.803 35.464 210.387 37.064C209.971 38.632 209.763 40.36 209.763 42.248V42.536C209.763 44.36 209.971 46.04 210.387 47.576C210.835 49.112 211.475 50.44 212.307 51.56C213.171 52.68 214.275 53.56 215.619 54.2C216.963 54.84 218.531 55.16 220.323 55.16ZM240.616 59V25.4H254.392C256.12 25.4 257.704 25.608 259.144 26.024C260.584 26.408 261.816 27.016 262.84 27.848C263.896 28.68 264.712 29.752 265.288 31.064C265.864 32.344 266.152 33.88 266.152 35.672V35.96C266.152 37.752 265.88 39.336 265.336 40.712C264.824 42.056 264.04 43.176 262.984 44.072C261.96 44.968 260.68 45.64 259.144 46.088C257.64 46.536 255.928 46.76 254.008 46.76H245.8V59H240.616ZM245.8 42.296H253.336C254.424 42.296 255.432 42.2 256.36 42.008C257.288 41.784 258.072 41.448 258.712 41C259.384 40.52 259.896 39.88 260.248 39.08C260.632 38.28 260.824 37.288 260.824 36.104V35.816C260.824 34.696 260.632 33.752 260.248 32.984C259.896 32.216 259.384 31.608 258.712 31.16C258.072 30.712 257.288 30.392 256.36 30.2C255.464 29.976 254.488 29.864 253.432 29.864H245.8V42.296Z" fill="black"/>
</svg>
