<svg width="112" height="112" viewBox="0 0 112 112" fill="none" xmlns="http://www.w3.org/2000/svg">
<g clip-path="url(#clip0_1119_9305)">
<path fill-rule="evenodd" clip-rule="evenodd" d="M66.2991 35.1495C66.2991 46.8301 56.8301 56.299 45.1495 56.299C33.469 56.299 24 46.8301 24 35.1495C24 23.469 33.469 14 45.1495 14C56.8301 14 66.2991 23.469 66.2991 35.1495ZM27.7842 53.6788C27.4894 53.3757 27.0395 53.275 26.6526 53.4457C21.5948 55.6765 16.9418 58.8388 12.9573 62.8233C4.96838 70.8122 0.28474 81.4886 -0.213428 92.7276C-0.26234 93.8311 0.637716 94.7272 1.74229 94.7272L44.8613 94.7272H66.053C64.101 90.9087 63 86.5829 63 82C63 73.0787 67.1723 65.1319 73.672 60.0044C70.4849 57.3597 66.9666 55.1815 63.2244 53.5142C62.8382 53.3421 62.3879 53.441 62.092 53.7431C57.7414 58.1836 51.6772 60.9389 44.9695 60.9389C38.2294 60.9389 32.1392 58.157 27.7842 53.6788Z" fill="#CCCCCC"/>
<path fill-rule="evenodd" clip-rule="evenodd" d="M81.3125 76.45V70.575C81.3125 67.7703 82.4385 65.0805 84.4428 63.0973C86.4471 61.1141 89.1655 60 92 60C94.8345 60 97.5529 61.1141 99.5572 63.0973C101.561 65.0805 102.687 67.7703 102.687 70.575V76.45H108.625C109.254 76.45 109.858 76.6973 110.304 77.1375C110.749 77.5777 110.999 78.1748 111 78.7976V104.65C111.001 104.959 110.94 105.265 110.821 105.55C110.702 105.836 110.527 106.095 110.306 106.314C110.086 106.532 109.824 106.705 109.535 106.823C109.246 106.941 108.937 107.001 108.625 107H75.375C74.7455 107 74.1418 106.753 73.6965 106.313C73.2511 105.872 73.0006 105.275 73 104.652V78.8C72.9991 78.4911 73.0599 78.1851 73.1789 77.8996C73.2979 77.6141 73.4728 77.3546 73.6935 77.1362C73.9143 76.9178 74.1765 76.7448 74.465 76.627C74.7536 76.5092 75.0629 76.4491 75.375 76.45H81.3125ZM84.875 76.45H99.125V70.575C99.125 68.7052 98.3743 66.912 97.0381 65.5899C95.7019 64.2678 93.8897 63.525 92 63.525C90.1103 63.525 88.2981 64.2678 86.9619 65.5899C85.6257 66.912 84.875 68.7052 84.875 70.575V76.45ZM90.575 92.6062V97.6H93.425V92.6062C94.1751 92.2823 94.7896 91.7127 95.1652 90.9932C95.5408 90.2736 95.6546 89.4481 95.4874 88.6553C95.3201 87.8626 94.8821 87.151 94.247 86.6402C93.6119 86.1294 92.8184 85.8505 92 85.8505C91.1816 85.8505 90.3881 86.1294 89.753 86.6402C89.1178 87.151 88.6799 87.8626 88.5126 88.6553C88.3454 89.4481 88.4592 90.2736 88.8348 90.9932C89.2104 91.7127 89.8249 92.2823 90.575 92.6062Z" fill="#666666"/>
</g>
<defs>
<clipPath id="clip0_1119_9305">
<rect width="112" height="112" fill="white"/>
</clipPath>
</defs>
</svg>
