<svg width="17" height="16" viewBox="0 0 17 16" fill="none" xmlns="http://www.w3.org/2000/svg">
<path fill-rule="evenodd" clip-rule="evenodd" d="M8.04764 2H6.7143V3.33333H8.04764V2ZM6.7143 3.33371H5.38096V4.66629V4.66704V5.99963H6.7143V4.66704V4.66629V3.33371ZM4.04764 6.00028H13.381V12.286C13.381 13.2328 12.6135 14.0003 11.6667 14.0003H5.76192C4.81515 14.0003 4.04764 13.2328 4.04764 12.286V6.00028ZM8.04764 8.66657H9.38097V11.3332H8.04764V8.66657ZM8.04764 2H9.38096H9.38098H10.7143V3.33333H9.38098H9.38096H8.04764V2ZM10.7143 3.33371H12.0476V4.66629V4.66704V5.99963H10.7143V4.66704V4.66629V3.33371Z" fill="white"/>
</svg>
