<svg width="152" height="160" viewBox="0 0 152 160" fill="none" xmlns="http://www.w3.org/2000/svg">
<path fill-rule="evenodd" clip-rule="evenodd" d="M78.2293 94.0103C78.565 94.0103 78.8373 94.2831 78.8373 94.6194V96.5146C78.8373 96.8509 78.565 97.1238 78.2293 97.1238C77.8937 97.1238 77.6213 96.8509 77.6213 96.5146V94.6194C77.6213 94.2831 77.8937 94.0103 78.2293 94.0103ZM78.2293 99.6955C78.565 99.6955 78.8373 99.9684 78.8373 100.305V104.095C78.8373 104.431 78.565 104.704 78.2293 104.704C77.8937 104.704 77.6213 104.431 77.6213 104.095V100.305C77.6213 99.9684 77.8937 99.6955 78.2293 99.6955ZM78.2293 107.276C78.565 107.276 78.8373 107.549 78.8373 107.885V111.675C78.8373 112.012 78.565 112.284 78.2293 112.284C77.8937 112.284 77.6213 112.012 77.6213 111.675V107.885C77.6213 107.549 77.8937 107.276 78.2293 107.276ZM78.2293 114.857C78.565 114.857 78.8373 115.129 78.8373 115.466V117.361C78.8373 117.697 78.565 117.97 78.2293 117.97C77.8937 117.97 77.6213 117.697 77.6213 117.361V115.466C77.6213 115.129 77.8937 114.857 78.2293 114.857Z" fill="#676767"/>
<path fill-rule="evenodd" clip-rule="evenodd" d="M27.4614 45.7548C27.6471 45.4742 28.0244 45.3978 28.3042 45.5838L30.0607 46.7513C30.3405 46.9373 30.4168 47.3154 30.2311 47.5956C30.0455 47.8762 29.6682 47.9526 29.3884 47.7666L27.6319 46.5991C27.3521 46.4131 27.2758 46.035 27.4614 45.7548ZM32.7307 49.2573C32.9164 48.9767 33.2937 48.9004 33.5735 49.0864L37.0864 51.4214C37.3662 51.6074 37.4425 51.9855 37.2569 52.2657C37.0713 52.5463 36.694 52.6226 36.4142 52.4366L32.9013 50.1016C32.6215 49.9156 32.5451 49.5375 32.7307 49.2573ZM39.7565 53.9274C39.9422 53.6468 40.3195 53.5704 40.5994 53.7564L44.112 56.0914C44.3921 56.2774 44.4683 56.6555 44.2827 56.9357C44.097 57.2163 43.7197 57.2927 43.44 57.1067L39.927 54.7716C39.6472 54.5857 39.5709 54.2076 39.7565 53.9274ZM46.7824 58.5974C46.968 58.3168 47.3454 58.2405 47.625 58.4265L49.3814 59.594C49.6614 59.78 49.7376 60.158 49.552 60.4382C49.3664 60.7189 48.989 60.7952 48.7093 60.6092L46.953 59.4417C46.6729 59.2557 46.5967 58.8776 46.7824 58.5974Z" fill="#676767"/>
<path fill-rule="evenodd" clip-rule="evenodd" d="M59.7493 27.2715C60.0727 27.1825 60.4075 27.3733 60.4963 27.6978L61.02 29.6098C61.1088 29.9342 60.9182 30.2693 60.5944 30.3584C60.2705 30.4474 59.9361 30.2565 59.847 29.9321L59.3237 28.0201C59.2349 27.6956 59.4254 27.3605 59.7493 27.2715ZM61.3199 33.0075C61.6434 32.9185 61.9782 33.1094 62.067 33.4338L63.1139 37.2578C63.2027 37.5822 63.0122 37.9174 62.6887 38.0064C62.3649 38.0954 62.0301 37.9045 61.9413 37.5801L60.8943 33.7561C60.8056 33.4317 60.9961 33.0965 61.3199 33.0075ZM98.089 31.5078C98.3902 31.6572 98.513 32.0226 98.3638 32.324L96.9666 35.1482C96.8179 35.4496 96.4531 35.5729 96.1519 35.4235C95.8512 35.2741 95.7283 34.9087 95.8775 34.6073L97.2743 31.7831C97.4234 31.4817 97.7882 31.3584 98.089 31.5078ZM63.4139 40.6556C63.7377 40.5666 64.0721 40.7574 64.1613 41.0819L65.2083 44.9059C65.2971 45.2303 65.1066 45.5655 64.7827 45.6545C64.4588 45.7435 64.1244 45.5526 64.0357 45.2282L62.9883 41.4042C62.8995 41.0797 63.09 40.7446 63.4139 40.6556ZM95.295 37.1561C95.5958 37.3055 95.719 37.671 95.5699 37.9724L94.8723 39.382L94.8711 39.3845L93.6818 41.8161C93.5343 42.1182 93.1699 42.2433 92.8683 42.095C92.5667 41.9472 92.4423 41.5822 92.5898 41.28L93.7803 38.846L93.7815 38.8435L94.4803 37.4314C94.6295 37.13 94.9943 37.0067 95.295 37.1561ZM65.5082 48.3036C65.8321 48.2146 66.1665 48.4055 66.2553 48.7299L66.779 50.6418C66.8677 50.9663 66.6772 51.3013 66.3534 51.3907C66.0295 51.4796 65.6951 51.2888 65.6063 50.9643L65.0826 49.0522C64.9939 48.7278 65.1844 48.3926 65.5082 48.3036ZM91.0224 45.8693C91.324 46.0175 91.4488 46.3826 91.3009 46.6843L90.1104 49.1188C89.9625 49.4205 89.5985 49.5456 89.2969 49.3974C88.9953 49.2496 88.8705 48.8845 89.0184 48.5824L90.2089 46.1482C90.3569 45.8461 90.7208 45.7214 91.0224 45.8693ZM128.603 54.5028C128.779 54.7891 128.69 55.1643 128.405 55.3409L126.885 56.2798C126.599 56.4565 126.224 56.3675 126.048 56.0812C125.872 55.795 125.961 55.4197 126.246 55.2431L127.766 54.3038C128.052 54.1271 128.427 54.2165 128.603 54.5028ZM124.043 57.3198C124.219 57.6061 124.13 57.9813 123.845 58.158L120.805 60.0362C120.519 60.2128 120.144 60.1239 119.968 59.8376C119.792 59.5513 119.881 59.1761 120.166 58.9994L123.206 57.1212C123.492 56.9446 123.867 57.0335 124.043 57.3198ZM117.963 61.0762C118.139 61.3625 118.05 61.7377 117.765 61.9143L116.245 62.8536C115.959 63.0303 115.584 62.9409 115.408 62.6546C115.232 62.3683 115.321 61.9931 115.606 61.8165L117.126 60.8776C117.412 60.7009 117.787 60.7899 117.963 61.0762Z" fill="#676767"/>
<path d="M5.95287 119.156C7.00698 113.992 11.5416 110.285 16.8022 110.285H135.091C140.161 110.285 144.584 113.735 145.827 118.661L149.14 131.794C150.902 138.778 145.657 145.566 138.467 145.607L14.039 146.318C7.00548 146.359 1.71711 139.905 3.12652 133.001L5.95287 119.156Z" fill="white"/>
<path fill-rule="evenodd" clip-rule="evenodd" d="M135.091 111.807H16.8022C12.2636 111.807 8.35143 115.006 7.44198 119.461L4.61563 133.306C3.39967 139.262 7.96218 144.831 14.0303 144.796L138.458 144.085C144.661 144.049 149.186 138.193 147.666 132.167L144.353 119.034C143.281 114.785 139.466 111.807 135.091 111.807ZM16.8022 110.285C11.5416 110.285 7.00698 113.992 5.95287 119.156L3.12652 133.001C1.71711 139.905 7.00548 146.359 14.039 146.318L138.467 145.607C145.657 145.566 150.902 138.778 149.14 131.794L145.827 118.661C144.584 113.735 140.161 110.285 135.091 110.285H16.8022Z" fill="black"/>
<path d="M39.7082 117.17C39.7187 115.849 40.7965 114.786 42.1155 114.797L110.728 115.345C112.047 115.356 113.108 116.436 113.097 117.757L113.073 120.839C113.063 122.156 111.993 123.217 110.679 123.213L42.0632 123.05C40.739 123.047 39.6697 121.964 39.6806 120.638L39.7082 117.17Z" fill="white"/>
<path fill-rule="evenodd" clip-rule="evenodd" d="M110.716 116.868L42.1033 116.32C41.6238 116.316 41.2318 116.702 41.2278 117.183L41.2002 120.65C41.1966 121.132 41.5853 121.526 42.0668 121.527L110.682 121.691C111.16 121.692 111.549 121.306 111.553 120.827L111.578 117.745C111.581 117.265 111.196 116.872 110.716 116.868ZM42.1155 114.797C40.7965 114.786 39.7187 115.849 39.7082 117.17L39.6806 120.638C39.6697 121.964 40.739 123.047 42.0632 123.05L110.679 123.213C111.993 123.217 113.063 122.156 113.073 120.839L113.097 117.757C113.108 116.436 112.047 115.356 110.728 115.345L42.1155 114.797Z" fill="black"/>
<path d="M49.7965 108.764C50.1994 108.479 50.681 108.326 51.1743 108.326H101.803C102.322 108.326 102.827 108.496 103.241 108.809L111.516 115.062C113.346 116.445 112.37 119.366 110.078 119.366H42.3323C40.0021 119.366 39.0512 116.364 40.9546 115.018L49.7965 108.764Z" fill="white"/>
<path fill-rule="evenodd" clip-rule="evenodd" d="M101.803 109.849H51.1743C50.9947 109.849 50.8196 109.905 50.6733 110.008L41.8313 116.262C41.139 116.752 41.4848 117.843 42.3323 117.843H110.078C110.911 117.843 111.266 116.781 110.601 116.278L102.326 110.024C102.175 109.911 101.992 109.849 101.803 109.849ZM51.1743 108.326C50.681 108.326 50.1994 108.479 49.7965 108.764L40.9546 115.018C39.0512 116.364 40.0021 119.366 42.3323 119.366H110.078C112.37 119.366 113.346 116.445 111.516 115.062L103.241 108.809C102.827 108.496 102.322 108.326 101.803 108.326H51.1743Z" fill="black"/>
<path d="M2.78015 135.952C2.78015 129.824 7.73811 124.857 13.8541 124.857H138.49C144.606 124.857 149.564 129.824 149.564 135.952V148.351C149.564 154.479 144.606 159.446 138.49 159.446H13.8541C7.73811 159.446 2.78015 154.479 2.78015 148.351V135.952Z" fill="white"/>
<path fill-rule="evenodd" clip-rule="evenodd" d="M138.49 126.433H13.8541C8.6067 126.433 4.35288 130.694 4.35288 135.952V148.351C4.35288 153.609 8.6067 157.871 13.8541 157.871H138.49C143.737 157.871 147.991 153.609 147.991 148.351V135.952C147.991 130.694 143.737 126.433 138.49 126.433ZM13.8541 124.857C7.73811 124.857 2.78015 129.824 2.78015 135.952V148.351C2.78015 154.479 7.73811 159.446 13.8541 159.446H138.49C144.606 159.446 149.564 154.479 149.564 148.351V135.952C149.564 129.824 144.606 124.857 138.49 124.857H13.8541Z" fill="black"/>
<path d="M136.537 118.114C136.537 120.397 131.773 122.247 125.897 122.247C120.021 122.247 115.258 120.397 115.258 118.114C115.258 116.691 115.258 112.675 115.258 112.675C116.96 112.226 123.358 110.826 125.572 110.826C127.785 110.826 134.834 112.226 136.537 112.675C136.537 112.675 136.537 116.691 136.537 118.114Z" fill="white"/>
<path fill-rule="evenodd" clip-rule="evenodd" d="M116.778 113.871C117.334 113.742 118.009 113.592 118.743 113.437H132.864C133.678 113.597 134.42 113.75 135.017 113.882V118.114C135.017 118.124 135.016 118.161 134.977 118.236C134.933 118.318 134.845 118.443 134.674 118.6C134.323 118.922 133.731 119.283 132.871 119.617C131.161 120.281 128.697 120.724 125.897 120.724C123.098 120.724 120.633 120.281 118.924 119.617C118.064 119.283 117.472 118.922 117.121 118.6C116.95 118.443 116.861 118.318 116.818 118.236C116.778 118.161 116.778 118.124 116.778 118.114V113.871ZM115.258 112.675V118.114C115.258 120.397 120.021 122.247 125.897 122.247C131.773 122.247 136.537 120.397 136.537 118.114V112.675C135.913 112.511 134.571 112.218 133.011 111.914C130.317 111.388 126.974 110.826 125.572 110.826C124.17 110.826 121.088 111.388 118.585 111.914C117.136 112.218 115.882 112.511 115.258 112.675Z" fill="black"/>
<path d="M40.5616 116.67C40.5616 118.67 38.2771 120.292 35.459 120.292C32.6409 120.292 30.3563 118.67 30.3563 116.67C30.3563 115.423 30.3563 111.905 30.3563 111.905C31.1728 111.511 34.2413 110.285 35.3028 110.285C36.3643 110.285 39.7452 111.511 40.5616 111.905C40.5616 111.905 40.5616 115.423 40.5616 116.67Z" fill="white"/>
<path fill-rule="evenodd" clip-rule="evenodd" d="M31.8762 112.904C32.0616 112.829 32.2648 112.749 32.4789 112.666H38.344C38.5953 112.756 38.8312 112.843 39.0416 112.923V116.67C39.0416 117.045 38.83 117.533 38.1885 117.988C37.5507 118.441 36.5906 118.769 35.459 118.769C34.3275 118.769 33.3672 118.441 32.7295 117.988C32.0881 117.533 31.8762 117.045 31.8762 116.67V112.904ZM30.3563 111.905V116.67C30.3563 118.67 32.6409 120.292 35.459 120.292C38.2771 120.292 40.5616 118.67 40.5616 116.67V111.905C40.2272 111.743 39.4627 111.443 38.6034 111.143C37.3647 110.712 35.9295 110.285 35.3028 110.285C34.6761 110.285 33.3498 110.712 32.2004 111.143C31.403 111.443 30.6908 111.743 30.3563 111.905Z" fill="black"/>
<path d="M136.537 112.894C136.537 115.177 131.773 117.027 125.897 117.027C120.021 117.027 115.258 115.177 115.258 112.894C115.258 110.611 120.021 108.761 125.897 108.761C131.773 108.761 136.537 110.611 136.537 112.894Z" fill="white"/>
<path fill-rule="evenodd" clip-rule="evenodd" d="M134.977 113.016C135.016 112.941 135.017 112.904 135.017 112.894C135.017 112.883 135.016 112.847 134.977 112.772C134.933 112.69 134.845 112.565 134.674 112.407C134.323 112.085 133.731 111.725 132.871 111.391C131.161 110.727 128.697 110.283 125.897 110.283C123.098 110.283 120.633 110.727 118.924 111.391C118.064 111.725 117.472 112.085 117.121 112.407C116.95 112.565 116.861 112.69 116.818 112.772C116.778 112.847 116.778 112.883 116.778 112.894C116.778 112.904 116.778 112.941 116.818 113.016C116.861 113.098 116.95 113.223 117.121 113.38C117.472 113.702 118.064 114.063 118.924 114.397C120.633 115.061 123.098 115.504 125.897 115.504C128.697 115.504 131.161 115.061 132.871 114.397C133.731 114.063 134.323 113.702 134.674 113.38C134.845 113.223 134.933 113.098 134.977 113.016ZM125.897 117.027C131.773 117.027 136.537 115.177 136.537 112.894C136.537 110.611 131.773 108.761 125.897 108.761C120.021 108.761 115.258 110.611 115.258 112.894C115.258 115.177 120.021 117.027 125.897 117.027Z" fill="black"/>
<path d="M30.9616 117.625C29.2135 117.19 24.98 116.128 24.2256 115.854C23.7774 115.69 23.4435 115.586 23.1553 115.495C22.2919 115.225 21.7802 114.39 21.7802 113.484V110.197C21.7802 110.197 21.7259 106.37 26.6657 107.784C27.5343 108.033 38.1739 110.939 38.1739 110.939L31.7168 112.896V117.03C31.7168 117.428 31.3469 117.72 30.9616 117.625Z" fill="white"/>
<path fill-rule="evenodd" clip-rule="evenodd" d="M21.7802 110.197C21.7802 110.197 21.7259 106.37 26.6657 107.784C27.2466 107.951 32.1979 109.305 35.414 110.185C37.0068 110.62 38.1739 110.939 38.1739 110.939L31.7168 112.896V117.03C31.7168 117.428 31.3469 117.72 30.9616 117.625C29.2135 117.19 24.98 116.128 24.2256 115.854C23.7774 115.69 23.4435 115.586 23.1553 115.495C22.2919 115.225 21.7802 114.39 21.7802 113.484V110.197ZM30.1969 113.272L23.3001 111.399V113.484C23.3001 113.654 23.3487 113.793 23.4099 113.885C23.4667 113.971 23.533 114.018 23.6091 114.042C23.9017 114.133 24.2628 114.247 24.7451 114.422C25.0342 114.528 26.1857 114.839 27.6003 115.205C28.48 115.432 29.4119 115.667 30.1969 115.864V113.272ZM30.3214 111.728L32.6768 111.014C32.5665 110.984 32.4559 110.954 32.3451 110.924C29.5848 110.168 26.6937 109.376 26.2482 109.248C25.1754 108.941 24.5255 108.964 24.1613 109.048C23.8283 109.125 23.6694 109.268 23.5715 109.394C23.4741 109.52 23.4051 109.676 23.3603 109.838L30.3214 111.728Z" fill="black"/>
<path d="M40.5616 111.589C40.5616 113.151 38.2771 114.417 35.459 114.417C32.6409 114.417 30.3563 113.151 30.3563 111.589C30.3563 110.027 32.6409 108.761 35.459 108.761C38.2771 108.761 40.5616 110.027 40.5616 111.589Z" fill="white"/>
<path fill-rule="evenodd" clip-rule="evenodd" d="M39.0326 111.63C39.0412 111.607 39.0416 111.594 39.0416 111.589C39.0416 111.583 39.0412 111.57 39.0326 111.547C39.0229 111.521 39.0014 111.476 38.9532 111.413C38.8527 111.281 38.6585 111.103 38.3314 110.922C37.6731 110.556 36.6605 110.283 35.459 110.283C34.2575 110.283 33.2449 110.556 32.5866 110.922C32.2594 111.103 32.0653 111.281 31.9648 111.413C31.9166 111.476 31.8949 111.521 31.8855 111.547C31.8768 111.57 31.8762 111.583 31.8762 111.589C31.8762 111.594 31.8768 111.607 31.8855 111.63C31.8949 111.656 31.9166 111.701 31.9648 111.765C32.0653 111.896 32.2594 112.074 32.5866 112.256C33.2449 112.621 34.2575 112.894 35.459 112.894C36.6605 112.894 37.6731 112.621 38.3314 112.256C38.6585 112.074 38.8527 111.896 38.9532 111.765C39.0014 111.701 39.0229 111.656 39.0326 111.63ZM35.459 114.417C38.2771 114.417 40.5616 113.151 40.5616 111.589C40.5616 110.027 38.2771 108.761 35.459 108.761C32.6409 108.761 30.3563 110.027 30.3563 111.589C30.3563 113.151 32.6409 114.417 35.459 114.417Z" fill="black"/>
<path d="M6.87012 154.807L41.4559 126.381H79.5317L40.5038 157.825C33.1003 157.878 15.1199 157.952 13.2161 157.825C10.8364 157.666 8.61528 156.713 6.87012 154.807Z" fill="#E8E8E8"/>
<path d="M54.0532 157.871L93.1399 126.381H105.325L66.3964 157.871C59.0113 157.925 64.9721 157.871 64.9721 157.871H54.0532Z" fill="#E8E8E8"/>
<path fill-rule="evenodd" clip-rule="evenodd" d="M84.0297 54.0398C91.2241 54.0398 97.2499 59.0562 98.8176 65.7908C98.4458 65.7556 98.069 65.7376 97.688 65.7376C95.9746 65.7376 94.3436 66.1025 92.8703 66.7602C92.3832 66.9775 92.1642 67.5497 92.381 68.0381C92.5978 68.5264 93.1684 68.7461 93.6555 68.5287C94.8865 67.9793 96.2503 67.6735 97.688 67.6735C103.17 67.6735 107.614 72.1296 107.614 77.6264C107.614 80.9966 105.9 84.014 103.321 85.8263C103.322 85.8266 103.323 85.8269 103.324 85.8273C102.859 86.1609 102.555 86.7088 102.555 87.3282C102.555 88.3449 103.373 89.169 104.383 89.169C104.819 89.169 105.141 89.0329 105.533 88.7593C108.82 86.4594 110.874 82.7601 110.874 78.7397C110.874 74.6646 108.482 70.7893 105.508 68.6191C104.544 67.9162 103.567 67.2291 102.468 66.7429C100.516 58.4555 92.4417 52.3737 84.0297 52.3737C77.2927 52.3737 71.4793 56.3387 68.7842 62.0682C68.7586 62.1226 68.6968 62.1498 68.6396 62.1318C67.3634 61.7306 66.0055 61.5143 64.5973 61.5143C57.7781 61.5143 52.1402 66.5857 51.2307 73.1722C51.1319 73.6769 51.5304 74.1697 52.0485 74.1697C52.4965 74.1697 52.862 73.8152 52.8811 73.3707C53.6925 67.6109 58.6289 63.1804 64.5973 63.1804C65.835 63.1804 67.0253 63.3704 68.1424 63.7216C68.9922 63.9888 69.9076 63.5857 70.2871 62.779C72.7182 57.6107 77.9597 54.0398 84.0297 54.0398ZM83.4855 73.289C83.4855 72.4503 83.0866 72.1827 81.8407 72.1827H60.2021C58.9818 72.1827 58.5572 72.4503 58.5572 73.289V74.1423H83.4874V73.289H83.4855ZM89.837 72.2076C91.0695 72.2076 91.4655 72.3413 91.4655 73.3265V74.1339H85.4368V73.3206C85.4368 72.3354 85.8307 72.2014 87.0633 72.2014L89.837 72.2076ZM94.2628 77.0096H55.7666C55.1997 77.0096 54.8304 77.1142 54.5794 77.249C54.3397 77.3776 54.1132 77.5837 53.9034 77.9516C53.4391 78.7658 53.1266 80.2447 53.1266 82.7486C53.1266 85.2532 53.4394 86.7239 53.9016 87.5304C54.11 87.894 54.3351 88.0978 54.5747 88.2254C54.8263 88.3594 55.1971 88.4634 55.7666 88.4634H94.2628C94.8297 88.4634 95.1993 88.3589 95.4508 88.2241C95.691 88.0953 95.9174 87.8894 96.1269 87.5229C96.5904 86.712 96.9028 85.2395 96.9028 82.7486C96.9028 80.2542 96.5958 78.7742 96.1326 77.9564C95.9235 77.5872 95.6974 77.3802 95.4575 77.2509C95.2063 77.1155 94.8352 77.0096 94.2628 77.0096ZM55.7666 75.3435H94.2628C95.2638 75.3435 96.2747 75.6168 96.9915 76.3455C99.216 78.5429 99.7537 81.2948 99.7537 84.3645C99.7537 89.4641 98.5319 91.7454 95.4521 91.7454H56.9558C53.7809 91.7454 52.5255 88.765 52.1469 87.6705C51.712 86.4132 51.4649 84.842 51.4649 82.7486C51.4649 77.6248 52.6868 75.3435 55.7666 75.3435ZM72.0576 87.0699C73.5131 87.0699 74.2337 86.3698 74.2337 84.9595H74.2357V78.5077H72.2836V84.6513C72.2836 85.2085 72.0841 85.3983 71.4917 85.3983H70.2377C69.6474 85.3983 69.4459 85.2085 69.4459 84.6513V78.5077H67.4937V84.9595C67.4937 86.3698 68.2143 87.0699 69.6576 87.0699H72.0576ZM82.3139 84.9595C82.3139 86.3699 81.5933 87.07 80.1501 87.07H77.5709C76.1276 87.07 75.407 86.3699 75.407 84.9718C75.407 84.884 75.407 84.8554 75.4111 84.835H77.3653C77.4081 85.2493 77.6259 85.3983 78.149 85.3983H79.5679C80.1582 85.3983 80.3597 85.2085 80.3597 84.6513V84.437C80.3597 83.9737 80.1948 83.8553 79.4254 83.7369L77.463 83.4533C75.9974 83.2389 75.4396 82.7185 75.4396 81.5081V80.4999C75.4396 79.0895 76.1602 78.3894 77.6157 78.3894H80.0991C81.5546 78.3894 82.2752 79.0895 82.2752 80.4876C82.2752 80.5631 82.2752 80.5917 82.2712 80.6141H80.3149C80.2701 80.208 80.0524 80.061 79.5312 80.061H78.206C77.6034 80.061 77.3897 80.2631 77.3897 80.8081V80.9856C77.3897 81.4592 77.5322 81.5551 78.3363 81.6734L80.2986 81.9571C81.7765 82.1715 82.3098 82.6919 82.3098 83.9247V84.9554L82.3139 84.9595ZM88.0612 83.9628C88.1394 83.9628 88.2155 83.9607 88.2895 83.9567V84.4469V84.6616C88.2895 85.2196 88.0877 85.4097 87.4964 85.4097L86.2326 85.4097C85.7086 85.4097 85.4905 85.2605 85.4477 84.8456H83.4906C83.4865 84.866 83.4865 84.8946 83.4865 84.9825C83.4865 86.3827 84.2082 87.0838 85.6536 87.0838L88.0795 87.0838C89.5249 87.0838 90.2465 86.3827 90.2465 84.9702V81.6008H90.2425V78.5088H88.2875L88.2875 81.5406C88.2875 82.0986 88.0877 82.2887 87.4944 82.2887H86.2386C85.6474 82.2887 85.4456 82.0986 85.4456 81.5406V78.5088H83.4906L83.4905 81.8492C83.4905 83.2617 84.2122 83.9628 85.6576 83.9628H88.0612ZM65.46 82.5388C66.0626 82.1591 66.2885 81.7203 66.2885 81.057V80.6182C66.2885 79.2078 65.5679 78.5077 64.1247 78.5077H59.7847V87.0699H64.314C65.7572 87.0699 66.4778 86.3698 66.4778 84.9595V84.2369C66.4778 83.3593 66.1949 82.849 65.46 82.5408V82.5388ZM61.7104 80.1202H63.5201C64.1125 80.1202 64.3119 80.31 64.3119 80.8672V81.0815C64.3119 81.6142 64.1226 81.7938 63.5201 81.7938H61.7104V80.1222V80.1202ZM64.5012 84.5921C64.5012 85.1493 64.2997 85.3391 63.7094 85.3391H61.7104V83.4185H63.7094C64.2997 83.4185 64.5012 83.6083 64.5012 84.1655V84.5921Z" fill="#333333"/>
<path d="M63.0144 14.2061L52.9676 20.0492V8.36303L63.0144 14.2061Z" fill="white"/>
<path d="M67.3182 8.60401C67.1884 8.11175 66.9326 7.66246 66.5762 7.30114C66.2199 6.93981 65.7756 6.67914 65.2878 6.54522C63.4975 6.05847 56.3165 6.05847 56.3165 6.05847C56.3165 6.05847 49.1354 6.05847 47.3442 6.54522C46.8567 6.67937 46.4126 6.94014 46.0564 7.30144C45.7003 7.66274 45.4445 8.11191 45.3148 8.60401C44.8345 10.4199 44.8345 14.2079 44.8345 14.2079C44.8345 14.2079 44.8345 17.9958 45.3148 19.8117C45.4445 20.304 45.7004 20.7533 46.0567 21.1146C46.4131 21.4759 46.8574 21.7366 47.3452 21.8705C49.1354 22.3573 56.3165 22.3573 56.3165 22.3573C56.3165 22.3573 63.4975 22.3573 65.2887 21.8705C65.7766 21.7367 66.221 21.476 66.5773 21.1147C66.9337 20.7534 67.1895 20.304 67.3191 19.8117C67.7985 17.9958 67.7985 14.2079 67.7985 14.2079C67.7985 14.2079 67.7985 10.4199 67.3182 8.60401ZM53.9675 17.6469V10.7688L59.9697 14.2079L53.9675 17.6469Z" fill="#FF0000"/>
<g clip-path="url(#clip0_1096_13616)">
<path d="M115.066 14.0498C114.959 13.9443 114.83 13.8906 114.676 13.8906C114.521 13.8906 114.389 13.9443 114.285 14.0498C114.182 14.1553 114.131 14.2906 114.131 14.4517V17.1435C113.6 16.7018 112.987 16.4791 112.29 16.4791C111.479 16.4791 110.786 16.7735 110.212 17.3644C109.638 17.9532 109.353 18.6656 109.353 19.5011C109.353 20.3366 109.64 21.0469 110.212 21.6378C110.786 22.2266 111.477 22.5231 112.29 22.5231C113.102 22.5231 113.786 22.2287 114.367 21.6378C114.942 21.0548 115.227 20.3426 115.227 19.5011V14.4517C115.227 14.2906 115.174 14.1553 115.066 14.0498ZM113.987 20.2293V20.2333C113.891 20.4621 113.76 20.663 113.594 20.8341C113.428 21.0072 113.233 21.1425 113.01 21.2439C112.786 21.3454 112.547 21.3952 112.292 21.3952C112.036 21.3952 111.792 21.3454 111.567 21.2439C111.343 21.1425 111.149 21.0072 110.985 20.8361C110.821 20.665 110.691 20.4642 110.595 20.2353C110.499 20.0045 110.45 19.7599 110.45 19.5011C110.45 19.2423 110.499 18.9977 110.595 18.7668C110.691 18.536 110.822 18.3372 110.985 18.166C111.149 17.9949 111.345 17.8597 111.567 17.7582C111.792 17.6568 112.032 17.607 112.292 17.607C112.551 17.607 112.786 17.6568 113.01 17.7582C113.235 17.8597 113.428 17.9949 113.594 18.1681C113.76 18.3412 113.891 18.5421 113.987 18.7689C114.082 18.9977 114.131 19.2405 114.131 19.4991C114.131 19.7576 114.082 20.0025 113.987 20.2293Z" fill="#2496ED"/>
<path d="M139.332 18.3413C139.189 17.983 138.972 17.6589 138.687 17.3683L138.683 17.3663C138.103 16.7774 137.41 16.481 136.606 16.481C135.801 16.481 135.102 16.7754 134.528 17.3663C133.953 17.9551 133.669 18.6675 133.669 19.5029C133.669 20.3384 133.956 21.0488 134.528 21.6396C135.102 22.2285 135.793 22.5249 136.606 22.5249C137.344 22.5249 137.982 22.2803 138.525 21.7909C138.63 21.6795 138.683 21.5443 138.683 21.3869C138.683 21.2296 138.633 21.0905 138.529 20.985C138.426 20.8795 138.295 20.8258 138.139 20.8258C138.002 20.8299 137.881 20.8756 137.777 20.9672C137.613 21.1103 137.436 21.2199 137.242 21.2916C137.049 21.3633 136.838 21.3991 136.608 21.3991C136.405 21.3991 136.209 21.3673 136.024 21.3017C135.838 21.2361 135.665 21.1464 135.51 21.0292C135.354 20.9117 135.219 20.7726 135.104 20.6074C134.989 20.4442 134.901 20.2631 134.843 20.0643H138.996C139.15 20.0643 139.279 20.0106 139.387 19.9051C139.494 19.7996 139.547 19.6644 139.547 19.5032C139.547 19.0854 139.474 18.6975 139.332 18.3413H139.332ZM134.838 18.9421C134.895 18.745 134.981 18.564 135.096 18.399C135.212 18.2358 135.348 18.0946 135.504 17.9772C135.663 17.8597 135.834 17.7702 136.024 17.7046C136.213 17.639 136.406 17.6072 136.606 17.6072C136.805 17.6072 136.998 17.639 137.185 17.7046C137.373 17.7702 137.545 17.8597 137.699 17.9772C137.855 18.0946 137.992 18.2337 138.107 18.399C138.224 18.5622 138.312 18.7432 138.373 18.9421H134.838H134.838Z" fill="#2496ED"/>
<path d="M144.436 16.8591C144.339 16.7617 144.216 16.6859 144.067 16.6302C143.919 16.5746 143.757 16.5367 143.579 16.5148C143.403 16.493 143.237 16.483 143.083 16.483C142.733 16.483 142.405 16.5407 142.097 16.6562C141.788 16.7716 141.503 16.9366 141.241 17.1515V17.0441C141.241 16.889 141.189 16.7576 141.081 16.6483C140.974 16.5389 140.847 16.4833 140.697 16.4833C140.547 16.4833 140.414 16.5389 140.306 16.6483C140.199 16.7576 140.146 16.8911 140.146 17.0441V21.9643C140.146 22.1194 140.199 22.2509 140.306 22.3602C140.414 22.4695 140.542 22.5252 140.697 22.5252C140.851 22.5252 140.976 22.4695 141.081 22.3602C141.189 22.2509 141.241 22.1174 141.241 21.9643V19.5032C141.241 19.2406 141.29 18.994 141.386 18.7631C141.482 18.5323 141.613 18.3334 141.779 18.1623C141.945 17.9912 142.14 17.8559 142.362 17.7583C142.587 17.6589 142.825 17.6091 143.081 17.6091C143.337 17.6091 143.579 17.6549 143.8 17.7444C143.888 17.7843 143.964 17.8041 144.03 17.8041C144.107 17.8041 144.179 17.7901 144.245 17.7604C144.311 17.7306 144.37 17.6907 144.419 17.6391C144.468 17.5875 144.507 17.5277 144.536 17.458C144.565 17.3904 144.581 17.3167 144.581 17.2371C144.581 17.082 144.532 16.9567 144.435 16.8591H144.437H144.436Z" fill="#2496ED"/>
<path d="M121.507 18.3433C121.364 17.9871 121.151 17.6609 120.864 17.3665C120.284 16.7777 119.591 16.4812 118.786 16.4812C117.982 16.4812 117.283 16.7756 116.709 17.3665C116.134 17.9553 115.85 18.6677 115.85 19.5032C115.85 20.3387 116.137 21.049 116.709 21.6399C117.283 22.2287 117.974 22.5252 118.786 22.5252C119.599 22.5252 120.282 22.2308 120.864 21.6399C121.438 21.0569 121.724 20.3448 121.724 19.5032C121.72 19.0855 121.647 18.6995 121.507 18.3433H121.507ZM120.483 20.2293V20.2334C120.388 20.4622 120.257 20.6631 120.091 20.8342C119.925 21.0073 119.73 21.1426 119.507 21.244C119.285 21.3455 119.044 21.3953 118.789 21.3953C118.533 21.3953 118.289 21.3455 118.064 21.244C117.84 21.1426 117.646 21.0073 117.482 20.8362C117.318 20.6651 117.187 20.4642 117.092 20.2354C116.996 20.0046 116.947 19.76 116.947 19.5012C116.947 19.2424 116.996 18.9978 117.092 18.7669C117.187 18.5361 117.318 18.3372 117.482 18.1661C117.646 17.995 117.842 17.8598 118.064 17.7583C118.289 17.6569 118.529 17.607 118.789 17.607C119.048 17.607 119.283 17.6569 119.507 17.7583C119.732 17.8598 119.925 17.995 120.091 18.1682C120.257 18.3413 120.388 18.5422 120.483 18.7689C120.579 18.9978 120.628 19.2406 120.628 19.4991C120.628 19.7577 120.579 20.0025 120.483 20.2293Z" fill="#2496ED"/>
<path d="M133.254 17.0421C133.254 16.9666 133.239 16.8949 133.21 16.8273C133.18 16.7596 133.141 16.6981 133.092 16.6462C133.043 16.5946 132.985 16.5527 132.919 16.525C132.852 16.4972 132.78 16.4812 132.704 16.4812C132.595 16.4812 132.497 16.5092 132.411 16.5669L129.275 18.6659V14.4559C129.275 14.2967 129.222 14.1635 129.115 14.0539C129.007 13.9446 128.881 13.8889 128.73 13.8889C128.58 13.8889 128.447 13.9446 128.339 14.0539C128.232 14.1633 128.179 14.2967 128.179 14.4559V21.9564C128.179 22.1115 128.232 22.245 128.339 22.3564C128.447 22.4677 128.576 22.5234 128.73 22.5234C128.885 22.5234 129.009 22.4677 129.115 22.3564C129.222 22.245 129.275 22.1115 129.275 21.9564V20.0086L129.915 19.5769L132.339 22.3762C132.436 22.4736 132.56 22.5214 132.706 22.5214C132.782 22.5214 132.854 22.5074 132.921 22.4776C132.987 22.4497 133.046 22.408 133.094 22.3564C133.143 22.3047 133.182 22.245 133.212 22.1753C133.241 22.1077 133.256 22.034 133.256 21.9605C133.256 21.8133 133.206 21.6818 133.104 21.5666L130.848 18.9545L133.045 17.4862C133.186 17.3888 133.254 17.2396 133.254 17.0385V17.0426L133.254 17.0421Z" fill="#2496ED"/>
<path d="M123.969 18.1623C124.137 17.9912 124.333 17.8559 124.557 17.7583C124.782 17.6589 125.02 17.6091 125.276 17.6091C125.506 17.6091 125.719 17.649 125.916 17.7283C126.112 17.8079 126.299 17.9253 126.477 18.0784C126.582 18.1639 126.701 18.2076 126.834 18.2076C126.992 18.2076 127.121 18.1539 127.225 18.0464C127.328 17.9389 127.379 17.8036 127.379 17.6424C127.379 17.4812 127.316 17.332 127.189 17.2168C126.65 16.7274 126.012 16.4825 125.276 16.4825C124.465 16.4825 123.772 16.777 123.198 17.3678C122.624 17.9567 122.339 18.6691 122.339 19.5045C122.339 20.34 122.626 21.0504 123.198 21.6412C123.772 22.2301 124.463 22.5265 125.276 22.5265C126.01 22.5265 126.649 22.2819 127.189 21.7923C127.305 21.673 127.363 21.5357 127.363 21.3766C127.363 21.2174 127.312 21.0801 127.209 20.9746C127.106 20.8691 126.975 20.8155 126.819 20.8155C126.686 20.8195 126.571 20.8592 126.473 20.9347C126.297 21.0898 126.114 21.2052 125.917 21.2828C125.721 21.3603 125.508 21.3982 125.276 21.3982C125.02 21.3982 124.782 21.3484 124.557 21.249C124.333 21.1496 124.138 21.0143 123.969 20.8452C123.802 20.6761 123.669 20.4732 123.573 20.2444C123.477 20.0136 123.428 19.7669 123.428 19.5043C123.428 19.2417 123.477 18.995 123.573 18.7642C123.669 18.5333 123.801 18.3345 123.969 18.1634V18.1614L123.969 18.1623Z" fill="#2496ED"/>
<g clip-path="url(#clip1_1096_13616)">
<path d="M98.5627 16.9901H100.325C100.366 16.9901 100.405 16.9738 100.434 16.9448C100.463 16.9158 100.479 16.8764 100.479 16.8352V15.2546C100.479 15.2132 100.463 15.1736 100.434 15.1444C100.405 15.1152 100.366 15.0988 100.325 15.0988H98.5627C98.5219 15.0988 98.4827 15.1151 98.4539 15.1442C98.425 15.1732 98.4088 15.2126 98.4088 15.2537V16.8352C98.4088 16.9206 98.4779 16.9901 98.5627 16.9901ZM96.1063 12.4418H97.8675C97.9085 12.4418 97.9479 12.4254 97.9769 12.3961C98.0059 12.3669 98.0222 12.3273 98.0222 12.286V10.7045C98.022 10.6633 98.0056 10.6239 97.9766 10.5949C97.9476 10.5659 97.9084 10.5496 97.8675 10.5496H96.1063C96.0655 10.5496 96.0264 10.5659 95.9975 10.5949C95.9687 10.624 95.9525 10.6634 95.9525 10.7045V12.286C95.9525 12.3714 96.0207 12.4418 96.1063 12.4418ZM96.1063 14.716H97.8675C97.9085 14.7157 97.9477 14.6993 97.9766 14.6701C98.0056 14.6409 98.022 14.6014 98.0222 14.5602V12.9795C98.022 12.9384 98.0056 12.899 97.9766 12.8699C97.9476 12.8409 97.9084 12.8246 97.8675 12.8246H96.1063C96.0655 12.8246 96.0264 12.8409 95.9975 12.87C95.9687 12.899 95.9525 12.9384 95.9525 12.9795V14.5602C95.9525 14.6456 96.0207 14.7151 96.1063 14.716ZM93.6699 14.716H95.4328C95.4735 14.7155 95.5124 14.6989 95.5411 14.6697C95.5697 14.6406 95.5858 14.6012 95.5858 14.5602V12.9795C95.5858 12.9384 95.5696 12.899 95.5407 12.87C95.5119 12.8409 95.4727 12.8246 95.4319 12.8246H93.6707C93.63 12.8246 93.5908 12.8409 93.562 12.87C93.5331 12.899 93.5169 12.9384 93.5169 12.9795V14.5602C93.5169 14.6456 93.5859 14.7151 93.6707 14.716M91.2061 14.716H92.9681C93.009 14.7157 93.0481 14.6992 93.0769 14.67C93.1058 14.6408 93.1219 14.6013 93.1219 14.5602V12.9795C93.1219 12.9384 93.1057 12.899 93.0769 12.87C93.048 12.8409 93.0089 12.8246 92.9681 12.8246H91.2061C91.1652 12.8246 91.126 12.8409 91.097 12.8699C91.068 12.899 91.0516 12.9384 91.0514 12.9795V14.5602C91.0514 14.6456 91.1213 14.7151 91.2061 14.716ZM96.1063 16.9901H97.8675C97.9084 16.9901 97.9476 16.9738 97.9766 16.9448C98.0056 16.9158 98.022 16.8764 98.0222 16.8352V15.2546C98.0222 15.2132 98.0059 15.1736 97.9769 15.1444C97.9479 15.1152 97.9085 15.0988 97.8675 15.0988H96.1063C96.0655 15.0988 96.0264 15.1151 95.9975 15.1442C95.9687 15.1732 95.9525 15.2126 95.9525 15.2537V16.8352C95.9525 16.9206 96.0207 16.9901 96.1063 16.9901ZM93.6699 16.9901H95.4328C95.4734 16.9899 95.5123 16.9735 95.541 16.9445C95.5697 16.9154 95.5858 16.8761 95.5858 16.8352V15.2546C95.5859 15.2342 95.582 15.214 95.5744 15.1952C95.5668 15.1764 95.5555 15.1592 95.5413 15.1447C95.5271 15.1303 95.5102 15.1188 95.4916 15.1109C95.473 15.103 95.453 15.0989 95.4328 15.0988H93.6699C93.6293 15.099 93.5903 15.1154 93.5617 15.1444C93.533 15.1735 93.5169 15.2128 93.5169 15.2537V16.8352C93.5169 16.9206 93.5859 16.9901 93.6707 16.9901M91.2061 16.9901H92.9681C93.0089 16.9901 93.048 16.9738 93.0769 16.9448C93.1057 16.9157 93.1219 16.8763 93.1219 16.8352V15.2546C93.122 15.2342 93.1182 15.214 93.1105 15.1952C93.1029 15.1764 93.0917 15.1592 93.0775 15.1447C93.0633 15.1303 93.0464 15.1188 93.0277 15.1109C93.0091 15.103 92.9891 15.0989 92.9689 15.0988H91.2061C91.1651 15.0988 91.1257 15.1152 91.0967 15.1444C91.0677 15.1736 91.0514 15.2132 91.0514 15.2546V16.8352C91.0514 16.9206 91.1213 16.9901 91.2061 16.9901ZM88.778 16.9901H90.5409C90.5815 16.9899 90.6204 16.9735 90.6491 16.9445C90.6778 16.9154 90.6939 16.8761 90.6939 16.8352V15.2546C90.694 15.2342 90.6901 15.214 90.6825 15.1952C90.6748 15.1764 90.6636 15.1592 90.6494 15.1447C90.6352 15.1303 90.6183 15.1188 90.5997 15.1109C90.581 15.103 90.5611 15.0989 90.5409 15.0988H88.778C88.7373 15.099 88.6984 15.1154 88.6698 15.1444C88.6411 15.1735 88.625 15.2128 88.625 15.2537V16.8352C88.625 16.9206 88.6923 16.9901 88.778 16.9901ZM106.695 15.995C106.641 15.9523 106.136 15.5678 105.07 15.5678C104.789 15.5687 104.508 15.593 104.23 15.6407C104.024 14.2167 102.856 13.5215 102.803 13.4913L102.517 13.3246L102.33 13.5986C102.093 13.9654 101.922 14.3709 101.821 14.7964C101.629 15.6089 101.746 16.3728 102.156 17.0253C101.661 17.3034 100.867 17.3713 100.706 17.3771H87.5598C87.3948 17.3774 87.2365 17.4434 87.1196 17.5608C87.0028 17.6782 86.9368 17.8374 86.9361 18.0037C86.9207 19.1637 87.1158 20.3167 87.5116 21.4062C87.9648 22.6023 88.6383 23.4835 89.5156 24.0229C90.4968 24.6286 92.0933 24.9753 93.9019 24.9753C94.7193 24.9778 95.5342 24.9033 96.3383 24.7525C97.4549 24.5459 98.5294 24.1526 99.5173 23.589C100.332 23.1141 101.064 22.5102 101.688 21.7999C102.729 20.6121 103.349 19.2895 103.81 18.1143H103.994C105.135 18.1143 105.836 17.6544 106.223 17.2691C106.48 17.0237 106.68 16.7246 106.811 16.3929L106.892 16.1517L106.695 15.995Z" fill="#2496ED"/>
</g>
</g>
<path d="M143.362 44.6128H145.877L140.356 51.1571L146.806 60.0345H141.744L137.782 54.6397L133.245 60.0345H130.731L136.579 53.035L130.403 44.6128H135.59L139.17 49.5409L143.362 44.6128ZM142.482 58.498H143.876L134.857 46.0924H133.36L142.482 58.498Z" fill="#333333"/>
<g clip-path="url(#clip2_1096_13616)">
<path d="M13.2906 29.1856C13.2906 29.5184 13.3263 29.7872 13.3888 29.984C13.4603 30.1819 13.5496 30.3978 13.6746 30.6317C13.7192 30.7025 13.7371 30.7745 13.7371 30.8375C13.7371 30.9274 13.6835 31.0174 13.5674 31.1074L13.0059 31.4841C12.9381 31.5334 12.8573 31.5615 12.7737 31.565C12.6844 31.565 12.5951 31.52 12.5069 31.4391C12.387 31.3092 12.2797 31.1679 12.1866 31.0174C12.0868 30.8449 11.9944 30.6682 11.9097 30.4878C11.2154 31.3131 10.3413 31.7258 9.28973 31.7258C8.54181 31.7258 7.94458 31.5111 7.50811 31.0804C7.07163 30.6486 6.84949 30.0751 6.84949 29.3565C6.84949 28.5941 7.11628 27.9734 7.65993 27.5078C8.20357 27.0412 8.9247 26.8073 9.84231 26.8073C10.1459 26.8073 10.4574 26.8343 10.7867 26.8792C11.1171 26.9242 11.4565 26.9962 11.8115 27.0772V26.4216C11.8115 25.739 11.6697 25.2633 11.3929 24.9856C11.1082 24.7067 10.6271 24.5729 9.94166 24.5729C9.62909 24.5729 9.3076 24.6078 8.97828 24.6887C8.64897 24.7697 8.32748 24.8686 8.01603 24.9946C7.91448 25.0404 7.81007 25.0795 7.70346 25.1115C7.65755 25.1264 7.60988 25.1351 7.56169 25.1374C7.43666 25.1374 7.37415 25.0474 7.37415 24.8596V24.42C7.37415 24.276 7.39201 24.1681 7.43666 24.1051C7.5041 24.0235 7.58979 23.9591 7.68672 23.9173C7.99817 23.7554 8.37213 23.6205 8.80861 23.5125C9.26296 23.3953 9.73053 23.3382 10.1995 23.3427C11.26 23.3427 12.0347 23.5856 12.5337 24.0702C13.0238 24.5538 13.2727 25.2903 13.2727 26.2776V29.1856H13.2906ZM9.67374 30.5507C9.96733 30.5507 10.2699 30.4968 10.5913 30.3888C10.9117 30.2809 11.1975 30.0841 11.4375 29.8153C11.5804 29.6444 11.6876 29.4555 11.7411 29.2396C11.7936 29.0248 11.8304 28.7639 11.8304 28.4592V28.0825C11.56 28.016 11.2861 27.965 11.01 27.9295C10.7323 27.894 10.4527 27.876 10.1727 27.8756C9.57551 27.8756 9.13903 27.9925 8.84433 28.2354C8.55074 28.4772 8.40897 28.8179 8.40897 29.2666C8.40897 29.6882 8.51502 30.0031 8.73828 30.2179C8.95149 30.4428 9.26294 30.5507 9.67374 30.5507ZM16.8293 31.52C16.6685 31.52 16.5614 31.4931 16.4899 31.4301C16.4185 31.3761 16.356 31.2502 16.3024 31.0804L14.2093 24.1411C14.1686 24.0247 14.1416 23.904 14.1289 23.7813C14.1289 23.6373 14.2004 23.5564 14.3421 23.5564H15.2162C15.3848 23.5564 15.5009 23.5845 15.5623 23.6463C15.6348 23.7003 15.6884 23.8262 15.7409 23.9972L17.239 29.939L18.6288 23.9972C18.6734 23.8172 18.727 23.7003 18.7973 23.6463C18.9044 23.5802 19.0291 23.5487 19.1545 23.5564H19.8667C20.0364 23.5564 20.1525 23.5845 20.224 23.6463C20.2943 23.7003 20.3579 23.8262 20.3925 23.9972L21.8002 30.011L23.3418 23.9972C23.3954 23.8172 23.4579 23.7003 23.5204 23.6463C23.6238 23.5802 23.7453 23.5487 23.8676 23.5564H24.697C24.8388 23.5564 24.9203 23.6294 24.9203 23.7813C24.9203 23.8262 24.9102 23.8712 24.9013 23.9252C24.8873 24.0019 24.8664 24.0772 24.8388 24.1501L22.6921 31.0882C22.6385 31.2682 22.576 31.384 22.5046 31.438C22.404 31.503 22.2857 31.5344 22.1663 31.5279H21.3994C21.2309 31.5279 21.1148 31.5009 21.0422 31.438C20.9719 31.375 20.9094 31.258 20.8748 31.0781L19.4928 25.2892L18.1197 31.0691C18.0751 31.249 18.0226 31.366 17.9523 31.429C17.8797 31.4919 17.7547 31.5189 17.5951 31.5189L16.8293 31.52ZM28.2781 31.7618C27.8148 31.7618 27.3516 31.7078 26.9062 31.601C26.4608 31.4931 26.1136 31.3761 25.8814 31.2412C25.7385 31.1613 25.6414 31.0714 25.6057 30.9904C25.5709 30.911 25.5526 30.8253 25.5521 30.7385V30.2809C25.5521 30.0931 25.6235 30.0031 25.7564 30.0031C25.81 30.0031 25.8635 30.0121 25.9171 30.0301C25.9707 30.0481 26.0511 30.0841 26.1404 30.12C26.4429 30.255 26.7722 30.3618 27.1205 30.4338C27.4766 30.5058 27.8238 30.5417 28.181 30.5417C28.7414 30.5417 29.179 30.4428 29.4815 30.2449C29.6265 30.1566 29.7458 30.0313 29.8271 29.8816C29.9085 29.7318 29.9491 29.5631 29.9448 29.3925C29.948 29.2769 29.9285 29.1619 29.8873 29.054C29.8461 28.9461 29.7841 28.8475 29.7048 28.7639C29.544 28.5941 29.2404 28.4412 28.8039 28.2972L27.5123 27.8924C26.8615 27.6866 26.3804 27.3819 26.0868 26.9782C25.7995 26.6056 25.6425 26.1478 25.6403 25.676C25.6403 25.2993 25.7218 24.9676 25.8814 24.6797C26.0422 24.393 26.2554 24.1411 26.5233 23.9443C26.7912 23.7374 27.0926 23.5845 27.4498 23.4776C27.807 23.3697 28.181 23.3247 28.5728 23.3247C28.7682 23.3247 28.9736 23.3337 29.17 23.3607C29.3743 23.3877 29.5608 23.4237 29.7483 23.4596C29.9269 23.5046 30.0966 23.5496 30.2562 23.6025C30.417 23.6564 30.542 23.7104 30.6313 23.7644C30.7365 23.8177 30.8281 23.8947 30.8992 23.9893C30.9567 24.0766 30.9846 24.1804 30.9785 24.285V24.7067C30.9785 24.8956 30.907 24.9946 30.7731 24.9946C30.6545 24.9809 30.5396 24.9442 30.4348 24.8866C29.8965 24.6471 29.3131 24.5278 28.7246 24.5369C28.2167 24.5369 27.8148 24.6168 27.5391 24.7877C27.2623 24.9586 27.1205 25.2184 27.1205 25.5861C27.1205 25.838 27.2098 26.0539 27.3884 26.2237C27.5659 26.3946 27.8952 26.5655 28.3674 26.7184L29.6333 27.121C30.2741 27.3279 30.7385 27.6158 31.0142 27.9835C31.2899 28.3512 31.4239 28.7729 31.4239 29.2396C31.4239 29.6253 31.3435 29.9761 31.1928 30.2809C31.032 30.5867 30.8177 30.8555 30.542 31.0714C30.2651 31.2963 29.9358 31.4571 29.5529 31.574C29.1511 31.6988 28.7336 31.7618 28.2781 31.7618Z" fill="#333333"/>
<path d="M19.1099 39.4635C22.7714 39.4635 27.0312 38.3064 29.9626 36.1248C30.4437 35.765 30.0251 35.2174 29.5351 35.4423C26.2464 36.8423 22.6742 37.5248 19.4213 37.5248C14.6011 37.5248 9.94053 36.1867 6.16294 33.9793C5.83252 33.7814 5.58358 34.1232 5.85931 34.374C9.35335 37.5518 13.9771 39.4635 19.1099 39.4635Z" fill="#FF9900"/>
<path d="M27.7523 34.6079C28.7056 34.4909 30.8088 34.2402 31.1838 34.7237C31.5578 35.2005 30.7652 37.2021 30.408 38.0905C30.3008 38.3592 30.533 38.4672 30.773 38.2603C32.3415 36.9322 32.7511 34.1592 32.4308 33.7544C32.1104 33.3597 29.3565 33.019 27.682 34.2031C27.423 34.392 27.4677 34.6439 27.7523 34.6079Z" fill="#FF9900"/>
</g>
<defs>
<clipPath id="clip0_1096_13616">
<rect width="62.6043" height="20.1033" fill="white" transform="translate(83.9281 7.71082)"/>
</clipPath>
<clipPath id="clip1_1096_13616">
<rect width="19.9568" height="20.1033" fill="white" transform="translate(86.9353 7.71082)"/>
</clipPath>
<clipPath id="clip2_1096_13616">
<rect width="26.7914" height="26.988" fill="white" transform="translate(5.74097 17.9001)"/>
</clipPath>
</defs>
</svg>
