<svg width="152" height="160" viewBox="0 0 152 160" fill="none" xmlns="http://www.w3.org/2000/svg">
<path fill-rule="evenodd" clip-rule="evenodd" d="M78.2301 94.0103C78.5657 94.0103 78.8381 94.2831 78.8381 94.6194V96.5146C78.8381 96.8509 78.5657 97.1238 78.2301 97.1238C77.8945 97.1238 77.6221 96.8509 77.6221 96.5146V94.6194C77.6221 94.2831 77.8945 94.0103 78.2301 94.0103ZM78.2301 99.6955C78.5657 99.6955 78.8381 99.9684 78.8381 100.305V104.095C78.8381 104.431 78.5657 104.704 78.2301 104.704C77.8945 104.704 77.6221 104.431 77.6221 104.095V100.305C77.6221 99.9684 77.8945 99.6955 78.2301 99.6955ZM78.2301 107.276C78.5657 107.276 78.8381 107.549 78.8381 107.885V111.675C78.8381 112.012 78.5657 112.284 78.2301 112.284C77.8945 112.284 77.6221 112.012 77.6221 111.675V107.885C77.6221 107.549 77.8945 107.276 78.2301 107.276ZM78.2301 114.857C78.5657 114.857 78.8381 115.129 78.8381 115.466V117.361C78.8381 117.697 78.5657 117.97 78.2301 117.97C77.8945 117.97 77.6221 117.697 77.6221 117.361V115.466C77.6221 115.129 77.8945 114.857 78.2301 114.857Z" fill="#676767"/>
<path fill-rule="evenodd" clip-rule="evenodd" d="M27.4618 45.7548C27.6474 45.4742 28.0247 45.3978 28.3045 45.5838L30.061 46.7513C30.3408 46.9373 30.4171 47.3154 30.2315 47.5956C30.0459 47.8762 29.6685 47.9526 29.3887 47.7666L27.6323 46.5991C27.3525 46.4131 27.2761 46.035 27.4618 45.7548ZM32.7311 49.2573C32.9168 48.9767 33.2941 48.9004 33.5739 49.0864L37.0868 51.4214C37.3666 51.6074 37.4429 51.9855 37.2573 52.2657C37.0717 52.5463 36.6943 52.6226 36.4145 52.4366L32.9016 50.1016C32.6218 49.9156 32.5455 49.5375 32.7311 49.2573ZM39.7569 53.9274C39.9426 53.6468 40.3199 53.5704 40.5998 53.7564L44.1124 56.0914C44.3925 56.2774 44.4687 56.6555 44.283 56.9357C44.0974 57.2163 43.72 57.2927 43.4403 57.1067L39.9274 54.7716C39.6476 54.5857 39.5713 54.2076 39.7569 53.9274ZM46.7827 58.5974C46.9684 58.3168 47.3457 58.2405 47.6254 58.4265L49.3817 59.594C49.6618 59.78 49.738 60.158 49.5524 60.4382C49.3667 60.7189 48.9894 60.7952 48.7097 60.6092L46.9534 59.4417C46.6733 59.2557 46.5971 58.8776 46.7827 58.5974Z" fill="#676767"/>
<path fill-rule="evenodd" clip-rule="evenodd" d="M59.7501 27.2715C60.0736 27.1825 60.4084 27.3733 60.4972 27.6978L61.0208 29.6098C61.1096 29.9342 60.9191 30.2693 60.5952 30.3584C60.2714 30.4474 59.937 30.2565 59.8478 29.9321L59.3245 28.0201C59.2358 27.6956 59.4263 27.3605 59.7501 27.2715ZM61.3208 33.0075C61.6442 32.9185 61.9791 33.1094 62.0678 33.4338L63.1148 37.2578C63.2036 37.5822 63.0131 37.9174 62.6896 38.0064C62.3657 38.0954 62.0309 37.9045 61.9422 37.5801L60.8952 33.7561C60.8064 33.4317 60.9969 33.0965 61.3208 33.0075ZM98.0899 31.5078C98.391 31.6572 98.5138 32.0226 98.3647 32.324L96.9675 35.1482C96.8187 35.4496 96.4539 35.5729 96.1528 35.4235C95.852 35.2741 95.7292 34.9087 95.8783 34.6073L97.2751 31.7831C97.4243 31.4817 97.7891 31.3584 98.0899 31.5078ZM63.4147 40.6556C63.7386 40.5666 64.073 40.7574 64.1622 41.0819L65.2092 44.9059C65.2979 45.2303 65.1074 45.5655 64.7836 45.6545C64.4597 45.7435 64.1253 45.5526 64.0365 45.2282L62.9891 41.4042C62.9004 41.0797 63.0909 40.7446 63.4147 40.6556ZM95.2959 37.1561C95.5966 37.3055 95.7199 37.671 95.5707 37.9724L94.8731 39.382L94.8719 39.3845L93.6827 41.8161C93.5351 42.1182 93.1707 42.2433 92.8692 42.095C92.5676 41.9472 92.4432 41.5822 92.5907 41.28L93.7812 38.846L93.7824 38.8435L94.4812 37.4314C94.6303 37.13 94.9951 37.0067 95.2959 37.1561ZM65.5091 48.3036C65.833 48.2146 66.1674 48.4055 66.2561 48.7299L66.7798 50.6418C66.8686 50.9663 66.6781 51.3013 66.3542 51.3907C66.0304 51.4796 65.696 51.2888 65.6072 50.9643L65.0835 49.0522C64.9947 48.7278 65.1852 48.3926 65.5091 48.3036ZM91.0233 45.8693C91.3248 46.0175 91.4497 46.3826 91.3017 46.6843L90.1113 49.1188C89.9633 49.4205 89.5993 49.5456 89.2978 49.3974C88.9962 49.2496 88.8714 48.8845 89.0193 48.5824L90.2098 46.1482C90.3577 45.8461 90.7217 45.7214 91.0233 45.8693ZM128.604 54.5028C128.78 54.7891 128.691 55.1643 128.406 55.3409L126.886 56.2798C126.6 56.4565 126.225 56.3675 126.049 56.0812C125.873 55.795 125.961 55.4197 126.247 55.2431L127.767 54.3038C128.053 54.1271 128.427 54.2165 128.604 54.5028ZM124.044 57.3198C124.22 57.6061 124.131 57.9813 123.846 58.158L120.806 60.0362C120.52 60.2128 120.145 60.1239 119.969 59.8376C119.793 59.5513 119.881 59.1761 120.167 58.9994L123.207 57.1212C123.493 56.9446 123.867 57.0335 124.044 57.3198ZM117.964 61.0762C118.14 61.3625 118.051 61.7377 117.766 61.9143L116.246 62.8536C115.96 63.0303 115.585 62.9409 115.409 62.6546C115.233 62.3683 115.321 61.9931 115.607 61.8165L117.127 60.8776C117.413 60.7009 117.787 60.7899 117.964 61.0762Z" fill="#676767"/>
<path d="M5.95287 119.156C7.00698 113.992 11.5416 110.285 16.8022 110.285H135.091C140.161 110.285 144.584 113.735 145.827 118.661L149.14 131.794C150.902 138.778 145.657 145.566 138.467 145.607L14.039 146.318C7.00548 146.359 1.71711 139.905 3.12652 133.001L5.95287 119.156Z" fill="white"/>
<path fill-rule="evenodd" clip-rule="evenodd" d="M135.091 111.807H16.8022C12.2636 111.807 8.35143 115.006 7.44198 119.461L4.61563 133.306C3.39967 139.262 7.96218 144.831 14.0303 144.796L138.458 144.085C144.661 144.049 149.186 138.193 147.666 132.167L144.353 119.034C143.281 114.785 139.466 111.807 135.091 111.807ZM16.8022 110.285C11.5416 110.285 7.00698 113.992 5.95287 119.156L3.12652 133.001C1.71711 139.905 7.00548 146.359 14.039 146.318L138.467 145.607C145.657 145.566 150.902 138.778 149.14 131.794L145.827 118.661C144.584 113.735 140.161 110.285 135.091 110.285H16.8022Z" fill="black"/>
<path d="M39.7083 117.17C39.7188 115.849 40.7966 114.786 42.1156 114.797L110.728 115.345C112.047 115.356 113.108 116.436 113.098 117.757L113.073 120.839C113.063 122.156 111.993 123.217 110.679 123.213L42.0633 123.05C40.7391 123.047 39.6698 121.964 39.6807 120.638L39.7083 117.17Z" fill="white"/>
<path fill-rule="evenodd" clip-rule="evenodd" d="M110.716 116.868L42.1034 116.32C41.6239 116.316 41.232 116.702 41.2279 117.183L41.2003 120.65C41.1967 121.132 41.5854 121.526 42.0669 121.527L110.683 121.691C111.16 121.692 111.55 121.306 111.553 120.827L111.578 117.745C111.582 117.265 111.196 116.872 110.716 116.868ZM42.1156 114.797C40.7966 114.786 39.7188 115.849 39.7083 117.17L39.6807 120.638C39.6698 121.964 40.7391 123.047 42.0633 123.05L110.679 123.213C111.993 123.217 113.063 122.156 113.073 120.839L113.098 117.757C113.108 116.436 112.047 115.356 110.728 115.345L42.1156 114.797Z" fill="black"/>
<path d="M49.7967 108.764C50.1996 108.479 50.6811 108.326 51.1744 108.326H101.803C102.322 108.326 102.827 108.496 103.241 108.809L111.516 115.062C113.346 116.445 112.37 119.366 110.078 119.366H42.3325C40.0022 119.366 39.0513 116.364 40.9547 115.018L49.7967 108.764Z" fill="white"/>
<path fill-rule="evenodd" clip-rule="evenodd" d="M101.803 109.849H51.1744C50.9948 109.849 50.8197 109.905 50.6734 110.008L41.8315 116.262C41.1391 116.752 41.4849 117.843 42.3325 117.843H110.078C110.912 117.843 111.266 116.781 110.601 116.278L102.326 110.024C102.175 109.911 101.992 109.849 101.803 109.849ZM51.1744 108.326C50.6811 108.326 50.1996 108.479 49.7967 108.764L40.9547 115.018C39.0513 116.364 40.0022 119.366 42.3325 119.366H110.078C112.37 119.366 113.346 116.445 111.516 115.062L103.241 108.809C102.827 108.496 102.322 108.326 101.803 108.326H51.1744Z" fill="black"/>
<path d="M2.78027 135.952C2.78027 129.824 7.73823 124.857 13.8542 124.857H138.49C144.606 124.857 149.564 129.824 149.564 135.952V148.351C149.564 154.479 144.606 159.446 138.49 159.446H13.8542C7.73823 159.446 2.78027 154.479 2.78027 148.351V135.952Z" fill="white"/>
<path fill-rule="evenodd" clip-rule="evenodd" d="M138.49 126.433H13.8542C8.60682 126.433 4.35301 130.694 4.35301 135.952V148.351C4.35301 153.609 8.60682 157.871 13.8542 157.871H138.49C143.737 157.871 147.991 153.609 147.991 148.351V135.952C147.991 130.694 143.737 126.433 138.49 126.433ZM13.8542 124.857C7.73823 124.857 2.78027 129.824 2.78027 135.952V148.351C2.78027 154.479 7.73823 159.446 13.8542 159.446H138.49C144.606 159.446 149.564 154.479 149.564 148.351V135.952C149.564 129.824 144.606 124.857 138.49 124.857H13.8542Z" fill="black"/>
<path d="M136.537 118.114C136.537 120.397 131.774 122.247 125.897 122.247C120.021 122.247 115.258 120.397 115.258 118.114C115.258 116.691 115.258 112.675 115.258 112.675C116.96 112.226 123.358 110.826 125.572 110.826C127.785 110.826 134.835 112.226 136.537 112.675C136.537 112.675 136.537 116.691 136.537 118.114Z" fill="white"/>
<path fill-rule="evenodd" clip-rule="evenodd" d="M116.778 113.871C117.334 113.742 118.01 113.592 118.743 113.437H132.864C133.678 113.597 134.42 113.75 135.017 113.882V118.114C135.017 118.124 135.017 118.161 134.977 118.236C134.933 118.318 134.845 118.443 134.674 118.6C134.323 118.922 133.731 119.283 132.871 119.617C131.161 120.281 128.697 120.724 125.897 120.724C123.099 120.724 120.633 120.281 118.924 119.617C118.064 119.283 117.472 118.922 117.121 118.6C116.95 118.443 116.861 118.318 116.818 118.236C116.779 118.161 116.778 118.124 116.778 118.114V113.871ZM115.258 112.675V118.114C115.258 120.397 120.021 122.247 125.897 122.247C131.774 122.247 136.537 120.397 136.537 118.114V112.675C135.913 112.511 134.571 112.218 133.011 111.914C130.317 111.388 126.974 110.826 125.572 110.826C124.17 110.826 121.089 111.388 118.585 111.914C117.137 112.218 115.882 112.511 115.258 112.675Z" fill="black"/>
<path d="M40.5617 116.67C40.5617 118.67 38.2773 120.292 35.4591 120.292C32.641 120.292 30.3564 118.67 30.3564 116.67C30.3564 115.423 30.3564 111.905 30.3564 111.905C31.1729 111.511 34.2414 110.285 35.3029 110.285C36.3644 110.285 39.7453 111.511 40.5617 111.905C40.5617 111.905 40.5617 115.423 40.5617 116.67Z" fill="white"/>
<path fill-rule="evenodd" clip-rule="evenodd" d="M31.8764 112.904C32.0617 112.829 32.2649 112.749 32.479 112.666H38.3441C38.5954 112.756 38.8313 112.843 39.0417 112.923V116.67C39.0417 117.045 38.8301 117.533 38.1887 117.988C37.5509 118.441 36.5907 118.769 35.4591 118.769C34.3276 118.769 33.3673 118.441 32.7296 117.988C32.0882 117.533 31.8764 117.045 31.8764 116.67V112.904ZM30.3564 111.905V116.67C30.3564 118.67 32.641 120.292 35.4591 120.292C38.2773 120.292 40.5617 118.67 40.5617 116.67V111.905C40.2273 111.743 39.4628 111.443 38.6035 111.143C37.3648 110.712 35.9296 110.285 35.3029 110.285C34.6762 110.285 33.35 110.712 32.2006 111.143C31.4031 111.443 30.6909 111.743 30.3564 111.905Z" fill="black"/>
<path d="M136.537 112.894C136.537 115.177 131.774 117.027 125.897 117.027C120.021 117.027 115.258 115.177 115.258 112.894C115.258 110.611 120.021 108.761 125.897 108.761C131.774 108.761 136.537 110.611 136.537 112.894Z" fill="white"/>
<path fill-rule="evenodd" clip-rule="evenodd" d="M134.977 113.016C135.017 112.941 135.017 112.904 135.017 112.894C135.017 112.883 135.017 112.847 134.977 112.772C134.933 112.69 134.845 112.565 134.674 112.407C134.323 112.085 133.731 111.725 132.871 111.391C131.161 110.727 128.697 110.283 125.897 110.283C123.099 110.283 120.633 110.727 118.924 111.391C118.064 111.725 117.472 112.085 117.121 112.407C116.95 112.565 116.861 112.69 116.818 112.772C116.779 112.847 116.778 112.883 116.778 112.894C116.778 112.904 116.779 112.941 116.818 113.016C116.861 113.098 116.95 113.223 117.121 113.38C117.472 113.702 118.064 114.063 118.924 114.397C120.633 115.061 123.099 115.504 125.897 115.504C128.697 115.504 131.161 115.061 132.871 114.397C133.731 114.063 134.323 113.702 134.674 113.38C134.845 113.223 134.933 113.098 134.977 113.016ZM125.897 117.027C131.774 117.027 136.537 115.177 136.537 112.894C136.537 110.611 131.774 108.761 125.897 108.761C120.021 108.761 115.258 110.611 115.258 112.894C115.258 115.177 120.021 117.027 125.897 117.027Z" fill="black"/>
<path d="M30.9617 117.625C29.2136 117.19 24.9801 116.128 24.2258 115.854C23.7775 115.69 23.4436 115.586 23.1554 115.495C22.292 115.225 21.7803 114.39 21.7803 113.484V110.197C21.7803 110.197 21.726 106.37 26.6659 107.784C27.5344 108.033 38.174 110.939 38.174 110.939L31.7169 112.896V117.03C31.7169 117.428 31.3471 117.72 30.9617 117.625Z" fill="white"/>
<path fill-rule="evenodd" clip-rule="evenodd" d="M21.7803 110.197C21.7803 110.197 21.726 106.37 26.6659 107.784C27.2467 107.951 32.198 109.305 35.4141 110.185C37.0069 110.62 38.174 110.939 38.174 110.939L31.7169 112.896V117.03C31.7169 117.428 31.3471 117.72 30.9617 117.625C29.2136 117.19 24.9801 116.128 24.2258 115.854C23.7775 115.69 23.4436 115.586 23.1554 115.495C22.292 115.225 21.7803 114.39 21.7803 113.484V110.197ZM30.197 113.272L23.3002 111.399V113.484C23.3002 113.654 23.3489 113.793 23.41 113.885C23.4668 113.971 23.5331 114.018 23.6092 114.042C23.9018 114.133 24.2629 114.247 24.7452 114.422C25.0343 114.528 26.1858 114.839 27.6004 115.205C28.4801 115.432 29.412 115.667 30.197 115.864V113.272ZM30.3215 111.728L32.6769 111.014C32.5666 110.984 32.456 110.954 32.3452 110.924C29.585 110.168 26.6938 109.376 26.2483 109.248C25.1756 108.941 24.5256 108.964 24.1614 109.048C23.8284 109.125 23.6695 109.268 23.5717 109.394C23.4742 109.52 23.4052 109.676 23.3605 109.838L30.3215 111.728Z" fill="black"/>
<path d="M40.5617 111.589C40.5617 113.151 38.2773 114.417 35.4591 114.417C32.641 114.417 30.3564 113.151 30.3564 111.589C30.3564 110.027 32.641 108.761 35.4591 108.761C38.2773 108.761 40.5617 110.027 40.5617 111.589Z" fill="white"/>
<path fill-rule="evenodd" clip-rule="evenodd" d="M39.0328 111.63C39.0413 111.607 39.0417 111.594 39.0417 111.589C39.0417 111.583 39.0413 111.57 39.0328 111.547C39.023 111.521 39.0016 111.476 38.9533 111.413C38.8528 111.281 38.6586 111.103 38.3315 110.922C37.6732 110.556 36.6606 110.283 35.4591 110.283C34.2576 110.283 33.245 110.556 32.5867 110.922C32.2596 111.103 32.0655 111.281 31.9649 111.413C31.9167 111.476 31.8951 111.521 31.8856 111.547C31.8769 111.57 31.8764 111.583 31.8764 111.589C31.8764 111.594 31.8769 111.607 31.8856 111.63C31.8951 111.656 31.9167 111.701 31.9649 111.765C32.0655 111.896 32.2596 112.074 32.5867 112.256C33.245 112.621 34.2576 112.894 35.4591 112.894C36.6606 112.894 37.6732 112.621 38.3315 112.256C38.6586 112.074 38.8528 111.896 38.9533 111.765C39.0016 111.701 39.023 111.656 39.0328 111.63ZM35.4591 114.417C38.2773 114.417 40.5617 113.151 40.5617 111.589C40.5617 110.027 38.2773 108.761 35.4591 108.761C32.641 108.761 30.3564 110.027 30.3564 111.589C30.3564 113.151 32.641 114.417 35.4591 114.417Z" fill="black"/>
<path d="M6.87012 154.807L41.4559 126.381H79.5317L40.5038 157.825C33.1003 157.878 15.1199 157.952 13.2161 157.825C10.8364 157.666 8.61528 156.713 6.87012 154.807Z" fill="#E8E8E8"/>
<path d="M54.0537 157.871L93.1404 126.381H105.326L66.3969 157.871C59.0117 157.925 64.9726 157.871 64.9726 157.871H54.0537Z" fill="#E8E8E8"/>
<path fill-rule="evenodd" clip-rule="evenodd" d="M84.0299 54.0398C91.2243 54.0398 97.2501 59.0562 98.8179 65.7908C98.4461 65.7556 98.0693 65.7376 97.6883 65.7376C95.9748 65.7376 94.3439 66.1025 92.8706 66.7602C92.3835 66.9775 92.1644 67.5497 92.3812 68.0381C92.598 68.5264 93.1687 68.7461 93.6558 68.5287C94.8867 67.9793 96.2506 67.6735 97.6883 67.6735C103.17 67.6735 107.615 72.1296 107.615 77.6264C107.615 80.9966 105.9 84.014 103.321 85.8263C103.323 85.8266 103.324 85.8269 103.325 85.8273C102.859 86.1609 102.556 86.7088 102.556 87.3282C102.556 88.3449 103.374 89.169 104.383 89.169C104.819 89.169 105.141 89.0329 105.533 88.7593C108.821 86.4594 110.874 82.7601 110.874 78.7397C110.874 74.6646 108.482 70.7893 105.508 68.6191C104.544 67.9162 103.568 67.2291 102.468 66.7429C100.516 58.4555 92.4419 52.3737 84.0299 52.3737C77.2929 52.3737 71.4795 56.3387 68.7844 62.0682C68.7588 62.1226 68.6971 62.1498 68.6399 62.1318C67.3636 61.7306 66.0058 61.5143 64.5976 61.5143C57.7783 61.5143 52.1405 66.5857 51.2309 73.1722C51.1321 73.6769 51.5306 74.1697 52.0487 74.1697C52.4968 74.1697 52.8622 73.8152 52.8813 73.3707C53.6927 67.6109 58.6291 63.1804 64.5976 63.1804C65.8352 63.1804 67.0255 63.3704 68.1427 63.7216C68.9925 63.9888 69.9079 63.5857 70.2873 62.779C72.7184 57.6107 77.9599 54.0398 84.0299 54.0398ZM83.4857 73.289C83.4857 72.4503 83.0868 72.1827 81.8409 72.1827H60.2023C58.982 72.1827 58.5575 72.4503 58.5575 73.289V74.1423H83.4877V73.289H83.4857ZM89.8372 72.2076C91.0698 72.2076 91.4658 72.3413 91.4658 73.3265V74.1339H85.437V73.3206C85.437 72.3354 85.831 72.2014 87.0635 72.2014L89.8372 72.2076ZM94.2631 77.0096H55.7668C55.1999 77.0096 54.8307 77.1142 54.5796 77.249C54.3399 77.3776 54.1134 77.5837 53.9036 77.9516C53.4394 78.7658 53.1268 80.2447 53.1268 82.7486C53.1268 85.2532 53.4397 86.7239 53.9019 87.5304C54.1102 87.894 54.3354 88.0978 54.5749 88.2254C54.8266 88.3594 55.1974 88.4634 55.7668 88.4634H94.2631C94.8299 88.4634 95.1996 88.3589 95.451 88.2241C95.6912 88.0953 95.9176 87.8894 96.1272 87.5229C96.5906 86.712 96.903 85.2395 96.903 82.7486C96.903 80.2542 96.596 78.7742 96.1328 77.9564C95.9238 77.5872 95.6976 77.3802 95.4578 77.2509C95.2065 77.1155 94.8354 77.0096 94.2631 77.0096ZM55.7668 75.3435H94.2631C95.2641 75.3435 96.2749 75.6168 96.9917 76.3455C99.2163 78.5429 99.7539 81.2948 99.7539 84.3645C99.7539 89.4641 98.5321 91.7454 95.4523 91.7454H56.9561C53.7811 91.7454 52.5257 88.765 52.1471 87.6705C51.7123 86.4132 51.4652 84.842 51.4652 82.7486C51.4652 77.6248 52.687 75.3435 55.7668 75.3435ZM72.0578 87.0699C73.5134 87.0699 74.2339 86.3698 74.2339 84.9595H74.236V78.5077H72.2838V84.6513C72.2838 85.2085 72.0843 85.3983 71.4919 85.3983H70.238C69.6477 85.3983 69.4461 85.2085 69.4461 84.6513V78.5077H67.494V84.9595C67.494 86.3698 68.2146 87.0699 69.6579 87.0699H72.0578ZM82.3142 84.9595C82.3142 86.3699 81.5935 87.07 80.1503 87.07H77.5712C76.1279 87.07 75.4073 86.3699 75.4073 84.9718C75.4073 84.884 75.4073 84.8554 75.4113 84.835H77.3655C77.4083 85.2493 77.6261 85.3983 78.1493 85.3983H79.5681C80.1584 85.3983 80.36 85.2085 80.36 84.6513V84.437C80.36 83.9737 80.1951 83.8553 79.4256 83.7369L77.4632 83.4533C75.9976 83.2389 75.4398 82.7185 75.4398 81.5081V80.4999C75.4398 79.0895 76.1605 78.3894 77.6159 78.3894H80.0994C81.5549 78.3894 82.2755 79.0895 82.2755 80.4876C82.2755 80.5631 82.2755 80.5917 82.2714 80.6141H80.3152C80.2704 80.208 80.0526 80.061 79.5315 80.061H78.2063C77.6037 80.061 77.39 80.2631 77.39 80.8081V80.9856C77.39 81.4592 77.5324 81.5551 78.3366 81.6734L80.2989 81.9571C81.7768 82.1715 82.3101 82.6919 82.3101 83.9247V84.9554L82.3142 84.9595ZM88.0614 83.9628C88.1396 83.9628 88.2157 83.9607 88.2897 83.9567V84.4469V84.6616C88.2897 85.2196 88.0879 85.4097 87.4967 85.4097L86.2328 85.4097C85.7089 85.4097 85.4907 85.2605 85.4479 84.8456H83.4908C83.4868 84.866 83.4868 84.8946 83.4868 84.9825C83.4868 86.3827 84.2084 87.0838 85.6538 87.0838L88.0797 87.0838C89.5251 87.0838 90.2468 86.3827 90.2468 84.9702V81.6008H90.2428V78.5088H88.2877L88.2877 81.5406C88.2877 82.0986 88.0879 82.2887 87.4947 82.2887H86.2389C85.6476 82.2887 85.4459 82.0986 85.4459 81.5406V78.5088H83.4908L83.4908 81.8492C83.4908 83.2617 84.2124 83.9628 85.6578 83.9628H88.0614ZM65.4602 82.5388C66.0628 82.1591 66.2888 81.7203 66.2888 81.057V80.6182C66.2888 79.2078 65.5682 78.5077 64.1249 78.5077H59.7849V87.0699H64.3142C65.7574 87.0699 66.4781 86.3698 66.4781 84.9595V84.2369C66.4781 83.3593 66.1951 82.849 65.4602 82.5408V82.5388ZM61.7106 80.1202H63.5203C64.1127 80.1202 64.3122 80.31 64.3122 80.8672V81.0815C64.3122 81.6142 64.1229 81.7938 63.5203 81.7938H61.7106V80.1222V80.1202ZM64.5015 84.5921C64.5015 85.1493 64.2999 85.3391 63.7096 85.3391H61.7106V83.4185H63.7096C64.2999 83.4185 64.5015 83.6083 64.5015 84.1655V84.5921Z" fill="#E5E5E5"/>
<path d="M63.0146 14.2061L52.9679 20.0492V8.36303L63.0146 14.2061Z" fill="white"/>
<path d="M67.3187 8.60401C67.1889 8.11175 66.9331 7.66246 66.5767 7.30114C66.2204 6.93981 65.7761 6.67914 65.2883 6.54522C63.498 6.05847 56.317 6.05847 56.317 6.05847C56.317 6.05847 49.1359 6.05847 47.3447 6.54522C46.8571 6.67937 46.4131 6.94014 46.0569 7.30144C45.7008 7.66274 45.445 8.11191 45.3153 8.60401C44.835 10.4199 44.835 14.2079 44.835 14.2079C44.835 14.2079 44.835 17.9958 45.3153 19.8117C45.445 20.304 45.7009 20.7533 46.0572 21.1146C46.4136 21.4759 46.8579 21.7366 47.3457 21.8705C49.1359 22.3573 56.317 22.3573 56.317 22.3573C56.317 22.3573 63.498 22.3573 65.2892 21.8705C65.7771 21.7367 66.2214 21.476 66.5778 21.1147C66.9342 20.7534 67.19 20.304 67.3196 19.8117C67.799 17.9958 67.799 14.2079 67.799 14.2079C67.799 14.2079 67.799 10.4199 67.3187 8.60401ZM53.9679 17.6469V10.7688L59.9702 14.2079L53.9679 17.6469Z" fill="#FF0000"/>
<g clip-path="url(#clip0_1119_44390)">
<path d="M115.066 14.0498C114.959 13.9443 114.83 13.8906 114.676 13.8906C114.521 13.8906 114.389 13.9443 114.285 14.0498C114.182 14.1553 114.131 14.2906 114.131 14.4517V17.1435C113.6 16.7018 112.987 16.4791 112.29 16.4791C111.479 16.4791 110.786 16.7735 110.212 17.3644C109.638 17.9532 109.353 18.6656 109.353 19.5011C109.353 20.3366 109.64 21.0469 110.212 21.6378C110.786 22.2266 111.477 22.5231 112.29 22.5231C113.102 22.5231 113.786 22.2287 114.367 21.6378C114.942 21.0548 115.227 20.3426 115.227 19.5011V14.4517C115.227 14.2906 115.174 14.1553 115.066 14.0498ZM113.987 20.2293V20.2333C113.891 20.4621 113.76 20.663 113.594 20.8341C113.428 21.0072 113.233 21.1425 113.01 21.2439C112.786 21.3454 112.547 21.3952 112.292 21.3952C112.036 21.3952 111.792 21.3454 111.567 21.2439C111.343 21.1425 111.149 21.0072 110.985 20.8361C110.821 20.665 110.691 20.4642 110.595 20.2353C110.499 20.0045 110.45 19.7599 110.45 19.5011C110.45 19.2423 110.499 18.9977 110.595 18.7668C110.691 18.536 110.822 18.3372 110.985 18.166C111.149 17.9949 111.345 17.8597 111.567 17.7582C111.792 17.6568 112.032 17.607 112.292 17.607C112.551 17.607 112.786 17.6568 113.01 17.7582C113.235 17.8597 113.428 17.9949 113.594 18.1681C113.76 18.3412 113.891 18.5421 113.987 18.7689C114.082 18.9977 114.131 19.2405 114.131 19.4991C114.131 19.7576 114.082 20.0025 113.987 20.2293Z" fill="#2496ED"/>
<path d="M139.332 18.3413C139.19 17.983 138.972 17.6589 138.688 17.3683L138.684 17.3663C138.104 16.7774 137.41 16.481 136.606 16.481C135.802 16.481 135.102 16.7754 134.528 17.3663C133.954 17.9551 133.669 18.6675 133.669 19.5029C133.669 20.3384 133.956 21.0488 134.528 21.6396C135.102 22.2285 135.794 22.5249 136.606 22.5249C137.344 22.5249 137.982 22.2803 138.526 21.7909C138.631 21.6795 138.684 21.5443 138.684 21.3869C138.684 21.2296 138.633 21.0905 138.529 20.985C138.426 20.8795 138.295 20.8258 138.139 20.8258C138.002 20.8299 137.881 20.8756 137.778 20.9672C137.614 21.1103 137.436 21.2199 137.243 21.2916C137.049 21.3633 136.838 21.3991 136.608 21.3991C136.405 21.3991 136.21 21.3673 136.024 21.3017C135.839 21.2361 135.665 21.1464 135.511 21.0292C135.354 20.9117 135.22 20.7726 135.105 20.6074C134.989 20.4442 134.901 20.2631 134.843 20.0643H138.997C139.151 20.0643 139.28 20.0106 139.387 19.9051C139.495 19.7996 139.547 19.6644 139.547 19.5032C139.547 19.0854 139.475 18.6975 139.333 18.3413H139.332ZM134.839 18.9421C134.895 18.745 134.981 18.564 135.096 18.399C135.212 18.2358 135.348 18.0946 135.505 17.9772C135.663 17.8597 135.835 17.7702 136.024 17.7046C136.213 17.639 136.406 17.6072 136.606 17.6072C136.806 17.6072 136.999 17.639 137.186 17.7046C137.373 17.7702 137.545 17.8597 137.699 17.9772C137.856 18.0946 137.992 18.2337 138.108 18.399C138.225 18.5622 138.313 18.7432 138.373 18.9421H134.838H134.839Z" fill="#2496ED"/>
<path d="M144.437 16.8591C144.339 16.7617 144.216 16.6859 144.068 16.6302C143.919 16.5746 143.757 16.5367 143.579 16.5148C143.404 16.493 143.238 16.483 143.084 16.483C142.734 16.483 142.406 16.5407 142.097 16.6562C141.789 16.7716 141.504 16.9366 141.242 17.1515V17.0441C141.242 16.889 141.189 16.7576 141.082 16.6483C140.974 16.5389 140.847 16.4833 140.697 16.4833C140.547 16.4833 140.414 16.5389 140.307 16.6483C140.199 16.7576 140.146 16.8911 140.146 17.0441V21.9643C140.146 22.1194 140.199 22.2509 140.307 22.3602C140.414 22.4695 140.543 22.5252 140.697 22.5252C140.852 22.5252 140.976 22.4695 141.082 22.3602C141.189 22.2509 141.242 22.1174 141.242 21.9643V19.5032C141.242 19.2406 141.291 18.994 141.386 18.7631C141.482 18.5323 141.613 18.3334 141.779 18.1623C141.945 17.9912 142.14 17.8559 142.363 17.7583C142.587 17.6589 142.826 17.6091 143.082 17.6091C143.338 17.6091 143.579 17.6549 143.8 17.7444C143.888 17.7843 143.964 17.8041 144.031 17.8041C144.107 17.8041 144.179 17.7901 144.246 17.7604C144.312 17.7306 144.371 17.6907 144.419 17.6391C144.468 17.5875 144.507 17.5277 144.536 17.458C144.566 17.3904 144.581 17.3167 144.581 17.2371C144.581 17.082 144.533 16.9567 144.435 16.8591H144.437H144.437Z" fill="#2496ED"/>
<path d="M121.507 18.3433C121.364 17.9871 121.151 17.6609 120.864 17.3665C120.284 16.7777 119.591 16.4812 118.786 16.4812C117.982 16.4812 117.283 16.7756 116.709 17.3665C116.134 17.9553 115.85 18.6677 115.85 19.5032C115.85 20.3387 116.137 21.049 116.709 21.6399C117.283 22.2287 117.974 22.5252 118.786 22.5252C119.599 22.5252 120.282 22.2308 120.864 21.6399C121.438 21.0569 121.724 20.3448 121.724 19.5032C121.72 19.0855 121.647 18.6995 121.507 18.3433H121.507ZM120.483 20.2293V20.2334C120.388 20.4622 120.257 20.6631 120.091 20.8342C119.925 21.0073 119.73 21.1426 119.507 21.244C119.285 21.3455 119.044 21.3953 118.789 21.3953C118.533 21.3953 118.289 21.3455 118.064 21.244C117.84 21.1426 117.646 21.0073 117.482 20.8362C117.318 20.6651 117.187 20.4642 117.092 20.2354C116.996 20.0046 116.947 19.76 116.947 19.5012C116.947 19.2424 116.996 18.9978 117.092 18.7669C117.187 18.5361 117.318 18.3372 117.482 18.1661C117.646 17.995 117.842 17.8598 118.064 17.7583C118.289 17.6569 118.529 17.607 118.789 17.607C119.048 17.607 119.283 17.6569 119.507 17.7583C119.732 17.8598 119.925 17.995 120.091 18.1682C120.257 18.3413 120.388 18.5422 120.483 18.7689C120.579 18.9978 120.628 19.2406 120.628 19.4991C120.628 19.7577 120.579 20.0025 120.483 20.2293Z" fill="#2496ED"/>
<path d="M133.255 17.0421C133.255 16.9666 133.239 16.8949 133.21 16.8273C133.18 16.7596 133.141 16.6981 133.093 16.6462C133.044 16.5946 132.985 16.5527 132.919 16.525C132.853 16.4972 132.78 16.4812 132.704 16.4812C132.595 16.4812 132.497 16.5092 132.411 16.5669L129.275 18.6659V14.4559C129.275 14.2967 129.222 14.1635 129.115 14.0539C129.008 13.9446 128.881 13.8889 128.73 13.8889C128.58 13.8889 128.447 13.9446 128.34 14.0539C128.232 14.1633 128.18 14.2967 128.18 14.4559V21.9564C128.18 22.1115 128.232 22.245 128.34 22.3564C128.447 22.4677 128.576 22.5234 128.73 22.5234C128.885 22.5234 129.01 22.4677 129.115 22.3564C129.222 22.245 129.275 22.1115 129.275 21.9564V20.0086L129.916 19.5769L132.339 22.3762C132.437 22.4736 132.56 22.5214 132.706 22.5214C132.782 22.5214 132.855 22.5074 132.921 22.4776C132.987 22.4497 133.046 22.408 133.095 22.3564C133.143 22.3047 133.182 22.245 133.212 22.1753C133.241 22.1077 133.257 22.034 133.257 21.9605C133.257 21.8133 133.206 21.6818 133.104 21.5666L130.849 18.9545L133.045 17.4862C133.186 17.3888 133.254 17.2396 133.254 17.0385V17.0426L133.255 17.0421Z" fill="#2496ED"/>
<path d="M123.969 18.1623C124.137 17.9912 124.333 17.8559 124.557 17.7583C124.782 17.6589 125.02 17.6091 125.276 17.6091C125.506 17.6091 125.719 17.649 125.916 17.7283C126.112 17.8079 126.299 17.9253 126.477 18.0784C126.582 18.1639 126.701 18.2076 126.834 18.2076C126.992 18.2076 127.121 18.1539 127.225 18.0464C127.328 17.9389 127.379 17.8036 127.379 17.6424C127.379 17.4812 127.316 17.332 127.189 17.2168C126.65 16.7274 126.012 16.4825 125.276 16.4825C124.465 16.4825 123.772 16.777 123.198 17.3678C122.624 17.9567 122.339 18.6691 122.339 19.5045C122.339 20.34 122.626 21.0504 123.198 21.6412C123.772 22.2301 124.463 22.5265 125.276 22.5265C126.01 22.5265 126.649 22.2819 127.189 21.7923C127.305 21.673 127.363 21.5357 127.363 21.3766C127.363 21.2174 127.312 21.0801 127.209 20.9746C127.106 20.8691 126.975 20.8155 126.819 20.8155C126.686 20.8195 126.571 20.8592 126.473 20.9347C126.297 21.0898 126.114 21.2052 125.917 21.2828C125.721 21.3603 125.508 21.3982 125.276 21.3982C125.02 21.3982 124.782 21.3484 124.557 21.249C124.333 21.1496 124.138 21.0143 123.969 20.8452C123.802 20.6761 123.669 20.4732 123.573 20.2444C123.477 20.0136 123.428 19.7669 123.428 19.5043C123.428 19.2417 123.477 18.995 123.573 18.7642C123.669 18.5333 123.801 18.3345 123.969 18.1634V18.1614L123.969 18.1623Z" fill="#2496ED"/>
<g clip-path="url(#clip1_1119_44390)">
<path d="M98.5619 16.9901H100.324C100.365 16.9901 100.404 16.9738 100.433 16.9448C100.462 16.9158 100.478 16.8764 100.479 16.8352V15.2546C100.479 15.2132 100.462 15.1736 100.433 15.1444C100.404 15.1152 100.365 15.0988 100.324 15.0988H98.5619C98.5211 15.0988 98.482 15.1151 98.4532 15.1442C98.4243 15.1732 98.4081 15.2126 98.4081 15.2537V16.8352C98.4081 16.9206 98.4771 16.9901 98.5619 16.9901ZM96.1056 12.4418H97.8668C97.9078 12.4418 97.9471 12.4254 97.9761 12.3961C98.0051 12.3669 98.0214 12.3273 98.0214 12.286V10.7045C98.0212 10.6633 98.0048 10.6239 97.9758 10.5949C97.9469 10.5659 97.9076 10.5496 97.8668 10.5496H96.1056C96.0648 10.5496 96.0257 10.5659 95.9968 10.5949C95.968 10.624 95.9517 10.6634 95.9517 10.7045V12.286C95.9517 12.3714 96.0199 12.4418 96.1056 12.4418ZM96.1056 14.716H97.8668C97.9077 14.7157 97.9469 14.6993 97.9759 14.6701C98.0049 14.6409 98.0212 14.6014 98.0214 14.5602V12.9795C98.0212 12.9384 98.0048 12.899 97.9758 12.8699C97.9469 12.8409 97.9076 12.8246 97.8668 12.8246H96.1056C96.0648 12.8246 96.0257 12.8409 95.9968 12.87C95.968 12.899 95.9517 12.9384 95.9517 12.9795V14.5602C95.9517 14.6456 96.0199 14.7151 96.1056 14.716ZM93.6692 14.716H95.432C95.4728 14.7155 95.5117 14.6989 95.5403 14.6697C95.569 14.6406 95.585 14.6012 95.585 14.5602V12.9795C95.585 12.9384 95.5688 12.899 95.54 12.87C95.5111 12.8409 95.472 12.8246 95.4312 12.8246H93.67C93.6292 12.8246 93.5901 12.8409 93.5612 12.87C93.5324 12.899 93.5162 12.9384 93.5162 12.9795V14.5602C93.5162 14.6456 93.5852 14.7151 93.67 14.716M91.2053 14.716H92.9674C93.0082 14.7157 93.0474 14.6992 93.0762 14.67C93.105 14.6408 93.1212 14.6013 93.1212 14.5602V12.9795C93.1212 12.9384 93.105 12.899 93.0761 12.87C93.0473 12.8409 93.0082 12.8246 92.9674 12.8246H91.2053C91.1645 12.8246 91.1253 12.8409 91.0963 12.8699C91.0673 12.899 91.0509 12.9384 91.0507 12.9795V14.5602C91.0507 14.6456 91.1205 14.7151 91.2053 14.716ZM96.1056 16.9901H97.8668C97.9076 16.9901 97.9469 16.9738 97.9758 16.9448C98.0048 16.9158 98.0212 16.8764 98.0214 16.8352V15.2546C98.0214 15.2132 98.0051 15.1736 97.9761 15.1444C97.9471 15.1152 97.9078 15.0988 97.8668 15.0988H96.1056C96.0648 15.0988 96.0257 15.1151 95.9968 15.1442C95.968 15.1732 95.9517 15.2126 95.9517 15.2537V16.8352C95.9517 16.9206 96.0199 16.9901 96.1056 16.9901ZM93.6692 16.9901H95.432C95.4727 16.9899 95.5116 16.9735 95.5403 16.9445C95.5689 16.9154 95.585 16.8761 95.585 16.8352V15.2546C95.5852 15.2342 95.5813 15.214 95.5737 15.1952C95.566 15.1764 95.5548 15.1592 95.5406 15.1447C95.5264 15.1303 95.5095 15.1188 95.4908 15.1109C95.4722 15.103 95.4522 15.0989 95.432 15.0988H93.6692C93.6285 15.099 93.5896 15.1154 93.5609 15.1444C93.5323 15.1735 93.5162 15.2128 93.5162 15.2537V16.8352C93.5162 16.9206 93.5852 16.9901 93.67 16.9901M91.2053 16.9901H92.9674C93.0082 16.9901 93.0473 16.9738 93.0761 16.9448C93.105 16.9157 93.1212 16.8763 93.1212 16.8352V15.2546C93.1213 15.2342 93.1174 15.214 93.1098 15.1952C93.1022 15.1764 93.0909 15.1592 93.0767 15.1447C93.0625 15.1303 93.0456 15.1188 93.027 15.1109C93.0084 15.103 92.9884 15.0989 92.9682 15.0988H91.2053C91.1643 15.0988 91.125 15.1152 91.096 15.1444C91.067 15.1736 91.0507 15.2132 91.0507 15.2546V16.8352C91.0507 16.9206 91.1205 16.9901 91.2053 16.9901ZM88.7773 16.9901H90.5401C90.5808 16.9899 90.6197 16.9735 90.6484 16.9445C90.677 16.9154 90.6931 16.8761 90.6931 16.8352V15.2546C90.6932 15.2342 90.6894 15.214 90.6817 15.1952C90.6741 15.1764 90.6629 15.1592 90.6487 15.1447C90.6344 15.1303 90.6175 15.1188 90.5989 15.1109C90.5803 15.103 90.5603 15.0989 90.5401 15.0988H88.7773C88.7366 15.099 88.6977 15.1154 88.669 15.1444C88.6404 15.1735 88.6243 15.2128 88.6243 15.2537V16.8352C88.6243 16.9206 88.6916 16.9901 88.7773 16.9901ZM106.694 15.995C106.64 15.9523 106.136 15.5678 105.07 15.5678C104.788 15.5687 104.507 15.593 104.23 15.6407C104.023 14.2167 102.855 13.5215 102.803 13.4913L102.517 13.3246L102.329 13.5986C102.093 13.9654 101.921 14.3709 101.82 14.7964C101.629 15.6089 101.745 16.3728 102.155 17.0253C101.66 17.3034 100.866 17.3713 100.705 17.3771H87.5591C87.394 17.3774 87.2358 17.4434 87.1189 17.5608C87.002 17.6782 86.9361 17.8374 86.9354 18.0037C86.92 19.1637 87.115 20.3167 87.5108 21.4062C87.964 22.6023 88.6376 23.4835 89.5148 24.0229C90.496 24.6286 92.0926 24.9753 93.9012 24.9753C94.7186 24.9778 95.5335 24.9033 96.3376 24.7525C97.4542 24.5459 98.5287 24.1526 99.5165 23.589C100.331 23.1141 101.063 22.5102 101.687 21.7999C102.728 20.6121 103.348 19.2895 103.81 18.1143H103.994C105.134 18.1143 105.835 17.6544 106.222 17.2691C106.479 17.0237 106.679 16.7246 106.81 16.3929L106.891 16.1517L106.694 15.995Z" fill="#2496ED"/>
</g>
</g>
<path d="M143.363 44.6128H145.877L140.357 51.1571L146.806 60.0345H141.745L137.782 54.6397L133.246 60.0345H130.731L136.58 53.035L130.403 44.6128H135.59L139.17 49.5409L143.363 44.6128ZM142.483 58.498H143.877L134.858 46.0924H133.36L142.483 58.498Z" fill="#E5E5E5"/>
<g clip-path="url(#clip2_1119_44390)">
<path d="M13.2907 29.1856C13.2907 29.5184 13.3264 29.7872 13.3889 29.984C13.4604 30.1819 13.5497 30.3978 13.6747 30.6317C13.7194 30.7025 13.7372 30.7745 13.7372 30.8375C13.7372 30.9274 13.6836 31.0174 13.5675 31.1074L13.006 31.4841C12.9382 31.5334 12.8574 31.5615 12.7739 31.565C12.6845 31.565 12.5952 31.52 12.5071 31.4391C12.3871 31.3092 12.2799 31.1679 12.1867 31.0174C12.0869 30.8449 11.9945 30.6682 11.9098 30.4878C11.2155 31.3131 10.3414 31.7258 9.28986 31.7258C8.54193 31.7258 7.94471 31.5111 7.50823 31.0804C7.07175 30.6486 6.84961 30.0751 6.84961 29.3565C6.84961 28.5941 7.11641 27.9734 7.66005 27.5078C8.20369 27.0412 8.92482 26.8073 9.84243 26.8073C10.1461 26.8073 10.4575 26.8343 10.7868 26.8792C11.1173 26.9242 11.4566 26.9962 11.8116 27.0772V26.4216C11.8116 25.739 11.6698 25.2633 11.393 24.9856C11.1083 24.7067 10.6272 24.5729 9.94178 24.5729C9.62921 24.5729 9.30772 24.6078 8.97841 24.6887C8.6491 24.7697 8.3276 24.8686 8.01615 24.9946C7.9146 25.0404 7.81019 25.0795 7.70358 25.1115C7.65767 25.1264 7.61 25.1351 7.56181 25.1374C7.43679 25.1374 7.37427 25.0474 7.37427 24.8596V24.42C7.37427 24.276 7.39213 24.1681 7.43679 24.1051C7.50422 24.0235 7.58992 23.9591 7.68684 23.9173C7.99829 23.7554 8.37225 23.6205 8.80873 23.5125C9.26309 23.3953 9.73066 23.3382 10.1996 23.3427C11.2601 23.3427 12.0349 23.5856 12.5338 24.0702C13.0239 24.5538 13.2728 25.2903 13.2728 26.2776V29.1856H13.2907ZM9.67387 30.5507C9.96745 30.5507 10.27 30.4968 10.5915 30.3888C10.9119 30.2809 11.1976 30.0841 11.4376 29.8153C11.5805 29.6444 11.6877 29.4555 11.7413 29.2396C11.7937 29.0248 11.8306 28.7639 11.8306 28.4592V28.0825C11.5601 28.016 11.2862 27.965 11.0101 27.9295C10.7324 27.894 10.4528 27.876 10.1729 27.8756C9.57563 27.8756 9.13915 27.9925 8.84445 28.2354C8.55086 28.4772 8.40909 28.8179 8.40909 29.2666C8.40909 29.6882 8.51514 30.0031 8.7384 30.2179C8.95162 30.4428 9.26306 30.5507 9.67387 30.5507ZM16.8294 31.52C16.6686 31.52 16.5615 31.4931 16.49 31.4301C16.4186 31.3761 16.3561 31.2502 16.3025 31.0804L14.2094 24.1411C14.1687 24.0247 14.1417 23.904 14.129 23.7813C14.129 23.6373 14.2005 23.5564 14.3423 23.5564H15.2163C15.3849 23.5564 15.501 23.5845 15.5624 23.6463C15.6349 23.7003 15.6885 23.8262 15.741 23.9972L17.2391 29.939L18.6289 23.9972C18.6735 23.8172 18.7271 23.7003 18.7974 23.6463C18.9045 23.5802 19.0292 23.5487 19.1547 23.5564H19.8669C20.0365 23.5564 20.1526 23.5845 20.2241 23.6463C20.2944 23.7003 20.358 23.8262 20.3926 23.9972L21.8003 30.011L23.3419 23.9972C23.3955 23.8172 23.458 23.7003 23.5205 23.6463C23.6239 23.5802 23.7455 23.5487 23.8677 23.5564H24.6971C24.8389 23.5564 24.9204 23.6294 24.9204 23.7813C24.9204 23.8262 24.9103 23.8712 24.9014 23.9252C24.8874 24.0019 24.8665 24.0772 24.8389 24.1501L22.6922 31.0882C22.6387 31.2682 22.5761 31.384 22.5047 31.438C22.4041 31.503 22.2858 31.5344 22.1665 31.5279H21.3996C21.231 31.5279 21.1149 31.5009 21.0423 31.438C20.972 31.375 20.9095 31.258 20.8749 31.0781L19.4929 25.2892L18.1198 31.0691C18.0752 31.249 18.0227 31.366 17.9524 31.429C17.8798 31.4919 17.7548 31.5189 17.5952 31.5189L16.8294 31.52ZM28.2782 31.7618C27.815 31.7618 27.3517 31.7078 26.9063 31.601C26.4609 31.4931 26.1137 31.3761 25.8815 31.2412C25.7386 31.1613 25.6415 31.0714 25.6058 30.9904C25.571 30.911 25.5528 30.8253 25.5522 30.7385V30.2809C25.5522 30.0931 25.6237 30.0031 25.7565 30.0031C25.8101 30.0031 25.8637 30.0121 25.9172 30.0301C25.9708 30.0481 26.0512 30.0841 26.1405 30.12C26.443 30.255 26.7723 30.3618 27.1206 30.4338C27.4767 30.5058 27.8239 30.5417 28.1811 30.5417C28.7415 30.5417 29.1791 30.4428 29.4816 30.2449C29.6266 30.1566 29.7459 30.0313 29.8272 29.8816C29.9086 29.7318 29.9492 29.5631 29.9449 29.3925C29.9482 29.2769 29.9286 29.1619 29.8874 29.054C29.8462 28.9461 29.7842 28.8475 29.7049 28.7639C29.5441 28.5941 29.2405 28.4412 28.804 28.2972L27.5125 27.8924C26.8616 27.6866 26.3805 27.3819 26.0869 26.9782C25.7996 26.6056 25.6426 26.1478 25.6404 25.676C25.6404 25.2993 25.7219 24.9676 25.8815 24.6797C26.0423 24.393 26.2555 24.1411 26.5234 23.9443C26.7913 23.7374 27.0927 23.5845 27.4499 23.4776C27.8072 23.3697 28.1811 23.3247 28.5729 23.3247C28.7683 23.3247 28.9737 23.3337 29.1702 23.3607C29.3745 23.3877 29.5609 23.4237 29.7484 23.4596C29.927 23.5046 30.0967 23.5496 30.2563 23.6025C30.4171 23.6564 30.5421 23.7104 30.6314 23.7644C30.7366 23.8177 30.8283 23.8947 30.8993 23.9893C30.9569 24.0766 30.9847 24.1804 30.9786 24.285V24.7067C30.9786 24.8956 30.9071 24.9946 30.7732 24.9946C30.6546 24.9809 30.5397 24.9442 30.4349 24.8866C29.8966 24.6471 29.3132 24.5278 28.7248 24.5369C28.2168 24.5369 27.815 24.6168 27.5392 24.7877C27.2624 24.9586 27.1206 25.2184 27.1206 25.5861C27.1206 25.838 27.2099 26.0539 27.3885 26.2237C27.566 26.3946 27.8953 26.5655 28.3675 26.7184L29.6334 27.121C30.2742 27.3279 30.7386 27.6158 31.0143 27.9835C31.29 28.3512 31.424 28.7729 31.424 29.2396C31.424 29.6253 31.3436 29.9761 31.1929 30.2809C31.0322 30.5867 30.8178 30.8555 30.5421 31.0714C30.2653 31.2963 29.936 31.4571 29.5531 31.574C29.1512 31.6988 28.7337 31.7618 28.2782 31.7618Z" fill="#E5E5E5"/>
<path d="M19.1102 39.4635C22.7717 39.4635 27.0316 38.3064 29.963 36.1248C30.4441 35.765 30.0255 35.2174 29.5354 35.4423C26.2468 36.8423 22.6746 37.5248 19.4217 37.5248C14.6015 37.5248 9.94089 36.1867 6.16331 33.9793C5.83288 33.7814 5.58395 34.1232 5.85967 34.374C9.35371 37.5518 13.9775 39.4635 19.1102 39.4635Z" fill="#FF9900"/>
<path d="M27.7527 34.6079C28.706 34.4909 30.8091 34.2402 31.1842 34.7237C31.5582 35.2005 30.7656 37.2021 30.4084 38.0905C30.3012 38.3592 30.5334 38.4672 30.7734 38.2603C32.3418 36.9322 32.7515 34.1592 32.4311 33.7544C32.1107 33.3597 29.3568 33.019 27.6824 34.2031C27.4234 34.392 27.468 34.6439 27.7527 34.6079Z" fill="#FF9900"/>
</g>
<defs>
<clipPath id="clip0_1119_44390">
<rect width="62.6043" height="20.1033" fill="white" transform="translate(83.9277 7.71082)"/>
</clipPath>
<clipPath id="clip1_1119_44390">
<rect width="19.9568" height="20.1033" fill="white" transform="translate(86.9346 7.71082)"/>
</clipPath>
<clipPath id="clip2_1119_44390">
<rect width="26.7914" height="26.988" fill="white" transform="translate(5.74121 17.9001)"/>
</clipPath>
</defs>
</svg>
