<svg width="156" height="113" viewBox="0 0 156 113" fill="none" xmlns="http://www.w3.org/2000/svg">
<mask id="path-1-inside-1_1105_8784" fill="white">
<path fill-rule="evenodd" clip-rule="evenodd" d="M36.1034 18.6078C22.8486 18.6078 12.1034 29.3529 12.1034 42.6078V69.0509C12.1034 80.7259 20.4398 90.4538 31.4847 92.6069V107.955C31.4847 109.059 32.3817 109.963 33.4824 109.872C35.942 109.667 38.3591 109.084 40.6468 108.14C43.5515 106.943 46.1908 105.187 48.414 102.974C50.6372 100.761 52.4007 98.1339 53.6039 95.2425C53.903 94.5239 54.1659 93.7924 54.3923 93.0509H119.896C133.151 93.0509 143.896 82.3057 143.896 69.0509V42.6078C143.896 29.3529 133.151 18.6078 119.896 18.6078H36.1034Z"/>
</mask>
<path d="M31.4847 92.6069H33.4847V90.9591L31.8674 90.6438L31.4847 92.6069ZM33.4824 109.872L33.6486 111.865H33.6486L33.4824 109.872ZM40.6468 108.14L41.4092 109.989H41.4092L40.6468 108.14ZM48.414 102.974L47.0031 101.557L47.0031 101.557L48.414 102.974ZM53.6039 95.2425L55.4504 96.0108V96.0108L53.6039 95.2425ZM54.3923 93.0509V91.0509H52.9116L52.4794 92.467L54.3923 93.0509ZM14.1034 42.6078C14.1034 30.4575 23.9531 20.6078 36.1034 20.6078V16.6078C21.744 16.6078 10.1034 28.2484 10.1034 42.6078H14.1034ZM14.1034 69.0509V42.6078H10.1034V69.0509H14.1034ZM31.8674 90.6438C21.7439 88.6703 14.1034 79.7507 14.1034 69.0509H10.1034C10.1034 81.701 19.1357 92.2372 31.102 94.5699L31.8674 90.6438ZM29.4847 92.6069V107.955H33.4847V92.6069H29.4847ZM29.4847 107.955C29.4847 110.115 31.2707 112.063 33.6486 111.865L33.3163 107.878C33.3389 107.877 33.3716 107.88 33.4049 107.892C33.4359 107.904 33.4558 107.919 33.4667 107.929C33.4865 107.949 33.4847 107.961 33.4847 107.955H29.4847ZM33.6486 111.865C36.3127 111.643 38.9309 111.011 41.4092 109.989L39.8844 106.291C37.7873 107.156 35.5714 107.69 33.3163 107.878L33.6486 111.865ZM41.4092 109.989C44.5559 108.692 47.4157 106.79 49.825 104.392L47.0031 101.557C44.966 103.585 42.5472 105.194 39.8844 106.291L41.4092 109.989ZM49.825 104.392C52.2343 101.993 54.146 99.1456 55.4504 96.0108L51.7574 94.4741C50.6555 97.1223 49.0401 99.5291 47.0031 101.557L49.825 104.392ZM55.4504 96.0108C55.7746 95.2318 56.0597 94.4388 56.3051 93.6348L52.4794 92.467C52.2721 93.1461 52.0313 93.816 51.7574 94.4741L55.4504 96.0108ZM119.896 91.0509H54.3923V95.0509H119.896V91.0509ZM141.896 69.0509C141.896 81.2012 132.047 91.0509 119.896 91.0509V95.0509C134.256 95.0509 145.896 83.4103 145.896 69.0509H141.896ZM141.896 42.6078V69.0509H145.896V42.6078H141.896ZM119.896 20.6078C132.047 20.6078 141.896 30.4575 141.896 42.6078H145.896C145.896 28.2484 134.256 16.6078 119.896 16.6078V20.6078ZM36.1034 20.6078H119.896V16.6078H36.1034V20.6078Z" fill="#E5E5E5" mask="url(#path-1-inside-1_1105_8784)"/>
<path fill-rule="evenodd" clip-rule="evenodd" d="M39.0984 40.6198C39.0336 40.9062 39 41.2017 39 41.5016V75.6376C39 76.3075 39.1647 76.9389 39.4557 77.4936L67.5591 55.6397L39.0984 40.6198ZM40.0131 38.8411L69.2915 54.2925L77.3861 47.998L78 47.5206L78.6139 47.998L86.5744 54.1883L115.98 38.8338C115.771 38.5995 115.532 38.3882 115.267 38.206L80.2669 14.1311C78.9015 13.1919 77.0985 13.1919 75.7331 14.1311L40.7331 38.206C40.4654 38.3901 40.2244 38.6038 40.0131 38.8411ZM116.899 40.6102L88.3102 55.5381L116.544 77.4936C116.835 76.9389 117 76.3075 117 75.6376V41.5016C117 41.1984 116.966 40.8996 116.899 40.6102ZM115.198 78.9802L78 50.0541L40.802 78.9802C41.4328 79.3958 42.1881 79.6376 43 79.6376H113C113.812 79.6376 114.567 79.3958 115.198 78.9802Z" fill="#666666"/>
<path d="M51.1034 3.18263H104.897H106.276C108.485 3.18263 110.276 4.97349 110.276 7.18263V42.183L86.9844 54.5166C86.6326 54.7029 86.2039 54.6628 85.8927 54.4145L79.2232 49.0928C78.5046 48.5194 77.4877 48.5098 76.7584 49.0693L69.7705 54.4306C69.4588 54.6697 69.0361 54.7042 68.6898 54.5188L46.0603 42.4031V7.18263C46.0603 4.97349 47.8512 3.18263 50.0603 3.18263H51.1034Z" fill="#EBF0F4"/>
<path d="M51.1034 9.88922H103.552" stroke="#D3D8DC" stroke-width="2" stroke-linecap="round"/>
<path d="M51.1034 15.2545H103.552" stroke="#D3D8DC" stroke-width="2" stroke-linecap="round"/>
<path d="M51.1034 36.7156H78.6724" stroke="#D3D8DC" stroke-width="2" stroke-linecap="round"/>
<path d="M51.1034 42.0808H64.5517" stroke="#D3D8DC" stroke-width="2" stroke-linecap="round"/>
<rect x="51.1034" y="21.9611" width="6.72414" height="6.70659" rx="1" fill="#999999"/>
<rect x="60.5172" y="21.9611" width="6.72414" height="6.70659" rx="1" fill="#999999"/>
<rect x="69.931" y="21.9611" width="6.72414" height="6.70659" rx="1" fill="#999999"/>
<rect x="79.3447" y="21.9611" width="6.72414" height="6.70659" rx="1" fill="#999999"/>
<rect x="88.7585" y="21.9611" width="6.72414" height="6.70659" rx="1" fill="#999999"/>
<rect x="98.1724" y="21.9611" width="6.72414" height="6.70659" rx="1" fill="#999999"/>
</svg>
