<svg width="156" height="112" viewBox="0 0 156 112" fill="none" xmlns="http://www.w3.org/2000/svg">
<mask id="path-1-inside-1_1119_10753" fill="white">
<path fill-rule="evenodd" clip-rule="evenodd" d="M36.1035 18.1078C22.8487 18.1078 12.1035 28.853 12.1035 42.1078V68.5509C12.1035 80.2259 20.4399 89.9538 31.4848 92.1069V107.455C31.4848 108.559 32.3818 109.463 33.4826 109.372C35.9421 109.167 38.3592 108.584 40.6469 107.641C43.5517 106.443 46.191 104.687 48.4142 102.474C50.6373 100.261 52.4009 97.634 53.6041 94.7425C53.9031 94.0239 54.166 93.2924 54.3924 92.5509H119.897C133.151 92.5509 143.897 81.8057 143.897 68.5509V42.1078C143.897 28.853 133.151 18.1078 119.897 18.1078H36.1035Z"/>
</mask>
<path d="M31.4848 92.1069H33.4848V90.4591L31.8675 90.1438L31.4848 92.1069ZM33.4826 109.372L33.6487 111.365H33.6487L33.4826 109.372ZM40.6469 107.641L41.4093 109.489H41.4093L40.6469 107.641ZM48.4142 102.474L47.0032 101.057L47.0032 101.057L48.4142 102.474ZM53.6041 94.7425L55.4506 95.5108V95.5108L53.6041 94.7425ZM54.3924 92.5509V90.5509H52.9118L52.4795 91.967L54.3924 92.5509ZM14.1035 42.1078C14.1035 29.9575 23.9533 20.1078 36.1035 20.1078V16.1078C21.7441 16.1078 10.1035 27.7484 10.1035 42.1078H14.1035ZM14.1035 68.5509V42.1078H10.1035V68.5509H14.1035ZM31.8675 90.1438C21.744 88.1703 14.1035 79.2507 14.1035 68.5509H10.1035C10.1035 81.201 19.1358 91.7372 31.1022 94.0699L31.8675 90.1438ZM29.4848 92.1069V107.455H33.4848V92.1069H29.4848ZM29.4848 107.455C29.4848 109.615 31.2708 111.563 33.6487 111.365L33.3164 107.378C33.339 107.377 33.3718 107.38 33.4051 107.392C33.436 107.404 33.4559 107.419 33.4668 107.429C33.4866 107.449 33.4848 107.461 33.4848 107.455H29.4848ZM33.6487 111.365C36.3128 111.143 38.931 110.511 41.4093 109.489L39.8845 105.792C37.7874 106.656 35.5715 107.19 33.3164 107.378L33.6487 111.365ZM41.4093 109.489C44.556 108.192 47.4158 106.29 49.8251 103.892L47.0032 101.057C44.9661 103.085 42.5473 104.694 39.8845 105.792L41.4093 109.489ZM49.8251 103.892C52.2345 101.493 54.1461 98.6456 55.4506 95.5108L51.7575 93.9741C50.6556 96.6223 49.0402 99.0291 47.0032 101.057L49.8251 103.892ZM55.4506 95.5108C55.7747 94.7318 56.0598 93.9388 56.3052 93.1348L52.4795 91.967C52.2722 92.6461 52.0314 93.316 51.7575 93.9741L55.4506 95.5108ZM119.897 90.5509H54.3924V94.5509H119.897V90.5509ZM141.897 68.5509C141.897 80.7012 132.047 90.5509 119.897 90.5509V94.5509C134.256 94.5509 145.897 82.9103 145.897 68.5509H141.897ZM141.897 42.1078V68.5509H145.897V42.1078H141.897ZM119.897 20.1078C132.047 20.1078 141.897 29.9575 141.897 42.1078H145.897C145.897 27.7484 134.256 16.1078 119.897 16.1078V20.1078ZM36.1035 20.1078H119.897V16.1078H36.1035V20.1078Z" fill="#333333" mask="url(#path-1-inside-1_1119_10753)"/>
<path fill-rule="evenodd" clip-rule="evenodd" d="M39.0984 40.1198C39.0336 40.4062 39 40.7017 39 41.0016V75.1376C39 75.8075 39.1647 76.4389 39.4557 76.9936L67.5591 55.1397L39.0984 40.1198ZM40.0131 38.3411L69.2915 53.7925L77.3861 47.498L78 47.0206L78.6139 47.498L86.5744 53.6883L115.98 38.3338C115.771 38.0995 115.532 37.8882 115.267 37.706L80.2669 13.6311C78.9015 12.6919 77.0985 12.6919 75.7331 13.6311L40.7331 37.706C40.4654 37.8901 40.2244 38.1038 40.0131 38.3411ZM116.899 40.1102L88.3102 55.0381L116.544 76.9936C116.835 76.4389 117 75.8075 117 75.1376V41.0016C117 40.6984 116.966 40.3996 116.899 40.1102ZM115.198 78.4802L78 49.5541L40.802 78.4802C41.4328 78.8958 42.1881 79.1376 43 79.1376H113C113.812 79.1376 114.567 78.8958 115.198 78.4802Z" fill="#666666"/>
<path d="M51.1037 2.68262H104.897H106.276C108.485 2.68262 110.276 4.47348 110.276 6.68262V41.683L86.9847 54.0166C86.6329 54.2029 86.2041 54.1628 85.893 53.9145L79.2234 48.5928C78.5049 48.0194 77.488 48.0097 76.7586 48.5693L69.7707 53.9306C69.4591 54.1697 69.0363 54.2042 68.69 54.0188L46.0605 41.903V6.68262C46.0605 4.47348 47.8514 2.68262 50.0605 2.68262H51.1037Z" fill="#EBF0F4"/>
<path d="M51.1035 9.38922H103.552" stroke="#D3D8DC" stroke-width="2" stroke-linecap="round"/>
<path d="M51.1035 14.7545H103.552" stroke="#D3D8DC" stroke-width="2" stroke-linecap="round"/>
<path d="M51.1035 36.2156H78.6725" stroke="#D3D8DC" stroke-width="2" stroke-linecap="round"/>
<path d="M51.1035 41.5808H64.5518" stroke="#D3D8DC" stroke-width="2" stroke-linecap="round"/>
<rect x="51.1035" y="21.4611" width="6.72414" height="6.70659" rx="1" fill="#999999"/>
<rect x="60.5176" y="21.4611" width="6.72414" height="6.70659" rx="1" fill="#999999"/>
<rect x="69.9307" y="21.4611" width="6.72414" height="6.70659" rx="1" fill="#999999"/>
<rect x="79.3447" y="21.4611" width="6.72414" height="6.70659" rx="1" fill="#999999"/>
<rect x="88.7588" y="21.4611" width="6.72414" height="6.70659" rx="1" fill="#999999"/>
<rect x="98.1729" y="21.4611" width="6.72414" height="6.70659" rx="1" fill="#999999"/>
</svg>
