<svg width="17" height="16" viewBox="0 0 17 16" fill="none" xmlns="http://www.w3.org/2000/svg">
<path fill-rule="evenodd" clip-rule="evenodd" d="M5.13544 2.66602H3.8021V4.66602H5.13544V2.66602ZM7.8021 2.66602H6.46877V4.66602H7.8021V2.66602ZM3.13544 5.99935H11.1354V6.66602H11.8021C13.2749 6.66602 14.4688 7.85992 14.4688 9.33268C14.4688 10.8054 13.2749 11.9993 11.8021 11.9993H11.1354H10.4688H9.8021V13.3327H4.46877V11.9993H3.13544V5.99935ZM11.1354 10.4876C11.3379 10.3705 11.5066 10.2018 11.6237 9.99935H11.8021C12.1703 9.99935 12.4688 9.70087 12.4688 9.33268C12.4688 8.96449 12.1703 8.66602 11.8021 8.66602H11.6237C11.5066 8.4636 11.3379 8.29482 11.1354 8.17772L11.1354 10.4876ZM9.13544 2.66602H10.4688V4.66602H9.13544V2.66602Z" fill="white"/>
</svg>
