<svg width="64" height="64" viewBox="0 0 64 64" fill="none" xmlns="http://www.w3.org/2000/svg">
<path d="M1.82849 5.48571H3.65707V7.31445H1.82849V5.48571Z" fill="black"/>
<path d="M3.6571 5.48571H5.48558V7.31445H3.6571V5.48571Z" fill="black"/>
<path d="M5.4856 5.48571H7.31434V7.31445H5.4856V5.48571Z" fill="black"/>
<path d="M7.31433 5.48571H9.14281V7.31445H7.31433V5.48571Z" fill="black"/>
<path d="M9.1427 5.48571H10.9712V7.31445H9.1427V5.48571Z" fill="black"/>
<path d="M10.9712 5.48571H12.7999V7.31445H10.9712V5.48571Z" fill="black"/>
<path d="M12.7999 5.48571H14.6284V7.31445H12.7999V5.48571Z" fill="black"/>
<path d="M14.6284 5.48571H16.4569V7.31445H14.6284V5.48571Z" fill="black"/>
<path d="M16.4569 5.48571H18.2856V7.31445H16.4569V5.48571Z" fill="black"/>
<path d="M18.2858 5.48571H20.1142V7.31445H18.2858V5.48571Z" fill="black"/>
<path d="M20.1141 5.48571H21.9429V7.31445H20.1141V5.48571Z" fill="black"/>
<path d="M21.943 5.48571H23.7715V7.31445H21.943V5.48571Z" fill="black"/>
<path d="M23.7715 5.48571H25.6V7.31445H23.7715V5.48571Z" fill="black"/>
<path d="M25.5997 5.48571H27.4285V7.31445H25.5997V5.48571Z" fill="black"/>
<path d="M27.4286 5.48571H29.2571V7.31445H27.4286V5.48571Z" fill="black"/>
<path d="M29.2571 5.48571H31.0856V7.31445H29.2571V5.48571Z" fill="black"/>
<path d="M31.0856 5.48571H32.9143V7.31445H31.0856V5.48571Z" fill="black"/>
<path d="M32.9143 5.48571H34.7428V7.31445H32.9143V5.48571Z" fill="black"/>
<path d="M34.7428 5.48571H36.5713V7.31445H34.7428V5.48571Z" fill="black"/>
<path d="M36.5713 5.48571H38.4V7.31445H36.5713V5.48571Z" fill="black"/>
<path d="M38.4 5.48571H40.2285V7.31445H38.4V5.48571Z" fill="black"/>
<path d="M40.2285 5.48571H42.057V7.31445H40.2285V5.48571Z" fill="black"/>
<path d="M42.0569 5.48571H43.8856V7.31445H42.0569V5.48571Z" fill="black"/>
<path d="M43.8856 5.48571H45.7141V7.31445H43.8856V5.48571Z" fill="black"/>
<path d="M0 7.3141H1.82856V9.14258H0V7.3141Z" fill="black"/>
<path d="M1.82849 7.3141H3.65707V9.14258H1.82849V7.3141Z" fill="#1B2632"/>
<path d="M3.6571 7.3141H5.48558V9.14258H3.6571V7.3141Z" fill="#B2DCEF"/>
<path d="M5.4856 7.3141H7.31434V9.14258H5.4856V7.3141Z" fill="#B2DCEF"/>
<path d="M7.31433 7.3141H9.14281V9.14258H7.31433V7.3141Z" fill="#B2DCEF"/>
<path d="M9.1427 7.3141H10.9712V9.14258H9.1427V7.3141Z" fill="#B2DCEF"/>
<path d="M10.9712 7.3141H12.7999V9.14258H10.9712V7.3141Z" fill="#B2DCEF"/>
<path d="M12.7999 7.3141H14.6284V9.14258H12.7999V7.3141Z" fill="#B2DCEF"/>
<path d="M14.6284 7.3141H16.4569V9.14258H14.6284V7.3141Z" fill="#B2DCEF"/>
<path d="M16.4569 7.3141H18.2856V9.14258H16.4569V7.3141Z" fill="#B2DCEF"/>
<path d="M18.2858 7.3141H20.1142V9.14258H18.2858V7.3141Z" fill="#B2DCEF"/>
<path d="M20.1141 7.3141H21.9429V9.14258H20.1141V7.3141Z" fill="#B2DCEF"/>
<path d="M21.943 7.3141H23.7715V9.14258H21.943V7.3141Z" fill="#B2DCEF"/>
<path d="M23.7715 7.3141H25.6V9.14258H23.7715V7.3141Z" fill="#B2DCEF"/>
<path d="M25.5997 7.3141H27.4285V9.14258H25.5997V7.3141Z" fill="#B2DCEF"/>
<path d="M27.4286 7.3141H29.2571V9.14258H27.4286V7.3141Z" fill="#B2DCEF"/>
<path d="M29.2571 7.3141H31.0856V9.14258H29.2571V7.3141Z" fill="#B2DCEF"/>
<path d="M31.0856 7.3141H32.9143V9.14258H31.0856V7.3141Z" fill="#B2DCEF"/>
<path d="M32.9143 7.3141H34.7428V9.14258H32.9143V7.3141Z" fill="#B2DCEF"/>
<path d="M34.7428 7.3141H36.5713V9.14258H34.7428V7.3141Z" fill="#B2DCEF"/>
<path d="M36.5713 7.3141H38.4V9.14258H36.5713V7.3141Z" fill="#B2DCEF"/>
<path d="M38.4 7.3141H40.2285V9.14258H38.4V7.3141Z" fill="#B2DCEF"/>
<path d="M40.2285 7.3141H42.057V9.14258H40.2285V7.3141Z" fill="#B2DCEF"/>
<path d="M42.0569 7.3141H43.8856V9.14258H42.0569V7.3141Z" fill="#B2DCEF"/>
<path d="M43.8856 7.3141H45.7141V9.14258H43.8856V7.3141Z" fill="#B2DCEF"/>
<path d="M45.7141 7.3141H47.5429V9.14258H45.7141V7.3141Z" fill="black"/>
<path d="M0 9.14418H1.82856V10.9727H0V9.14418Z" fill="black"/>
<path d="M1.82849 9.14418H3.65707V10.9727H1.82849V9.14418Z" fill="#1B2632"/>
<path d="M3.6571 9.14418H5.48558V10.9727H3.6571V9.14418Z" fill="#B2DCEF"/>
<path d="M5.4856 9.14418H7.31434V10.9727H5.4856V9.14418Z" fill="#1B2632"/>
<path d="M7.31433 9.14418H9.14281V10.9727H7.31433V9.14418Z" fill="#1B2632"/>
<path d="M9.1427 9.14418H10.9712V10.9727H9.1427V9.14418Z" fill="#1B2632"/>
<path d="M10.9712 9.14418H12.7999V10.9727H10.9712V9.14418Z" fill="#1B2632"/>
<path d="M12.7999 9.14418H14.6284V10.9727H12.7999V9.14418Z" fill="#1B2632"/>
<path d="M14.6284 9.14418H16.4569V10.9727H14.6284V9.14418Z" fill="#1B2632"/>
<path d="M16.4569 9.14418H18.2856V10.9727H16.4569V9.14418Z" fill="#1B2632"/>
<path d="M18.2858 9.14418H20.1142V10.9727H18.2858V9.14418Z" fill="#1B2632"/>
<path d="M20.1141 9.14418H21.9429V10.9727H20.1141V9.14418Z" fill="#1B2632"/>
<path d="M21.943 9.14418H23.7715V10.9727H21.943V9.14418Z" fill="#1B2632"/>
<path d="M23.7715 9.14418H25.6V10.9727H23.7715V9.14418Z" fill="#1B2632"/>
<path d="M25.5997 9.14418H27.4285V10.9727H25.5997V9.14418Z" fill="#1B2632"/>
<path d="M27.4286 9.14418H29.2571V10.9727H27.4286V9.14418Z" fill="#1B2632"/>
<path d="M29.2571 9.14418H31.0856V10.9727H29.2571V9.14418Z" fill="#1B2632"/>
<path d="M31.0856 9.14418H32.9143V10.9727H31.0856V9.14418Z" fill="#1B2632"/>
<path d="M32.9143 9.14418H34.7428V10.9727H32.9143V9.14418Z" fill="#1B2632"/>
<path d="M34.7428 9.14418H36.5713V10.9727H34.7428V9.14418Z" fill="#1B2632"/>
<path d="M36.5713 9.14418H38.4V10.9727H36.5713V9.14418Z" fill="#1B2632"/>
<path d="M38.4 9.14418H40.2285V10.9727H38.4V9.14418Z" fill="#1B2632"/>
<path d="M40.2285 9.14418H42.057V10.9727H40.2285V9.14418Z" fill="#1B2632"/>
<path d="M42.0569 9.14418H43.8856V10.9727H42.0569V9.14418Z" fill="#1B2632"/>
<path d="M43.8856 9.14418H45.7141V10.9727H43.8856V9.14418Z" fill="#B2DCEF"/>
<path d="M45.7141 9.14418H47.5429V10.9727H45.7141V9.14418Z" fill="black"/>
<path d="M0 10.972H1.82856V12.8008H0V10.972Z" fill="black"/>
<path d="M1.82849 10.972H3.65707V12.8008H1.82849V10.972Z" fill="#1B2632"/>
<path d="M3.6571 10.972H5.48558V12.8008H3.6571V10.972Z" fill="#B2DCEF"/>
<path d="M5.4856 10.972H7.31434V12.8008H5.4856V10.972Z" fill="#1B2632"/>
<path d="M7.31433 10.972H9.14281V12.8008H7.31433V10.972Z" fill="#005784"/>
<path d="M9.1427 10.972H10.9712V12.8008H9.1427V10.972Z" fill="#005784"/>
<path d="M10.9712 10.972H12.7999V12.8008H10.9712V10.972Z" fill="#005784"/>
<path d="M12.7999 10.972H14.6284V12.8008H12.7999V10.972Z" fill="#005784"/>
<path d="M14.6284 10.972H16.4569V12.8008H14.6284V10.972Z" fill="#005784"/>
<path d="M16.4569 10.972H18.2856V12.8008H16.4569V10.972Z" fill="#005784"/>
<path d="M18.2858 10.972H20.1142V12.8008H18.2858V10.972Z" fill="#005784"/>
<path d="M20.1141 10.972H21.9429V12.8008H20.1141V10.972Z" fill="#005784"/>
<path d="M21.943 10.972H23.7715V12.8008H21.943V10.972Z" fill="#005784"/>
<path d="M23.7715 10.972H25.6V12.8008H23.7715V10.972Z" fill="#005784"/>
<path d="M25.5997 10.972H27.4285V12.8008H25.5997V10.972Z" fill="#005784"/>
<path d="M27.4286 10.972H29.2571V12.8008H27.4286V10.972Z" fill="#005784"/>
<path d="M29.2571 10.972H31.0856V12.8008H29.2571V10.972Z" fill="#005784"/>
<path d="M31.0856 10.972H32.9143V12.8008H31.0856V10.972Z" fill="#005784"/>
<path d="M32.9143 10.972H34.7428V12.8008H32.9143V10.972Z" fill="#005784"/>
<path d="M34.7428 10.972H36.5713V12.8008H34.7428V10.972Z" fill="#005784"/>
<path d="M36.5713 10.972H38.4V12.8008H36.5713V10.972Z" fill="#005784"/>
<path d="M38.4 10.972H40.2285V12.8008H38.4V10.972Z" fill="#005784"/>
<path d="M40.2285 10.972H42.057V12.8008H40.2285V10.972Z" fill="#005784"/>
<path d="M42.0569 10.972H43.8856V12.8008H42.0569V10.972Z" fill="#1B2632"/>
<path d="M43.8856 10.972H45.7141V12.8008H43.8856V10.972Z" fill="#B2DCEF"/>
<path d="M45.7141 10.972H47.5429V12.8008H45.7141V10.972Z" fill="black"/>
<path d="M0 12.8004H1.82856V14.6289H0V12.8004Z" fill="black"/>
<path d="M1.82849 12.8004H3.65707V14.6289H1.82849V12.8004Z" fill="#1B2632"/>
<path d="M3.6571 12.8004H5.48558V14.6289H3.6571V12.8004Z" fill="#B2DCEF"/>
<path d="M5.4856 12.8004H7.31434V14.6289H5.4856V12.8004Z" fill="#1B2632"/>
<path d="M7.31433 12.8004H9.14281V14.6289H7.31433V12.8004Z" fill="#005784"/>
<path d="M9.1427 12.8004H10.9712V14.6289H9.1427V12.8004Z" fill="#005784"/>
<path d="M10.9712 12.8004H12.7999V14.6289H10.9712V12.8004Z" fill="#005784"/>
<path d="M12.7999 12.8004H14.6284V14.6289H12.7999V12.8004Z" fill="#005784"/>
<path d="M14.6284 12.8004H16.4569V14.6289H14.6284V12.8004Z" fill="#005784"/>
<path d="M16.4569 12.8004H18.2856V14.6289H16.4569V12.8004Z" fill="#005784"/>
<path d="M18.2858 12.8004H20.1142V14.6289H18.2858V12.8004Z" fill="#005784"/>
<path d="M20.1141 12.8004H21.9429V14.6289H20.1141V12.8004Z" fill="#005784"/>
<path d="M21.943 12.8004H23.7715V14.6289H21.943V12.8004Z" fill="#005784"/>
<path d="M23.7715 12.8004H25.6V14.6289H23.7715V12.8004Z" fill="#005784"/>
<path d="M25.5997 12.8004H27.4285V14.6289H25.5997V12.8004Z" fill="#005784"/>
<path d="M27.4286 12.8004H29.2571V14.6289H27.4286V12.8004Z" fill="#005784"/>
<path d="M29.2571 12.8004H31.0856V14.6289H29.2571V12.8004Z" fill="#005784"/>
<path d="M31.0856 12.8004H32.9143V14.6289H31.0856V12.8004Z" fill="#005784"/>
<path d="M32.9143 12.8004H34.7428V14.6289H32.9143V12.8004Z" fill="#31A2F2"/>
<path d="M34.7428 12.8004H36.5713V14.6289H34.7428V12.8004Z" fill="#31A2F2"/>
<path d="M36.5713 12.8004H38.4V14.6289H36.5713V12.8004Z" fill="#005784"/>
<path d="M38.4 12.8004H40.2285V14.6289H38.4V12.8004Z" fill="#005784"/>
<path d="M40.2285 12.8004H42.057V14.6289H40.2285V12.8004Z" fill="#005784"/>
<path d="M42.0569 12.8004H43.8856V14.6289H42.0569V12.8004Z" fill="#1B2632"/>
<path d="M43.8856 12.8004H45.7141V14.6289H43.8856V12.8004Z" fill="#B2DCEF"/>
<path d="M45.7141 12.8004H47.5429V14.6289H45.7141V12.8004Z" fill="black"/>
<path d="M0 14.6286H1.82856V16.457H0V14.6286Z" fill="black"/>
<path d="M1.82849 14.6286H3.65707V16.457H1.82849V14.6286Z" fill="#1B2632"/>
<path d="M3.6571 14.6286H5.48558V16.457H3.6571V14.6286Z" fill="#B2DCEF"/>
<path d="M5.4856 14.6286H7.31434V16.457H5.4856V14.6286Z" fill="#1B2632"/>
<path d="M7.31433 14.6286H9.14281V16.457H7.31433V14.6286Z" fill="#005784"/>
<path d="M9.1427 14.6286H10.9712V16.457H9.1427V14.6286Z" fill="#005784"/>
<path d="M10.9712 14.6286H12.7999V16.457H10.9712V14.6286Z" fill="#005784"/>
<path d="M12.7999 14.6286H14.6284V16.457H12.7999V14.6286Z" fill="#005784"/>
<path d="M14.6284 14.6286H16.4569V16.457H14.6284V14.6286Z" fill="#005784"/>
<path d="M16.4569 14.6286H18.2856V16.457H16.4569V14.6286Z" fill="#005784"/>
<path d="M18.2858 14.6286H20.1142V16.457H18.2858V14.6286Z" fill="#005784"/>
<path d="M20.1141 14.6286H21.9429V16.457H20.1141V14.6286Z" fill="#005784"/>
<path d="M21.943 14.6286H23.7715V16.457H21.943V14.6286Z" fill="#005784"/>
<path d="M23.7715 14.6286H25.6V16.457H23.7715V14.6286Z" fill="#005784"/>
<path d="M25.5997 14.6286H27.4285V16.457H25.5997V14.6286Z" fill="#005784"/>
<path d="M27.4286 14.6286H29.2571V16.457H27.4286V14.6286Z" fill="#005784"/>
<path d="M29.2571 14.6286H31.0856V16.457H29.2571V14.6286Z" fill="#005784"/>
<path d="M31.0856 14.6286H32.9143V16.457H31.0856V14.6286Z" fill="#005784"/>
<path d="M32.9143 14.6286H34.7428V16.457H32.9143V14.6286Z" fill="#31A2F2"/>
<path d="M34.7428 14.6286H36.5713V16.457H34.7428V14.6286Z" fill="#31A2F2"/>
<path d="M36.5713 14.6286H38.4V16.457H36.5713V14.6286Z" fill="#005784"/>
<path d="M38.4 14.6286H40.2285V16.457H38.4V14.6286Z" fill="#005784"/>
<path d="M40.2285 14.6286H42.057V16.457H40.2285V14.6286Z" fill="#005784"/>
<path d="M42.0569 14.6286H43.8856V16.457H42.0569V14.6286Z" fill="#1B2632"/>
<path d="M43.8856 14.6286H45.7141V16.457H43.8856V14.6286Z" fill="#B2DCEF"/>
<path d="M45.7141 14.6286H47.5429V16.457H45.7141V14.6286Z" fill="black"/>
<path d="M0 16.4584H1.82856V18.2871H0V16.4584Z" fill="black"/>
<path d="M1.82849 16.4584H3.65707V18.2871H1.82849V16.4584Z" fill="#1B2632"/>
<path d="M3.6571 16.4584H5.48558V18.2871H3.6571V16.4584Z" fill="#B2DCEF"/>
<path d="M5.4856 16.4584H7.31434V18.2871H5.4856V16.4584Z" fill="#1B2632"/>
<path d="M7.31433 16.4584H9.14281V18.2871H7.31433V16.4584Z" fill="#005784"/>
<path d="M9.1427 16.4584H10.9712V18.2871H9.1427V16.4584Z" fill="#005784"/>
<path d="M10.9712 16.4584H12.7999V18.2871H10.9712V16.4584Z" fill="#005784"/>
<path d="M12.7999 16.4584H14.6284V18.2871H12.7999V16.4584Z" fill="#005784"/>
<path d="M14.6284 16.4584H16.4569V18.2871H14.6284V16.4584Z" fill="#005784"/>
<path d="M16.4569 16.4584H18.2856V18.2871H16.4569V16.4584Z" fill="#005784"/>
<path d="M18.2858 16.4584H20.1142V18.2871H18.2858V16.4584Z" fill="#005784"/>
<path d="M20.1141 16.4584H21.9429V18.2871H20.1141V16.4584Z" fill="#005784"/>
<path d="M21.943 16.4584H23.7715V18.2871H21.943V16.4584Z" fill="#005784"/>
<path d="M23.7715 16.4584H25.6V18.2871H23.7715V16.4584Z" fill="#005784"/>
<path d="M25.5997 16.4584H27.4285V18.2871H25.5997V16.4584Z" fill="#005784"/>
<path d="M27.4286 16.4584H29.2571V18.2871H27.4286V16.4584Z" fill="#005784"/>
<path d="M29.2571 16.4584H31.0856V18.2871H29.2571V16.4584Z" fill="#005784"/>
<path d="M31.0856 16.4584H32.9143V18.2871H31.0856V16.4584Z" fill="#005784"/>
<path d="M32.9143 16.4584H34.7428V18.2871H32.9143V16.4584Z" fill="#005784"/>
<path d="M34.7428 16.4584H36.5713V18.2871H34.7428V16.4584Z" fill="#005784"/>
<path d="M36.5713 16.4584H38.4V18.2871H36.5713V16.4584Z" fill="#005784"/>
<path d="M38.4 16.4584H40.2285V18.2871H38.4V16.4584Z" fill="#005784"/>
<path d="M40.2285 16.4584H42.057V18.2871H40.2285V16.4584Z" fill="#005784"/>
<path d="M42.0569 16.4584H43.8856V18.2871H42.0569V16.4584Z" fill="#1B2632"/>
<path d="M43.8856 16.4584H45.7141V18.2871H43.8856V16.4584Z" fill="#B2DCEF"/>
<path d="M45.7141 16.4584H47.5429V18.2871H45.7141V16.4584Z" fill="black"/>
<path d="M0 18.2868H1.82856V20.1152H0V18.2868Z" fill="black"/>
<path d="M1.82849 18.2868H3.65707V20.1152H1.82849V18.2868Z" fill="#1B2632"/>
<path d="M3.6571 18.2868H5.48558V20.1152H3.6571V18.2868Z" fill="#B2DCEF"/>
<path d="M5.4856 18.2868H7.31434V20.1152H5.4856V18.2868Z" fill="#1B2632"/>
<path d="M7.31433 18.2868H9.14281V20.1152H7.31433V18.2868Z" fill="#005784"/>
<path d="M9.1427 18.2868H10.9712V20.1152H9.1427V18.2868Z" fill="#005784"/>
<path d="M10.9712 18.2868H12.7999V20.1152H10.9712V18.2868Z" fill="#005784"/>
<path d="M12.7999 18.2868H14.6284V20.1152H12.7999V18.2868Z" fill="#005784"/>
<path d="M14.6284 18.2868H16.4569V20.1152H14.6284V18.2868Z" fill="#005784"/>
<path d="M16.4569 18.2868H18.2856V20.1152H16.4569V18.2868Z" fill="#005784"/>
<path d="M18.2858 18.2868H20.1142V20.1152H18.2858V18.2868Z" fill="#005784"/>
<path d="M20.1141 18.2868H21.9429V20.1152H20.1141V18.2868Z" fill="#005784"/>
<path d="M21.943 18.2868H23.7715V20.1152H21.943V18.2868Z" fill="#005784"/>
<path d="M23.7715 18.2868H25.6V20.1152H23.7715V18.2868Z" fill="#005784"/>
<path d="M25.5997 18.2868H27.4285V20.1152H25.5997V18.2868Z" fill="#005784"/>
<path d="M27.4286 18.2868H29.2571V20.1152H27.4286V18.2868Z" fill="#005784"/>
<path d="M29.2571 18.2868H31.0856V20.1152H29.2571V18.2868Z" fill="#005784"/>
<path d="M31.0856 18.2868H32.9143V20.1152H31.0856V18.2868Z" fill="#005784"/>
<path d="M32.9143 18.2868H34.7428V20.1152H32.9143V18.2868Z" fill="#005784"/>
<path d="M34.7428 18.2868H36.5713V20.1152H34.7428V18.2868Z" fill="#31A2F2"/>
<path d="M36.5713 18.2868H38.4V20.1152H36.5713V18.2868Z" fill="#005784"/>
<path d="M38.4 18.2868H40.2285V20.1152H38.4V18.2868Z" fill="#005784"/>
<path d="M40.2285 18.2868H42.057V20.1152H40.2285V18.2868Z" fill="#005784"/>
<path d="M42.0569 18.2868H43.8856V20.1152H42.0569V18.2868Z" fill="#1B2632"/>
<path d="M43.8856 18.2868H45.7141V20.1152H43.8856V18.2868Z" fill="#B2DCEF"/>
<path d="M45.7141 18.2868H47.5429V20.1152H45.7141V18.2868Z" fill="black"/>
<path d="M0 20.1146H1.82856V21.9434H0V20.1146Z" fill="black"/>
<path d="M1.82849 20.1146H3.65707V21.9434H1.82849V20.1146Z" fill="#1B2632"/>
<path d="M3.6571 20.1146H5.48558V21.9434H3.6571V20.1146Z" fill="#B2DCEF"/>
<path d="M5.4856 20.1146H7.31434V21.9434H5.4856V20.1146Z" fill="#1B2632"/>
<path d="M7.31433 20.1146H9.14281V21.9434H7.31433V20.1146Z" fill="#005784"/>
<path d="M9.1427 20.1146H10.9712V21.9434H9.1427V20.1146Z" fill="#005784"/>
<path d="M10.9712 20.1146H12.7999V21.9434H10.9712V20.1146Z" fill="#005784"/>
<path d="M12.7999 20.1146H14.6284V21.9434H12.7999V20.1146Z" fill="#005784"/>
<path d="M14.6284 20.1146H16.4569V21.9434H14.6284V20.1146Z" fill="#005784"/>
<path d="M16.4569 20.1146H18.2856V21.9434H16.4569V20.1146Z" fill="#005784"/>
<path d="M18.2858 20.1146H20.1142V21.9434H18.2858V20.1146Z" fill="#005784"/>
<path d="M20.1141 20.1146H21.9429V21.9434H20.1141V20.1146Z" fill="#005784"/>
<path d="M21.943 20.1146H23.7715V21.9434H21.943V20.1146Z" fill="#005784"/>
<path d="M23.7715 20.1146H25.6V21.9434H23.7715V20.1146Z" fill="#005784"/>
<path d="M25.5997 20.1146H27.4285V21.9434H25.5997V20.1146Z" fill="#005784"/>
<path d="M27.4286 20.1146H29.2571V21.9434H27.4286V20.1146Z" fill="#005784"/>
<path d="M29.2571 20.1146H31.0856V21.9434H29.2571V20.1146Z" fill="#005784"/>
<path d="M31.0856 20.1146H32.9143V21.9434H31.0856V20.1146Z" fill="#005784"/>
<path d="M32.9143 20.1146H34.7428V21.9434H32.9143V20.1146Z" fill="#005784"/>
<path d="M34.7428 20.1146H36.5713V21.9434H34.7428V20.1146Z" fill="#005784"/>
<path d="M36.5713 20.1146H38.4V21.9434H36.5713V20.1146Z" fill="#005784"/>
<path d="M38.4 20.1146H40.2285V21.9434H38.4V20.1146Z" fill="#005784"/>
<path d="M40.2285 20.1146H42.057V21.9434H40.2285V20.1146Z" fill="#005784"/>
<path d="M42.0569 20.1146H43.8856V21.9434H42.0569V20.1146Z" fill="#1B2632"/>
<path d="M43.8856 20.1146H45.7141V21.9434H43.8856V20.1146Z" fill="#B2DCEF"/>
<path d="M45.7141 20.1146H47.5429V21.9434H45.7141V20.1146Z" fill="black"/>
<path d="M0 21.943H1.82856V23.7715H0V21.943Z" fill="black"/>
<path d="M1.82849 21.943H3.65707V23.7715H1.82849V21.943Z" fill="#1B2632"/>
<path d="M3.6571 21.943H5.48558V23.7715H3.6571V21.943Z" fill="#B2DCEF"/>
<path d="M5.4856 21.943H7.31434V23.7715H5.4856V21.943Z" fill="#1B2632"/>
<path d="M7.31433 21.943H9.14281V23.7715H7.31433V21.943Z" fill="#005784"/>
<path d="M9.1427 21.943H10.9712V23.7715H9.1427V21.943Z" fill="#005784"/>
<path d="M10.9712 21.943H12.7999V23.7715H10.9712V21.943Z" fill="#005784"/>
<path d="M12.7999 21.943H14.6284V23.7715H12.7999V21.943Z" fill="#005784"/>
<path d="M14.6284 21.943H16.4569V23.7715H14.6284V21.943Z" fill="#005784"/>
<path d="M16.4569 21.943H18.2856V23.7715H16.4569V21.943Z" fill="#005784"/>
<path d="M18.2858 21.943H20.1142V23.7715H18.2858V21.943Z" fill="#005784"/>
<path d="M20.1141 21.943H21.9429V23.7715H20.1141V21.943Z" fill="#005784"/>
<path d="M21.943 21.943H23.7715V23.7715H21.943V21.943Z" fill="#005784"/>
<path d="M23.7715 21.943H25.6V23.7715H23.7715V21.943Z" fill="#005784"/>
<path d="M25.5997 21.943H27.4285V23.7715H25.5997V21.943Z" fill="#005784"/>
<path d="M27.4286 21.943H29.2571V23.7715H27.4286V21.943Z" fill="#005784"/>
<path d="M29.2571 21.943H31.0856V23.7715H29.2571V21.943Z" fill="#005784"/>
<path d="M31.0856 21.943H32.9143V23.7715H31.0856V21.943Z" fill="#005784"/>
<path d="M32.9143 21.943H34.7428V23.7715H32.9143V21.943Z" fill="#005784"/>
<path d="M34.7428 21.943H36.5713V23.7715H34.7428V21.943Z" fill="#005784"/>
<path d="M36.5713 21.943H38.4V23.7715H36.5713V21.943Z" fill="#005784"/>
<path d="M38.4 21.943H40.2285V23.7715H38.4V21.943Z" fill="#005784"/>
<path d="M40.2285 21.943H42.057V23.7715H40.2285V21.943Z" fill="#005784"/>
<path d="M42.0569 21.943H43.8856V23.7715H42.0569V21.943Z" fill="#1B2632"/>
<path d="M43.8856 21.943H45.7141V23.7715H43.8856V21.943Z" fill="#B2DCEF"/>
<path d="M45.7141 21.943H47.5429V23.7715H45.7141V21.943Z" fill="black"/>
<path d="M0 23.7711H1.82856V25.5996H0V23.7711Z" fill="black"/>
<path d="M1.82849 23.7711H3.65707V25.5996H1.82849V23.7711Z" fill="#1B2632"/>
<path d="M3.6571 23.7711H5.48558V25.5996H3.6571V23.7711Z" fill="#B2DCEF"/>
<path d="M5.4856 23.7711H7.31434V25.5996H5.4856V23.7711Z" fill="#1B2632"/>
<path d="M7.31433 23.7711H9.14281V25.5996H7.31433V23.7711Z" fill="#005784"/>
<path d="M9.1427 23.7711H10.9712V25.5996H9.1427V23.7711Z" fill="#005784"/>
<path d="M10.9712 23.7711H12.7999V25.5996H10.9712V23.7711Z" fill="#005784"/>
<path d="M12.7999 23.7711H14.6284V25.5996H12.7999V23.7711Z" fill="#005784"/>
<path d="M14.6284 23.7711H16.4569V25.5996H14.6284V23.7711Z" fill="#005784"/>
<path d="M16.4569 23.7711H18.2856V25.5996H16.4569V23.7711Z" fill="#005784"/>
<path d="M18.2858 23.7711H20.1142V25.5996H18.2858V23.7711Z" fill="#005784"/>
<path d="M20.1141 23.7711H21.9429V25.5996H20.1141V23.7711Z" fill="#005784"/>
<path d="M21.943 23.7711H23.7715V25.5996H21.943V23.7711Z" fill="#005784"/>
<path d="M23.7715 23.7711H25.6V25.5996H23.7715V23.7711Z" fill="#005784"/>
<path d="M25.5997 23.7711H27.4285V25.5996H25.5997V23.7711Z" fill="#005784"/>
<path d="M27.4286 23.7711H29.2571V25.5996H27.4286V23.7711Z" fill="#005784"/>
<path d="M29.2571 23.7711H31.0856V25.5996H29.2571V23.7711Z" fill="#005784"/>
<path d="M31.0856 23.7711H32.9143V25.5996H31.0856V23.7711Z" fill="#005784"/>
<path d="M32.9143 23.7711H34.7428V25.5996H32.9143V23.7711Z" fill="#005784"/>
<path d="M34.7428 23.7711H36.5713V25.5996H34.7428V23.7711Z" fill="#005784"/>
<path d="M36.5713 23.7711H38.4V25.5996H36.5713V23.7711Z" fill="#005784"/>
<path d="M38.4 23.7711H40.2285V25.5996H38.4V23.7711Z" fill="#005784"/>
<path d="M40.2285 23.7711H42.057V25.5996H40.2285V23.7711Z" fill="#005784"/>
<path d="M42.0569 23.7711H43.8856V25.5996H42.0569V23.7711Z" fill="#1B2632"/>
<path d="M43.8856 23.7711H45.7141V25.5996H43.8856V23.7711Z" fill="#B2DCEF"/>
<path d="M45.7141 23.7711H47.5429V25.5996H45.7141V23.7711Z" fill="black"/>
<path d="M0 25.599H1.82856V27.4277H0V25.599Z" fill="black"/>
<path d="M1.82849 25.599H3.65707V27.4277H1.82849V25.599Z" fill="#1B2632"/>
<path d="M3.6571 25.599H5.48558V27.4277H3.6571V25.599Z" fill="#B2DCEF"/>
<path d="M5.4856 25.599H7.31434V27.4277H5.4856V25.599Z" fill="#1B2632"/>
<path d="M7.31433 25.599H9.14281V27.4277H7.31433V25.599Z" fill="#005784"/>
<path d="M9.1427 25.599H10.9712V27.4277H9.1427V25.599Z" fill="#005784"/>
<path d="M10.9712 25.599H12.7999V27.4277H10.9712V25.599Z" fill="#005784"/>
<path d="M12.7999 25.599H14.6284V27.4277H12.7999V25.599Z" fill="#005784"/>
<path d="M14.6284 25.599H16.4569V27.4277H14.6284V25.599Z" fill="#005784"/>
<path d="M16.4569 25.599H18.2856V27.4277H16.4569V25.599Z" fill="#005784"/>
<path d="M18.2858 25.599H20.1142V27.4277H18.2858V25.599Z" fill="#005784"/>
<path d="M20.1141 25.599H21.9429V27.4277H20.1141V25.599Z" fill="#005784"/>
<path d="M21.943 25.599H23.7715V27.4277H21.943V25.599Z" fill="#005784"/>
<path d="M23.7715 25.599H25.6V27.4277H23.7715V25.599Z" fill="#005784"/>
<path d="M25.5997 25.599H27.4285V27.4277H25.5997V25.599Z" fill="#005784"/>
<path d="M27.4286 25.599H29.2571V27.4277H27.4286V25.599Z" fill="#005784"/>
<path d="M29.2571 25.599H31.0856V27.4277H29.2571V25.599Z" fill="#005784"/>
<path d="M31.0856 25.599H32.9143V27.4277H31.0856V25.599Z" fill="#005784"/>
<path d="M32.9143 25.599H34.7428V27.4277H32.9143V25.599Z" fill="#005784"/>
<path d="M34.7428 25.599H36.5713V27.4277H34.7428V25.599Z" fill="#005784"/>
<path d="M36.5713 25.599H38.4V27.4277H36.5713V25.599Z" fill="#005784"/>
<path d="M38.4 25.599H40.2285V27.4277H38.4V25.599Z" fill="#005784"/>
<path d="M40.2285 25.599H42.057V27.4277H40.2285V25.599Z" fill="#005784"/>
<path d="M42.0569 25.599H43.8856V27.4277H42.0569V25.599Z" fill="#1B2632"/>
<path d="M43.8856 25.599H45.7141V27.4277H43.8856V25.599Z" fill="#B2DCEF"/>
<path d="M45.7141 25.599H47.5429V27.4277H45.7141V25.599Z" fill="black"/>
<path d="M0 27.4293H1.82856V29.2578H0V27.4293Z" fill="black"/>
<path d="M1.82849 27.4293H3.65707V29.2578H1.82849V27.4293Z" fill="#1B2632"/>
<path d="M3.6571 27.4293H5.48558V29.2578H3.6571V27.4293Z" fill="#B2DCEF"/>
<path d="M5.4856 27.4293H7.31434V29.2578H5.4856V27.4293Z" fill="#1B2632"/>
<path d="M7.31433 27.4293H9.14281V29.2578H7.31433V27.4293Z" fill="#005784"/>
<path d="M9.1427 27.4293H10.9712V29.2578H9.1427V27.4293Z" fill="#005784"/>
<path d="M10.9712 27.4293H12.7999V29.2578H10.9712V27.4293Z" fill="#005784"/>
<path d="M12.7999 27.4293H14.6284V29.2578H12.7999V27.4293Z" fill="#005784"/>
<path d="M14.6284 27.4293H16.4569V29.2578H14.6284V27.4293Z" fill="#005784"/>
<path d="M16.4569 27.4293H18.2856V29.2578H16.4569V27.4293Z" fill="#005784"/>
<path d="M18.2858 27.4293H20.1142V29.2578H18.2858V27.4293Z" fill="#005784"/>
<path d="M20.1141 27.4293H21.9429V29.2578H20.1141V27.4293Z" fill="#005784"/>
<path d="M21.943 27.4293H23.7715V29.2578H21.943V27.4293Z" fill="#005784"/>
<path d="M23.7715 27.4293H25.6V29.2578H23.7715V27.4293Z" fill="#005784"/>
<path d="M25.5997 27.4293H27.4285V29.2578H25.5997V27.4293Z" fill="#005784"/>
<path d="M27.4286 27.4293H29.2571V29.2578H27.4286V27.4293Z" fill="#005784"/>
<path d="M29.2571 27.4293H31.0856V29.2578H29.2571V27.4293Z" fill="#005784"/>
<path d="M31.0856 27.4293H32.9143V29.2578H31.0856V27.4293Z" fill="#005784"/>
<path d="M32.9143 27.4293H34.7428V29.2578H32.9143V27.4293Z" fill="#005784"/>
<path d="M34.7428 27.4293H36.5713V29.2578H34.7428V27.4293Z" fill="#005784"/>
<path d="M36.5713 27.4293H38.4V29.2578H36.5713V27.4293Z" fill="#005784"/>
<path d="M38.4 27.4293H40.2285V29.2578H38.4V27.4293Z" fill="#005784"/>
<path d="M40.2285 27.4293H42.057V29.2578H40.2285V27.4293Z" fill="#005784"/>
<path d="M42.0569 27.4293H43.8856V29.2578H42.0569V27.4293Z" fill="#1B2632"/>
<path d="M43.8856 27.4293H45.7141V29.2578H43.8856V27.4293Z" fill="#B2DCEF"/>
<path d="M45.7141 27.4293H47.5429V29.2578H45.7141V27.4293Z" fill="black"/>
<path d="M0 29.2575H1.82856V31.0859H0V29.2575Z" fill="black"/>
<path d="M1.82849 29.2575H3.65707V31.0859H1.82849V29.2575Z" fill="#1B2632"/>
<path d="M3.6571 29.2575H5.48558V31.0859H3.6571V29.2575Z" fill="#B2DCEF"/>
<path d="M5.4856 29.2575H7.31434V31.0859H5.4856V29.2575Z" fill="#1B2632"/>
<path d="M7.31433 29.2575H9.14281V31.0859H7.31433V29.2575Z" fill="#005784"/>
<path d="M9.1427 29.2575H10.9712V31.0859H9.1427V29.2575Z" fill="#005784"/>
<path d="M10.9712 29.2575H12.7999V31.0859H10.9712V29.2575Z" fill="#005784"/>
<path d="M12.7999 29.2575H14.6284V31.0859H12.7999V29.2575Z" fill="#005784"/>
<path d="M14.6284 29.2575H16.4569V31.0859H14.6284V29.2575Z" fill="#005784"/>
<path d="M16.4569 29.2575H18.2856V31.0859H16.4569V29.2575Z" fill="#005784"/>
<path d="M18.2858 29.2575H20.1142V31.0859H18.2858V29.2575Z" fill="#005784"/>
<path d="M20.1141 29.2575H21.9429V31.0859H20.1141V29.2575Z" fill="#005784"/>
<path d="M21.943 29.2575H23.7715V31.0859H21.943V29.2575Z" fill="#005784"/>
<path d="M23.7715 29.2575H25.6V31.0859H23.7715V29.2575Z" fill="#005784"/>
<path d="M25.5997 29.2575H27.4285V31.0859H25.5997V29.2575Z" fill="#005784"/>
<path d="M27.4286 29.2575H29.2571V31.0859H27.4286V29.2575Z" fill="#005784"/>
<path d="M29.2571 29.2575H31.0856V31.0859H29.2571V29.2575Z" fill="#005784"/>
<path d="M31.0856 29.2575H32.9143V31.0859H31.0856V29.2575Z" fill="#005784"/>
<path d="M32.9143 29.2575H34.7428V31.0859H32.9143V29.2575Z" fill="#005784"/>
<path d="M34.7428 29.2575H36.5713V31.0859H34.7428V29.2575Z" fill="#005784"/>
<path d="M36.5713 29.2575H38.4V31.0859H36.5713V29.2575Z" fill="#005784"/>
<path d="M38.4 29.2575H40.2285V31.0859H38.4V29.2575Z" fill="#005784"/>
<path d="M40.2285 29.2575H42.057V31.0859H40.2285V29.2575Z" fill="#005784"/>
<path d="M42.0569 29.2575H43.8856V31.0859H42.0569V29.2575Z" fill="#1B2632"/>
<path d="M43.8856 29.2575H45.7141V31.0859H43.8856V29.2575Z" fill="#B2DCEF"/>
<path d="M45.7141 29.2575H47.5429V31.0859H45.7141V29.2575Z" fill="black"/>
<path d="M0 31.0853H1.82856V32.9141H0V31.0853Z" fill="black"/>
<path d="M1.82849 31.0853H3.65707V32.9141H1.82849V31.0853Z" fill="#1B2632"/>
<path d="M3.6571 31.0853H5.48558V32.9141H3.6571V31.0853Z" fill="#B2DCEF"/>
<path d="M5.4856 31.0853H7.31434V32.9141H5.4856V31.0853Z" fill="#1B2632"/>
<path d="M7.31433 31.0853H9.14281V32.9141H7.31433V31.0853Z" fill="#005784"/>
<path d="M9.1427 31.0853H10.9712V32.9141H9.1427V31.0853Z" fill="#005784"/>
<path d="M10.9712 31.0853H12.7999V32.9141H10.9712V31.0853Z" fill="#005784"/>
<path d="M12.7999 31.0853H14.6284V32.9141H12.7999V31.0853Z" fill="#005784"/>
<path d="M14.6284 31.0853H16.4569V32.9141H14.6284V31.0853Z" fill="#005784"/>
<path d="M16.4569 31.0853H18.2856V32.9141H16.4569V31.0853Z" fill="#005784"/>
<path d="M18.2858 31.0853H20.1142V32.9141H18.2858V31.0853Z" fill="#005784"/>
<path d="M20.1141 31.0853H21.9429V32.9141H20.1141V31.0853Z" fill="#005784"/>
<path d="M21.943 31.0853H23.7715V32.9141H21.943V31.0853Z" fill="#005784"/>
<path d="M23.7715 31.0853H25.6V32.9141H23.7715V31.0853Z" fill="#005784"/>
<path d="M25.5997 31.0853H27.4285V32.9141H25.5997V31.0853Z" fill="#005784"/>
<path d="M27.4286 31.0853H29.2571V32.9141H27.4286V31.0853Z" fill="#005784"/>
<path d="M29.2571 31.0853H31.0856V32.9141H29.2571V31.0853Z" fill="#005784"/>
<path d="M31.0856 31.0853H32.9143V32.9141H31.0856V31.0853Z" fill="#005784"/>
<path d="M32.9143 31.0853H34.7428V32.9141H32.9143V31.0853Z" fill="#005784"/>
<path d="M34.7428 31.0853H36.5713V32.9141H34.7428V31.0853Z" fill="#005784"/>
<path d="M36.5713 31.0853H38.4V32.9141H36.5713V31.0853Z" fill="#005784"/>
<path d="M38.4 31.0853H40.2285V32.9141H38.4V31.0853Z" fill="#005784"/>
<path d="M40.2285 31.0853H42.057V32.9141H40.2285V31.0853Z" fill="#005784"/>
<path d="M42.0569 31.0853H43.8856V32.9141H42.0569V31.0853Z" fill="#1B2632"/>
<path d="M43.8856 31.0853H45.7141V32.9141H43.8856V31.0853Z" fill="#B2DCEF"/>
<path d="M45.7141 31.0853H47.5429V32.9141H45.7141V31.0853Z" fill="black"/>
<path d="M0 32.9137H1.82856V34.7422H0V32.9137Z" fill="black"/>
<path d="M1.82849 32.9137H3.65707V34.7422H1.82849V32.9137Z" fill="#1B2632"/>
<path d="M3.6571 32.9137H5.48558V34.7422H3.6571V32.9137Z" fill="#B2DCEF"/>
<path d="M5.4856 32.9137H7.31434V34.7422H5.4856V32.9137Z" fill="#B2DCEF"/>
<path d="M7.31433 32.9137H9.14281V34.7422H7.31433V32.9137Z" fill="#1B2632"/>
<path d="M9.1427 32.9137H10.9712V34.7422H9.1427V32.9137Z" fill="#1B2632"/>
<path d="M10.9712 32.9137H12.7999V34.7422H10.9712V32.9137Z" fill="#1B2632"/>
<path d="M12.7999 32.9137H14.6284V34.7422H12.7999V32.9137Z" fill="#1B2632"/>
<path d="M14.6284 32.9137H16.4569V34.7422H14.6284V32.9137Z" fill="#1B2632"/>
<path d="M16.4569 32.9137H18.2856V34.7422H16.4569V32.9137Z" fill="#1B2632"/>
<path d="M18.2858 32.9137H20.1142V34.7422H18.2858V32.9137Z" fill="#1B2632"/>
<path d="M20.1141 32.9137H21.9429V34.7422H20.1141V32.9137Z" fill="#1B2632"/>
<path d="M21.943 32.9137H23.7715V34.7422H21.943V32.9137Z" fill="#1B2632"/>
<path d="M23.7715 32.9137H25.6V34.7422H23.7715V32.9137Z" fill="#1B2632"/>
<path d="M25.5997 32.9137H27.4285V34.7422H25.5997V32.9137Z" fill="#1B2632"/>
<path d="M27.4286 32.9137H29.2571V34.7422H27.4286V32.9137Z" fill="#1B2632"/>
<path d="M29.2571 32.9137H31.0856V34.7422H29.2571V32.9137Z" fill="#1B2632"/>
<path d="M31.0856 32.9137H32.9143V34.7422H31.0856V32.9137Z" fill="#1B2632"/>
<path d="M32.9143 32.9137H34.7428V34.7422H32.9143V32.9137Z" fill="#1B2632"/>
<path d="M34.7428 32.9137H36.5713V34.7422H34.7428V32.9137Z" fill="#1B2632"/>
<path d="M36.5713 32.9137H38.4V34.7422H36.5713V32.9137Z" fill="#1B2632"/>
<path d="M38.4 32.9137H40.2285V34.7422H38.4V32.9137Z" fill="#1B2632"/>
<path d="M40.2285 32.9137H42.057V34.7422H40.2285V32.9137Z" fill="#1B2632"/>
<path d="M42.0569 32.9137H43.8856V34.7422H42.0569V32.9137Z" fill="#B2DCEF"/>
<path d="M43.8856 32.9137H45.7141V34.7422H43.8856V32.9137Z" fill="#B2DCEF"/>
<path d="M45.7141 32.9137H47.5429V34.7422H45.7141V32.9137Z" fill="black"/>
<path d="M0 34.7438H1.82856V36.5723H0V34.7438Z" fill="black"/>
<path d="M1.82849 34.7438H3.65707V36.5723H1.82849V34.7438Z" fill="#1B2632"/>
<path d="M3.6571 34.7438H5.48558V36.5723H3.6571V34.7438Z" fill="#B2DCEF"/>
<path d="M5.4856 34.7438H7.31434V36.5723H5.4856V34.7438Z" fill="#B2DCEF"/>
<path d="M7.31433 34.7438H9.14281V36.5723H7.31433V34.7438Z" fill="#B2DCEF"/>
<path d="M9.1427 34.7438H10.9712V36.5723H9.1427V34.7438Z" fill="#B2DCEF"/>
<path d="M10.9712 34.7438H12.7999V36.5723H10.9712V34.7438Z" fill="#B2DCEF"/>
<path d="M12.7999 34.7438H14.6284V36.5723H12.7999V34.7438Z" fill="#B2DCEF"/>
<path d="M14.6284 34.7438H16.4569V36.5723H14.6284V34.7438Z" fill="#B2DCEF"/>
<path d="M16.4569 34.7438H18.2856V36.5723H16.4569V34.7438Z" fill="#B2DCEF"/>
<path d="M18.2858 34.7438H20.1142V36.5723H18.2858V34.7438Z" fill="#B2DCEF"/>
<path d="M20.1141 34.7438H21.9429V36.5723H20.1141V34.7438Z" fill="#B2DCEF"/>
<path d="M21.943 34.7438H23.7715V36.5723H21.943V34.7438Z" fill="#B2DCEF"/>
<path d="M23.7715 34.7438H25.6V36.5723H23.7715V34.7438Z" fill="#B2DCEF"/>
<path d="M25.5997 34.7438H27.4285V36.5723H25.5997V34.7438Z" fill="#B2DCEF"/>
<path d="M27.4286 34.7438H29.2571V36.5723H27.4286V34.7438Z" fill="#B2DCEF"/>
<path d="M29.2571 34.7438H31.0856V36.5723H29.2571V34.7438Z" fill="#B2DCEF"/>
<path d="M31.0856 34.7438H32.9143V36.5723H31.0856V34.7438Z" fill="#B2DCEF"/>
<path d="M32.9143 34.7438H34.7428V36.5723H32.9143V34.7438Z" fill="#B2DCEF"/>
<path d="M34.7428 34.7438H36.5713V36.5723H34.7428V34.7438Z" fill="#B2DCEF"/>
<path d="M36.5713 34.7438H38.4V36.5723H36.5713V34.7438Z" fill="#B2DCEF"/>
<path d="M38.4 34.7438H40.2285V36.5723H38.4V34.7438Z" fill="#B2DCEF"/>
<path d="M40.2285 34.7438H42.057V36.5723H40.2285V34.7438Z" fill="#B2DCEF"/>
<path d="M42.0569 34.7438H43.8856V36.5723H42.0569V34.7438Z" fill="#B2DCEF"/>
<path d="M43.8856 34.7438H45.7141V36.5723H43.8856V34.7438Z" fill="#B2DCEF"/>
<path d="M45.7141 34.7438H47.5429V36.5723H45.7141V34.7438Z" fill="black"/>
<path d="M1.82849 36.5717H3.65707V38.4004H1.82849V36.5717Z" fill="black"/>
<path d="M3.6571 36.5717H5.48558V38.4004H3.6571V36.5717Z" fill="black"/>
<path d="M5.4856 36.5717H7.31434V38.4004H5.4856V36.5717Z" fill="black"/>
<path d="M7.31433 36.5717H9.14281V38.4004H7.31433V36.5717Z" fill="black"/>
<path d="M9.1427 36.5717H10.9712V38.4004H9.1427V36.5717Z" fill="#1B2632"/>
<path d="M10.9712 36.5717H12.7999V38.4004H10.9712V36.5717Z" fill="#2F484E"/>
<path d="M12.7999 36.5717H14.6284V38.4004H12.7999V36.5717Z" fill="#2F484E"/>
<path d="M14.6284 36.5717H16.4569V38.4004H14.6284V36.5717Z" fill="#1B2632"/>
<path d="M16.4569 36.5717H18.2856V38.4004H16.4569V36.5717Z" fill="black"/>
<path d="M18.2858 36.5717H20.1142V38.4004H18.2858V36.5717Z" fill="black"/>
<path d="M20.1141 36.5717H21.9429V38.4004H20.1141V36.5717Z" fill="black"/>
<path d="M21.943 36.5717H23.7715V38.4004H21.943V36.5717Z" fill="black"/>
<path d="M23.7715 36.5717H25.6V38.4004H23.7715V36.5717Z" fill="black"/>
<path d="M25.5997 36.5717H27.4285V38.4004H25.5997V36.5717Z" fill="black"/>
<path d="M27.4286 36.5717H29.2571V38.4004H27.4286V36.5717Z" fill="black"/>
<path d="M29.2571 36.5717H31.0856V38.4004H29.2571V36.5717Z" fill="black"/>
<path d="M31.0856 36.5717H32.9143V38.4004H31.0856V36.5717Z" fill="black"/>
<path d="M32.9143 36.5717H34.7428V38.4004H32.9143V36.5717Z" fill="#1B2632"/>
<path d="M34.7428 36.5717H36.5713V38.4004H34.7428V36.5717Z" fill="#2F484E"/>
<path d="M36.5713 36.5717H38.4V38.4004H36.5713V36.5717Z" fill="#2F484E"/>
<path d="M38.4 36.5717H40.2285V38.4004H38.4V36.5717Z" fill="#1B2632"/>
<path d="M40.2285 36.5717H42.057V38.4004H40.2285V36.5717Z" fill="black"/>
<path d="M42.0569 36.5717H43.8856V38.4004H42.0569V36.5717Z" fill="black"/>
<path d="M43.8856 36.5717H45.7141V38.4004H43.8856V36.5717Z" fill="black"/>
<path d="M45.7141 36.5717H47.5429V38.4004H45.7141V36.5717Z" fill="black"/>
<path d="M1.82849 38.4H3.65707V40.2285H1.82849V38.4Z" fill="black"/>
<path d="M3.6571 38.4H5.48558V40.2285H3.6571V38.4Z" fill="white"/>
<path d="M5.4856 38.4H7.31434V40.2285H5.4856V38.4Z" fill="#B2DCEF"/>
<path d="M7.31433 38.4H9.14281V40.2285H7.31433V38.4Z" fill="#B2DCEF"/>
<path d="M9.1427 38.4H10.9712V40.2285H9.1427V38.4Z" fill="#B2DCEF"/>
<path d="M10.9712 38.4H12.7999V40.2285H10.9712V38.4Z" fill="#B2DCEF"/>
<path d="M12.7999 38.4H14.6284V40.2285H12.7999V38.4Z" fill="#B2DCEF"/>
<path d="M14.6284 38.4H16.4569V40.2285H14.6284V38.4Z" fill="#B2DCEF"/>
<path d="M16.4569 38.4H18.2856V40.2285H16.4569V38.4Z" fill="#B2DCEF"/>
<path d="M18.2858 38.4H20.1142V40.2285H18.2858V38.4Z" fill="#B2DCEF"/>
<path d="M20.1141 38.4H21.9429V40.2285H20.1141V38.4Z" fill="#B2DCEF"/>
<path d="M21.943 38.4H23.7715V40.2285H21.943V38.4Z" fill="#B2DCEF"/>
<path d="M23.7715 38.4H25.6V40.2285H23.7715V38.4Z" fill="#B2DCEF"/>
<path d="M25.5997 38.4H27.4285V40.2285H25.5997V38.4Z" fill="#B2DCEF"/>
<path d="M27.4286 38.4H29.2571V40.2285H27.4286V38.4Z" fill="#B2DCEF"/>
<path d="M29.2571 38.4H31.0856V40.2285H29.2571V38.4Z" fill="#B2DCEF"/>
<path d="M31.0856 38.4H32.9143V40.2285H31.0856V38.4Z" fill="#B2DCEF"/>
<path d="M32.9143 38.4H34.7428V40.2285H32.9143V38.4Z" fill="#B2DCEF"/>
<path d="M34.7428 38.4H36.5713V40.2285H34.7428V38.4Z" fill="#B2DCEF"/>
<path d="M36.5713 38.4H38.4V40.2285H36.5713V38.4Z" fill="#B2DCEF"/>
<path d="M38.4 38.4H40.2285V40.2285H38.4V38.4Z" fill="#B2DCEF"/>
<path d="M40.2285 38.4H42.057V40.2285H40.2285V38.4Z" fill="#B2DCEF"/>
<path d="M42.0569 38.4H43.8856V40.2285H42.0569V38.4Z" fill="#B2DCEF"/>
<path d="M43.8856 38.4H45.7141V40.2285H43.8856V38.4Z" fill="#B2DCEF"/>
<path d="M45.7141 38.4H47.5429V40.2285H45.7141V38.4Z" fill="#B2DCEF"/>
<path d="M47.5428 38.4H49.3713V40.2285H47.5428V38.4Z" fill="black"/>
<path d="M1.82849 40.2282H3.65707V42.0566H1.82849V40.2282Z" fill="black"/>
<path d="M3.6571 40.2282H5.48558V42.0566H3.6571V40.2282Z" fill="#1B2632"/>
<path d="M5.4856 40.2282H7.31434V42.0566H5.4856V40.2282Z" fill="white"/>
<path d="M7.31433 40.2282H9.14281V42.0566H7.31433V40.2282Z" fill="#B2DCEF"/>
<path d="M9.1427 40.2282H10.9712V42.0566H9.1427V40.2282Z" fill="#B2DCEF"/>
<path d="M10.9712 40.2282H12.7999V42.0566H10.9712V40.2282Z" fill="#1B2632"/>
<path d="M12.7999 40.2282H14.6284V42.0566H12.7999V40.2282Z" fill="#1B2632"/>
<path d="M14.6284 40.2282H16.4569V42.0566H14.6284V40.2282Z" fill="#1B2632"/>
<path d="M16.4569 40.2282H18.2856V42.0566H16.4569V40.2282Z" fill="#1B2632"/>
<path d="M18.2858 40.2282H20.1142V42.0566H18.2858V40.2282Z" fill="#1B2632"/>
<path d="M20.1141 40.2282H21.9429V42.0566H20.1141V40.2282Z" fill="#1B2632"/>
<path d="M21.943 40.2282H23.7715V42.0566H21.943V40.2282Z" fill="#1B2632"/>
<path d="M23.7715 40.2282H25.6V42.0566H23.7715V40.2282Z" fill="#1B2632"/>
<path d="M25.5997 40.2282H27.4285V42.0566H25.5997V40.2282Z" fill="#1B2632"/>
<path d="M27.4286 40.2282H29.2571V42.0566H27.4286V40.2282Z" fill="#1B2632"/>
<path d="M29.2571 40.2282H31.0856V42.0566H29.2571V40.2282Z" fill="#1B2632"/>
<path d="M31.0856 40.2282H32.9143V42.0566H31.0856V40.2282Z" fill="#1B2632"/>
<path d="M32.9143 40.2282H34.7428V42.0566H32.9143V40.2282Z" fill="#1B2632"/>
<path d="M34.7428 40.2282H36.5713V42.0566H34.7428V40.2282Z" fill="#1B2632"/>
<path d="M36.5713 40.2282H38.4V42.0566H36.5713V40.2282Z" fill="#1B2632"/>
<path d="M38.4 40.2282H40.2285V42.0566H38.4V40.2282Z" fill="#1B2632"/>
<path d="M40.2285 40.2282H42.057V42.0566H40.2285V40.2282Z" fill="#1B2632"/>
<path d="M42.0569 40.2282H43.8856V42.0566H42.0569V40.2282Z" fill="#1B2632"/>
<path d="M43.8856 40.2282H45.7141V42.0566H43.8856V40.2282Z" fill="#1B2632"/>
<path d="M45.7141 40.2282H47.5429V42.0566H45.7141V40.2282Z" fill="#B2DCEF"/>
<path d="M47.5428 40.2282H49.3713V42.0566H47.5428V40.2282Z" fill="white"/>
<path d="M49.3713 40.2282H51.1998V42.0566H49.3713V40.2282Z" fill="black"/>
<path d="M1.82849 42.058H3.65707V43.8867H1.82849V42.058Z" fill="black"/>
<path d="M3.6571 42.058H5.48558V43.8867H3.6571V42.058Z" fill="#1B2632"/>
<path d="M5.4856 42.058H7.31434V43.8867H5.4856V42.058Z" fill="#1B2632"/>
<path d="M7.31433 42.058H9.14281V43.8867H7.31433V42.058Z" fill="white"/>
<path d="M9.1427 42.058H10.9712V43.8867H9.1427V42.058Z" fill="#B2DCEF"/>
<path d="M10.9712 42.058H12.7999V43.8867H10.9712V42.058Z" fill="#B2DCEF"/>
<path d="M12.7999 42.058H14.6284V43.8867H12.7999V42.058Z" fill="#1B2632"/>
<path d="M14.6284 42.058H16.4569V43.8867H14.6284V42.058Z" fill="#2F484E"/>
<path d="M16.4569 42.058H18.2856V43.8867H16.4569V42.058Z" fill="#B2DCEF"/>
<path d="M18.2858 42.058H20.1142V43.8867H18.2858V42.058Z" fill="#1B2632"/>
<path d="M20.1141 42.058H21.9429V43.8867H20.1141V42.058Z" fill="#2F484E"/>
<path d="M21.943 42.058H23.7715V43.8867H21.943V42.058Z" fill="#B2DCEF"/>
<path d="M23.7715 42.058H25.6V43.8867H23.7715V42.058Z" fill="#1B2632"/>
<path d="M25.5997 42.058H27.4285V43.8867H25.5997V42.058Z" fill="#2F484E"/>
<path d="M27.4286 42.058H29.2571V43.8867H27.4286V42.058Z" fill="#B2DCEF"/>
<path d="M29.2571 42.058H31.0856V43.8867H29.2571V42.058Z" fill="#1B2632"/>
<path d="M31.0856 42.058H32.9143V43.8867H31.0856V42.058Z" fill="#2F484E"/>
<path d="M32.9143 42.058H34.7428V43.8867H32.9143V42.058Z" fill="#B2DCEF"/>
<path d="M34.7428 42.058H36.5713V43.8867H34.7428V42.058Z" fill="#1B2632"/>
<path d="M36.5713 42.058H38.4V43.8867H36.5713V42.058Z" fill="#2F484E"/>
<path d="M38.4 42.058H40.2285V43.8867H38.4V42.058Z" fill="#B2DCEF"/>
<path d="M40.2285 42.058H42.057V43.8867H40.2285V42.058Z" fill="#1B2632"/>
<path d="M42.0569 42.058H43.8856V43.8867H42.0569V42.058Z" fill="#2F484E"/>
<path d="M43.8856 42.058H45.7141V43.8867H43.8856V42.058Z" fill="#B2DCEF"/>
<path d="M45.7141 42.058H47.5429V43.8867H45.7141V42.058Z" fill="#1B2632"/>
<path d="M47.5428 42.058H49.3713V43.8867H47.5428V42.058Z" fill="#B2DCEF"/>
<path d="M49.3713 42.058H51.1998V43.8867H49.3713V42.058Z" fill="white"/>
<path d="M51.1998 42.058H53.0286V43.8867H51.1998V42.058Z" fill="black"/>
<path d="M3.6571 43.8864H5.48558V45.7148H3.6571V43.8864Z" fill="black"/>
<path d="M5.4856 43.8864H7.31434V45.7148H5.4856V43.8864Z" fill="#1B2632"/>
<path d="M7.31433 43.8864H9.14281V45.7148H7.31433V43.8864Z" fill="#1B2632"/>
<path d="M9.1427 43.8864H10.9712V45.7148H9.1427V43.8864Z" fill="white"/>
<path d="M10.9712 43.8864H12.7999V45.7148H10.9712V43.8864Z" fill="#B2DCEF"/>
<path d="M12.7999 43.8864H14.6284V45.7148H12.7999V43.8864Z" fill="#B2DCEF"/>
<path d="M14.6284 43.8864H16.4569V45.7148H14.6284V43.8864Z" fill="#1B2632"/>
<path d="M16.4569 43.8864H18.2856V45.7148H16.4569V43.8864Z" fill="#2F484E"/>
<path d="M18.2858 43.8864H20.1142V45.7148H18.2858V43.8864Z" fill="#B2DCEF"/>
<path d="M20.1141 43.8864H21.9429V45.7148H20.1141V43.8864Z" fill="#1B2632"/>
<path d="M21.943 43.8864H23.7715V45.7148H21.943V43.8864Z" fill="#2F484E"/>
<path d="M23.7715 43.8864H25.6V45.7148H23.7715V43.8864Z" fill="#B2DCEF"/>
<path d="M25.5997 43.8864H27.4285V45.7148H25.5997V43.8864Z" fill="#1B2632"/>
<path d="M27.4286 43.8864H29.2571V45.7148H27.4286V43.8864Z" fill="#2F484E"/>
<path d="M29.2571 43.8864H31.0856V45.7148H29.2571V43.8864Z" fill="#1B2632"/>
<path d="M31.0856 43.8864H32.9143V45.7148H31.0856V43.8864Z" fill="#1B2632"/>
<path d="M32.9143 43.8864H34.7428V45.7148H32.9143V43.8864Z" fill="#1B2632"/>
<path d="M34.7428 43.8864H36.5713V45.7148H34.7428V43.8864Z" fill="#1B2632"/>
<path d="M36.5713 43.8864H38.4V45.7148H36.5713V43.8864Z" fill="#1B2632"/>
<path d="M38.4 43.8864H40.2285V45.7148H38.4V43.8864Z" fill="#1B2632"/>
<path d="M40.2285 43.8864H42.057V45.7148H40.2285V43.8864Z" fill="#B2DCEF"/>
<path d="M42.0569 43.8864H43.8856V45.7148H42.0569V43.8864Z" fill="#1B2632"/>
<path d="M43.8856 43.8864H45.7141V45.7148H43.8856V43.8864Z" fill="#2F484E"/>
<path d="M45.7141 43.8864H47.5429V45.7148H45.7141V43.8864Z" fill="#B2DCEF"/>
<path d="M47.5428 43.8864H49.3713V45.7148H47.5428V43.8864Z" fill="#1B2632"/>
<path d="M49.3713 43.8864H51.1998V45.7148H49.3713V43.8864Z" fill="#B2DCEF"/>
<path d="M51.1998 43.8864H53.0286V45.7148H51.1998V43.8864Z" fill="white"/>
<path d="M53.0286 43.8864H54.857V45.7148H53.0286V43.8864Z" fill="black"/>
<path d="M5.4856 45.7142H7.31434V47.543H5.4856V45.7142Z" fill="black"/>
<path d="M7.31433 45.7142H9.14281V47.543H7.31433V45.7142Z" fill="#1B2632"/>
<path d="M9.1427 45.7142H10.9712V47.543H9.1427V45.7142Z" fill="#1B2632"/>
<path d="M10.9712 45.7142H12.7999V47.543H10.9712V45.7142Z" fill="white"/>
<path d="M12.7999 45.7142H14.6284V47.543H12.7999V45.7142Z" fill="#B2DCEF"/>
<path d="M14.6284 45.7142H16.4569V47.543H14.6284V45.7142Z" fill="#B2DCEF"/>
<path d="M16.4569 45.7142H18.2856V47.543H16.4569V45.7142Z" fill="#1B2632"/>
<path d="M18.2858 45.7142H20.1142V47.543H18.2858V45.7142Z" fill="#2F484E"/>
<path d="M20.1141 45.7142H21.9429V47.543H20.1141V45.7142Z" fill="#B2DCEF"/>
<path d="M21.943 45.7142H23.7715V47.543H21.943V45.7142Z" fill="#1B2632"/>
<path d="M23.7715 45.7142H25.6V47.543H23.7715V45.7142Z" fill="#2F484E"/>
<path d="M25.5997 45.7142H27.4285V47.543H25.5997V45.7142Z" fill="#B2DCEF"/>
<path d="M27.4286 45.7142H29.2571V47.543H27.4286V45.7142Z" fill="#2F484E"/>
<path d="M29.2571 45.7142H31.0856V47.543H29.2571V45.7142Z" fill="#B2DCEF"/>
<path d="M31.0856 45.7142H32.9143V47.543H31.0856V45.7142Z" fill="#B2DCEF"/>
<path d="M32.9143 45.7142H34.7428V47.543H32.9143V45.7142Z" fill="#B2DCEF"/>
<path d="M34.7428 45.7142H36.5713V47.543H34.7428V45.7142Z" fill="#B2DCEF"/>
<path d="M36.5713 45.7142H38.4V47.543H36.5713V45.7142Z" fill="#B2DCEF"/>
<path d="M38.4 45.7142H40.2285V47.543H38.4V45.7142Z" fill="#B2DCEF"/>
<path d="M40.2285 45.7142H42.057V47.543H40.2285V45.7142Z" fill="#1B2632"/>
<path d="M42.0569 45.7142H43.8856V47.543H42.0569V45.7142Z" fill="#B2DCEF"/>
<path d="M43.8856 45.7142H45.7141V47.543H43.8856V45.7142Z" fill="#1B2632"/>
<path d="M45.7141 45.7142H47.5429V47.543H45.7141V45.7142Z" fill="#2F484E"/>
<path d="M47.5428 45.7142H49.3713V47.543H47.5428V45.7142Z" fill="#B2DCEF"/>
<path d="M49.3713 45.7142H51.1998V47.543H49.3713V45.7142Z" fill="#1B2632"/>
<path d="M51.1998 45.7142H53.0286V47.543H51.1998V45.7142Z" fill="#B2DCEF"/>
<path d="M53.0286 45.7142H54.857V47.543H53.0286V45.7142Z" fill="white"/>
<path d="M54.8571 45.7142H56.6855V47.543H54.8571V45.7142Z" fill="black"/>
<path d="M7.31433 47.5426H9.14281V49.3711H7.31433V47.5426Z" fill="black"/>
<path d="M9.1427 47.5426H10.9712V49.3711H9.1427V47.5426Z" fill="#1B2632"/>
<path d="M10.9712 47.5426H12.7999V49.3711H10.9712V47.5426Z" fill="#1B2632"/>
<path d="M12.7999 47.5426H14.6284V49.3711H12.7999V47.5426Z" fill="white"/>
<path d="M14.6284 47.5426H16.4569V49.3711H14.6284V47.5426Z" fill="#B2DCEF"/>
<path d="M16.4569 47.5426H18.2856V49.3711H16.4569V47.5426Z" fill="#B2DCEF"/>
<path d="M18.2858 47.5426H20.1142V49.3711H18.2858V47.5426Z" fill="#1B2632"/>
<path d="M20.1141 47.5426H21.9429V49.3711H20.1141V47.5426Z" fill="#1B2632"/>
<path d="M21.943 47.5426H23.7715V49.3711H21.943V47.5426Z" fill="#1B2632"/>
<path d="M23.7715 47.5426H25.6V49.3711H23.7715V47.5426Z" fill="#1B2632"/>
<path d="M25.5997 47.5426H27.4285V49.3711H25.5997V47.5426Z" fill="#1B2632"/>
<path d="M27.4286 47.5426H29.2571V49.3711H27.4286V47.5426Z" fill="#1B2632"/>
<path d="M29.2571 47.5426H31.0856V49.3711H29.2571V47.5426Z" fill="#1B2632"/>
<path d="M31.0856 47.5426H32.9143V49.3711H31.0856V47.5426Z" fill="#1B2632"/>
<path d="M32.9143 47.5426H34.7428V49.3711H32.9143V47.5426Z" fill="#1B2632"/>
<path d="M34.7428 47.5426H36.5713V49.3711H34.7428V47.5426Z" fill="#1B2632"/>
<path d="M36.5713 47.5426H38.4V49.3711H36.5713V47.5426Z" fill="#1B2632"/>
<path d="M38.4 47.5426H40.2285V49.3711H38.4V47.5426Z" fill="#1B2632"/>
<path d="M40.2285 47.5426H42.057V49.3711H40.2285V47.5426Z" fill="#1B2632"/>
<path d="M42.0569 47.5426H43.8856V49.3711H42.0569V47.5426Z" fill="#1B2632"/>
<path d="M43.8856 47.5426H45.7141V49.3711H43.8856V47.5426Z" fill="#1B2632"/>
<path d="M45.7141 47.5426H47.5429V49.3711H45.7141V47.5426Z" fill="#1B2632"/>
<path d="M47.5428 47.5426H49.3713V49.3711H47.5428V47.5426Z" fill="#1B2632"/>
<path d="M49.3713 47.5426H51.1998V49.3711H49.3713V47.5426Z" fill="#1B2632"/>
<path d="M51.1998 47.5426H53.0286V49.3711H51.1998V47.5426Z" fill="#1B2632"/>
<path d="M53.0286 47.5426H54.857V49.3711H53.0286V47.5426Z" fill="#B2DCEF"/>
<path d="M54.8571 47.5426H56.6855V49.3711H54.8571V47.5426Z" fill="white"/>
<path d="M56.6855 47.5426H58.5143V49.3711H56.6855V47.5426Z" fill="black"/>
<path d="M9.1427 49.3707H10.9712V51.1992H9.1427V49.3707Z" fill="black"/>
<path d="M10.9712 49.3707H12.7999V51.1992H10.9712V49.3707Z" fill="#1B2632"/>
<path d="M12.7999 49.3707H14.6284V51.1992H12.7999V49.3707Z" fill="#1B2632"/>
<path d="M14.6284 49.3707H16.4569V51.1992H14.6284V49.3707Z" fill="white"/>
<path d="M16.4569 49.3707H18.2856V51.1992H16.4569V49.3707Z" fill="#B2DCEF"/>
<path d="M18.2858 49.3707H20.1142V51.1992H18.2858V49.3707Z" fill="#B2DCEF"/>
<path d="M20.1141 49.3707H21.9429V51.1992H20.1141V49.3707Z" fill="#B2DCEF"/>
<path d="M21.943 49.3707H23.7715V51.1992H21.943V49.3707Z" fill="#B2DCEF"/>
<path d="M23.7715 49.3707H25.6V51.1992H23.7715V49.3707Z" fill="#B2DCEF"/>
<path d="M25.5997 49.3707H27.4285V51.1992H25.5997V49.3707Z" fill="#B2DCEF"/>
<path d="M27.4286 49.3707H29.2571V51.1992H27.4286V49.3707Z" fill="#B2DCEF"/>
<path d="M29.2571 49.3707H31.0856V51.1992H29.2571V49.3707Z" fill="#B2DCEF"/>
<path d="M31.0856 49.3707H32.9143V51.1992H31.0856V49.3707Z" fill="#B2DCEF"/>
<path d="M32.9143 49.3707H34.7428V51.1992H32.9143V49.3707Z" fill="#B2DCEF"/>
<path d="M34.7428 49.3707H36.5713V51.1992H34.7428V49.3707Z" fill="#B2DCEF"/>
<path d="M36.5713 49.3707H38.4V51.1992H36.5713V49.3707Z" fill="#B2DCEF"/>
<path d="M38.4 49.3707H40.2285V51.1992H38.4V49.3707Z" fill="#B2DCEF"/>
<path d="M40.2285 49.3707H42.057V51.1992H40.2285V49.3707Z" fill="#B2DCEF"/>
<path d="M42.0569 49.3707H43.8856V51.1992H42.0569V49.3707Z" fill="#B2DCEF"/>
<path d="M43.8856 49.3707H45.7141V51.1992H43.8856V49.3707Z" fill="#B2DCEF"/>
<path d="M45.7141 49.3707H47.5429V51.1992H45.7141V49.3707Z" fill="#B2DCEF"/>
<path d="M47.5428 49.3707H49.3713V51.1992H47.5428V49.3707Z" fill="#B2DCEF"/>
<path d="M49.3713 49.3707H51.1998V51.1992H49.3713V49.3707Z" fill="#B2DCEF"/>
<path d="M51.1998 49.3707H53.0286V51.1992H51.1998V49.3707Z" fill="#B2DCEF"/>
<path d="M53.0286 49.3707H54.857V51.1992H53.0286V49.3707Z" fill="#B2DCEF"/>
<path d="M54.8571 49.3707H56.6855V51.1992H54.8571V49.3707Z" fill="#B2DCEF"/>
<path d="M56.6855 49.3707H58.5143V51.1992H56.6855V49.3707Z" fill="white"/>
<path d="M58.5143 49.3707H60.3428V51.1992H58.5143V49.3707Z" fill="black"/>
<path d="M10.9712 51.2006H12.7999V53.0293H10.9712V51.2006Z" fill="black"/>
<path d="M12.7999 51.2006H14.6284V53.0293H12.7999V51.2006Z" fill="#1B2632"/>
<path d="M14.6284 51.2006H16.4569V53.0293H14.6284V51.2006Z" fill="#1B2632"/>
<path d="M16.4569 51.2006H18.2856V53.0293H16.4569V51.2006Z" fill="white"/>
<path d="M18.2858 51.2006H20.1142V53.0293H18.2858V51.2006Z" fill="#B2DCEF"/>
<path d="M20.1141 51.2006H21.9429V53.0293H20.1141V51.2006Z" fill="#B2DCEF"/>
<path d="M21.943 51.2006H23.7715V53.0293H21.943V51.2006Z" fill="#B2DCEF"/>
<path d="M23.7715 51.2006H25.6V53.0293H23.7715V51.2006Z" fill="#B2DCEF"/>
<path d="M25.5997 51.2006H27.4285V53.0293H25.5997V51.2006Z" fill="#B2DCEF"/>
<path d="M27.4286 51.2006H29.2571V53.0293H27.4286V51.2006Z" fill="#B2DCEF"/>
<path d="M29.2571 51.2006H31.0856V53.0293H29.2571V51.2006Z" fill="#B2DCEF"/>
<path d="M31.0856 51.2006H32.9143V53.0293H31.0856V51.2006Z" fill="#B2DCEF"/>
<path d="M32.9143 51.2006H34.7428V53.0293H32.9143V51.2006Z" fill="#B2DCEF"/>
<path d="M34.7428 51.2006H36.5713V53.0293H34.7428V51.2006Z" fill="#1B2632"/>
<path d="M36.5713 51.2006H38.4V53.0293H36.5713V51.2006Z" fill="#2F484E"/>
<path d="M38.4 51.2006H40.2285V53.0293H38.4V51.2006Z" fill="#2F484E"/>
<path d="M40.2285 51.2006H42.057V53.0293H40.2285V51.2006Z" fill="#2F484E"/>
<path d="M42.0569 51.2006H43.8856V53.0293H42.0569V51.2006Z" fill="#2F484E"/>
<path d="M43.8856 51.2006H45.7141V53.0293H43.8856V51.2006Z" fill="#1B2632"/>
<path d="M45.7141 51.2006H47.5429V53.0293H45.7141V51.2006Z" fill="#B2DCEF"/>
<path d="M47.5428 51.2006H49.3713V53.0293H47.5428V51.2006Z" fill="#B2DCEF"/>
<path d="M49.3713 51.2006H51.1998V53.0293H49.3713V51.2006Z" fill="#B2DCEF"/>
<path d="M51.1998 51.2006H53.0286V53.0293H51.1998V51.2006Z" fill="#B2DCEF"/>
<path d="M53.0286 51.2006H54.857V53.0293H53.0286V51.2006Z" fill="#B2DCEF"/>
<path d="M54.8571 51.2006H56.6855V53.0293H54.8571V51.2006Z" fill="#B2DCEF"/>
<path d="M56.6855 51.2006H58.5143V53.0293H56.6855V51.2006Z" fill="#B2DCEF"/>
<path d="M58.5143 51.2006H60.3428V53.0293H58.5143V51.2006Z" fill="white"/>
<path d="M60.3428 51.2006H62.1712V53.0293H60.3428V51.2006Z" fill="black"/>
<path d="M12.7999 53.0289H14.6284V54.8574H12.7999V53.0289Z" fill="black"/>
<path d="M14.6284 53.0289H16.4569V54.8574H14.6284V53.0289Z" fill="#1B2632"/>
<path d="M16.4569 53.0289H18.2856V54.8574H16.4569V53.0289Z" fill="#1B2632"/>
<path d="M18.2858 53.0289H20.1142V54.8574H18.2858V53.0289Z" fill="white"/>
<path d="M20.1141 53.0289H21.9429V54.8574H20.1141V53.0289Z" fill="white"/>
<path d="M21.943 53.0289H23.7715V54.8574H21.943V53.0289Z" fill="white"/>
<path d="M23.7715 53.0289H25.6V54.8574H23.7715V53.0289Z" fill="white"/>
<path d="M25.5997 53.0289H27.4285V54.8574H25.5997V53.0289Z" fill="white"/>
<path d="M27.4286 53.0289H29.2571V54.8574H27.4286V53.0289Z" fill="white"/>
<path d="M29.2571 53.0289H31.0856V54.8574H29.2571V53.0289Z" fill="white"/>
<path d="M31.0856 53.0289H32.9143V54.8574H31.0856V53.0289Z" fill="white"/>
<path d="M32.9143 53.0289H34.7428V54.8574H32.9143V53.0289Z" fill="white"/>
<path d="M34.7428 53.0289H36.5713V54.8574H34.7428V53.0289Z" fill="white"/>
<path d="M36.5713 53.0289H38.4V54.8574H36.5713V53.0289Z" fill="white"/>
<path d="M38.4 53.0289H40.2285V54.8574H38.4V53.0289Z" fill="white"/>
<path d="M40.2285 53.0289H42.057V54.8574H40.2285V53.0289Z" fill="white"/>
<path d="M42.0569 53.0289H43.8856V54.8574H42.0569V53.0289Z" fill="white"/>
<path d="M43.8856 53.0289H45.7141V54.8574H43.8856V53.0289Z" fill="white"/>
<path d="M45.7141 53.0289H47.5429V54.8574H45.7141V53.0289Z" fill="white"/>
<path d="M47.5428 53.0289H49.3713V54.8574H47.5428V53.0289Z" fill="white"/>
<path d="M49.3713 53.0289H51.1998V54.8574H49.3713V53.0289Z" fill="white"/>
<path d="M51.1998 53.0289H53.0286V54.8574H51.1998V53.0289Z" fill="white"/>
<path d="M53.0286 53.0289H54.857V54.8574H53.0286V53.0289Z" fill="white"/>
<path d="M54.8571 53.0289H56.6855V54.8574H54.8571V53.0289Z" fill="white"/>
<path d="M56.6855 53.0289H58.5143V54.8574H56.6855V53.0289Z" fill="white"/>
<path d="M58.5143 53.0289H60.3428V54.8574H58.5143V53.0289Z" fill="white"/>
<path d="M60.3428 53.0289H62.1712V54.8574H60.3428V53.0289Z" fill="white"/>
<path d="M62.1711 53.0289H63.9999V54.8574H62.1711V53.0289Z" fill="black"/>
<path d="M14.6284 54.8571H16.4569V56.6855H14.6284V54.8571Z" fill="black"/>
<path d="M16.4569 54.8571H18.2856V56.6855H16.4569V54.8571Z" fill="#1B2632"/>
<path d="M18.2858 54.8571H20.1142V56.6855H18.2858V54.8571Z" fill="#2F484E"/>
<path d="M20.1141 54.8571H21.9429V56.6855H20.1141V54.8571Z" fill="#2F484E"/>
<path d="M21.943 54.8571H23.7715V56.6855H21.943V54.8571Z" fill="#2F484E"/>
<path d="M23.7715 54.8571H25.6V56.6855H23.7715V54.8571Z" fill="#2F484E"/>
<path d="M25.5997 54.8571H27.4285V56.6855H25.5997V54.8571Z" fill="#2F484E"/>
<path d="M27.4286 54.8571H29.2571V56.6855H27.4286V54.8571Z" fill="#2F484E"/>
<path d="M29.2571 54.8571H31.0856V56.6855H29.2571V54.8571Z" fill="#2F484E"/>
<path d="M31.0856 54.8571H32.9143V56.6855H31.0856V54.8571Z" fill="#2F484E"/>
<path d="M32.9143 54.8571H34.7428V56.6855H32.9143V54.8571Z" fill="#2F484E"/>
<path d="M34.7428 54.8571H36.5713V56.6855H34.7428V54.8571Z" fill="#2F484E"/>
<path d="M36.5713 54.8571H38.4V56.6855H36.5713V54.8571Z" fill="#2F484E"/>
<path d="M38.4 54.8571H40.2285V56.6855H38.4V54.8571Z" fill="#EC4700"/>
<path d="M40.2285 54.8571H42.057V56.6855H40.2285V54.8571Z" fill="#2F484E"/>
<path d="M42.0569 54.8571H43.8856V56.6855H42.0569V54.8571Z" fill="#15C2A5"/>
<path d="M43.8856 54.8571H45.7141V56.6855H43.8856V54.8571Z" fill="#2F484E"/>
<path d="M45.7141 54.8571H47.5429V56.6855H45.7141V54.8571Z" fill="#2F484E"/>
<path d="M47.5428 54.8571H49.3713V56.6855H47.5428V54.8571Z" fill="#2F484E"/>
<path d="M49.3713 54.8571H51.1998V56.6855H49.3713V54.8571Z" fill="#2F484E"/>
<path d="M51.1998 54.8571H53.0286V56.6855H51.1998V54.8571Z" fill="#2F484E"/>
<path d="M53.0286 54.8571H54.857V56.6855H53.0286V54.8571Z" fill="#2F484E"/>
<path d="M54.8571 54.8571H56.6855V56.6855H54.8571V54.8571Z" fill="#2F484E"/>
<path d="M56.6855 54.8571H58.5143V56.6855H56.6855V54.8571Z" fill="#2F484E"/>
<path d="M58.5143 54.8571H60.3428V56.6855H58.5143V54.8571Z" fill="#2F484E"/>
<path d="M60.3428 54.8571H62.1712V56.6855H60.3428V54.8571Z" fill="#2F484E"/>
<path d="M62.1711 54.8571H63.9999V56.6855H62.1711V54.8571Z" fill="black"/>
<path d="M16.4569 56.6849H18.2856V58.5137H16.4569V56.6849Z" fill="black"/>
<path d="M18.2858 56.6849H20.1142V58.5137H18.2858V56.6849Z" fill="black"/>
<path d="M20.1141 56.6849H21.9429V58.5137H20.1141V56.6849Z" fill="black"/>
<path d="M21.943 56.6849H23.7715V58.5137H21.943V56.6849Z" fill="black"/>
<path d="M23.7715 56.6849H25.6V58.5137H23.7715V56.6849Z" fill="black"/>
<path d="M25.5997 56.6849H27.4285V58.5137H25.5997V56.6849Z" fill="black"/>
<path d="M27.4286 56.6849H29.2571V58.5137H27.4286V56.6849Z" fill="black"/>
<path d="M29.2571 56.6849H31.0856V58.5137H29.2571V56.6849Z" fill="black"/>
<path d="M31.0856 56.6849H32.9143V58.5137H31.0856V56.6849Z" fill="black"/>
<path d="M32.9143 56.6849H34.7428V58.5137H32.9143V56.6849Z" fill="black"/>
<path d="M34.7428 56.6849H36.5713V58.5137H34.7428V56.6849Z" fill="black"/>
<path d="M36.5713 56.6849H38.4V58.5137H36.5713V56.6849Z" fill="black"/>
<path d="M38.4 56.6849H40.2285V58.5137H38.4V56.6849Z" fill="black"/>
<path d="M40.2285 56.6849H42.057V58.5137H40.2285V56.6849Z" fill="black"/>
<path d="M42.0569 56.6849H43.8856V58.5137H42.0569V56.6849Z" fill="black"/>
<path d="M43.8856 56.6849H45.7141V58.5137H43.8856V56.6849Z" fill="black"/>
<path d="M45.7141 56.6849H47.5429V58.5137H45.7141V56.6849Z" fill="black"/>
<path d="M47.5428 56.6849H49.3713V58.5137H47.5428V56.6849Z" fill="black"/>
<path d="M49.3713 56.6849H51.1998V58.5137H49.3713V56.6849Z" fill="black"/>
<path d="M51.1998 56.6849H53.0286V58.5137H51.1998V56.6849Z" fill="black"/>
<path d="M53.0286 56.6849H54.857V58.5137H53.0286V56.6849Z" fill="black"/>
<path d="M54.8571 56.6849H56.6855V58.5137H54.8571V56.6849Z" fill="black"/>
<path d="M56.6855 56.6849H58.5143V58.5137H56.6855V56.6849Z" fill="black"/>
<path d="M58.5143 56.6849H60.3428V58.5137H58.5143V56.6849Z" fill="black"/>
<path d="M60.3428 56.6849H62.1712V58.5137H60.3428V56.6849Z" fill="black"/>
</svg>
