<svg width="24" height="24" viewBox="0 0 24 24" fill="none" xmlns="http://www.w3.org/2000/svg">
<path d="M5.77778 3H7.55556V5.68421H5.77778V3ZM9.33333 3H11.1111V5.68421H9.33333V3ZM12.8889 3H14.6667V5.68421H12.8889V3ZM18.2222 9.26316H16.4444V8.36842C16.4444 8.13112 16.3508 7.90354 16.1841 7.73575C16.0174 7.56795 15.7913 7.47368 15.5556 7.47368H4.88889C4.65314 7.47368 4.42705 7.56795 4.26035 7.73575C4.09365 7.90354 4 8.13112 4 8.36842V17.3158C4 18.0277 4.28095 18.7104 4.78105 19.2138C5.28115 19.7172 5.95942 20 6.66667 20H13.7778C14.485 20 15.1633 19.7172 15.6634 19.2138C16.1635 18.7104 16.4444 18.0277 16.4444 17.3158H18.2222C19.2027 17.3158 20 16.5132 20 15.5263V11.0526C20 10.0657 19.2027 9.26316 18.2222 9.26316ZM16.4444 15.5263V11.0526H18.2222L18.224 15.5263H16.4444Z" fill="white" fill-opacity="0.5"/>
</svg>
