<svg width="370" height="108" viewBox="0 0 370 108" fill="none" xmlns="http://www.w3.org/2000/svg">
<rect width="370" height="108" rx="16" fill="black"/>
<rect x="1" y="1" width="368" height="82" rx="15" fill="#F42323"/>
<rect x="1" y="1" width="368" height="82" rx="15" stroke="black" stroke-width="2"/>
<g clip-path="url(#clip0_1667_4005)">
<path d="M135.5 42L107.5 59L107.5 25L135.5 42Z" fill="white"/>
</g>
<path d="M151.532 59V25.4H166.412C167.916 25.4 169.308 25.56 170.588 25.88C171.868 26.168 172.956 26.632 173.852 27.272C174.78 27.912 175.5 28.776 176.012 29.864C176.524 30.92 176.78 32.2 176.78 33.704V33.944C176.78 34.872 176.636 35.736 176.348 36.536C176.092 37.304 175.708 38.008 175.196 38.648C174.684 39.288 174.06 39.832 173.324 40.28C172.62 40.696 171.836 41 170.972 41.192V41.288C172.124 41.448 173.148 41.768 174.044 42.248C174.94 42.696 175.692 43.272 176.3 43.976C176.908 44.68 177.372 45.496 177.692 46.424C178.012 47.32 178.172 48.312 178.172 49.4V49.688C178.172 51.384 177.868 52.824 177.26 54.008C176.652 55.192 175.804 56.152 174.716 56.888C173.66 57.624 172.38 58.168 170.876 58.52C169.404 58.84 167.788 59 166.028 59H151.532ZM156.668 54.632H165.308C166.364 54.632 167.34 54.568 168.236 54.44C169.164 54.28 169.964 54.008 170.636 53.624C171.34 53.24 171.884 52.696 172.268 51.992C172.652 51.288 172.844 50.376 172.844 49.256V48.968C172.844 47.784 172.636 46.84 172.22 46.136C171.836 45.432 171.308 44.888 170.636 44.504C169.964 44.12 169.164 43.88 168.236 43.784C167.308 43.656 166.316 43.592 165.26 43.592H156.668V54.632ZM156.668 39.704H165.02C165.98 39.704 166.86 39.624 167.66 39.464C168.46 39.304 169.148 39.032 169.724 38.648C170.3 38.264 170.748 37.752 171.068 37.112C171.388 36.472 171.548 35.672 171.548 34.712V34.424C171.548 33.496 171.388 32.744 171.068 32.168C170.748 31.592 170.3 31.128 169.724 30.776C169.18 30.392 168.524 30.136 167.756 30.008C166.988 29.848 166.156 29.768 165.26 29.768H156.668V39.704ZM195.244 59.768C193.836 59.768 192.524 59.64 191.308 59.384C190.124 59.16 189.02 58.824 187.996 58.376C187.004 57.896 186.124 57.288 185.356 56.552C184.588 55.784 183.932 54.888 183.388 53.864C182.844 52.808 182.428 51.608 182.14 50.264C181.884 48.92 181.756 47.416 181.756 45.752V25.4H186.94V45.368C186.94 46.808 187.052 48.136 187.276 49.352C187.532 50.536 187.964 51.56 188.572 52.424C189.18 53.256 190.028 53.928 191.116 54.44C192.204 54.92 193.58 55.16 195.244 55.16C196.94 55.16 198.316 54.92 199.372 54.44C200.46 53.928 201.308 53.256 201.916 52.424C202.556 51.56 202.988 50.536 203.212 49.352C203.436 48.136 203.548 46.808 203.548 45.368V25.4H208.732V45.752C208.732 47.384 208.588 48.872 208.3 50.216C208.012 51.56 207.596 52.744 207.052 53.768C206.508 54.792 205.836 55.688 205.036 56.456C204.268 57.192 203.372 57.816 202.348 58.328C201.356 58.808 200.268 59.16 199.084 59.384C197.9 59.64 196.62 59.768 195.244 59.768ZM226.252 59.768C224.108 59.768 222.156 59.528 220.396 59.048C218.668 58.568 217.18 57.848 215.932 56.888C214.716 55.896 213.772 54.664 213.1 53.192C212.428 51.688 212.092 49.912 212.092 47.864V47.48H217.42V47.768C217.42 49.016 217.644 50.104 218.092 51.032C218.572 51.96 219.212 52.744 220.012 53.384C220.812 54.024 221.756 54.504 222.844 54.824C223.964 55.144 225.132 55.304 226.348 55.304C227.5 55.304 228.572 55.224 229.564 55.064C230.556 54.872 231.388 54.568 232.06 54.152C232.764 53.736 233.308 53.192 233.692 52.52C234.076 51.816 234.268 50.936 234.268 49.88V49.4C234.268 48.344 233.964 47.512 233.356 46.904C232.78 46.264 231.996 45.736 231.004 45.32C230.012 44.904 228.876 44.568 227.596 44.312C226.316 44.056 225.02 43.8 223.708 43.544C222.428 43.256 221.148 42.92 219.868 42.536C218.62 42.152 217.5 41.624 216.508 40.952C215.516 40.28 214.716 39.432 214.108 38.408C213.5 37.384 213.196 36.088 213.196 34.52V34.184C213.196 32.36 213.58 30.84 214.348 29.624C215.116 28.408 216.108 27.432 217.324 26.696C218.572 25.96 219.98 25.432 221.548 25.112C223.116 24.792 224.716 24.632 226.348 24.632C228.268 24.632 229.996 24.888 231.532 25.4C233.1 25.88 234.444 26.6 235.564 27.56C236.684 28.488 237.548 29.624 238.156 30.968C238.764 32.312 239.068 33.816 239.068 35.48V35.864H233.788V35.576C233.788 34.488 233.596 33.544 233.212 32.744C232.828 31.944 232.3 31.272 231.628 30.728C230.956 30.184 230.14 29.784 229.18 29.528C228.22 29.24 227.164 29.096 226.012 29.096C225.116 29.096 224.22 29.192 223.324 29.384C222.46 29.544 221.676 29.816 220.972 30.2C220.3 30.584 219.756 31.08 219.34 31.688C218.924 32.264 218.716 32.984 218.716 33.848V34.328C218.716 35.32 219.004 36.12 219.58 36.728C220.188 37.304 220.988 37.784 221.98 38.168C222.972 38.552 224.092 38.872 225.34 39.128C226.62 39.352 227.916 39.608 229.228 39.896C230.54 40.152 231.82 40.472 233.068 40.856C234.348 41.24 235.484 41.784 236.476 42.488C237.468 43.192 238.252 44.088 238.828 45.176C239.436 46.264 239.74 47.624 239.74 49.256V49.592C239.74 51.48 239.388 53.064 238.684 54.344C237.98 55.624 237.02 56.68 235.804 57.512C234.588 58.312 233.148 58.888 231.484 59.24C229.852 59.592 228.108 59.768 226.252 59.768ZM255.962 59H250.778V45.656L238.586 25.4H244.49L254.282 42.104H252.746L262.49 25.4H268.106L255.962 45.656V59Z" fill="white"/>
<defs>
<clipPath id="clip0_1667_4005">
<rect width="34" height="34" fill="white" transform="translate(101.5 25)"/>
</clipPath>
</defs>
</svg>
