<svg width="24" height="24" viewBox="0 0 24 24" fill="none" xmlns="http://www.w3.org/2000/svg">
<path d="M21 13.2698V17.3158C21 18.0277 20.7155 18.7104 20.2092 19.2138C19.7028 19.7172 19.0161 20 18.3 20H5.7C4.98392 20 4.29716 19.7172 3.79081 19.2138C3.28446 18.7104 3 18.0277 3 17.3158V13.2698L3.4977 13.5176C6.13553 14.8385 9.04803 15.5263 12.0016 15.526C14.9551 15.5257 17.8674 14.8372 20.505 13.5158L21 13.2698ZM13.8 3C14.5161 3 15.2028 3.2828 15.7092 3.78619C16.2155 4.28957 16.5 4.97231 16.5 5.68421V6.57895H18.3C19.0161 6.57895 19.7028 6.86175 20.2092 7.36513C20.7155 7.86852 21 8.55126 21 9.26316V11.2692L19.6977 11.9169C17.3676 13.0847 14.7996 13.7068 12.1904 13.7356C9.58118 13.7645 6.99992 13.1993 4.6443 12.0834L4.062 11.7971L3 11.2692V9.26316C3 8.55126 3.28446 7.86852 3.79081 7.36513C4.29716 6.86175 4.98392 6.57895 5.7 6.57895H7.5V5.68421C7.5 4.97231 7.78446 4.28957 8.29081 3.78619C8.79716 3.2828 9.48392 3 10.2 3H13.8ZM12 10.1579C11.7613 10.1579 11.5324 10.2522 11.3636 10.42C11.1948 10.5878 11.1 10.8153 11.1 11.0526C11.0994 11.1701 11.1221 11.2866 11.1668 11.3954C11.2115 11.5042 11.2773 11.6031 11.3604 11.6866C11.4436 11.7701 11.5425 11.8365 11.6514 11.882C11.7604 11.9275 11.8773 11.9513 11.9955 11.9518C12.1137 11.9524 12.2308 11.9299 12.3403 11.8854C12.4497 11.841 12.5492 11.7756 12.6332 11.6929C12.7172 11.6103 12.784 11.512 12.8298 11.4036C12.8755 11.2953 12.8994 11.1791 12.9 11.0616C12.9 10.5587 12.4968 10.1579 12 10.1579ZM13.8 4.78947H10.2C9.9613 4.78947 9.73239 4.88374 9.5636 5.05154C9.39482 5.21933 9.3 5.44691 9.3 5.68421V6.57895H14.7V5.68421C14.7 5.44691 14.6052 5.21933 14.4364 5.05154C14.2676 4.88374 14.0387 4.78947 13.8 4.78947Z" fill="white" fill-opacity="0.5"/>
</svg>
