<svg width="24" height="24" viewBox="0 0 24 24" fill="none" xmlns="http://www.w3.org/2000/svg">
<g clip-path="url(#clip0_14_5473)">
<path opacity="0.4" d="M0.330336 5.9108L1.66067 5.54694L2.20646 7.54245L0.876122 7.90631L0.330336 5.9108ZM2.99101 5.18309L4.32134 4.81923L4.86713 6.81473L3.53679 7.17859L2.99101 5.18309ZM5.65168 4.45537L6.98202 4.09151L7.5278 6.08702L6.19747 6.45088L5.65168 4.45537ZM10.9162 8.01998L9.58585 8.38383L9.40393 7.71867C9.35568 7.54225 9.23932 7.39223 9.08046 7.30161C8.9216 7.21098 8.73324 7.18718 8.55683 7.23543L0.574812 9.41857C0.398398 9.46682 0.248377 9.58318 0.157753 9.74204C0.0671276 9.9009 0.0433219 10.0893 0.0915723 10.2657L1.91086 16.9173C2.05561 17.4466 2.40467 17.8967 2.88126 18.1685C3.35784 18.4404 3.92291 18.5118 4.45215 18.3671L9.77349 16.9116C10.3027 16.7669 10.7528 16.4178 11.0247 15.9412C11.2965 15.4647 11.368 14.8996 11.2232 14.3703L12.5535 14.0065C13.2872 13.8058 13.7207 13.046 13.52 12.3123L12.6104 8.98645C12.4097 8.25277 11.6499 7.81931 10.9162 8.01998ZM10.8594 13.04L9.94971 9.71417L11.28 9.35031L12.191 12.6758L10.8594 13.04Z" fill="white" fill-opacity="0.5"/>
<path d="M13.7259 5.75764L15.0773 6.03309L14.6641 8.06021L13.3127 7.78475L13.7259 5.75764ZM16.4287 6.30855L17.7802 6.58401L17.367 8.61112L16.0156 8.33567L16.4287 6.30855ZM19.1316 6.85947L20.483 7.13493L20.0698 9.16204L18.7184 8.88658L19.1316 6.85947ZM22.2217 12.4158L20.8703 12.1403L21.008 11.4646C21.0445 11.2854 21.0084 11.099 20.9075 10.9465C20.8066 10.7939 20.6492 10.6877 20.47 10.6512L12.3616 8.99843C12.1824 8.9619 11.996 8.99806 11.8434 9.09895C11.6909 9.19984 11.5847 9.3572 11.5481 9.53641L10.1708 16.2935C10.0613 16.8311 10.1697 17.3902 10.4724 17.8479C10.7751 18.3055 11.2472 18.6242 11.7848 18.7338L17.1904 19.8356C17.728 19.9452 18.2872 19.8367 18.7448 19.534C19.2025 19.2314 19.5211 18.7593 19.6307 18.2217L20.9821 18.4971C21.7274 18.649 22.4571 18.1665 22.609 17.4212L23.2976 14.0426C23.4496 13.2973 22.967 12.5677 22.2217 12.4158ZM19.9062 16.8703L20.5948 13.4917L21.9462 13.7672L21.2589 17.146L19.9062 16.8703Z" fill="white" fill-opacity="0.5"/>
</g>
<defs>
<clipPath id="clip0_14_5473">
<rect width="24" height="24" fill="white"/>
</clipPath>
</defs>
</svg>
