<svg width="16" height="16" viewBox="0 0 16 16" fill="none" xmlns="http://www.w3.org/2000/svg">
<path fill-rule="evenodd" clip-rule="evenodd" d="M4.99935 6.00016V4.3335C4.99935 3.53785 5.31542 2.77478 5.87803 2.21218C6.44064 1.64957 7.2037 1.3335 7.99935 1.3335C8.795 1.3335 9.55806 1.64957 10.1207 2.21218C10.6833 2.77478 10.9994 3.53785 10.9994 4.3335V6.00016H12.666C12.8427 6.00016 13.0122 6.07031 13.1372 6.19519C13.2622 6.32007 13.3325 6.48947 13.3327 6.66616V14.0002C13.3329 14.0878 13.3159 14.1746 13.2825 14.2556C13.2491 14.3366 13.2 14.4102 13.138 14.4722C13.0761 14.5341 13.0025 14.5832 12.9215 14.6166C12.8405 14.65 12.7536 14.6671 12.666 14.6668H3.33269C3.15599 14.6668 2.98652 14.5967 2.86152 14.4718C2.73651 14.3469 2.6662 14.1775 2.66602 14.0008V6.66683C2.66575 6.57921 2.68282 6.4924 2.71623 6.4114C2.74964 6.33039 2.79873 6.25679 2.86069 6.19484C2.92265 6.13288 2.99625 6.08378 3.07725 6.05037C3.15825 6.01696 3.24506 5.9999 3.33269 6.00016H4.99935ZM5.99935 6.00016H9.99935V4.3335C9.99935 3.80306 9.78864 3.29436 9.41357 2.91928C9.03849 2.54421 8.52979 2.3335 7.99935 2.3335C7.46892 2.3335 6.96021 2.54421 6.58514 2.91928C6.21007 3.29436 5.99935 3.80306 5.99935 4.3335V6.00016ZM7.59935 10.5835V12.0002H8.39935V10.5835C8.60991 10.4916 8.78241 10.33 8.88784 10.1259C8.99327 9.92176 9.0252 9.68757 8.97826 9.46267C8.93132 9.23778 8.80838 9.0359 8.6301 8.89099C8.45183 8.74609 8.22909 8.66698 7.99935 8.66698C7.76961 8.66698 7.54688 8.74609 7.3686 8.89099C7.19033 9.0359 7.06738 9.23778 7.02045 9.46267C6.97351 9.68757 7.00544 9.92176 7.11087 10.1259C7.21629 10.33 7.38879 10.4916 7.59935 10.5835Z" fill="#999999"/>
</svg>
