<svg width="132" height="133" viewBox="0 0 132 133" fill="none" xmlns="http://www.w3.org/2000/svg">
<path d="M3.77124 11.9997H7.54269V15.7715H3.77124V11.9997Z" fill="black"/>
<path d="M7.54272 11.9997H11.314V15.7715H7.54272V11.9997Z" fill="black"/>
<path d="M11.314 11.9997H15.0857V15.7715H11.314V11.9997Z" fill="black"/>
<path d="M15.0857 11.9997H18.8569V15.7715H15.0857V11.9997Z" fill="black"/>
<path d="M18.8569 11.9997H22.6282V15.7715H18.8569V11.9997Z" fill="black"/>
<path d="M22.6282 11.9997H26.4V15.7715H22.6282V11.9997Z" fill="black"/>
<path d="M26.3999 11.9997H30.1711V15.7715H26.3999V11.9997Z" fill="black"/>
<path d="M30.1711 11.9997H33.9424V15.7715H30.1711V11.9997Z" fill="black"/>
<path d="M33.9424 11.9997H37.7142V15.7715H33.9424V11.9997Z" fill="black"/>
<path d="M37.7144 11.9997H41.4856V15.7715H37.7144V11.9997Z" fill="black"/>
<path d="M41.4854 11.9997H45.2571V15.7715H41.4854V11.9997Z" fill="black"/>
<path d="M45.2573 11.9997H49.0286V15.7715H45.2573V11.9997Z" fill="black"/>
<path d="M49.0286 11.9997H52.7998V15.7715H49.0286V11.9997Z" fill="black"/>
<path d="M52.7996 11.9997H56.5713V15.7715H52.7996V11.9997Z" fill="black"/>
<path d="M56.5715 11.9997H60.3428V15.7715H56.5715V11.9997Z" fill="black"/>
<path d="M60.3428 11.9997H64.114V15.7715H60.3428V11.9997Z" fill="black"/>
<path d="M64.114 11.9997H67.8858V15.7715H64.114V11.9997Z" fill="black"/>
<path d="M67.8857 11.9997H71.657V15.7715H67.8857V11.9997Z" fill="black"/>
<path d="M71.657 11.9997H75.4282V15.7715H71.657V11.9997Z" fill="black"/>
<path d="M75.4282 11.9997H79.2V15.7715H75.4282V11.9997Z" fill="black"/>
<path d="M79.2 11.9997H82.9712V15.7715H79.2V11.9997Z" fill="black"/>
<path d="M82.9712 11.9997H86.7424V15.7715H82.9712V11.9997Z" fill="black"/>
<path d="M86.7424 11.9997H90.5142V15.7715H86.7424V11.9997Z" fill="black"/>
<path d="M90.5142 11.9997H94.2854V15.7715H90.5142V11.9997Z" fill="black"/>
<path d="M0 15.7717H3.7714V19.543H0V15.7717Z" fill="black"/>
<path d="M3.77124 15.7717H7.54269V19.543H3.77124V15.7717Z" fill="#1B2632"/>
<path d="M7.54272 15.7717H11.314V19.543H7.54272V15.7717Z" fill="#B2DCEF"/>
<path d="M11.314 15.7717H15.0857V19.543H11.314V15.7717Z" fill="#B2DCEF"/>
<path d="M15.0857 15.7717H18.8569V19.543H15.0857V15.7717Z" fill="#B2DCEF"/>
<path d="M18.8569 15.7717H22.6282V19.543H18.8569V15.7717Z" fill="#B2DCEF"/>
<path d="M22.6282 15.7717H26.4V19.543H22.6282V15.7717Z" fill="#B2DCEF"/>
<path d="M26.3999 15.7717H30.1711V19.543H26.3999V15.7717Z" fill="#B2DCEF"/>
<path d="M30.1711 15.7717H33.9424V19.543H30.1711V15.7717Z" fill="#B2DCEF"/>
<path d="M33.9424 15.7717H37.7142V19.543H33.9424V15.7717Z" fill="#B2DCEF"/>
<path d="M37.7144 15.7717H41.4856V19.543H37.7144V15.7717Z" fill="#B2DCEF"/>
<path d="M41.4854 15.7717H45.2571V19.543H41.4854V15.7717Z" fill="#B2DCEF"/>
<path d="M45.2573 15.7717H49.0286V19.543H45.2573V15.7717Z" fill="#B2DCEF"/>
<path d="M49.0286 15.7717H52.7998V19.543H49.0286V15.7717Z" fill="#B2DCEF"/>
<path d="M52.7996 15.7717H56.5713V19.543H52.7996V15.7717Z" fill="#B2DCEF"/>
<path d="M56.5715 15.7717H60.3428V19.543H56.5715V15.7717Z" fill="#B2DCEF"/>
<path d="M60.3428 15.7717H64.114V19.543H60.3428V15.7717Z" fill="#B2DCEF"/>
<path d="M64.114 15.7717H67.8858V19.543H64.114V15.7717Z" fill="#B2DCEF"/>
<path d="M67.8857 15.7717H71.657V19.543H67.8857V15.7717Z" fill="#B2DCEF"/>
<path d="M71.657 15.7717H75.4282V19.543H71.657V15.7717Z" fill="#B2DCEF"/>
<path d="M75.4282 15.7717H79.2V19.543H75.4282V15.7717Z" fill="#B2DCEF"/>
<path d="M79.2 15.7717H82.9712V19.543H79.2V15.7717Z" fill="#B2DCEF"/>
<path d="M82.9712 15.7717H86.7424V19.543H82.9712V15.7717Z" fill="#B2DCEF"/>
<path d="M86.7424 15.7717H90.5142V19.543H86.7424V15.7717Z" fill="#B2DCEF"/>
<path d="M90.5142 15.7717H94.2854V19.543H90.5142V15.7717Z" fill="#B2DCEF"/>
<path d="M94.2854 15.7717H98.0572V19.543H94.2854V15.7717Z" fill="black"/>
<path d="M0 19.5432H3.7714V23.3145H0V19.5432Z" fill="black"/>
<path d="M3.77124 19.5432H7.54269V23.3145H3.77124V19.5432Z" fill="#1B2632"/>
<path d="M7.54272 19.5432H11.314V23.3145H7.54272V19.5432Z" fill="#B2DCEF"/>
<path d="M11.314 19.5432H15.0857V23.3145H11.314V19.5432Z" fill="#1B2632"/>
<path d="M15.0857 19.5432H18.8569V23.3145H15.0857V19.5432Z" fill="#1B2632"/>
<path d="M18.8569 19.5432H22.6282V23.3145H18.8569V19.5432Z" fill="#1B2632"/>
<path d="M22.6282 19.5432H26.4V23.3145H22.6282V19.5432Z" fill="#1B2632"/>
<path d="M26.3999 19.5432H30.1711V23.3145H26.3999V19.5432Z" fill="#1B2632"/>
<path d="M30.1711 19.5432H33.9424V23.3145H30.1711V19.5432Z" fill="#1B2632"/>
<path d="M33.9424 19.5432H37.7142V23.3145H33.9424V19.5432Z" fill="#1B2632"/>
<path d="M37.7144 19.5432H41.4856V23.3145H37.7144V19.5432Z" fill="#1B2632"/>
<path d="M41.4854 19.5432H45.2571V23.3145H41.4854V19.5432Z" fill="#1B2632"/>
<path d="M45.2573 19.5432H49.0286V23.3145H45.2573V19.5432Z" fill="#1B2632"/>
<path d="M49.0286 19.5432H52.7998V23.3145H49.0286V19.5432Z" fill="#1B2632"/>
<path d="M52.7996 19.5432H56.5713V23.3145H52.7996V19.5432Z" fill="#1B2632"/>
<path d="M56.5715 19.5432H60.3428V23.3145H56.5715V19.5432Z" fill="#1B2632"/>
<path d="M60.3428 19.5432H64.114V23.3145H60.3428V19.5432Z" fill="#1B2632"/>
<path d="M64.114 19.5432H67.8858V23.3145H64.114V19.5432Z" fill="#1B2632"/>
<path d="M67.8857 19.5432H71.657V23.3145H67.8857V19.5432Z" fill="#1B2632"/>
<path d="M71.657 19.5432H75.4282V23.3145H71.657V19.5432Z" fill="#1B2632"/>
<path d="M75.4282 19.5432H79.2V23.3145H75.4282V19.5432Z" fill="#1B2632"/>
<path d="M79.2 19.5432H82.9712V23.3145H79.2V19.5432Z" fill="#1B2632"/>
<path d="M82.9712 19.5432H86.7424V23.3145H82.9712V19.5432Z" fill="#1B2632"/>
<path d="M86.7424 19.5432H90.5142V23.3145H86.7424V19.5432Z" fill="#1B2632"/>
<path d="M90.5142 19.5432H94.2854V23.3145H90.5142V19.5432Z" fill="#B2DCEF"/>
<path d="M94.2854 19.5432H98.0572V23.3145H94.2854V19.5432Z" fill="black"/>
<path d="M0 23.3142H3.7714V27.0859H0V23.3142Z" fill="black"/>
<path d="M3.77124 23.3142H7.54269V27.0859H3.77124V23.3142Z" fill="#1B2632"/>
<path d="M7.54272 23.3142H11.314V27.0859H7.54272V23.3142Z" fill="#B2DCEF"/>
<path d="M11.314 23.3142H15.0857V27.0859H11.314V23.3142Z" fill="#1B2632"/>
<path d="M15.0857 23.3142H18.8569V27.0859H15.0857V23.3142Z" fill="#005784"/>
<path d="M18.8569 23.3142H22.6282V27.0859H18.8569V23.3142Z" fill="#005784"/>
<path d="M22.6282 23.3142H26.4V27.0859H22.6282V23.3142Z" fill="#005784"/>
<path d="M26.3999 23.3142H30.1711V27.0859H26.3999V23.3142Z" fill="#005784"/>
<path d="M30.1711 23.3142H33.9424V27.0859H30.1711V23.3142Z" fill="#005784"/>
<path d="M33.9424 23.3142H37.7142V27.0859H33.9424V23.3142Z" fill="#005784"/>
<path d="M37.7144 23.3142H41.4856V27.0859H37.7144V23.3142Z" fill="#005784"/>
<path d="M41.4854 23.3142H45.2571V27.0859H41.4854V23.3142Z" fill="#005784"/>
<path d="M45.2573 23.3142H49.0286V27.0859H45.2573V23.3142Z" fill="#005784"/>
<path d="M49.0286 23.3142H52.7998V27.0859H49.0286V23.3142Z" fill="#005784"/>
<path d="M52.7996 23.3142H56.5713V27.0859H52.7996V23.3142Z" fill="#005784"/>
<path d="M56.5715 23.3142H60.3428V27.0859H56.5715V23.3142Z" fill="#005784"/>
<path d="M60.3428 23.3142H64.114V27.0859H60.3428V23.3142Z" fill="#005784"/>
<path d="M64.114 23.3142H67.8858V27.0859H64.114V23.3142Z" fill="#005784"/>
<path d="M67.8857 23.3142H71.657V27.0859H67.8857V23.3142Z" fill="#005784"/>
<path d="M71.657 23.3142H75.4282V27.0859H71.657V23.3142Z" fill="#005784"/>
<path d="M75.4282 23.3142H79.2V27.0859H75.4282V23.3142Z" fill="#005784"/>
<path d="M79.2 23.3142H82.9712V27.0859H79.2V23.3142Z" fill="#005784"/>
<path d="M82.9712 23.3142H86.7424V27.0859H82.9712V23.3142Z" fill="#005784"/>
<path d="M86.7424 23.3142H90.5142V27.0859H86.7424V23.3142Z" fill="#1B2632"/>
<path d="M90.5142 23.3142H94.2854V27.0859H90.5142V23.3142Z" fill="#B2DCEF"/>
<path d="M94.2854 23.3142H98.0572V27.0859H94.2854V23.3142Z" fill="black"/>
<path d="M0 27.0862H3.7714V30.8574H0V27.0862Z" fill="black"/>
<path d="M3.77124 27.0862H7.54269V30.8574H3.77124V27.0862Z" fill="#1B2632"/>
<path d="M7.54272 27.0862H11.314V30.8574H7.54272V27.0862Z" fill="#B2DCEF"/>
<path d="M11.314 27.0862H15.0857V30.8574H11.314V27.0862Z" fill="#1B2632"/>
<path d="M15.0857 27.0862H18.8569V30.8574H15.0857V27.0862Z" fill="#005784"/>
<path d="M18.8569 27.0862H22.6282V30.8574H18.8569V27.0862Z" fill="#005784"/>
<path d="M22.6282 27.0862H26.4V30.8574H22.6282V27.0862Z" fill="#005784"/>
<path d="M26.3999 27.0862H30.1711V30.8574H26.3999V27.0862Z" fill="#005784"/>
<path d="M30.1711 27.0862H33.9424V30.8574H30.1711V27.0862Z" fill="#005784"/>
<path d="M33.9424 27.0862H37.7142V30.8574H33.9424V27.0862Z" fill="#005784"/>
<path d="M37.7144 27.0862H41.4856V30.8574H37.7144V27.0862Z" fill="#005784"/>
<path d="M41.4854 27.0862H45.2571V30.8574H41.4854V27.0862Z" fill="#005784"/>
<path d="M45.2573 27.0862H49.0286V30.8574H45.2573V27.0862Z" fill="#005784"/>
<path d="M49.0286 27.0862H52.7998V30.8574H49.0286V27.0862Z" fill="#005784"/>
<path d="M52.7996 27.0862H56.5713V30.8574H52.7996V27.0862Z" fill="#005784"/>
<path d="M56.5715 27.0862H60.3428V30.8574H56.5715V27.0862Z" fill="#005784"/>
<path d="M60.3428 27.0862H64.114V30.8574H60.3428V27.0862Z" fill="#005784"/>
<path d="M64.114 27.0862H67.8858V30.8574H64.114V27.0862Z" fill="#005784"/>
<path d="M67.8857 27.0862H71.657V30.8574H67.8857V27.0862Z" fill="#31A2F2"/>
<path d="M71.657 27.0862H75.4282V30.8574H71.657V27.0862Z" fill="#31A2F2"/>
<path d="M75.4282 27.0862H79.2V30.8574H75.4282V27.0862Z" fill="#005784"/>
<path d="M79.2 27.0862H82.9712V30.8574H79.2V27.0862Z" fill="#005784"/>
<path d="M82.9712 27.0862H86.7424V30.8574H82.9712V27.0862Z" fill="#005784"/>
<path d="M86.7424 27.0862H90.5142V30.8574H86.7424V27.0862Z" fill="#1B2632"/>
<path d="M90.5142 27.0862H94.2854V30.8574H90.5142V27.0862Z" fill="#B2DCEF"/>
<path d="M94.2854 27.0862H98.0572V30.8574H94.2854V27.0862Z" fill="black"/>
<path d="M0 30.8567H3.7714V34.6279H0V30.8567Z" fill="black"/>
<path d="M3.77124 30.8567H7.54269V34.6279H3.77124V30.8567Z" fill="#1B2632"/>
<path d="M7.54272 30.8567H11.314V34.6279H7.54272V30.8567Z" fill="#B2DCEF"/>
<path d="M11.314 30.8567H15.0857V34.6279H11.314V30.8567Z" fill="#1B2632"/>
<path d="M15.0857 30.8567H18.8569V34.6279H15.0857V30.8567Z" fill="#005784"/>
<path d="M18.8569 30.8567H22.6282V34.6279H18.8569V30.8567Z" fill="#005784"/>
<path d="M22.6282 30.8567H26.4V34.6279H22.6282V30.8567Z" fill="#005784"/>
<path d="M26.3999 30.8567H30.1711V34.6279H26.3999V30.8567Z" fill="#005784"/>
<path d="M30.1711 30.8567H33.9424V34.6279H30.1711V30.8567Z" fill="#005784"/>
<path d="M33.9424 30.8567H37.7142V34.6279H33.9424V30.8567Z" fill="#005784"/>
<path d="M37.7144 30.8567H41.4856V34.6279H37.7144V30.8567Z" fill="#005784"/>
<path d="M41.4854 30.8567H45.2571V34.6279H41.4854V30.8567Z" fill="#005784"/>
<path d="M45.2573 30.8567H49.0286V34.6279H45.2573V30.8567Z" fill="#005784"/>
<path d="M49.0286 30.8567H52.7998V34.6279H49.0286V30.8567Z" fill="#005784"/>
<path d="M52.7996 30.8567H56.5713V34.6279H52.7996V30.8567Z" fill="#005784"/>
<path d="M56.5715 30.8567H60.3428V34.6279H56.5715V30.8567Z" fill="#005784"/>
<path d="M60.3428 30.8567H64.114V34.6279H60.3428V30.8567Z" fill="#005784"/>
<path d="M64.114 30.8567H67.8858V34.6279H64.114V30.8567Z" fill="#005784"/>
<path d="M67.8857 30.8567H71.657V34.6279H67.8857V30.8567Z" fill="#31A2F2"/>
<path d="M71.657 30.8567H75.4282V34.6279H71.657V30.8567Z" fill="#31A2F2"/>
<path d="M75.4282 30.8567H79.2V34.6279H75.4282V30.8567Z" fill="#005784"/>
<path d="M79.2 30.8567H82.9712V34.6279H79.2V30.8567Z" fill="#005784"/>
<path d="M82.9712 30.8567H86.7424V34.6279H82.9712V30.8567Z" fill="#005784"/>
<path d="M86.7424 30.8567H90.5142V34.6279H86.7424V30.8567Z" fill="#1B2632"/>
<path d="M90.5142 30.8567H94.2854V34.6279H90.5142V30.8567Z" fill="#B2DCEF"/>
<path d="M94.2854 30.8567H98.0572V34.6279H94.2854V30.8567Z" fill="black"/>
<path d="M0 34.6286H3.7714V38.4004H0V34.6286Z" fill="black"/>
<path d="M3.77124 34.6286H7.54269V38.4004H3.77124V34.6286Z" fill="#1B2632"/>
<path d="M7.54272 34.6286H11.314V38.4004H7.54272V34.6286Z" fill="#B2DCEF"/>
<path d="M11.314 34.6286H15.0857V38.4004H11.314V34.6286Z" fill="#1B2632"/>
<path d="M15.0857 34.6286H18.8569V38.4004H15.0857V34.6286Z" fill="#005784"/>
<path d="M18.8569 34.6286H22.6282V38.4004H18.8569V34.6286Z" fill="#005784"/>
<path d="M22.6282 34.6286H26.4V38.4004H22.6282V34.6286Z" fill="#005784"/>
<path d="M26.3999 34.6286H30.1711V38.4004H26.3999V34.6286Z" fill="#005784"/>
<path d="M30.1711 34.6286H33.9424V38.4004H30.1711V34.6286Z" fill="#005784"/>
<path d="M33.9424 34.6286H37.7142V38.4004H33.9424V34.6286Z" fill="#005784"/>
<path d="M37.7144 34.6286H41.4856V38.4004H37.7144V34.6286Z" fill="#005784"/>
<path d="M41.4854 34.6286H45.2571V38.4004H41.4854V34.6286Z" fill="#005784"/>
<path d="M45.2573 34.6286H49.0286V38.4004H45.2573V34.6286Z" fill="#005784"/>
<path d="M49.0286 34.6286H52.7998V38.4004H49.0286V34.6286Z" fill="#005784"/>
<path d="M52.7996 34.6286H56.5713V38.4004H52.7996V34.6286Z" fill="#005784"/>
<path d="M56.5715 34.6286H60.3428V38.4004H56.5715V34.6286Z" fill="#005784"/>
<path d="M60.3428 34.6286H64.114V38.4004H60.3428V34.6286Z" fill="#005784"/>
<path d="M64.114 34.6286H67.8858V38.4004H64.114V34.6286Z" fill="#005784"/>
<path d="M67.8857 34.6286H71.657V38.4004H67.8857V34.6286Z" fill="#005784"/>
<path d="M71.657 34.6286H75.4282V38.4004H71.657V34.6286Z" fill="#005784"/>
<path d="M75.4282 34.6286H79.2V38.4004H75.4282V34.6286Z" fill="#005784"/>
<path d="M79.2 34.6286H82.9712V38.4004H79.2V34.6286Z" fill="#005784"/>
<path d="M82.9712 34.6286H86.7424V38.4004H82.9712V34.6286Z" fill="#005784"/>
<path d="M86.7424 34.6286H90.5142V38.4004H86.7424V34.6286Z" fill="#1B2632"/>
<path d="M90.5142 34.6286H94.2854V38.4004H90.5142V34.6286Z" fill="#B2DCEF"/>
<path d="M94.2854 34.6286H98.0572V38.4004H94.2854V34.6286Z" fill="black"/>
<path d="M0 38.3997H3.7714V42.1709H0V38.3997Z" fill="black"/>
<path d="M3.77124 38.3997H7.54269V42.1709H3.77124V38.3997Z" fill="#1B2632"/>
<path d="M7.54272 38.3997H11.314V42.1709H7.54272V38.3997Z" fill="#B2DCEF"/>
<path d="M11.314 38.3997H15.0857V42.1709H11.314V38.3997Z" fill="#1B2632"/>
<path d="M15.0857 38.3997H18.8569V42.1709H15.0857V38.3997Z" fill="#005784"/>
<path d="M18.8569 38.3997H22.6282V42.1709H18.8569V38.3997Z" fill="#005784"/>
<path d="M22.6282 38.3997H26.4V42.1709H22.6282V38.3997Z" fill="#005784"/>
<path d="M26.3999 38.3997H30.1711V42.1709H26.3999V38.3997Z" fill="#005784"/>
<path d="M30.1711 38.3997H33.9424V42.1709H30.1711V38.3997Z" fill="#005784"/>
<path d="M33.9424 38.3997H37.7142V42.1709H33.9424V38.3997Z" fill="#005784"/>
<path d="M37.7144 38.3997H41.4856V42.1709H37.7144V38.3997Z" fill="#005784"/>
<path d="M41.4854 38.3997H45.2571V42.1709H41.4854V38.3997Z" fill="#005784"/>
<path d="M45.2573 38.3997H49.0286V42.1709H45.2573V38.3997Z" fill="#005784"/>
<path d="M49.0286 38.3997H52.7998V42.1709H49.0286V38.3997Z" fill="#005784"/>
<path d="M52.7996 38.3997H56.5713V42.1709H52.7996V38.3997Z" fill="#005784"/>
<path d="M56.5715 38.3997H60.3428V42.1709H56.5715V38.3997Z" fill="#005784"/>
<path d="M60.3428 38.3997H64.114V42.1709H60.3428V38.3997Z" fill="#005784"/>
<path d="M64.114 38.3997H67.8858V42.1709H64.114V38.3997Z" fill="#005784"/>
<path d="M67.8857 38.3997H71.657V42.1709H67.8857V38.3997Z" fill="#005784"/>
<path d="M71.657 38.3997H75.4282V42.1709H71.657V38.3997Z" fill="#31A2F2"/>
<path d="M75.4282 38.3997H79.2V42.1709H75.4282V38.3997Z" fill="#005784"/>
<path d="M79.2 38.3997H82.9712V42.1709H79.2V38.3997Z" fill="#005784"/>
<path d="M82.9712 38.3997H86.7424V42.1709H82.9712V38.3997Z" fill="#005784"/>
<path d="M86.7424 38.3997H90.5142V42.1709H86.7424V38.3997Z" fill="#1B2632"/>
<path d="M90.5142 38.3997H94.2854V42.1709H90.5142V38.3997Z" fill="#B2DCEF"/>
<path d="M94.2854 38.3997H98.0572V42.1709H94.2854V38.3997Z" fill="black"/>
<path d="M0 42.1716H3.7714V45.9434H0V42.1716Z" fill="black"/>
<path d="M3.77124 42.1716H7.54269V45.9434H3.77124V42.1716Z" fill="#1B2632"/>
<path d="M7.54272 42.1716H11.314V45.9434H7.54272V42.1716Z" fill="#B2DCEF"/>
<path d="M11.314 42.1716H15.0857V45.9434H11.314V42.1716Z" fill="#1B2632"/>
<path d="M15.0857 42.1716H18.8569V45.9434H15.0857V42.1716Z" fill="#005784"/>
<path d="M18.8569 42.1716H22.6282V45.9434H18.8569V42.1716Z" fill="#005784"/>
<path d="M22.6282 42.1716H26.4V45.9434H22.6282V42.1716Z" fill="#005784"/>
<path d="M26.3999 42.1716H30.1711V45.9434H26.3999V42.1716Z" fill="#005784"/>
<path d="M30.1711 42.1716H33.9424V45.9434H30.1711V42.1716Z" fill="#005784"/>
<path d="M33.9424 42.1716H37.7142V45.9434H33.9424V42.1716Z" fill="#005784"/>
<path d="M37.7144 42.1716H41.4856V45.9434H37.7144V42.1716Z" fill="#005784"/>
<path d="M41.4854 42.1716H45.2571V45.9434H41.4854V42.1716Z" fill="#005784"/>
<path d="M45.2573 42.1716H49.0286V45.9434H45.2573V42.1716Z" fill="#005784"/>
<path d="M49.0286 42.1716H52.7998V45.9434H49.0286V42.1716Z" fill="#005784"/>
<path d="M52.7996 42.1716H56.5713V45.9434H52.7996V42.1716Z" fill="#005784"/>
<path d="M56.5715 42.1716H60.3428V45.9434H56.5715V42.1716Z" fill="#005784"/>
<path d="M60.3428 42.1716H64.114V45.9434H60.3428V42.1716Z" fill="#005784"/>
<path d="M64.114 42.1716H67.8858V45.9434H64.114V42.1716Z" fill="#005784"/>
<path d="M67.8857 42.1716H71.657V45.9434H67.8857V42.1716Z" fill="#005784"/>
<path d="M71.657 42.1716H75.4282V45.9434H71.657V42.1716Z" fill="#005784"/>
<path d="M75.4282 42.1716H79.2V45.9434H75.4282V42.1716Z" fill="#005784"/>
<path d="M79.2 42.1716H82.9712V45.9434H79.2V42.1716Z" fill="#005784"/>
<path d="M82.9712 42.1716H86.7424V45.9434H82.9712V42.1716Z" fill="#005784"/>
<path d="M86.7424 42.1716H90.5142V45.9434H86.7424V42.1716Z" fill="#1B2632"/>
<path d="M90.5142 42.1716H94.2854V45.9434H90.5142V42.1716Z" fill="#B2DCEF"/>
<path d="M94.2854 42.1716H98.0572V45.9434H94.2854V42.1716Z" fill="black"/>
<path d="M0 45.9426H3.7714V49.7139H0V45.9426Z" fill="black"/>
<path d="M3.77124 45.9426H7.54269V49.7139H3.77124V45.9426Z" fill="#1B2632"/>
<path d="M7.54272 45.9426H11.314V49.7139H7.54272V45.9426Z" fill="#B2DCEF"/>
<path d="M11.314 45.9426H15.0857V49.7139H11.314V45.9426Z" fill="#1B2632"/>
<path d="M15.0857 45.9426H18.8569V49.7139H15.0857V45.9426Z" fill="#005784"/>
<path d="M18.8569 45.9426H22.6282V49.7139H18.8569V45.9426Z" fill="#005784"/>
<path d="M22.6282 45.9426H26.4V49.7139H22.6282V45.9426Z" fill="#005784"/>
<path d="M26.3999 45.9426H30.1711V49.7139H26.3999V45.9426Z" fill="#005784"/>
<path d="M30.1711 45.9426H33.9424V49.7139H30.1711V45.9426Z" fill="#005784"/>
<path d="M33.9424 45.9426H37.7142V49.7139H33.9424V45.9426Z" fill="#005784"/>
<path d="M37.7144 45.9426H41.4856V49.7139H37.7144V45.9426Z" fill="#005784"/>
<path d="M41.4854 45.9426H45.2571V49.7139H41.4854V45.9426Z" fill="#005784"/>
<path d="M45.2573 45.9426H49.0286V49.7139H45.2573V45.9426Z" fill="#005784"/>
<path d="M49.0286 45.9426H52.7998V49.7139H49.0286V45.9426Z" fill="#005784"/>
<path d="M52.7996 45.9426H56.5713V49.7139H52.7996V45.9426Z" fill="#005784"/>
<path d="M56.5715 45.9426H60.3428V49.7139H56.5715V45.9426Z" fill="#005784"/>
<path d="M60.3428 45.9426H64.114V49.7139H60.3428V45.9426Z" fill="#005784"/>
<path d="M64.114 45.9426H67.8858V49.7139H64.114V45.9426Z" fill="#005784"/>
<path d="M67.8857 45.9426H71.657V49.7139H67.8857V45.9426Z" fill="#005784"/>
<path d="M71.657 45.9426H75.4282V49.7139H71.657V45.9426Z" fill="#005784"/>
<path d="M75.4282 45.9426H79.2V49.7139H75.4282V45.9426Z" fill="#005784"/>
<path d="M79.2 45.9426H82.9712V49.7139H79.2V45.9426Z" fill="#005784"/>
<path d="M82.9712 45.9426H86.7424V49.7139H82.9712V45.9426Z" fill="#005784"/>
<path d="M86.7424 45.9426H90.5142V49.7139H86.7424V45.9426Z" fill="#1B2632"/>
<path d="M90.5142 45.9426H94.2854V49.7139H90.5142V45.9426Z" fill="#B2DCEF"/>
<path d="M94.2854 45.9426H98.0572V49.7139H94.2854V45.9426Z" fill="black"/>
<path d="M0 49.7141H3.7714V53.4854H0V49.7141Z" fill="black"/>
<path d="M3.77124 49.7141H7.54269V53.4854H3.77124V49.7141Z" fill="#1B2632"/>
<path d="M7.54272 49.7141H11.314V53.4854H7.54272V49.7141Z" fill="#B2DCEF"/>
<path d="M11.314 49.7141H15.0857V53.4854H11.314V49.7141Z" fill="#1B2632"/>
<path d="M15.0857 49.7141H18.8569V53.4854H15.0857V49.7141Z" fill="#005784"/>
<path d="M18.8569 49.7141H22.6282V53.4854H18.8569V49.7141Z" fill="#005784"/>
<path d="M22.6282 49.7141H26.4V53.4854H22.6282V49.7141Z" fill="#005784"/>
<path d="M26.3999 49.7141H30.1711V53.4854H26.3999V49.7141Z" fill="#005784"/>
<path d="M30.1711 49.7141H33.9424V53.4854H30.1711V49.7141Z" fill="#005784"/>
<path d="M33.9424 49.7141H37.7142V53.4854H33.9424V49.7141Z" fill="#005784"/>
<path d="M37.7144 49.7141H41.4856V53.4854H37.7144V49.7141Z" fill="#005784"/>
<path d="M41.4854 49.7141H45.2571V53.4854H41.4854V49.7141Z" fill="#005784"/>
<path d="M45.2573 49.7141H49.0286V53.4854H45.2573V49.7141Z" fill="#005784"/>
<path d="M49.0286 49.7141H52.7998V53.4854H49.0286V49.7141Z" fill="#005784"/>
<path d="M52.7996 49.7141H56.5713V53.4854H52.7996V49.7141Z" fill="#005784"/>
<path d="M56.5715 49.7141H60.3428V53.4854H56.5715V49.7141Z" fill="#005784"/>
<path d="M60.3428 49.7141H64.114V53.4854H60.3428V49.7141Z" fill="#005784"/>
<path d="M64.114 49.7141H67.8858V53.4854H64.114V49.7141Z" fill="#005784"/>
<path d="M67.8857 49.7141H71.657V53.4854H67.8857V49.7141Z" fill="#005784"/>
<path d="M71.657 49.7141H75.4282V53.4854H71.657V49.7141Z" fill="#005784"/>
<path d="M75.4282 49.7141H79.2V53.4854H75.4282V49.7141Z" fill="#005784"/>
<path d="M79.2 49.7141H82.9712V53.4854H79.2V49.7141Z" fill="#005784"/>
<path d="M82.9712 49.7141H86.7424V53.4854H82.9712V49.7141Z" fill="#005784"/>
<path d="M86.7424 49.7141H90.5142V53.4854H86.7424V49.7141Z" fill="#1B2632"/>
<path d="M90.5142 49.7141H94.2854V53.4854H90.5142V49.7141Z" fill="#B2DCEF"/>
<path d="M94.2854 49.7141H98.0572V53.4854H94.2854V49.7141Z" fill="black"/>
<path d="M0 53.4851H3.7714V57.2568H0V53.4851Z" fill="black"/>
<path d="M3.77124 53.4851H7.54269V57.2568H3.77124V53.4851Z" fill="#1B2632"/>
<path d="M7.54272 53.4851H11.314V57.2568H7.54272V53.4851Z" fill="#B2DCEF"/>
<path d="M11.314 53.4851H15.0857V57.2568H11.314V53.4851Z" fill="#1B2632"/>
<path d="M15.0857 53.4851H18.8569V57.2568H15.0857V53.4851Z" fill="#005784"/>
<path d="M18.8569 53.4851H22.6282V57.2568H18.8569V53.4851Z" fill="#005784"/>
<path d="M22.6282 53.4851H26.4V57.2568H22.6282V53.4851Z" fill="#005784"/>
<path d="M26.3999 53.4851H30.1711V57.2568H26.3999V53.4851Z" fill="#005784"/>
<path d="M30.1711 53.4851H33.9424V57.2568H30.1711V53.4851Z" fill="#005784"/>
<path d="M33.9424 53.4851H37.7142V57.2568H33.9424V53.4851Z" fill="#005784"/>
<path d="M37.7144 53.4851H41.4856V57.2568H37.7144V53.4851Z" fill="#005784"/>
<path d="M41.4854 53.4851H45.2571V57.2568H41.4854V53.4851Z" fill="#005784"/>
<path d="M45.2573 53.4851H49.0286V57.2568H45.2573V53.4851Z" fill="#005784"/>
<path d="M49.0286 53.4851H52.7998V57.2568H49.0286V53.4851Z" fill="#005784"/>
<path d="M52.7996 53.4851H56.5713V57.2568H52.7996V53.4851Z" fill="#005784"/>
<path d="M56.5715 53.4851H60.3428V57.2568H56.5715V53.4851Z" fill="#005784"/>
<path d="M60.3428 53.4851H64.114V57.2568H60.3428V53.4851Z" fill="#005784"/>
<path d="M64.114 53.4851H67.8858V57.2568H64.114V53.4851Z" fill="#005784"/>
<path d="M67.8857 53.4851H71.657V57.2568H67.8857V53.4851Z" fill="#005784"/>
<path d="M71.657 53.4851H75.4282V57.2568H71.657V53.4851Z" fill="#005784"/>
<path d="M75.4282 53.4851H79.2V57.2568H75.4282V53.4851Z" fill="#005784"/>
<path d="M79.2 53.4851H82.9712V57.2568H79.2V53.4851Z" fill="#005784"/>
<path d="M82.9712 53.4851H86.7424V57.2568H82.9712V53.4851Z" fill="#005784"/>
<path d="M86.7424 53.4851H90.5142V57.2568H86.7424V53.4851Z" fill="#1B2632"/>
<path d="M90.5142 53.4851H94.2854V57.2568H90.5142V53.4851Z" fill="#B2DCEF"/>
<path d="M94.2854 53.4851H98.0572V57.2568H94.2854V53.4851Z" fill="black"/>
<path d="M0 57.2571H3.7714V61.0283H0V57.2571Z" fill="black"/>
<path d="M3.77124 57.2571H7.54269V61.0283H3.77124V57.2571Z" fill="#1B2632"/>
<path d="M7.54272 57.2571H11.314V61.0283H7.54272V57.2571Z" fill="#B2DCEF"/>
<path d="M11.314 57.2571H15.0857V61.0283H11.314V57.2571Z" fill="#1B2632"/>
<path d="M15.0857 57.2571H18.8569V61.0283H15.0857V57.2571Z" fill="#005784"/>
<path d="M18.8569 57.2571H22.6282V61.0283H18.8569V57.2571Z" fill="#005784"/>
<path d="M22.6282 57.2571H26.4V61.0283H22.6282V57.2571Z" fill="#005784"/>
<path d="M26.3999 57.2571H30.1711V61.0283H26.3999V57.2571Z" fill="#005784"/>
<path d="M30.1711 57.2571H33.9424V61.0283H30.1711V57.2571Z" fill="#005784"/>
<path d="M33.9424 57.2571H37.7142V61.0283H33.9424V57.2571Z" fill="#005784"/>
<path d="M37.7144 57.2571H41.4856V61.0283H37.7144V57.2571Z" fill="#005784"/>
<path d="M41.4854 57.2571H45.2571V61.0283H41.4854V57.2571Z" fill="#005784"/>
<path d="M45.2573 57.2571H49.0286V61.0283H45.2573V57.2571Z" fill="#005784"/>
<path d="M49.0286 57.2571H52.7998V61.0283H49.0286V57.2571Z" fill="#005784"/>
<path d="M52.7996 57.2571H56.5713V61.0283H52.7996V57.2571Z" fill="#005784"/>
<path d="M56.5715 57.2571H60.3428V61.0283H56.5715V57.2571Z" fill="#005784"/>
<path d="M60.3428 57.2571H64.114V61.0283H60.3428V57.2571Z" fill="#005784"/>
<path d="M64.114 57.2571H67.8858V61.0283H64.114V57.2571Z" fill="#005784"/>
<path d="M67.8857 57.2571H71.657V61.0283H67.8857V57.2571Z" fill="#005784"/>
<path d="M71.657 57.2571H75.4282V61.0283H71.657V57.2571Z" fill="#005784"/>
<path d="M75.4282 57.2571H79.2V61.0283H75.4282V57.2571Z" fill="#005784"/>
<path d="M79.2 57.2571H82.9712V61.0283H79.2V57.2571Z" fill="#005784"/>
<path d="M82.9712 57.2571H86.7424V61.0283H82.9712V57.2571Z" fill="#005784"/>
<path d="M86.7424 57.2571H90.5142V61.0283H86.7424V57.2571Z" fill="#1B2632"/>
<path d="M90.5142 57.2571H94.2854V61.0283H90.5142V57.2571Z" fill="#B2DCEF"/>
<path d="M94.2854 57.2571H98.0572V61.0283H94.2854V57.2571Z" fill="black"/>
<path d="M0 61.0286H3.7714V64.7998H0V61.0286Z" fill="black"/>
<path d="M3.77124 61.0286H7.54269V64.7998H3.77124V61.0286Z" fill="#1B2632"/>
<path d="M7.54272 61.0286H11.314V64.7998H7.54272V61.0286Z" fill="#B2DCEF"/>
<path d="M11.314 61.0286H15.0857V64.7998H11.314V61.0286Z" fill="#1B2632"/>
<path d="M15.0857 61.0286H18.8569V64.7998H15.0857V61.0286Z" fill="#005784"/>
<path d="M18.8569 61.0286H22.6282V64.7998H18.8569V61.0286Z" fill="#005784"/>
<path d="M22.6282 61.0286H26.4V64.7998H22.6282V61.0286Z" fill="#005784"/>
<path d="M26.3999 61.0286H30.1711V64.7998H26.3999V61.0286Z" fill="#005784"/>
<path d="M30.1711 61.0286H33.9424V64.7998H30.1711V61.0286Z" fill="#005784"/>
<path d="M33.9424 61.0286H37.7142V64.7998H33.9424V61.0286Z" fill="#005784"/>
<path d="M37.7144 61.0286H41.4856V64.7998H37.7144V61.0286Z" fill="#005784"/>
<path d="M41.4854 61.0286H45.2571V64.7998H41.4854V61.0286Z" fill="#005784"/>
<path d="M45.2573 61.0286H49.0286V64.7998H45.2573V61.0286Z" fill="#005784"/>
<path d="M49.0286 61.0286H52.7998V64.7998H49.0286V61.0286Z" fill="#005784"/>
<path d="M52.7996 61.0286H56.5713V64.7998H52.7996V61.0286Z" fill="#005784"/>
<path d="M56.5715 61.0286H60.3428V64.7998H56.5715V61.0286Z" fill="#005784"/>
<path d="M60.3428 61.0286H64.114V64.7998H60.3428V61.0286Z" fill="#005784"/>
<path d="M64.114 61.0286H67.8858V64.7998H64.114V61.0286Z" fill="#005784"/>
<path d="M67.8857 61.0286H71.657V64.7998H67.8857V61.0286Z" fill="#005784"/>
<path d="M71.657 61.0286H75.4282V64.7998H71.657V61.0286Z" fill="#005784"/>
<path d="M75.4282 61.0286H79.2V64.7998H75.4282V61.0286Z" fill="#005784"/>
<path d="M79.2 61.0286H82.9712V64.7998H79.2V61.0286Z" fill="#005784"/>
<path d="M82.9712 61.0286H86.7424V64.7998H82.9712V61.0286Z" fill="#005784"/>
<path d="M86.7424 61.0286H90.5142V64.7998H86.7424V61.0286Z" fill="#1B2632"/>
<path d="M90.5142 61.0286H94.2854V64.7998H90.5142V61.0286Z" fill="#B2DCEF"/>
<path d="M94.2854 61.0286H98.0572V64.7998H94.2854V61.0286Z" fill="black"/>
<path d="M0 64.7995H3.7714V68.5713H0V64.7995Z" fill="black"/>
<path d="M3.77124 64.7995H7.54269V68.5713H3.77124V64.7995Z" fill="#1B2632"/>
<path d="M7.54272 64.7995H11.314V68.5713H7.54272V64.7995Z" fill="#B2DCEF"/>
<path d="M11.314 64.7995H15.0857V68.5713H11.314V64.7995Z" fill="#1B2632"/>
<path d="M15.0857 64.7995H18.8569V68.5713H15.0857V64.7995Z" fill="#005784"/>
<path d="M18.8569 64.7995H22.6282V68.5713H18.8569V64.7995Z" fill="#005784"/>
<path d="M22.6282 64.7995H26.4V68.5713H22.6282V64.7995Z" fill="#005784"/>
<path d="M26.3999 64.7995H30.1711V68.5713H26.3999V64.7995Z" fill="#005784"/>
<path d="M30.1711 64.7995H33.9424V68.5713H30.1711V64.7995Z" fill="#005784"/>
<path d="M33.9424 64.7995H37.7142V68.5713H33.9424V64.7995Z" fill="#005784"/>
<path d="M37.7144 64.7995H41.4856V68.5713H37.7144V64.7995Z" fill="#005784"/>
<path d="M41.4854 64.7995H45.2571V68.5713H41.4854V64.7995Z" fill="#005784"/>
<path d="M45.2573 64.7995H49.0286V68.5713H45.2573V64.7995Z" fill="#005784"/>
<path d="M49.0286 64.7995H52.7998V68.5713H49.0286V64.7995Z" fill="#005784"/>
<path d="M52.7996 64.7995H56.5713V68.5713H52.7996V64.7995Z" fill="#005784"/>
<path d="M56.5715 64.7995H60.3428V68.5713H56.5715V64.7995Z" fill="#005784"/>
<path d="M60.3428 64.7995H64.114V68.5713H60.3428V64.7995Z" fill="#005784"/>
<path d="M64.114 64.7995H67.8858V68.5713H64.114V64.7995Z" fill="#005784"/>
<path d="M67.8857 64.7995H71.657V68.5713H67.8857V64.7995Z" fill="#005784"/>
<path d="M71.657 64.7995H75.4282V68.5713H71.657V64.7995Z" fill="#005784"/>
<path d="M75.4282 64.7995H79.2V68.5713H75.4282V64.7995Z" fill="#005784"/>
<path d="M79.2 64.7995H82.9712V68.5713H79.2V64.7995Z" fill="#005784"/>
<path d="M82.9712 64.7995H86.7424V68.5713H82.9712V64.7995Z" fill="#005784"/>
<path d="M86.7424 64.7995H90.5142V68.5713H86.7424V64.7995Z" fill="#1B2632"/>
<path d="M90.5142 64.7995H94.2854V68.5713H90.5142V64.7995Z" fill="#B2DCEF"/>
<path d="M94.2854 64.7995H98.0572V68.5713H94.2854V64.7995Z" fill="black"/>
<path d="M0 68.5715H3.7714V72.3428H0V68.5715Z" fill="black"/>
<path d="M3.77124 68.5715H7.54269V72.3428H3.77124V68.5715Z" fill="#1B2632"/>
<path d="M7.54272 68.5715H11.314V72.3428H7.54272V68.5715Z" fill="#B2DCEF"/>
<path d="M11.314 68.5715H15.0857V72.3428H11.314V68.5715Z" fill="#B2DCEF"/>
<path d="M15.0857 68.5715H18.8569V72.3428H15.0857V68.5715Z" fill="#1B2632"/>
<path d="M18.8569 68.5715H22.6282V72.3428H18.8569V68.5715Z" fill="#1B2632"/>
<path d="M22.6282 68.5715H26.4V72.3428H22.6282V68.5715Z" fill="#1B2632"/>
<path d="M26.3999 68.5715H30.1711V72.3428H26.3999V68.5715Z" fill="#1B2632"/>
<path d="M30.1711 68.5715H33.9424V72.3428H30.1711V68.5715Z" fill="#1B2632"/>
<path d="M33.9424 68.5715H37.7142V72.3428H33.9424V68.5715Z" fill="#1B2632"/>
<path d="M37.7144 68.5715H41.4856V72.3428H37.7144V68.5715Z" fill="#1B2632"/>
<path d="M41.4854 68.5715H45.2571V72.3428H41.4854V68.5715Z" fill="#1B2632"/>
<path d="M45.2573 68.5715H49.0286V72.3428H45.2573V68.5715Z" fill="#1B2632"/>
<path d="M49.0286 68.5715H52.7998V72.3428H49.0286V68.5715Z" fill="#1B2632"/>
<path d="M52.7996 68.5715H56.5713V72.3428H52.7996V68.5715Z" fill="#1B2632"/>
<path d="M56.5715 68.5715H60.3428V72.3428H56.5715V68.5715Z" fill="#1B2632"/>
<path d="M60.3428 68.5715H64.114V72.3428H60.3428V68.5715Z" fill="#1B2632"/>
<path d="M64.114 68.5715H67.8858V72.3428H64.114V68.5715Z" fill="#1B2632"/>
<path d="M67.8857 68.5715H71.657V72.3428H67.8857V68.5715Z" fill="#1B2632"/>
<path d="M71.657 68.5715H75.4282V72.3428H71.657V68.5715Z" fill="#1B2632"/>
<path d="M75.4282 68.5715H79.2V72.3428H75.4282V68.5715Z" fill="#1B2632"/>
<path d="M79.2 68.5715H82.9712V72.3428H79.2V68.5715Z" fill="#1B2632"/>
<path d="M82.9712 68.5715H86.7424V72.3428H82.9712V68.5715Z" fill="#1B2632"/>
<path d="M86.7424 68.5715H90.5142V72.3428H86.7424V68.5715Z" fill="#B2DCEF"/>
<path d="M90.5142 68.5715H94.2854V72.3428H90.5142V68.5715Z" fill="#B2DCEF"/>
<path d="M94.2854 68.5715H98.0572V72.3428H94.2854V68.5715Z" fill="black"/>
<path d="M0 72.343H3.7714V76.1143H0V72.343Z" fill="black"/>
<path d="M3.77124 72.343H7.54269V76.1143H3.77124V72.343Z" fill="#1B2632"/>
<path d="M7.54272 72.343H11.314V76.1143H7.54272V72.343Z" fill="#B2DCEF"/>
<path d="M11.314 72.343H15.0857V76.1143H11.314V72.343Z" fill="#B2DCEF"/>
<path d="M15.0857 72.343H18.8569V76.1143H15.0857V72.343Z" fill="#B2DCEF"/>
<path d="M18.8569 72.343H22.6282V76.1143H18.8569V72.343Z" fill="#B2DCEF"/>
<path d="M22.6282 72.343H26.4V76.1143H22.6282V72.343Z" fill="#B2DCEF"/>
<path d="M26.3999 72.343H30.1711V76.1143H26.3999V72.343Z" fill="#B2DCEF"/>
<path d="M30.1711 72.343H33.9424V76.1143H30.1711V72.343Z" fill="#B2DCEF"/>
<path d="M33.9424 72.343H37.7142V76.1143H33.9424V72.343Z" fill="#B2DCEF"/>
<path d="M37.7144 72.343H41.4856V76.1143H37.7144V72.343Z" fill="#B2DCEF"/>
<path d="M41.4854 72.343H45.2571V76.1143H41.4854V72.343Z" fill="#B2DCEF"/>
<path d="M45.2573 72.343H49.0286V76.1143H45.2573V72.343Z" fill="#B2DCEF"/>
<path d="M49.0286 72.343H52.7998V76.1143H49.0286V72.343Z" fill="#B2DCEF"/>
<path d="M52.7996 72.343H56.5713V76.1143H52.7996V72.343Z" fill="#B2DCEF"/>
<path d="M56.5715 72.343H60.3428V76.1143H56.5715V72.343Z" fill="#B2DCEF"/>
<path d="M60.3428 72.343H64.114V76.1143H60.3428V72.343Z" fill="#B2DCEF"/>
<path d="M64.114 72.343H67.8858V76.1143H64.114V72.343Z" fill="#B2DCEF"/>
<path d="M67.8857 72.343H71.657V76.1143H67.8857V72.343Z" fill="#B2DCEF"/>
<path d="M71.657 72.343H75.4282V76.1143H71.657V72.343Z" fill="#B2DCEF"/>
<path d="M75.4282 72.343H79.2V76.1143H75.4282V72.343Z" fill="#B2DCEF"/>
<path d="M79.2 72.343H82.9712V76.1143H79.2V72.343Z" fill="#B2DCEF"/>
<path d="M82.9712 72.343H86.7424V76.1143H82.9712V72.343Z" fill="#B2DCEF"/>
<path d="M86.7424 72.343H90.5142V76.1143H86.7424V72.343Z" fill="#B2DCEF"/>
<path d="M90.5142 72.343H94.2854V76.1143H90.5142V72.343Z" fill="#B2DCEF"/>
<path d="M94.2854 72.343H98.0572V76.1143H94.2854V72.343Z" fill="black"/>
<path d="M3.77124 76.114H7.54269V79.8857H3.77124V76.114Z" fill="black"/>
<path d="M7.54272 76.114H11.314V79.8857H7.54272V76.114Z" fill="black"/>
<path d="M11.314 76.114H15.0857V79.8857H11.314V76.114Z" fill="black"/>
<path d="M15.0857 76.114H18.8569V79.8857H15.0857V76.114Z" fill="black"/>
<path d="M18.8569 76.114H22.6282V79.8857H18.8569V76.114Z" fill="#1B2632"/>
<path d="M22.6282 76.114H26.4V79.8857H22.6282V76.114Z" fill="#2F484E"/>
<path d="M26.3999 76.114H30.1711V79.8857H26.3999V76.114Z" fill="#2F484E"/>
<path d="M30.1711 76.114H33.9424V79.8857H30.1711V76.114Z" fill="#1B2632"/>
<path d="M33.9424 76.114H37.7142V79.8857H33.9424V76.114Z" fill="black"/>
<path d="M37.7144 76.114H41.4856V79.8857H37.7144V76.114Z" fill="black"/>
<path d="M41.4854 76.114H45.2571V79.8857H41.4854V76.114Z" fill="black"/>
<path d="M45.2573 76.114H49.0286V79.8857H45.2573V76.114Z" fill="black"/>
<path d="M49.0286 76.114H52.7998V79.8857H49.0286V76.114Z" fill="black"/>
<path d="M52.7996 76.114H56.5713V79.8857H52.7996V76.114Z" fill="black"/>
<path d="M56.5715 76.114H60.3428V79.8857H56.5715V76.114Z" fill="black"/>
<path d="M60.3428 76.114H64.114V79.8857H60.3428V76.114Z" fill="black"/>
<path d="M64.114 76.114H67.8858V79.8857H64.114V76.114Z" fill="black"/>
<path d="M67.8857 76.114H71.657V79.8857H67.8857V76.114Z" fill="#1B2632"/>
<path d="M71.657 76.114H75.4282V79.8857H71.657V76.114Z" fill="#2F484E"/>
<path d="M75.4282 76.114H79.2V79.8857H75.4282V76.114Z" fill="#2F484E"/>
<path d="M79.2 76.114H82.9712V79.8857H79.2V76.114Z" fill="#1B2632"/>
<path d="M82.9712 76.114H86.7424V79.8857H82.9712V76.114Z" fill="black"/>
<path d="M86.7424 76.114H90.5142V79.8857H86.7424V76.114Z" fill="black"/>
<path d="M90.5142 76.114H94.2854V79.8857H90.5142V76.114Z" fill="black"/>
<path d="M94.2854 76.114H98.0572V79.8857H94.2854V76.114Z" fill="black"/>
<path d="M3.77124 79.886H7.54269V83.6572H3.77124V79.886Z" fill="black"/>
<path d="M7.54272 79.886H11.314V83.6572H7.54272V79.886Z" fill="white"/>
<path d="M11.314 79.886H15.0857V83.6572H11.314V79.886Z" fill="#B2DCEF"/>
<path d="M15.0857 79.886H18.8569V83.6572H15.0857V79.886Z" fill="#B2DCEF"/>
<path d="M18.8569 79.886H22.6282V83.6572H18.8569V79.886Z" fill="#B2DCEF"/>
<path d="M22.6282 79.886H26.4V83.6572H22.6282V79.886Z" fill="#B2DCEF"/>
<path d="M26.3999 79.886H30.1711V83.6572H26.3999V79.886Z" fill="#B2DCEF"/>
<path d="M30.1711 79.886H33.9424V83.6572H30.1711V79.886Z" fill="#B2DCEF"/>
<path d="M33.9424 79.886H37.7142V83.6572H33.9424V79.886Z" fill="#B2DCEF"/>
<path d="M37.7144 79.886H41.4856V83.6572H37.7144V79.886Z" fill="#B2DCEF"/>
<path d="M41.4854 79.886H45.2571V83.6572H41.4854V79.886Z" fill="#B2DCEF"/>
<path d="M45.2573 79.886H49.0286V83.6572H45.2573V79.886Z" fill="#B2DCEF"/>
<path d="M49.0286 79.886H52.7998V83.6572H49.0286V79.886Z" fill="#B2DCEF"/>
<path d="M52.7996 79.886H56.5713V83.6572H52.7996V79.886Z" fill="#B2DCEF"/>
<path d="M56.5715 79.886H60.3428V83.6572H56.5715V79.886Z" fill="#B2DCEF"/>
<path d="M60.3428 79.886H64.114V83.6572H60.3428V79.886Z" fill="#B2DCEF"/>
<path d="M64.114 79.886H67.8858V83.6572H64.114V79.886Z" fill="#B2DCEF"/>
<path d="M67.8857 79.886H71.657V83.6572H67.8857V79.886Z" fill="#B2DCEF"/>
<path d="M71.657 79.886H75.4282V83.6572H71.657V79.886Z" fill="#B2DCEF"/>
<path d="M75.4282 79.886H79.2V83.6572H75.4282V79.886Z" fill="#B2DCEF"/>
<path d="M79.2 79.886H82.9712V83.6572H79.2V79.886Z" fill="#B2DCEF"/>
<path d="M82.9712 79.886H86.7424V83.6572H82.9712V79.886Z" fill="#B2DCEF"/>
<path d="M86.7424 79.886H90.5142V83.6572H86.7424V79.886Z" fill="#B2DCEF"/>
<path d="M90.5142 79.886H94.2854V83.6572H90.5142V79.886Z" fill="#B2DCEF"/>
<path d="M94.2854 79.886H98.0572V83.6572H94.2854V79.886Z" fill="#B2DCEF"/>
<path d="M98.0571 79.886H101.828V83.6572H98.0571V79.886Z" fill="black"/>
<path d="M3.77124 83.6575H7.54269V87.4287H3.77124V83.6575Z" fill="black"/>
<path d="M7.54272 83.6575H11.314V87.4287H7.54272V83.6575Z" fill="#1B2632"/>
<path d="M11.314 83.6575H15.0857V87.4287H11.314V83.6575Z" fill="white"/>
<path d="M15.0857 83.6575H18.8569V87.4287H15.0857V83.6575Z" fill="#B2DCEF"/>
<path d="M18.8569 83.6575H22.6282V87.4287H18.8569V83.6575Z" fill="#B2DCEF"/>
<path d="M22.6282 83.6575H26.4V87.4287H22.6282V83.6575Z" fill="#1B2632"/>
<path d="M26.3999 83.6575H30.1711V87.4287H26.3999V83.6575Z" fill="#1B2632"/>
<path d="M30.1711 83.6575H33.9424V87.4287H30.1711V83.6575Z" fill="#1B2632"/>
<path d="M33.9424 83.6575H37.7142V87.4287H33.9424V83.6575Z" fill="#1B2632"/>
<path d="M37.7144 83.6575H41.4856V87.4287H37.7144V83.6575Z" fill="#1B2632"/>
<path d="M41.4854 83.6575H45.2571V87.4287H41.4854V83.6575Z" fill="#1B2632"/>
<path d="M45.2573 83.6575H49.0286V87.4287H45.2573V83.6575Z" fill="#1B2632"/>
<path d="M49.0286 83.6575H52.7998V87.4287H49.0286V83.6575Z" fill="#1B2632"/>
<path d="M52.7996 83.6575H56.5713V87.4287H52.7996V83.6575Z" fill="#1B2632"/>
<path d="M56.5715 83.6575H60.3428V87.4287H56.5715V83.6575Z" fill="#1B2632"/>
<path d="M60.3428 83.6575H64.114V87.4287H60.3428V83.6575Z" fill="#1B2632"/>
<path d="M64.114 83.6575H67.8858V87.4287H64.114V83.6575Z" fill="#1B2632"/>
<path d="M67.8857 83.6575H71.657V87.4287H67.8857V83.6575Z" fill="#1B2632"/>
<path d="M71.657 83.6575H75.4282V87.4287H71.657V83.6575Z" fill="#1B2632"/>
<path d="M75.4282 83.6575H79.2V87.4287H75.4282V83.6575Z" fill="#1B2632"/>
<path d="M79.2 83.6575H82.9712V87.4287H79.2V83.6575Z" fill="#1B2632"/>
<path d="M82.9712 83.6575H86.7424V87.4287H82.9712V83.6575Z" fill="#1B2632"/>
<path d="M86.7424 83.6575H90.5142V87.4287H86.7424V83.6575Z" fill="#1B2632"/>
<path d="M90.5142 83.6575H94.2854V87.4287H90.5142V83.6575Z" fill="#1B2632"/>
<path d="M94.2854 83.6575H98.0572V87.4287H94.2854V83.6575Z" fill="#B2DCEF"/>
<path d="M98.0571 83.6575H101.828V87.4287H98.0571V83.6575Z" fill="white"/>
<path d="M101.828 83.6575H105.6V87.4287H101.828V83.6575Z" fill="black"/>
<path d="M3.77124 87.4284H7.54269V91.2002H3.77124V87.4284Z" fill="black"/>
<path d="M7.54272 87.4284H11.314V91.2002H7.54272V87.4284Z" fill="#1B2632"/>
<path d="M11.314 87.4284H15.0857V91.2002H11.314V87.4284Z" fill="#1B2632"/>
<path d="M15.0857 87.4284H18.8569V91.2002H15.0857V87.4284Z" fill="white"/>
<path d="M18.8569 87.4284H22.6282V91.2002H18.8569V87.4284Z" fill="#B2DCEF"/>
<path d="M22.6282 87.4284H26.4V91.2002H22.6282V87.4284Z" fill="#B2DCEF"/>
<path d="M26.3999 87.4284H30.1711V91.2002H26.3999V87.4284Z" fill="#1B2632"/>
<path d="M30.1711 87.4284H33.9424V91.2002H30.1711V87.4284Z" fill="#2F484E"/>
<path d="M33.9424 87.4284H37.7142V91.2002H33.9424V87.4284Z" fill="#B2DCEF"/>
<path d="M37.7144 87.4284H41.4856V91.2002H37.7144V87.4284Z" fill="#1B2632"/>
<path d="M41.4854 87.4284H45.2571V91.2002H41.4854V87.4284Z" fill="#2F484E"/>
<path d="M45.2573 87.4284H49.0286V91.2002H45.2573V87.4284Z" fill="#B2DCEF"/>
<path d="M49.0286 87.4284H52.7998V91.2002H49.0286V87.4284Z" fill="#1B2632"/>
<path d="M52.7996 87.4284H56.5713V91.2002H52.7996V87.4284Z" fill="#2F484E"/>
<path d="M56.5715 87.4284H60.3428V91.2002H56.5715V87.4284Z" fill="#B2DCEF"/>
<path d="M60.3428 87.4284H64.114V91.2002H60.3428V87.4284Z" fill="#1B2632"/>
<path d="M64.114 87.4284H67.8858V91.2002H64.114V87.4284Z" fill="#2F484E"/>
<path d="M67.8857 87.4284H71.657V91.2002H67.8857V87.4284Z" fill="#B2DCEF"/>
<path d="M71.657 87.4284H75.4282V91.2002H71.657V87.4284Z" fill="#1B2632"/>
<path d="M75.4282 87.4284H79.2V91.2002H75.4282V87.4284Z" fill="#2F484E"/>
<path d="M79.2 87.4284H82.9712V91.2002H79.2V87.4284Z" fill="#B2DCEF"/>
<path d="M82.9712 87.4284H86.7424V91.2002H82.9712V87.4284Z" fill="#1B2632"/>
<path d="M86.7424 87.4284H90.5142V91.2002H86.7424V87.4284Z" fill="#2F484E"/>
<path d="M90.5142 87.4284H94.2854V91.2002H90.5142V87.4284Z" fill="#B2DCEF"/>
<path d="M94.2854 87.4284H98.0572V91.2002H94.2854V87.4284Z" fill="#1B2632"/>
<path d="M98.0571 87.4284H101.828V91.2002H98.0571V87.4284Z" fill="#B2DCEF"/>
<path d="M101.828 87.4284H105.6V91.2002H101.828V87.4284Z" fill="white"/>
<path d="M105.6 87.4284H109.371V91.2002H105.6V87.4284Z" fill="black"/>
<path d="M7.54272 91.2005H11.314V94.9717H7.54272V91.2005Z" fill="black"/>
<path d="M11.314 91.2005H15.0857V94.9717H11.314V91.2005Z" fill="#1B2632"/>
<path d="M15.0857 91.2005H18.8569V94.9717H15.0857V91.2005Z" fill="#1B2632"/>
<path d="M18.8569 91.2005H22.6282V94.9717H18.8569V91.2005Z" fill="white"/>
<path d="M22.6282 91.2005H26.4V94.9717H22.6282V91.2005Z" fill="#B2DCEF"/>
<path d="M26.3999 91.2005H30.1711V94.9717H26.3999V91.2005Z" fill="#B2DCEF"/>
<path d="M30.1711 91.2005H33.9424V94.9717H30.1711V91.2005Z" fill="#1B2632"/>
<path d="M33.9424 91.2005H37.7142V94.9717H33.9424V91.2005Z" fill="#2F484E"/>
<path d="M37.7144 91.2005H41.4856V94.9717H37.7144V91.2005Z" fill="#B2DCEF"/>
<path d="M41.4854 91.2005H45.2571V94.9717H41.4854V91.2005Z" fill="#1B2632"/>
<path d="M45.2573 91.2005H49.0286V94.9717H45.2573V91.2005Z" fill="#2F484E"/>
<path d="M49.0286 91.2005H52.7998V94.9717H49.0286V91.2005Z" fill="#B2DCEF"/>
<path d="M52.7996 91.2005H56.5713V94.9717H52.7996V91.2005Z" fill="#1B2632"/>
<path d="M56.5715 91.2005H60.3428V94.9717H56.5715V91.2005Z" fill="#2F484E"/>
<path d="M60.3428 91.2005H64.114V94.9717H60.3428V91.2005Z" fill="#1B2632"/>
<path d="M64.114 91.2005H67.8858V94.9717H64.114V91.2005Z" fill="#1B2632"/>
<path d="M67.8857 91.2005H71.657V94.9717H67.8857V91.2005Z" fill="#1B2632"/>
<path d="M71.657 91.2005H75.4282V94.9717H71.657V91.2005Z" fill="#1B2632"/>
<path d="M75.4282 91.2005H79.2V94.9717H75.4282V91.2005Z" fill="#1B2632"/>
<path d="M79.2 91.2005H82.9712V94.9717H79.2V91.2005Z" fill="#1B2632"/>
<path d="M82.9712 91.2005H86.7424V94.9717H82.9712V91.2005Z" fill="#B2DCEF"/>
<path d="M86.7424 91.2005H90.5142V94.9717H86.7424V91.2005Z" fill="#1B2632"/>
<path d="M90.5142 91.2005H94.2854V94.9717H90.5142V91.2005Z" fill="#2F484E"/>
<path d="M94.2854 91.2005H98.0572V94.9717H94.2854V91.2005Z" fill="#B2DCEF"/>
<path d="M98.0571 91.2005H101.828V94.9717H98.0571V91.2005Z" fill="#1B2632"/>
<path d="M101.828 91.2005H105.6V94.9717H101.828V91.2005Z" fill="#B2DCEF"/>
<path d="M105.6 91.2005H109.371V94.9717H105.6V91.2005Z" fill="white"/>
<path d="M109.371 91.2005H113.143V94.9717H109.371V91.2005Z" fill="black"/>
<path d="M11.314 94.9714H15.0857V98.7432H11.314V94.9714Z" fill="black"/>
<path d="M15.0857 94.9714H18.8569V98.7432H15.0857V94.9714Z" fill="#1B2632"/>
<path d="M18.8569 94.9714H22.6282V98.7432H18.8569V94.9714Z" fill="#1B2632"/>
<path d="M22.6282 94.9714H26.4V98.7432H22.6282V94.9714Z" fill="white"/>
<path d="M26.3999 94.9714H30.1711V98.7432H26.3999V94.9714Z" fill="#B2DCEF"/>
<path d="M30.1711 94.9714H33.9424V98.7432H30.1711V94.9714Z" fill="#B2DCEF"/>
<path d="M33.9424 94.9714H37.7142V98.7432H33.9424V94.9714Z" fill="#1B2632"/>
<path d="M37.7144 94.9714H41.4856V98.7432H37.7144V94.9714Z" fill="#2F484E"/>
<path d="M41.4854 94.9714H45.2571V98.7432H41.4854V94.9714Z" fill="#B2DCEF"/>
<path d="M45.2573 94.9714H49.0286V98.7432H45.2573V94.9714Z" fill="#1B2632"/>
<path d="M49.0286 94.9714H52.7998V98.7432H49.0286V94.9714Z" fill="#2F484E"/>
<path d="M52.7996 94.9714H56.5713V98.7432H52.7996V94.9714Z" fill="#B2DCEF"/>
<path d="M56.5715 94.9714H60.3428V98.7432H56.5715V94.9714Z" fill="#2F484E"/>
<path d="M60.3428 94.9714H64.114V98.7432H60.3428V94.9714Z" fill="#B2DCEF"/>
<path d="M64.114 94.9714H67.8858V98.7432H64.114V94.9714Z" fill="#B2DCEF"/>
<path d="M67.8857 94.9714H71.657V98.7432H67.8857V94.9714Z" fill="#B2DCEF"/>
<path d="M71.657 94.9714H75.4282V98.7432H71.657V94.9714Z" fill="#B2DCEF"/>
<path d="M75.4282 94.9714H79.2V98.7432H75.4282V94.9714Z" fill="#B2DCEF"/>
<path d="M79.2 94.9714H82.9712V98.7432H79.2V94.9714Z" fill="#B2DCEF"/>
<path d="M82.9712 94.9714H86.7424V98.7432H82.9712V94.9714Z" fill="#1B2632"/>
<path d="M86.7424 94.9714H90.5142V98.7432H86.7424V94.9714Z" fill="#B2DCEF"/>
<path d="M90.5142 94.9714H94.2854V98.7432H90.5142V94.9714Z" fill="#1B2632"/>
<path d="M94.2854 94.9714H98.0572V98.7432H94.2854V94.9714Z" fill="#2F484E"/>
<path d="M98.0571 94.9714H101.828V98.7432H98.0571V94.9714Z" fill="#B2DCEF"/>
<path d="M101.828 94.9714H105.6V98.7432H101.828V94.9714Z" fill="#1B2632"/>
<path d="M105.6 94.9714H109.371V98.7432H105.6V94.9714Z" fill="#B2DCEF"/>
<path d="M109.371 94.9714H113.143V98.7432H109.371V94.9714Z" fill="white"/>
<path d="M113.143 94.9714H116.914V98.7432H113.143V94.9714Z" fill="black"/>
<path d="M15.0857 98.7434H18.8569V102.515H15.0857V98.7434Z" fill="black"/>
<path d="M18.8569 98.7434H22.6282V102.515H18.8569V98.7434Z" fill="#1B2632"/>
<path d="M22.6282 98.7434H26.4V102.515H22.6282V98.7434Z" fill="#1B2632"/>
<path d="M26.3999 98.7434H30.1711V102.515H26.3999V98.7434Z" fill="white"/>
<path d="M30.1711 98.7434H33.9424V102.515H30.1711V98.7434Z" fill="#B2DCEF"/>
<path d="M33.9424 98.7434H37.7142V102.515H33.9424V98.7434Z" fill="#B2DCEF"/>
<path d="M37.7144 98.7434H41.4856V102.515H37.7144V98.7434Z" fill="#1B2632"/>
<path d="M41.4854 98.7434H45.2571V102.515H41.4854V98.7434Z" fill="#1B2632"/>
<path d="M45.2573 98.7434H49.0286V102.515H45.2573V98.7434Z" fill="#1B2632"/>
<path d="M49.0286 98.7434H52.7998V102.515H49.0286V98.7434Z" fill="#1B2632"/>
<path d="M52.7996 98.7434H56.5713V102.515H52.7996V98.7434Z" fill="#1B2632"/>
<path d="M56.5715 98.7434H60.3428V102.515H56.5715V98.7434Z" fill="#1B2632"/>
<path d="M60.3428 98.7434H64.114V102.515H60.3428V98.7434Z" fill="#1B2632"/>
<path d="M64.114 98.7434H67.8858V102.515H64.114V98.7434Z" fill="#1B2632"/>
<path d="M67.8857 98.7434H71.657V102.515H67.8857V98.7434Z" fill="#1B2632"/>
<path d="M71.657 98.7434H75.4282V102.515H71.657V98.7434Z" fill="#1B2632"/>
<path d="M75.4282 98.7434H79.2V102.515H75.4282V98.7434Z" fill="#1B2632"/>
<path d="M79.2 98.7434H82.9712V102.515H79.2V98.7434Z" fill="#1B2632"/>
<path d="M82.9712 98.7434H86.7424V102.515H82.9712V98.7434Z" fill="#1B2632"/>
<path d="M86.7424 98.7434H90.5142V102.515H86.7424V98.7434Z" fill="#1B2632"/>
<path d="M90.5142 98.7434H94.2854V102.515H90.5142V98.7434Z" fill="#1B2632"/>
<path d="M94.2854 98.7434H98.0572V102.515H94.2854V98.7434Z" fill="#1B2632"/>
<path d="M98.0571 98.7434H101.828V102.515H98.0571V98.7434Z" fill="#1B2632"/>
<path d="M101.828 98.7434H105.6V102.515H101.828V98.7434Z" fill="#1B2632"/>
<path d="M105.6 98.7434H109.371V102.515H105.6V98.7434Z" fill="#1B2632"/>
<path d="M109.371 98.7434H113.143V102.515H109.371V98.7434Z" fill="#B2DCEF"/>
<path d="M113.143 98.7434H116.914V102.515H113.143V98.7434Z" fill="white"/>
<path d="M116.914 98.7434H120.686V102.515H116.914V98.7434Z" fill="black"/>
<path d="M18.8569 102.514H22.6282V106.285H18.8569V102.514Z" fill="black"/>
<path d="M22.6282 102.514H26.4V106.285H22.6282V102.514Z" fill="#1B2632"/>
<path d="M26.3999 102.514H30.1711V106.285H26.3999V102.514Z" fill="#1B2632"/>
<path d="M30.1711 102.514H33.9424V106.285H30.1711V102.514Z" fill="white"/>
<path d="M33.9424 102.514H37.7142V106.285H33.9424V102.514Z" fill="#B2DCEF"/>
<path d="M37.7144 102.514H41.4856V106.285H37.7144V102.514Z" fill="#B2DCEF"/>
<path d="M41.4854 102.514H45.2571V106.285H41.4854V102.514Z" fill="#B2DCEF"/>
<path d="M45.2573 102.514H49.0286V106.285H45.2573V102.514Z" fill="#B2DCEF"/>
<path d="M49.0286 102.514H52.7998V106.285H49.0286V102.514Z" fill="#B2DCEF"/>
<path d="M52.7996 102.514H56.5713V106.285H52.7996V102.514Z" fill="#B2DCEF"/>
<path d="M56.5715 102.514H60.3428V106.285H56.5715V102.514Z" fill="#B2DCEF"/>
<path d="M60.3428 102.514H64.114V106.285H60.3428V102.514Z" fill="#B2DCEF"/>
<path d="M64.114 102.514H67.8858V106.285H64.114V102.514Z" fill="#B2DCEF"/>
<path d="M67.8857 102.514H71.657V106.285H67.8857V102.514Z" fill="#B2DCEF"/>
<path d="M71.657 102.514H75.4282V106.285H71.657V102.514Z" fill="#B2DCEF"/>
<path d="M75.4282 102.514H79.2V106.285H75.4282V102.514Z" fill="#B2DCEF"/>
<path d="M79.2 102.514H82.9712V106.285H79.2V102.514Z" fill="#B2DCEF"/>
<path d="M82.9712 102.514H86.7424V106.285H82.9712V102.514Z" fill="#B2DCEF"/>
<path d="M86.7424 102.514H90.5142V106.285H86.7424V102.514Z" fill="#B2DCEF"/>
<path d="M90.5142 102.514H94.2854V106.285H90.5142V102.514Z" fill="#B2DCEF"/>
<path d="M94.2854 102.514H98.0572V106.285H94.2854V102.514Z" fill="#B2DCEF"/>
<path d="M98.0571 102.514H101.828V106.285H98.0571V102.514Z" fill="#B2DCEF"/>
<path d="M101.828 102.514H105.6V106.285H101.828V102.514Z" fill="#B2DCEF"/>
<path d="M105.6 102.514H109.371V106.285H105.6V102.514Z" fill="#B2DCEF"/>
<path d="M109.371 102.514H113.143V106.285H109.371V102.514Z" fill="#B2DCEF"/>
<path d="M113.143 102.514H116.914V106.285H113.143V102.514Z" fill="#B2DCEF"/>
<path d="M116.914 102.514H120.686V106.285H116.914V102.514Z" fill="white"/>
<path d="M120.686 102.514H124.457V106.285H120.686V102.514Z" fill="black"/>
<path d="M22.6282 106.286H26.4V110.058H22.6282V106.286Z" fill="black"/>
<path d="M26.3999 106.286H30.1711V110.058H26.3999V106.286Z" fill="#1B2632"/>
<path d="M30.1711 106.286H33.9424V110.058H30.1711V106.286Z" fill="#1B2632"/>
<path d="M33.9424 106.286H37.7142V110.058H33.9424V106.286Z" fill="white"/>
<path d="M37.7144 106.286H41.4856V110.058H37.7144V106.286Z" fill="#B2DCEF"/>
<path d="M41.4854 106.286H45.2571V110.058H41.4854V106.286Z" fill="#B2DCEF"/>
<path d="M45.2573 106.286H49.0286V110.058H45.2573V106.286Z" fill="#B2DCEF"/>
<path d="M49.0286 106.286H52.7998V110.058H49.0286V106.286Z" fill="#B2DCEF"/>
<path d="M52.7996 106.286H56.5713V110.058H52.7996V106.286Z" fill="#B2DCEF"/>
<path d="M56.5715 106.286H60.3428V110.058H56.5715V106.286Z" fill="#B2DCEF"/>
<path d="M60.3428 106.286H64.114V110.058H60.3428V106.286Z" fill="#B2DCEF"/>
<path d="M64.114 106.286H67.8858V110.058H64.114V106.286Z" fill="#B2DCEF"/>
<path d="M67.8857 106.286H71.657V110.058H67.8857V106.286Z" fill="#B2DCEF"/>
<path d="M71.657 106.286H75.4282V110.058H71.657V106.286Z" fill="#1B2632"/>
<path d="M75.4282 106.286H79.2V110.058H75.4282V106.286Z" fill="#2F484E"/>
<path d="M79.2 106.286H82.9712V110.058H79.2V106.286Z" fill="#2F484E"/>
<path d="M82.9712 106.286H86.7424V110.058H82.9712V106.286Z" fill="#2F484E"/>
<path d="M86.7424 106.286H90.5142V110.058H86.7424V106.286Z" fill="#2F484E"/>
<path d="M90.5142 106.286H94.2854V110.058H90.5142V106.286Z" fill="#1B2632"/>
<path d="M94.2854 106.286H98.0572V110.058H94.2854V106.286Z" fill="#B2DCEF"/>
<path d="M98.0571 106.286H101.828V110.058H98.0571V106.286Z" fill="#B2DCEF"/>
<path d="M101.828 106.286H105.6V110.058H101.828V106.286Z" fill="#B2DCEF"/>
<path d="M105.6 106.286H109.371V110.058H105.6V106.286Z" fill="#B2DCEF"/>
<path d="M109.371 106.286H113.143V110.058H109.371V106.286Z" fill="#B2DCEF"/>
<path d="M113.143 106.286H116.914V110.058H113.143V106.286Z" fill="#B2DCEF"/>
<path d="M116.914 106.286H120.686V110.058H116.914V106.286Z" fill="#B2DCEF"/>
<path d="M120.686 106.286H124.457V110.058H120.686V106.286Z" fill="white"/>
<path d="M124.457 106.286H128.228V110.058H124.457V106.286Z" fill="black"/>
<path d="M26.3999 110.057H30.1711V113.828H26.3999V110.057Z" fill="black"/>
<path d="M30.1711 110.057H33.9424V113.828H30.1711V110.057Z" fill="#1B2632"/>
<path d="M33.9424 110.057H37.7142V113.828H33.9424V110.057Z" fill="#1B2632"/>
<path d="M37.7144 110.057H41.4856V113.828H37.7144V110.057Z" fill="white"/>
<path d="M41.4854 110.057H45.2571V113.828H41.4854V110.057Z" fill="white"/>
<path d="M45.2573 110.057H49.0286V113.828H45.2573V110.057Z" fill="white"/>
<path d="M49.0286 110.057H52.7998V113.828H49.0286V110.057Z" fill="white"/>
<path d="M52.7996 110.057H56.5713V113.828H52.7996V110.057Z" fill="white"/>
<path d="M56.5715 110.057H60.3428V113.828H56.5715V110.057Z" fill="white"/>
<path d="M60.3428 110.057H64.114V113.828H60.3428V110.057Z" fill="white"/>
<path d="M64.114 110.057H67.8858V113.828H64.114V110.057Z" fill="white"/>
<path d="M67.8857 110.057H71.657V113.828H67.8857V110.057Z" fill="white"/>
<path d="M71.657 110.057H75.4282V113.828H71.657V110.057Z" fill="white"/>
<path d="M75.4282 110.057H79.2V113.828H75.4282V110.057Z" fill="white"/>
<path d="M79.2 110.057H82.9712V113.828H79.2V110.057Z" fill="white"/>
<path d="M82.9712 110.057H86.7424V113.828H82.9712V110.057Z" fill="white"/>
<path d="M86.7424 110.057H90.5142V113.828H86.7424V110.057Z" fill="white"/>
<path d="M90.5142 110.057H94.2854V113.828H90.5142V110.057Z" fill="white"/>
<path d="M94.2854 110.057H98.0572V113.828H94.2854V110.057Z" fill="white"/>
<path d="M98.0571 110.057H101.828V113.828H98.0571V110.057Z" fill="white"/>
<path d="M101.828 110.057H105.6V113.828H101.828V110.057Z" fill="white"/>
<path d="M105.6 110.057H109.371V113.828H105.6V110.057Z" fill="white"/>
<path d="M109.371 110.057H113.143V113.828H109.371V110.057Z" fill="white"/>
<path d="M113.143 110.057H116.914V113.828H113.143V110.057Z" fill="white"/>
<path d="M116.914 110.057H120.686V113.828H116.914V110.057Z" fill="white"/>
<path d="M120.686 110.057H124.457V113.828H120.686V110.057Z" fill="white"/>
<path d="M124.457 110.057H128.228V113.828H124.457V110.057Z" fill="white"/>
<path d="M128.228 110.057H132V113.828H128.228V110.057Z" fill="black"/>
<path d="M30.1711 113.828H33.9424V117.6H30.1711V113.828Z" fill="black"/>
<path d="M33.9424 113.828H37.7142V117.6H33.9424V113.828Z" fill="#1B2632"/>
<path d="M37.7144 113.828H41.4856V117.6H37.7144V113.828Z" fill="#2F484E"/>
<path d="M41.4854 113.828H45.2571V117.6H41.4854V113.828Z" fill="#2F484E"/>
<path d="M45.2573 113.828H49.0286V117.6H45.2573V113.828Z" fill="#2F484E"/>
<path d="M49.0286 113.828H52.7998V117.6H49.0286V113.828Z" fill="#2F484E"/>
<path d="M52.7996 113.828H56.5713V117.6H52.7996V113.828Z" fill="#2F484E"/>
<path d="M56.5715 113.828H60.3428V117.6H56.5715V113.828Z" fill="#2F484E"/>
<path d="M60.3428 113.828H64.114V117.6H60.3428V113.828Z" fill="#2F484E"/>
<path d="M64.114 113.828H67.8858V117.6H64.114V113.828Z" fill="#2F484E"/>
<path d="M67.8857 113.828H71.657V117.6H67.8857V113.828Z" fill="#2F484E"/>
<path d="M71.657 113.828H75.4282V117.6H71.657V113.828Z" fill="#2F484E"/>
<path d="M75.4282 113.828H79.2V117.6H75.4282V113.828Z" fill="#2F484E"/>
<path d="M79.2 113.828H82.9712V117.6H79.2V113.828Z" fill="#EC4700"/>
<path d="M82.9712 113.828H86.7424V117.6H82.9712V113.828Z" fill="#2F484E"/>
<path d="M86.7424 113.828H90.5142V117.6H86.7424V113.828Z" fill="#15C2A5"/>
<path d="M90.5142 113.828H94.2854V117.6H90.5142V113.828Z" fill="#2F484E"/>
<path d="M94.2854 113.828H98.0572V117.6H94.2854V113.828Z" fill="#2F484E"/>
<path d="M98.0571 113.828H101.828V117.6H98.0571V113.828Z" fill="#2F484E"/>
<path d="M101.828 113.828H105.6V117.6H101.828V113.828Z" fill="#2F484E"/>
<path d="M105.6 113.828H109.371V117.6H105.6V113.828Z" fill="#2F484E"/>
<path d="M109.371 113.828H113.143V117.6H109.371V113.828Z" fill="#2F484E"/>
<path d="M113.143 113.828H116.914V117.6H113.143V113.828Z" fill="#2F484E"/>
<path d="M116.914 113.828H120.686V117.6H116.914V113.828Z" fill="#2F484E"/>
<path d="M120.686 113.828H124.457V117.6H120.686V113.828Z" fill="#2F484E"/>
<path d="M124.457 113.828H128.228V117.6H124.457V113.828Z" fill="#2F484E"/>
<path d="M128.228 113.828H132V117.6H128.228V113.828Z" fill="black"/>
<path d="M33.9424 117.599H37.7142V121.371H33.9424V117.599Z" fill="black"/>
<path d="M37.7144 117.599H41.4856V121.371H37.7144V117.599Z" fill="black"/>
<path d="M41.4854 117.599H45.2571V121.371H41.4854V117.599Z" fill="black"/>
<path d="M45.2573 117.599H49.0286V121.371H45.2573V117.599Z" fill="black"/>
<path d="M49.0286 117.599H52.7998V121.371H49.0286V117.599Z" fill="black"/>
<path d="M52.7996 117.599H56.5713V121.371H52.7996V117.599Z" fill="black"/>
<path d="M56.5715 117.599H60.3428V121.371H56.5715V117.599Z" fill="black"/>
<path d="M60.3428 117.599H64.114V121.371H60.3428V117.599Z" fill="black"/>
<path d="M64.114 117.599H67.8858V121.371H64.114V117.599Z" fill="black"/>
<path d="M67.8857 117.599H71.657V121.371H67.8857V117.599Z" fill="black"/>
<path d="M71.657 117.599H75.4282V121.371H71.657V117.599Z" fill="black"/>
<path d="M75.4282 117.599H79.2V121.371H75.4282V117.599Z" fill="black"/>
<path d="M79.2 117.599H82.9712V121.371H79.2V117.599Z" fill="black"/>
<path d="M82.9712 117.599H86.7424V121.371H82.9712V117.599Z" fill="black"/>
<path d="M86.7424 117.599H90.5142V121.371H86.7424V117.599Z" fill="black"/>
<path d="M90.5142 117.599H94.2854V121.371H90.5142V117.599Z" fill="black"/>
<path d="M94.2854 117.599H98.0572V121.371H94.2854V117.599Z" fill="black"/>
<path d="M98.0571 117.599H101.828V121.371H98.0571V117.599Z" fill="black"/>
<path d="M101.828 117.599H105.6V121.371H101.828V117.599Z" fill="black"/>
<path d="M105.6 117.599H109.371V121.371H105.6V117.599Z" fill="black"/>
<path d="M109.371 117.599H113.143V121.371H109.371V117.599Z" fill="black"/>
<path d="M113.143 117.599H116.914V121.371H113.143V117.599Z" fill="black"/>
<path d="M116.914 117.599H120.686V121.371H116.914V117.599Z" fill="black"/>
<path d="M120.686 117.599H124.457V121.371H120.686V117.599Z" fill="black"/>
<path d="M124.457 117.599H128.228V121.371H124.457V117.599Z" fill="black"/>
</svg>
