<svg width="126" height="54" viewBox="0 0 126 54" fill="none" xmlns="http://www.w3.org/2000/svg">
<mask id="path-1-outside-1_1978_43142" maskUnits="userSpaceOnUse" x="0" y="0" width="126" height="54" fill="black">
<rect fill="white" width="126" height="54"/>
<path d="M0 10C0 4.47715 4.47715 0 10 0H116C121.523 0 126 4.47715 126 10V38C126 43.5229 121.523 48 116 48H10C4.47715 48 0 43.5228 0 38V10Z"/>
</mask>
<path d="M0 10C0 4.47715 4.47715 0 10 0H116C121.523 0 126 4.47715 126 10V38C126 43.5229 121.523 48 116 48H10C4.47715 48 0 43.5228 0 38V10Z" fill="#FF0000"/>
<path d="M0 0H126H0ZM126 38C126 46.8366 118.837 54 110 54H16C7.16344 54 0 46.8366 0 38C0 40.2091 4.47715 42 10 42H116C121.523 42 126 40.2091 126 38ZM0 48V0V48ZM126 0V48V0Z" fill="black" mask="url(#path-1-outside-1_1978_43142)"/>
<g clip-path="url(#clip0_1978_43142)">
<rect x="16.7061" y="12.7058" width="22.5882" height="22.5882" fill="white"/>
</g>
<path d="M56.2344 32.884C55.1624 32.884 54.1864 32.764 53.3064 32.524C52.4424 32.284 51.6984 31.924 51.0744 31.444C50.4664 30.948 49.9944 30.332 49.6584 29.596C49.3224 28.844 49.1544 27.956 49.1544 26.932V26.74H51.8184V26.884C51.8184 27.508 51.9304 28.052 52.1544 28.516C52.3944 28.98 52.7144 29.372 53.1144 29.692C53.5144 30.012 53.9864 30.252 54.5304 30.412C55.0904 30.572 55.6744 30.652 56.2824 30.652C56.8584 30.652 57.3944 30.612 57.8904 30.532C58.3864 30.436 58.8024 30.284 59.1384 30.076C59.4904 29.868 59.7624 29.596 59.9544 29.26C60.1464 28.908 60.2424 28.468 60.2424 27.94V27.7C60.2424 27.172 60.0904 26.756 59.7864 26.452C59.4984 26.132 59.1064 25.868 58.6104 25.66C58.1144 25.452 57.5464 25.284 56.9064 25.156C56.2664 25.028 55.6184 24.9 54.9624 24.772C54.3224 24.628 53.6824 24.46 53.0424 24.268C52.4184 24.076 51.8584 23.812 51.3624 23.476C50.8664 23.14 50.4664 22.716 50.1624 22.204C49.8584 21.692 49.7064 21.044 49.7064 20.26V20.092C49.7064 19.18 49.8984 18.42 50.2824 17.812C50.6664 17.204 51.1624 16.716 51.7704 16.348C52.3944 15.98 53.0984 15.716 53.8824 15.556C54.6664 15.396 55.4664 15.316 56.2824 15.316C57.2424 15.316 58.1064 15.444 58.8744 15.7C59.6584 15.94 60.3304 16.3 60.8904 16.78C61.4504 17.244 61.8824 17.812 62.1864 18.484C62.4904 19.156 62.6424 19.908 62.6424 20.74V20.932H60.0024V20.788C60.0024 20.244 59.9064 19.772 59.7144 19.372C59.5224 18.972 59.2584 18.636 58.9224 18.364C58.5864 18.092 58.1784 17.892 57.6984 17.764C57.2184 17.62 56.6904 17.548 56.1144 17.548C55.6664 17.548 55.2184 17.596 54.7704 17.692C54.3384 17.772 53.9464 17.908 53.5944 18.1C53.2584 18.292 52.9864 18.54 52.7784 18.844C52.5704 19.132 52.4664 19.492 52.4664 19.924V20.164C52.4664 20.66 52.6104 21.06 52.8984 21.364C53.2024 21.652 53.6024 21.892 54.0984 22.084C54.5944 22.276 55.1544 22.436 55.7784 22.564C56.4184 22.676 57.0664 22.804 57.7224 22.948C58.3784 23.076 59.0184 23.236 59.6424 23.428C60.2824 23.62 60.8504 23.892 61.3464 24.244C61.8424 24.596 62.2344 25.044 62.5224 25.588C62.8264 26.132 62.9784 26.812 62.9784 27.628V27.796C62.9784 28.74 62.8024 29.532 62.4504 30.172C62.0984 30.812 61.6184 31.34 61.0104 31.756C60.4024 32.156 59.6824 32.444 58.8504 32.62C58.0344 32.796 57.1624 32.884 56.2344 32.884ZM69.0517 32.5V18.004H63.5797V15.7H77.1157V18.004H71.6437V32.5H69.0517ZM85.5219 32.884C84.2099 32.884 83.0499 32.676 82.0419 32.26C81.0499 31.844 80.2179 31.26 79.5459 30.508C78.8739 29.74 78.3619 28.82 78.0099 27.748C77.6739 26.676 77.5059 25.484 77.5059 24.172V24.028C77.5059 22.78 77.6819 21.628 78.0339 20.572C78.3859 19.5 78.8899 18.58 79.5459 17.812C80.2179 17.044 81.0419 16.436 82.0179 15.988C83.0099 15.54 84.1379 15.316 85.4019 15.316C86.7459 15.316 87.9139 15.532 88.9059 15.964C89.9139 16.396 90.7539 16.996 91.4259 17.764C92.1139 18.532 92.6179 19.452 92.9379 20.524C93.2739 21.58 93.4419 22.748 93.4419 24.028V24.172C93.4419 25.452 93.2739 26.628 92.9379 27.7C92.6019 28.756 92.0979 29.668 91.4259 30.436C90.7539 31.204 89.9219 31.804 88.9299 32.236C87.9539 32.668 86.8179 32.884 85.5219 32.884ZM85.4979 30.58C86.4419 30.58 87.2419 30.42 87.8979 30.1C88.5699 29.764 89.1139 29.308 89.5299 28.732C89.9619 28.156 90.2739 27.484 90.4659 26.716C90.6579 25.948 90.7539 25.116 90.7539 24.22V24.076C90.7539 23.148 90.6499 22.292 90.4419 21.508C90.2339 20.724 89.9139 20.044 89.4819 19.468C89.0499 18.892 88.5059 18.444 87.8499 18.124C87.1939 17.788 86.4099 17.62 85.4979 17.62C84.5859 17.62 83.7939 17.788 83.1219 18.124C82.4499 18.444 81.8979 18.892 81.4659 19.468C81.0499 20.044 80.7379 20.732 80.5299 21.532C80.3219 22.316 80.2179 23.18 80.2179 24.124V24.268C80.2179 25.18 80.3219 26.02 80.5299 26.788C80.7539 27.556 81.0739 28.22 81.4899 28.78C81.9219 29.34 82.4739 29.78 83.1459 30.1C83.8179 30.42 84.6019 30.58 85.4979 30.58ZM96.3043 32.5V15.7H103.192C104.056 15.7 104.848 15.804 105.568 16.012C106.288 16.204 106.904 16.508 107.416 16.924C107.944 17.34 108.352 17.876 108.64 18.532C108.928 19.172 109.072 19.94 109.072 20.836V20.98C109.072 21.876 108.936 22.668 108.664 23.356C108.408 24.028 108.016 24.588 107.488 25.036C106.976 25.484 106.336 25.82 105.568 26.044C104.816 26.268 103.96 26.38 103 26.38H98.8963V32.5H96.3043ZM98.8963 24.148H102.664C103.208 24.148 103.712 24.1 104.176 24.004C104.64 23.892 105.032 23.724 105.352 23.5C105.688 23.26 105.944 22.94 106.12 22.54C106.312 22.14 106.408 21.644 106.408 21.052V20.908C106.408 20.348 106.312 19.876 106.12 19.492C105.944 19.108 105.688 18.804 105.352 18.58C105.032 18.356 104.64 18.196 104.176 18.1C103.728 17.988 103.24 17.932 102.712 17.932H98.8963V24.148Z" fill="white"/>
<defs>
<clipPath id="clip0_1978_43142">
<rect width="24" height="24" fill="white" transform="translate(16 12)"/>
</clipPath>
</defs>
</svg>
