<svg width="112" height="112" viewBox="0 0 112 112" fill="none" xmlns="http://www.w3.org/2000/svg">
<g clip-path="url(#clip0_1119_10719)">
<path fill-rule="evenodd" clip-rule="evenodd" d="M66.2995 35.1495C66.2995 46.8301 56.8306 56.299 45.15 56.299C33.4695 56.299 24.0005 46.8301 24.0005 35.1495C24.0005 23.469 33.4695 14 45.15 14C56.8306 14 66.2995 23.469 66.2995 35.1495ZM27.7847 53.6788C27.4899 53.3757 27.04 53.275 26.6531 53.4457C21.5953 55.6765 16.9423 58.8388 12.9578 62.8233C4.96887 70.8122 0.285228 81.4886 -0.21294 92.7276C-0.261852 93.8311 0.638204 94.7272 1.74277 94.7272L44.8618 94.7272H62.7363C61.6138 91.6974 61.0005 88.4203 61.0005 85C61.0005 74.7496 66.5085 65.7857 74.7263 60.9066C71.2673 57.8519 67.3844 55.3674 63.2249 53.5142C62.8387 53.3421 62.3884 53.441 62.0925 53.7431C57.7419 58.1836 51.6777 60.9389 44.9699 60.9389C38.2299 60.9389 32.1396 58.157 27.7847 53.6788Z" fill="#666666"/>
<path fill-rule="evenodd" clip-rule="evenodd" d="M89 107C101.15 107 111 97.1503 111 85C111 72.8497 101.15 63 89 63C76.8497 63 67 72.8497 67 85C67 97.1503 76.8497 107 89 107ZM89 72C90.1046 72 91 72.8954 91 74V83H100C101.105 83 102 83.8954 102 85C102 86.1046 101.105 87 100 87H91V96C91 97.1046 90.1046 98 89 98C87.8954 98 87 97.1046 87 96V87H78C76.8954 87 76 86.1046 76 85C76 83.8954 76.8954 83 78 83H87V74C87 72.8954 87.8954 72 89 72Z" fill="#CCCCCC"/>
</g>
<defs>
<clipPath id="clip0_1119_10719">
<rect width="112" height="112" fill="white"/>
</clipPath>
</defs>
</svg>
