<svg width="112" height="112" viewBox="0 0 112 112" fill="none" xmlns="http://www.w3.org/2000/svg">
<g clip-path="url(#clip0_1102_7822)">
<path fill-rule="evenodd" clip-rule="evenodd" d="M66.2991 35.1495C66.2991 46.8301 56.8301 56.299 45.1495 56.299C33.469 56.299 24 46.8301 24 35.1495C24 23.469 33.469 14 45.1495 14C56.8301 14 66.2991 23.469 66.2991 35.1495ZM27.7842 53.6788C27.4894 53.3757 27.0395 53.275 26.6526 53.4457C21.5948 55.6765 16.9418 58.8388 12.9573 62.8233C4.96838 70.8122 0.28474 81.4886 -0.213428 92.7276C-0.26234 93.8311 0.637716 94.7272 1.74229 94.7272L44.8613 94.7272H62.7358C61.6133 91.6974 61 88.4203 61 85C61 74.7496 66.508 65.7857 74.7259 60.9066C71.2668 57.8519 67.3839 55.3674 63.2244 53.5142C62.8382 53.3421 62.3879 53.441 62.092 53.7431C57.7414 58.1836 51.6772 60.9389 44.9695 60.9389C38.2294 60.9389 32.1392 58.157 27.7842 53.6788Z" fill="#CCCCCC"/>
<path fill-rule="evenodd" clip-rule="evenodd" d="M89 107C101.15 107 111 97.1503 111 85C111 72.8497 101.15 63 89 63C76.8497 63 67 72.8497 67 85C67 97.1503 76.8497 107 89 107ZM89 72C90.1046 72 91 72.8954 91 74V83H100C101.105 83 102 83.8954 102 85C102 86.1046 101.105 87 100 87H91V96C91 97.1046 90.1046 98 89 98C87.8954 98 87 97.1046 87 96V87H78C76.8954 87 76 86.1046 76 85C76 83.8954 76.8954 83 78 83H87V74C87 72.8954 87.8954 72 89 72Z" fill="#666666"/>
</g>
<defs>
<clipPath id="clip0_1102_7822">
<rect width="112" height="112" fill="white"/>
</clipPath>
</defs>
</svg>
