<svg width="54" height="24" viewBox="0 0 54 24" fill="none" xmlns="http://www.w3.org/2000/svg">
<g clip-path="url(#clip0_1978_42886)">
<path d="M21.3348 9.79741C21.9148 9.38611 22.156 8.87289 22.156 8.07864V7.72524C22.156 6.03482 21.3456 5.2478 19.6062 5.2478H15.0527V14.7728H19.8522C21.5677 14.7728 22.4019 13.9622 22.4019 12.2953V11.7978C22.4019 10.7653 22.0804 10.1538 21.3348 9.79801V9.79741ZM16.9076 9.12317V6.90264H19.1543C20.0445 6.90264 20.3023 7.14267 20.3023 7.97371V8.15704C20.3023 8.97722 20.0016 9.12317 19.1543 9.12317H16.9076ZM20.5476 11.7839V12.0589C20.5476 12.8797 20.2767 13.13 19.3871 13.13H16.9076V10.7261H19.3871C20.2874 10.7261 20.5476 10.9632 20.5476 11.7839Z" fill="#FF0000"/>
<path d="M28.8797 5.24707V12.1897C28.8797 13.0105 28.6118 13.2607 27.7317 13.2607H26.3615C25.4719 13.2607 25.2009 13.0105 25.2009 12.1897V5.24707H23.3467V12.4381C23.3467 14.0966 24.1851 14.9023 25.9095 14.9023H28.1848C29.0572 14.9023 29.686 14.7039 30.1075 14.2962C30.5291 13.8879 30.734 13.2806 30.734 12.4381V5.24707H28.8797Z" fill="#FF0000"/>
<path d="M37.181 9.26896L34.945 8.94149C33.894 8.78409 33.7797 8.60919 33.7797 7.98742V7.83002C33.7797 7.00923 34.0542 6.75896 34.9534 6.75896H36.414C37.3042 6.75896 37.5621 6.98391 37.5621 7.76248V7.88309H39.4163V7.55502C39.4163 5.90561 38.5821 5.10352 36.8666 5.10352H34.4746C32.7591 5.10352 31.9249 5.91405 31.9249 7.58095V8.39269C31.9249 9.80992 32.5483 10.4281 34.2245 10.6723L36.4617 10.9998C37.462 11.1427 37.6133 11.3423 37.6133 11.9539V12.1764C37.6133 12.9972 37.3453 13.2474 36.4652 13.2474H34.8879C33.9982 13.2474 33.7273 13.0002 33.7273 12.186V12.0654H31.8772L31.8754 12.1842C31.8754 12.1842 31.873 12.3465 31.873 12.4387C31.873 14.0881 32.7115 14.8902 34.4359 14.8902H36.9184C37.7907 14.8902 38.4195 14.6918 38.8411 14.2841C39.2627 13.8759 39.4676 13.2686 39.4676 12.4261V11.5619C39.4676 10.1133 38.8691 9.51321 37.1804 9.26896H37.181Z" fill="#FF0000"/>
<path d="M46.101 5.24707V8.46267C46.101 9.28346 45.833 9.53373 44.953 9.53373H43.5828C42.6932 9.53373 42.4222 9.28346 42.4222 8.46267V5.24707H40.568V8.71114C40.568 10.3696 41.4064 11.1753 43.1308 11.1753H45.4061C45.658 11.1753 45.889 11.1584 46.1016 11.1246V12.177C46.1016 12.9978 45.8336 13.2481 44.9536 13.2481H43.5864C42.6968 13.2481 42.4258 13.0008 42.4258 12.1867V12.066H40.5674L40.5716 12.4394C40.5716 14.0888 41.41 14.8909 43.1344 14.8909H45.4067C46.279 14.8909 46.9079 14.6924 47.3294 14.2848C47.751 13.8765 47.9559 13.2692 47.9559 12.4267V5.24707H46.1016H46.101Z" fill="#FF0000"/>
<path d="M12.6706 10.0057L6.04492 5.24316V14.7687L12.6706 10.0057Z" fill="#FF0000"/>
<path d="M48.9386 0H5.06142C2.26633 0 0 2.29531 0 5.12614V8.90864V18.8733C0 21.7041 2.26633 23.9994 5.06142 23.9994H48.9386C51.7337 23.9994 54 21.7041 54 18.8733V5.12614C54 2.29531 51.7337 0 48.9386 0ZM52.5113 5.27812V14.8905C52.5113 16.8855 50.9084 18.509 48.9386 18.509H5.06142C3.09163 18.509 1.48865 16.8855 1.48865 14.8905V5.12614C1.48865 3.13117 3.09163 1.50769 5.06142 1.50769H48.9386C50.9084 1.50769 52.5113 3.13117 52.5113 5.12614V5.27812Z" fill="#FF0000"/>
</g>
<defs>
<clipPath id="clip0_1978_42886">
<rect width="54" height="24" fill="white"/>
</clipPath>
</defs>
</svg>
