<svg width="132" height="132" viewBox="0 0 132 132" fill="none" xmlns="http://www.w3.org/2000/svg">
<path d="M90.6266 23H106.396L106.462 23.0657V26.0881L109.55 26.1538V29.3077H112.638L112.769 29.3734V32.5272H115.923V35.6154H117.763L119.077 35.6811L119.143 36.9952V42.9744L119.077 45.0769L115.989 45.1426L115.923 48.2965H112.769V51.3846L112.704 51.4503L109.615 51.516L109.55 54.5385L109.484 54.6042L106.527 54.6699L106.462 54.7356V57.6266L106.396 57.6923L105.147 57.758H103.308V60.8462L100.22 60.9119L100.154 63.9343L100.022 64H97.0657V65.1827L97 67.1538L93.8462 67.2196L93.7804 70.3077L93.1891 70.3734L90.6923 70.4391L90.6266 73.5272L90.1667 73.5929H87.4728V76.6154L87.4071 76.6811L84.3846 76.7468V79.7692L84.3189 79.8349H81.2965L81.2308 82.8574L81.1651 82.9231L78.1426 82.9888L78.0769 86.0769H74.9231V89.2308L74.8574 89.2965L71.7035 89.3622V92.4503L71.4407 92.516H68.5497V95.5385L68.484 95.6042L65.5272 95.6699L65.4615 95.9327L65.3958 98.6923L65.3301 98.758L62.3077 98.8237V101.78L62.242 101.846L59.2196 101.912L59.1538 105H46.4728L46.4071 104.212L46.3413 101.912L43.3189 101.846L43.2532 101.386V98.758H40.2308L40.1651 98.6923L40.0994 95.6042H37.0769L37.0112 94.6843V92.516H34.3173L33.9231 92.4503L33.8574 92.1218L33.7917 89.3622L30.7692 89.2965L30.7035 89.1651V86.0769H27.5497L27.484 82.9231H24.3958L24.3301 82.3974V79.8349H21.3077L21.1763 79.5064V76.7468L18.1538 76.6811L18.0881 76.6154L18.0224 73.5929H15.0657L15 73.5272V64L18.0224 63.9343L18.0881 60.8462L21.1763 60.7804V57.6923L24.3301 57.6266L24.3958 54.6042L24.4615 54.5385H27.484L27.5497 51.4503L27.8125 51.3846H35.6971L37.0769 51.4503V54.5385H40.2308L40.2965 57.5609L41.2163 57.6266L43.2532 57.6923L43.3846 57.8237V60.7804H46.4071L46.5385 60.9119V63.8686L49.101 63.9343H52.7147L52.7804 60.8462L52.8462 60.7804H55.8686L55.9343 57.758L56 57.6923H59.0881V54.6042L59.1538 54.5385H62.1763L62.242 51.4503L65.0016 51.3846H65.3301V48.2965L68.4183 48.2308L68.484 45.3397L68.5497 45.0769H71.7035V41.9231L71.7692 41.8574L74.8574 41.9231V39.0978L74.9231 38.7692L78.0112 38.7035V35.6811L78.0769 35.6154H81.1651V32.6587L81.2308 32.5272H84.2532L84.3189 29.3077H87.4071V26.4167L87.4728 26.1538L90.5609 26.0881V23.3942L90.6266 23Z" fill="#1AD110"/>
<path d="M90.7584 23.0674H103.242L103.308 23.1331L103.242 26.2212H100.088V29.3094L96.9346 29.3751V32.5289L93.8465 32.5946L93.7808 35.6828H90.627V38.8366H87.4731V41.9248L85.9619 41.9905H84.3193V45.1443H81.2311L81.1654 48.2325L78.0116 48.2982V51.3863L74.8577 51.452V54.343L74.792 54.5401L71.7696 54.6058L71.7039 57.7597H68.55V60.8478L68.4843 60.9135H65.3962V62.5562L65.3305 64.0017L63.2936 64.0674H62.2423V66.2357L62.1766 67.1555L59.0885 67.2212V70.178L59.0228 70.3751L52.8465 70.3094L52.7808 69.8494V67.2212H49.6927L49.627 64.0674L52.058 64.0017L52.7151 63.936L52.7808 60.8478L52.8465 60.7821H55.8689L55.9346 57.7597L56.0004 57.694H59.0885V54.6058L59.1542 54.5401H62.1766L62.2423 51.452L65.002 51.3863H65.3305V48.2982L68.4186 48.2325L68.4843 45.3414L68.55 45.0786H71.7039V41.9248L71.7696 41.8591L74.8577 41.9248V39.0994L74.9234 38.7709L78.0116 38.7052V35.6828L78.0773 35.6171H81.1654V32.6603L81.2311 32.5289H84.2536L84.3193 29.3094H87.4074V26.4183L87.4731 26.1555H90.6927V23.1331L90.7584 23.0674Z" fill="#17A40C"/>
<path d="M27.6154 51.3838L33.8574 51.4495L33.9231 51.5152V52.4351L33.8574 54.6033L30.9663 54.669L30.7692 54.8005L30.7035 57.7572L27.6154 57.8229V60.911L27.5497 60.9767H24.4615L24.3958 64.0649L23.2131 64.1306H21.3077V65.7075L21.3734 70.3069H24.3958L24.4615 70.504V71.8181L24.5272 73.395L26.2356 73.4607H27.484L27.6154 73.6578V76.4832L28.0096 76.5489H30.6378L30.7692 76.746V79.5056L30.8349 79.7027H33.8574L33.9888 79.7684V82.9223H37.0112L37.0769 82.988V84.8277L37.1426 86.0104H40.0994L40.2308 86.2732V89.0985L43.1875 89.1642L43.3846 89.3614V91.2011L43.4503 92.2524L43.6474 92.3181H45.4872L46.2099 92.2524L46.5385 92.3838L46.6042 92.6466V95.3405L46.6699 95.5376L48.7724 95.4719L49.5609 95.5376L49.6923 95.6033V97.4431L49.758 98.6258L52.7147 98.6915L52.7804 98.7572L52.8462 101.517L52.9119 101.78L55.9343 101.845L56 102.371V104.539L55.9343 104.933L46.4728 104.999L46.4071 104.211L46.3413 101.911L43.3189 101.845L43.2532 101.385V98.7572H40.2308L40.1651 98.6915L40.0994 95.6033H37.0769L37.0112 94.6835V92.5152H34.3173L33.9231 92.4495L33.8574 92.121L33.7917 89.3614L30.7692 89.2957L30.7035 89.1642V86.0761H27.5497L27.484 82.9223H24.3958L24.3301 82.3966V79.8341H21.3077L21.1763 79.5056V76.746L18.1538 76.6803L18.0881 76.6146L18.0224 73.5921H15.0657L15 73.5264V63.9992L18.0224 63.9335L18.0881 60.8453L21.1763 60.7796V57.6915L24.3301 57.6258L24.3958 54.6033L24.4615 54.5376H27.484L27.5497 51.4495L27.6154 51.3838Z" fill="#19A50E"/>
<path d="M27.6152 51.3838L33.8572 51.4495L33.9229 51.5152V52.4351L33.8572 54.6033L30.9662 54.669L30.7691 54.8005L30.7034 55.3918L30.6377 57.6915L27.5495 57.7572L27.4838 58.2828V60.8453L24.7242 60.911L24.33 61.0424V63.9335L24.1986 63.9992H22.9502L21.2418 64.0649L21.1761 64.1963V65.4447L21.1104 70.044L20.9133 70.3069L20.4534 70.3726H18.1537L18.088 67.5473V67.2844H16.1168L15.0656 67.3501V64.1306L15.1313 64.0649H18.088V60.8453L21.1761 60.7796V57.6915L24.33 57.6258L24.3957 54.6033L24.4614 54.5376H27.4838L27.5495 51.4495L27.6152 51.3838Z" fill="#068A10"/>
<path d="M29.061 51.3838H35.6973L37.0771 51.4495V54.5376H40.2309L40.2966 57.5601L41.2165 57.6258L43.2533 57.6915L43.3848 57.8229V60.7796H46.4072L46.5386 60.911V63.8678L52.0578 63.9992V64.0649L49.6924 64.1306V67.2187L49.8239 67.153H52.0578L52.7806 67.2187L52.8463 70.3069H58.4969L59.154 70.4383L59.0226 73.5264L58.6941 73.5921L53.2405 73.5264L52.7806 73.395L52.7149 70.4383L49.8239 70.3726L49.6924 70.3069L49.561 67.2844L49.1011 67.2187H46.6043L46.5386 67.153L46.4072 64.1963L46.2758 64.1306L44.3703 64.0649L43.3848 63.9992L43.2533 61.0424L42.9905 60.8453H40.3623L40.2966 60.7796L40.1652 58.8085V57.8229L39.9024 57.7572L37.2085 57.6915L37.1428 57.2972L37.0771 55.2604L37.0114 54.6033L33.9232 54.5376L33.8575 54.4719V51.5152L29.061 51.4495V51.3838Z" fill="#27F219"/>
<path d="M90.6265 23H106.396L106.461 23.0657V26.0881L106.527 26.2853L106.33 26.351L105.344 26.2853L103.439 26.2196L103.308 26.6138L103.242 29.3077H100.351L100.088 29.242V26.2196L100.351 26.1538H102.059L103.242 26.2196V23.1314H90.7579L90.6922 26.1538L90.5608 26.0881V23.3942L90.6265 23Z" fill="#2BEF1E"/>
<path d="M71.7036 54.6035H74.8575L74.9232 54.6692V56.4433L74.8575 57.7574H71.7693L71.7036 57.6917V54.6035Z" fill="#21F213"/>
<path d="M87.6698 38.7705H90.5608L90.6265 38.9019V41.9244L90.5608 41.9901H88.5239L87.5384 41.9244L87.4727 41.7272V38.8362L87.6698 38.7705Z" fill="#21F113"/>
<path d="M91.6782 35.6152H93.6494L93.8465 35.7466L93.7808 38.1777L93.7151 38.7691L93.5837 38.8348H91.3497L90.6927 38.7691L90.627 38.6377V35.6809L91.6782 35.6152Z" fill="#21F213"/>
<path d="M84.3196 41.9893H87.4734L87.5391 42.055V43.9604L87.4734 45.0774L86.4221 45.1431H84.3853L84.3196 45.0774V41.9893Z" fill="#21F213"/>
<path d="M75.0545 51.3838H77.9456L78.0113 51.4495V54.5376L77.4856 54.6033H75.7773L74.8574 54.5376V51.4495L75.0545 51.3838Z" fill="#21F213"/>
<path d="M82.4132 45.0771H83.7273L84.2529 45.1429L84.3843 45.34L84.3186 48.2967H82.0847L81.1648 48.231V45.2743L81.2305 45.1429L82.4132 45.0771Z" fill="#21F213"/>
<path d="M78.0113 48.2959H81.1651L81.2308 48.3616L81.1651 51.384L81.0994 51.4497H78.4712L78.0113 51.384L77.9456 51.2526L78.0113 48.2959Z" fill="#21F213"/>
<path d="M59.0884 67.2188H62.2422V70.3069L62.1765 70.3726H59.0884V67.2188Z" fill="#21F213"/>
<path d="M96.9346 29.374H100.088V32.4622L99.7599 32.5279H97.1974L96.9346 32.4622V29.374Z" fill="#21F213"/>
<path d="M100.351 26.1543H103.308L103.373 26.3514L103.308 26.6142L103.242 29.3081H100.351L100.088 29.2424V26.22L100.351 26.1543Z" fill="#21F213"/>
<path d="M68.8129 57.6924H70.784L71.6382 57.7581L71.7696 57.8238L71.6382 60.8462L71.1125 60.9119L68.55 60.8462V57.7581L68.8129 57.6924Z" fill="#21F213"/>
<path d="M93.8462 32.5283H96.803L97.0001 32.7254L96.9344 33.711L96.8687 35.6165L96.803 35.6822H94.9632L93.7805 35.6165V32.594L93.8462 32.5283Z" fill="#21F213"/>
<path d="M65.3955 60.9131H68.4836L68.6151 61.0445L68.5494 63.9355L68.4836 64.0012H65.4612L65.3955 63.9355V60.9131Z" fill="#21F213"/>
<path d="M62.2417 64.0654H65.3298V67.1536H62.2417V64.0654Z" fill="#21F213"/>
<path d="M28.3386 76.7471H30.5726L30.6383 77.0756V79.7038H30.5069L30.4412 79.9009H28.9957L28.0101 79.8352L27.6816 79.7695L27.5502 78.9153V77.5355L27.6816 76.8785L27.7473 76.8128L28.3386 76.7471Z" fill="#04890E"/>
<path d="M30.9005 79.8994H33.6601L33.7258 79.9651V82.8561L33.463 82.9876H31.229L30.9662 82.9218L30.8347 82.9876L30.769 82.3305V79.9651L30.9005 79.8994Z" fill="#04890E"/>
<path d="M24.5932 73.5928H27.2871L27.4185 73.6585V76.3524L27.2214 76.6152L26.7615 76.6809H24.5932L24.4618 76.4181V73.6585L24.5932 73.5928Z" fill="#04890E"/>
<path d="M43.8447 92.5166H46.1444L46.3415 92.5823V93.3708L46.4072 94.6192L46.3415 95.3419L46.2101 95.539L45.9473 95.6047H43.779L43.4505 95.4733L43.3848 94.3563V92.648L43.8447 92.5166Z" fill="#04890D"/>
<path d="M40.8218 89.3613H43.1215L43.1872 89.427L43.2529 91.5953L43.1872 92.0552L43.0558 92.3181L42.5959 92.3838L41.4132 92.4495L40.559 92.3838L40.2962 92.0552L40.1648 91.5296L40.2305 89.6241L40.4276 89.427L40.8218 89.3613Z" fill="#04890E"/>
<path d="M21.9643 70.4414H24.264V73.2667L24.1326 73.4638L23.2784 73.5295H22.2271L21.5701 73.4638L21.373 73.1353L21.3073 72.6754V71.2956L21.373 70.7042L21.5701 70.5071L21.9643 70.4414Z" fill="#04890E"/>
<path d="M34.1864 83.0557H36.8803L36.946 85.2239L36.8803 85.9467L36.7489 86.0781L35.3691 86.1438L34.2521 86.0781L34.055 85.8153L33.9893 85.2896V83.1871L34.1864 83.0557Z" fill="#04890E"/>
<path d="M37.2745 86.209H39.9684L40.0341 86.2747V88.443L39.837 89.0343H39.6399V89.1657L39.3114 89.2314H37.5373L37.2088 89.0343L37.1431 88.8372L37.0774 86.4718L37.1431 86.2747L37.2745 86.209Z" fill="#04890E"/>
<path d="M53.1095 101.978H55.8034L55.8691 102.7V104.277L55.8034 104.737H55.5406V104.869L55.8034 104.934H52.9781V104.474L52.8467 103.817V102.24L53.1095 101.978Z" fill="#04890D"/>
<path d="M48.9035 95.6709L49.4291 95.7366L49.4948 96.1965L49.4291 97.1821L49.4948 97.4449V98.0363L49.2977 98.4305L48.9035 98.6276L46.998 98.5619L46.8009 98.4962L46.6695 98.2991L46.5381 97.5763L46.6038 96.0651L46.7352 95.8023L46.8666 95.7366L48.9035 95.6709Z" fill="#04890E"/>
<path d="M49.9554 98.8232H52.4522L52.6493 98.9547V101.123L52.4522 101.583L52.2551 101.714H50.2182L49.824 100.992L49.7583 100.597V98.9547L49.9554 98.8232Z" fill="#04890E"/>
<path d="M30.6377 55.3916H30.7034V57.757L27.6153 57.8227V60.9108L27.5496 60.9765H24.4614L24.3957 64.0647L23.213 64.1304H21.3076V64.8531L21.2419 65.4445L21.1105 65.3788V64.1961L21.2419 63.999L23.213 63.9333H24.33L24.2643 61.0422L24.3957 60.9108L24.7243 60.8451H27.4839L27.4182 58.7426V58.1512L27.5496 57.757L27.681 57.6913H30.6377V55.3916Z" fill="#16A40B"/>
<path d="M65.4612 95.5381H67.6295V95.6038L65.5269 95.6695L65.4612 95.9323L65.3298 98.3634L65.1984 98.5605L64.8699 98.6262L65.067 98.232V96.5237L65.1984 96.3265L65.2641 95.6695L65.4612 95.5381Z" fill="#56F44B"/>
<path d="M74.8569 86.1416H74.9227V87.9813L74.8569 88.9012L74.5284 89.164H73.8057V89.0983H74.2656V88.9669L74.5284 88.9012V87.8499L74.5941 87.4557L74.6598 87.3243V86.7329L74.7912 86.5358L74.8569 86.1416Z" fill="#43F237"/>
<path d="M84.3188 76.6807H85.173V76.7464H84.3845V79.7688L84.3188 79.8345H83.9903L84.2531 79.6374V79.3746L84.056 79.7031L83.7932 79.7688L82.8733 79.7031V79.6374L83.7932 79.5717L83.8589 79.3089H84.056L84.1217 78.5204L84.1874 78.389H84.3188L84.2531 76.8121L84.3188 76.6807Z" fill="#22F314"/>
<path d="M84.3186 29.3076H87.3411V29.3733L84.5158 29.439L84.45 32.1986L84.3186 32.4615H84.2529L84.3186 29.3076Z" fill="#7DE477"/>
<path d="M59.0883 101.912H59.154V105L59.0226 104.935V104.015L58.9569 103.818V103.292H58.8255L58.7598 102.832L58.8912 102.306L59.0226 102.044L59.0883 101.912Z" fill="#80F578"/>
<path d="M103.177 57.7578L103.308 58.0206V60.846L103.111 60.7802L103.177 60.4517L103.045 60.1889L102.979 59.6633L103.045 59.5976V58.9405L102.979 58.612L103.111 58.5463L103.177 57.7578Z" fill="#74F76B"/>
<path d="M90.4947 70.7021L90.6261 70.7679V72.1477L90.5604 73.1332L90.3633 72.8704L90.2976 71.622L90.3633 71.1621H90.4947V70.7021Z" fill="#22F314"/>
<path d="M55.9996 57.6924H57.5108V57.7581L56.0653 57.8238V60.5834L55.9996 60.8462L55.8682 60.7805L55.9339 57.7581L55.9996 57.6924Z" fill="#87E681"/>
<path d="M78.0762 35.6152H78.6018V35.6809L78.2076 35.7466L78.1419 38.5063L78.0105 38.7034V35.6809L78.0762 35.6152Z" fill="#97E993"/>
<path d="M55.8683 102.701H55.934L55.9997 103.49V104.541L55.934 104.935L55.5398 104.869V104.738H55.8026V102.767L55.8683 102.701Z" fill="#16A40B"/>
<path d="M84.1216 76.9443L84.1873 77.0757H84.3188V78.3898L84.0559 78.3241L83.9902 77.5357L84.1216 76.9443Z" fill="#20ED13"/>
<path d="M84.3188 76.6807H85.1729V76.7464H84.3845V79.7688L84.3188 79.8345H83.9902L84.2531 79.6374V76.8121L84.3188 76.6807Z" fill="#FEFEFE"/>
<path d="M62.2423 98.8896H62.308L62.2423 99.9409L62.1766 100.598L61.9795 100.401V99.5467H62.1109V99.0868L62.2423 98.8896Z" fill="#39F12D"/>
<path d="M115.66 32.9209L115.792 32.9866V34.0379L115.66 34.4978L115.529 34.235V33.5122L115.66 32.9209Z" fill="#22F314"/>
<path d="M58.8914 69.7178L59.0228 69.8492V70.3748L57.7744 70.3091V70.2434L58.5629 70.1777L58.6943 70.112L58.8914 69.7178Z" fill="#068C0D"/>
<path d="M77.8797 83.5146H78.0111L77.9454 84.9602L77.814 85.3544H77.7483V84.5002L77.814 84.3031L77.8797 83.5146Z" fill="#22F314"/>
<path d="M65.3309 98.4941L65.3966 98.6913L65.3309 98.757H62.5713V98.6913L65.1995 98.6256L65.3309 98.4941Z" fill="#FEFEFE"/>
<path d="M112.703 51.1221L112.769 51.3849L112.703 51.4506H110.075V51.3849L112.572 51.3192L112.703 51.1221Z" fill="#FEFEFE"/>
<path d="M68.4835 94.8154H68.5492V95.5382L68.4835 95.6039L67.7607 95.5382V95.4068L68.2207 95.3411L68.2864 95.0125L68.4178 95.144L68.2864 95.4725H68.4178L68.4835 94.8154Z" fill="#7CF773"/>
<path d="M80.9684 81.7402H81.0998V82.6601L80.837 82.8572H80.1143V82.7915L80.7056 82.6601L80.9027 82.5944L80.9684 82.463V81.7402Z" fill="#22F314"/>
<path d="M71.5061 89.4941H71.5718L71.6375 90.3483V91.531H71.5718V90.5454L71.4404 90.4797L71.5061 89.4941Z" fill="#22F314"/>
<path d="M58.9571 104.278H59.0228V104.804L58.76 104.935H57.7744V104.87L58.5629 104.804L58.76 104.738L58.9571 104.278Z" fill="#22F314"/>
<path d="M118.945 44.1572L119.011 44.3543L118.945 44.8143L118.682 45.0114H118.091V44.9457L118.682 44.88L118.748 44.5515H118.814L118.945 44.1572Z" fill="#22F314"/>
<path d="M106.067 57.2334L106.199 57.3648L106.067 57.6276H105.082V57.5619H105.87L105.936 57.3648H106.067V57.2334Z" fill="#22F314"/>
<path d="M61.9787 101.255H62.0444V101.649L61.913 101.781H60.9932V101.715L61.7159 101.649L61.913 101.518L61.9787 101.255Z" fill="#22F314"/>
</svg>
