<svg width="16" height="16" viewBox="0 0 16 16" fill="none" xmlns="http://www.w3.org/2000/svg">
<path fill-rule="evenodd" clip-rule="evenodd" d="M7.33333 2H5.99999V3.33333L4.66666 3.33333V4.66666H5.99999L5.99999 3.33333H7.33333H8.66666H9.99999L9.99998 4.66666H11.3333V3.33333L9.99999 3.33333V2H8.66666H7.33333ZM2 4.66667H14V11.5522C14 12.536 13.2025 13.3335 12.2188 13.3335H3.78126C2.7975 13.3335 2 12.536 2 11.5522L2 9.33334H3.33333L3.33333 10.6667H12.6667L12.6666 9.33334H14V8.00001H12.6666V9.33334H3.33333V8.00001H2L2 4.66667ZM7.33332 6.66668H8.66666V8.00001H7.33332V6.66668Z" fill="white"/>
</svg>
