<svg width="32" height="32" viewBox="0 0 32 32" fill="none" xmlns="http://www.w3.org/2000/svg">
<path d="M13.93 1C13.7783 1.00008 13.6316 1.05472 13.5159 1.15418C13.4003 1.25364 13.3234 1.39145 13.2988 1.54304L12.6763 5.40253C11.9277 5.62303 11.2139 5.92056 10.5413 6.29114L7.39625 4.01646C7.27312 3.92742 7.12282 3.88543 6.97202 3.89794C6.82122 3.91045 6.67968 3.97666 6.5725 4.08481L4.0825 6.6038C3.97609 6.71163 3.91062 6.85398 3.89759 7.00585C3.88456 7.15772 3.92481 7.30938 4.01125 7.43418L6.22375 10.6392C5.85216 11.3244 5.55185 12.0513 5.32875 12.8165L1.53375 13.4557C1.38452 13.4812 1.24902 13.5593 1.1513 13.6764C1.05359 13.7934 0.999983 13.9417 1 14.0949V17.6595C0.999728 17.8118 1.05245 17.9594 1.14891 18.0763C1.24537 18.1932 1.37941 18.2719 1.5275 18.2987L5.325 18.9797C5.54689 19.7436 5.84529 20.4709 6.2175 21.157L3.9775 24.3304C3.88958 24.4551 3.84811 24.6073 3.86047 24.76C3.87283 24.9127 3.9382 25.056 4.045 25.1646L6.53375 27.6861C6.64 27.7937 6.78026 27.86 6.92995 27.8735C7.07965 27.8869 7.22923 27.8465 7.3525 27.7595L10.5238 25.5114C11.1984 25.8842 11.9139 26.1839 12.665 26.4063L13.2988 30.2709C13.3236 30.4222 13.4007 30.5598 13.5163 30.659C13.6319 30.7582 13.7785 30.8126 13.93 30.8127H17.45C17.6006 30.8129 17.7465 30.7593 17.8619 30.6614C17.9774 30.5634 18.0551 30.4274 18.0813 30.2772L18.76 26.3975C19.508 26.1716 20.2201 25.8674 20.8913 25.4924L24.0838 27.7608C24.207 27.8483 24.3568 27.8891 24.5067 27.8759C24.6567 27.8627 24.7973 27.7964 24.9038 27.6886L27.3925 25.1658C27.4998 25.057 27.5653 24.9131 27.5774 24.7598C27.5896 24.6065 27.5475 24.4539 27.4588 24.3291L25.1825 21.1291C25.5465 20.4527 25.8397 19.7359 26.0575 18.9835L29.9088 18.3C30.0571 18.2735 30.1914 18.1948 30.2881 18.0779C30.3848 17.961 30.4377 17.8133 30.4375 17.6608V14.0962C30.4374 13.9426 30.3835 13.794 30.2852 13.6769C30.187 13.5598 30.0509 13.4819 29.9013 13.457L26.0563 12.8203C25.837 12.0688 25.5429 11.3532 25.1788 10.6772L27.4238 7.43797C27.5102 7.31318 27.5504 7.16152 27.5374 7.00965C27.5244 6.85778 27.4589 6.71542 27.3525 6.60759L24.8625 4.08734C24.755 3.97873 24.6129 3.91235 24.4616 3.90006C24.3102 3.88777 24.1595 3.93037 24.0363 4.02025L20.885 6.31519C20.2136 5.94165 19.501 5.6391 18.7513 5.41519L18.0813 1.53671C18.0553 1.38628 17.9778 1.24995 17.8623 1.15177C17.7468 1.05358 17.6008 0.999829 17.45 1H13.93ZM14.475 2.2962H16.9125L17.55 5.98101C17.5712 6.1046 17.6274 6.2193 17.7117 6.31119C17.796 6.40309 17.9048 6.46824 18.025 6.49873C18.961 6.73494 19.8401 7.10936 20.6425 7.60127C20.7498 7.66709 20.8738 7.69954 20.9991 7.69459C21.1245 7.68964 21.2456 7.6475 21.3475 7.57342L24.3425 5.39367L26.0663 7.13924L23.9338 10.2165C23.8625 10.3191 23.8223 10.4405 23.8178 10.5659C23.8134 10.6912 23.845 10.8152 23.9088 10.9228C24.3897 11.7335 24.7545 12.6181 24.9875 13.5608C25.0178 13.6835 25.083 13.7946 25.175 13.8803C25.2669 13.966 25.3817 14.0226 25.505 14.043L29.1575 14.6481V17.1165L25.4975 17.7671C25.3754 17.789 25.2621 17.8463 25.1716 17.9322C25.0811 18.018 25.0171 18.1287 24.9875 18.2506C24.7572 19.1921 24.3922 20.0767 23.9113 20.8873C23.8467 20.996 23.815 21.1214 23.8201 21.248C23.8252 21.3747 23.8669 21.4971 23.94 21.6L26.1025 24.6392L24.3788 26.3861L21.345 24.2304C21.2431 24.1581 21.1227 24.1175 20.9984 24.1134C20.874 24.1094 20.7513 24.1421 20.645 24.2076C19.8466 24.6995 18.9666 25.0757 18.0338 25.3152C17.9142 25.3457 17.8058 25.4106 17.7218 25.502C17.6377 25.5934 17.5816 25.7074 17.56 25.8304L16.9138 29.5165H14.4725L13.87 25.8468C13.8495 25.722 13.7934 25.606 13.7085 25.5131C13.6237 25.4202 13.5138 25.3545 13.3925 25.324C12.4559 25.0903 11.5729 24.7164 10.765 24.2253C10.6589 24.161 10.5367 24.1291 10.4132 24.1336C10.2896 24.1381 10.17 24.1788 10.0688 24.2506L7.05875 26.3861L5.33375 24.6367L7.46125 21.6253C7.53396 21.5221 7.5752 21.3996 7.57987 21.273C7.58453 21.1463 7.55242 21.021 7.4875 20.9127C6.99725 20.0923 6.62648 19.1982 6.3925 18.2456C6.36257 18.1242 6.29861 18.0143 6.20834 17.9289C6.11806 17.8436 6.00534 17.7865 5.88375 17.7646L2.28 17.1165V14.6443L5.88125 14.038C6.00436 14.0173 6.11882 13.9606 6.21054 13.8749C6.30226 13.7893 6.36725 13.6783 6.3975 13.5557C6.63349 12.5998 7.00408 11.7058 7.4925 10.8873C7.55691 10.7799 7.58907 10.6558 7.58508 10.5302C7.58108 10.4045 7.5411 10.2828 7.47 10.1797L5.3675 7.13671L7.09375 5.38987L10.0775 7.54937C10.179 7.62266 10.2994 7.66434 10.424 7.66929C10.5486 7.67424 10.6719 7.64224 10.7788 7.57722C11.5824 7.08845 12.4675 6.7176 13.405 6.48481C13.5269 6.45443 13.6372 6.38843 13.7224 6.29503C13.8075 6.20163 13.8636 6.08494 13.8838 5.95949L14.475 2.2962ZM15.7188 10.7215C12.8986 10.7215 10.5988 13.0505 10.5988 15.9063C10.5988 18.7621 12.8986 21.0911 15.7188 21.0911C18.5389 21.0911 20.8388 18.7621 20.8388 15.9063C20.8388 13.0505 18.5389 10.7215 15.7188 10.7215ZM15.7188 12.0177C17.8471 12.0177 19.5588 13.751 19.5588 15.9063C19.5588 18.0616 17.8471 19.7949 15.7188 19.7949C13.5904 19.7949 11.8788 18.0616 11.8788 15.9063C11.8788 13.751 13.5904 12.0177 15.7188 12.0177Z" fill="black"/>
</svg>
