<svg width="24" height="24" viewBox="0 0 24 24" fill="none" xmlns="http://www.w3.org/2000/svg">
<g clip-path="url(#clip0_1145_902)">
<path d="M18.5495 12.7504C18.5832 16.3824 21.7357 17.5911 21.7706 17.6065C21.744 17.6917 21.2669 19.3288 20.1097 21.0199C19.1094 22.482 18.0712 23.9386 16.4358 23.9688C14.8288 23.9984 14.312 23.0158 12.4748 23.0158C10.6381 23.0158 10.064 23.9386 8.54276 23.9984C6.96413 24.0582 5.76198 22.4175 4.7534 20.9608C2.6924 17.9811 1.11737 12.5409 3.23224 8.86873C4.28286 7.0451 6.1604 5.8903 8.1983 5.86069C9.74847 5.83112 11.2116 6.9036 12.1593 6.9036C13.1064 6.9036 14.8844 5.61385 16.7536 5.80327C17.5362 5.83584 19.7327 6.11936 21.1432 8.18392C21.0295 8.25437 18.5222 9.71399 18.5495 12.7504ZM15.5293 3.83196C16.3674 2.81747 16.9315 1.4052 16.7776 0C15.5696 0.0485541 14.1087 0.805021 13.2422 1.81896C12.4657 2.71684 11.7856 4.15397 11.9691 5.53135C13.3156 5.63553 14.6912 4.8471 15.5293 3.83196Z" fill="black"/>
</g>
<defs>
<clipPath id="clip0_1145_902">
<rect width="24" height="24" fill="white"/>
</clipPath>
</defs>
</svg>
