<svg width="24" height="24" viewBox="0 0 24 24" fill="none" xmlns="http://www.w3.org/2000/svg">
<path d="M8.34689 12.0049L14.677 17.4312C14.8923 17.6158 14.9966 17.8311 14.9897 18.0772C14.9828 18.3233 14.8714 18.5386 14.6555 18.7232C14.4396 18.9077 14.1884 19 13.9019 19C13.6154 19 13.3642 18.9077 13.1483 18.7232L6.51675 13.057C6.3445 12.9093 6.21531 12.7432 6.12919 12.5586C6.04306 12.3741 6 12.1895 6 12.0049C6 11.8204 6.04306 11.6358 6.12919 11.4512C6.21531 11.2667 6.3445 11.1006 6.51675 10.9529L13.1483 5.26826C13.3636 5.0837 13.6186 4.99437 13.9131 5.00027C14.2077 5.00618 14.4623 5.10166 14.677 5.28672C14.8918 5.47178 14.9994 5.68711 15 5.9327C15.0006 6.1783 14.8929 6.39363 14.677 6.57869L8.34689 12.0049Z" fill="black"/>
</svg>
