<svg width="20" height="20" viewBox="0 0 20 20" fill="none" xmlns="http://www.w3.org/2000/svg">
<path d="M8 10C8 10.5304 8.21071 11.0391 8.58579 11.4142C8.96086 11.7893 9.46957 12 10 12C10.5304 12 11.0391 11.7893 11.4142 11.4142C11.7893 11.0391 12 10.5304 12 10C12 9.46957 11.7893 8.96087 11.4142 8.58579C11.0391 8.21072 10.5304 8.00001 10 8.00001C9.46957 8.00001 8.96086 8.21072 8.58579 8.58579C8.21071 8.96087 8 9.46957 8 10Z" stroke="#999999" stroke-width="2" stroke-linecap="round" stroke-linejoin="round"/>
<path d="M19 10C16.6 14 13.6 16 10 16C6.4 16 3.4 14 1 10C3.4 6 6.4 4 10 4C13.6 4 16.6 6 19 10Z" stroke="#999999" stroke-width="2" stroke-linecap="round" stroke-linejoin="round"/>
</svg>
