<svg width="14" height="17" viewBox="0 0 14 17" fill="none" xmlns="http://www.w3.org/2000/svg">
<path d="M13.5957 10.2675C13.5957 11.1864 13.4221 12.0492 13.075 12.8558C12.7329 13.6573 12.2556 14.3644 11.643 14.977C11.0355 15.5845 10.3309 16.0593 9.52943 16.4014C8.72791 16.7434 7.86514 16.9144 6.9411 16.9144C6.02728 16.9144 5.16705 16.7434 4.36044 16.4014C3.55892 16.0593 2.85186 15.5845 2.23923 14.977C1.63172 14.3644 1.15438 13.6573 0.807233 12.8558C0.465186 12.0492 0.294162 11.1864 0.294162 10.2675C0.294162 9.95098 0.391161 9.69572 0.585157 9.50172C0.784259 9.30262 1.03697 9.20307 1.34328 9.20307C1.64448 9.20307 1.88953 9.30262 2.07842 9.50172C2.27242 9.69572 2.36942 9.94843 2.36942 10.2598C2.36942 10.8929 2.48684 11.4876 2.72167 12.0441C2.96162 12.5955 3.2909 13.0805 3.70953 13.4991C4.13326 13.9177 4.6208 14.247 5.17216 14.4869C5.72352 14.7218 6.31317 14.8392 6.9411 14.8392C7.57414 14.8392 8.16634 14.7218 8.7177 14.4869C9.27417 14.247 9.76171 13.9177 10.1803 13.4991C10.599 13.0805 10.9257 12.5955 11.1605 12.0441C11.4005 11.4876 11.5204 10.8929 11.5204 10.2598C11.5204 9.63191 11.4005 9.04226 11.1605 8.4909C10.9257 7.93444 10.599 7.44689 10.1803 7.02827C9.76171 6.60964 9.27417 6.28291 8.7177 6.04807C8.16634 5.80813 7.57414 5.68816 6.9411 5.68816C6.82879 5.68816 6.71903 5.69326 6.61182 5.70347C6.50971 5.70858 6.41272 5.72134 6.32082 5.74176L7.73751 7.14313C7.8294 7.22992 7.89832 7.32692 7.94427 7.43413C7.99532 7.53623 8.02085 7.65876 8.02085 7.8017C8.02085 8.08249 7.92385 8.31988 7.72985 8.51387C7.53586 8.70787 7.30102 8.80487 7.02534 8.80487C6.74966 8.80487 6.51737 8.71297 6.32848 8.52919L3.38024 5.54266C3.16582 5.32314 3.05862 5.07043 3.05862 4.78454C3.05862 4.50886 3.16582 4.26126 3.38024 4.04174L6.32848 1.03989C6.51227 0.840793 6.74455 0.741242 7.02534 0.741242C7.30612 0.741242 7.54096 0.843345 7.72985 1.04755C7.92385 1.24665 8.02085 1.4866 8.02085 1.76738C8.02085 1.90522 7.99532 2.0303 7.94427 2.14261C7.89832 2.24982 7.83196 2.34427 7.74517 2.42595L6.45101 3.66651C6.52248 3.65119 6.59906 3.64098 6.68074 3.63588C6.76753 3.62567 6.85431 3.62056 6.9411 3.62056C7.86514 3.62056 8.72791 3.79414 9.52943 4.14129C10.3309 4.48334 11.0355 4.96067 11.643 5.57329C12.2556 6.18081 12.7329 6.88532 13.075 7.68683C13.4221 8.48835 13.5957 9.34857 13.5957 10.2675Z" fill="white" fill-opacity="0.5"/>
</svg>
