<svg width="24" height="24" viewBox="0 0 24 24" fill="none" xmlns="http://www.w3.org/2000/svg">
<path d="M22.9952 12.26C22.9952 11.5054 22.9222 10.7264 22.8005 9.99609H12.2598V14.3049H18.2969C18.0535 15.6925 17.2502 16.9096 16.0573 17.6886L19.6602 20.4881C21.778 18.5163 22.9952 15.6438 22.9952 12.26Z" fill="#4280EF"/>
<path d="M12.2581 23.1667C15.2767 23.1667 17.8084 22.1687 19.6585 20.4646L16.0557 17.6895C15.0576 18.3711 13.7674 18.7606 12.2581 18.7606C9.33693 18.7606 6.87825 16.7888 5.97754 14.1597L2.27734 17.0078C4.17613 20.7811 8.02239 23.1667 12.2581 23.1667Z" fill="#34A353"/>
<path d="M5.97873 14.134C5.51621 12.7464 5.51621 11.2371 5.97873 9.84957L2.27854 6.97705C0.696217 10.1417 0.696217 13.8662 2.27854 17.0065L5.97873 14.134Z" fill="#F6B704"/>
<path d="M12.2581 5.24904C13.8405 5.2247 15.3984 5.83328 16.5426 6.92873L19.7316 3.7154C17.7111 1.81662 15.0333 0.794197 12.2581 0.81854C8.02239 0.81854 4.17613 3.20419 2.27734 6.97742L5.97754 9.84994C6.87825 7.19651 9.33693 5.24904 12.2581 5.24904Z" fill="#E54335"/>
</svg>
