<svg width="40" height="40" viewBox="0 0 40 40" fill="none" xmlns="http://www.w3.org/2000/svg">
<mask id="path-1-inside-1_1159_592" fill="white">
<path fill-rule="evenodd" clip-rule="evenodd" d="M20.0003 38.3333C30.1255 38.3333 38.3337 30.1252 38.3337 20C38.3337 9.87474 30.1255 1.66663 20.0003 1.66663C9.8751 1.66663 1.66699 9.87474 1.66699 20C1.66699 30.1252 9.8751 38.3333 20.0003 38.3333ZM17.917 27.9166C17.917 26.766 18.8497 25.8333 20.0003 25.8333C21.1509 25.8333 22.0837 26.766 22.0837 27.9166C22.0837 29.0672 21.1509 30 20.0003 30C18.8497 30 17.917 29.0672 17.917 27.9166ZM22.0837 21.25C22.0837 22.4006 21.1509 23.3333 20.0003 23.3333C18.8497 23.3333 17.917 22.4006 17.917 21.25V12.0833C17.917 10.9327 18.8497 9.99996 20.0003 9.99996C21.1509 9.99996 22.0837 10.9327 22.0837 12.0833V21.25Z"/>
</mask>
<path fill-rule="evenodd" clip-rule="evenodd" d="M20.0003 38.3333C30.1255 38.3333 38.3337 30.1252 38.3337 20C38.3337 9.87474 30.1255 1.66663 20.0003 1.66663C9.8751 1.66663 1.66699 9.87474 1.66699 20C1.66699 30.1252 9.8751 38.3333 20.0003 38.3333ZM17.917 27.9166C17.917 26.766 18.8497 25.8333 20.0003 25.8333C21.1509 25.8333 22.0837 26.766 22.0837 27.9166C22.0837 29.0672 21.1509 30 20.0003 30C18.8497 30 17.917 29.0672 17.917 27.9166ZM22.0837 21.25C22.0837 22.4006 21.1509 23.3333 20.0003 23.3333C18.8497 23.3333 17.917 22.4006 17.917 21.25V12.0833C17.917 10.9327 18.8497 9.99996 20.0003 9.99996C21.1509 9.99996 22.0837 10.9327 22.0837 12.0833V21.25Z" fill="#EF4444"/>
<path d="M36.3337 20C36.3337 29.0206 29.021 36.3333 20.0003 36.3333V40.3333C31.2301 40.3333 40.3337 31.2297 40.3337 20H36.3337ZM20.0003 3.66663C29.021 3.66663 36.3337 10.9793 36.3337 20H40.3337C40.3337 8.77017 31.2301 -0.333374 20.0003 -0.333374V3.66663ZM3.66699 20C3.66699 10.9793 10.9797 3.66663 20.0003 3.66663V-0.333374C8.77054 -0.333374 -0.333008 8.77017 -0.333008 20H3.66699ZM20.0003 36.3333C10.9797 36.3333 3.66699 29.0206 3.66699 20H-0.333008C-0.333008 31.2297 8.77054 40.3333 20.0003 40.3333V36.3333ZM20.0003 23.8333C17.7452 23.8333 15.917 25.6615 15.917 27.9166H19.917C19.917 27.8706 19.9543 27.8333 20.0003 27.8333V23.8333ZM24.0837 27.9166C24.0837 25.6615 22.2555 23.8333 20.0003 23.8333V27.8333C20.0464 27.8333 20.0837 27.8706 20.0837 27.9166H24.0837ZM20.0003 32C22.2555 32 24.0837 30.1718 24.0837 27.9166H20.0837C20.0837 27.9627 20.0464 28 20.0003 28V32ZM15.917 27.9166C15.917 30.1718 17.7452 32 20.0003 32V28C19.9543 28 19.917 27.9627 19.917 27.9166H15.917ZM20.0003 25.3333C22.2555 25.3333 24.0837 23.5051 24.0837 21.25H20.0837C20.0837 21.296 20.0464 21.3333 20.0003 21.3333V25.3333ZM15.917 21.25C15.917 23.5051 17.7452 25.3333 20.0003 25.3333V21.3333C19.9543 21.3333 19.917 21.296 19.917 21.25H15.917ZM15.917 12.0833V21.25H19.917V12.0833H15.917ZM20.0003 7.99996C17.7452 7.99996 15.917 9.82813 15.917 12.0833H19.917C19.917 12.0373 19.9543 12 20.0003 12V7.99996ZM24.0837 12.0833C24.0837 9.82813 22.2555 7.99996 20.0003 7.99996V12C20.0464 12 20.0837 12.0373 20.0837 12.0833H24.0837ZM24.0837 21.25V12.0833H20.0837V21.25H24.0837Z" fill="#EF4444" mask="url(#path-1-inside-1_1159_592)"/>
</svg>
