<svg width="20" height="20" viewBox="0 0 20 20" fill="none" xmlns="http://www.w3.org/2000/svg">
<g clip-path="url(#clip0_419_2463)">
<path d="M8.585 8.587C8.20999 8.96215 7.99936 9.4709 7.99945 10.0014C7.99954 10.5318 8.21035 11.0405 8.5855 11.4155C8.96065 11.7905 9.46941 12.0011 9.99986 12.0011C10.5303 12.001 11.039 11.7901 11.414 11.415" stroke="#999999" stroke-width="2" stroke-linecap="round" stroke-linejoin="round"/>
<path d="M14.681 14.673C13.2786 15.5515 11.6548 16.0119 10 16C6.4 16 3.4 14 1 10C2.272 7.88 3.712 6.322 5.32 5.326M8.18 4.18C8.77898 4.05836 9.3888 3.99804 10 4C13.6 4 16.6 6 19 10C18.3333 11.11 17.6207 12.0667 16.862 12.87M1 1L19 19" stroke="#999999" stroke-width="2" stroke-linecap="round" stroke-linejoin="round"/>
</g>
<defs>
<clipPath id="clip0_419_2463">
<rect width="20" height="20" fill="white"/>
</clipPath>
</defs>
</svg>
