<svg width="32" height="32" viewBox="0 0 32 32" fill="none" xmlns="http://www.w3.org/2000/svg">
<rect width="32" height="32" rx="8" fill="white"/>
<path d="M15.9375 6.1875H16.4844L17.0312 6.21875L17.7812 6.29688L18.25 6.375L18.5781 6.46875L18.8438 6.5625L19.6875 6.90625L20.0781 7.07812L20.4531 7.23438L20.8906 7.4375L21.3125 7.64062L21.625 7.78125L22.2031 8.04688L22.625 8.23438L22.9844 8.40625L23.4375 8.60938L24.3906 9.01562L24.8438 9.21875L25.4375 9.51562L25.7812 9.70312L26.0625 9.875L26.25 10L26.4062 10.1406L26.5156 10.2344L26.6562 10.4219L26.7656 10.6406L26.7969 10.7812V10.9375L26.6719 11.1875L26.5781 11.3125H26.5469L26.5156 11.375L26.4062 11.4844L26.1094 11.7031L25.8281 11.875L25.4531 12.0781L25 12.2969L24.5156 12.5L23.8281 12.7812L23.2656 13.0312L23 13.1562L22.7656 13.2656L22.3125 13.4844L21.8594 13.6875L21.3906 13.9062L20.8438 14.1719L20.4219 14.3594L19.8125 14.625L19.1875 14.8906L18.75 15.0469L18.2812 15.1875L17.7812 15.3125L17.4375 15.375L16.9062 15.4375L16.3594 15.4688L15.8906 15.4531L15.5 15.4062L15.1094 15.3281L14.7656 15.2344L14.3125 15.125L14.0156 15.0469L13.75 14.9531L13.3594 14.7812L12.7812 14.5312L12.375 14.3438L11.9844 14.1719L11.6094 14L11.0469 13.7344L10.4688 13.4688L9.92188 13.2344L9.46875 13.0312L9.03125 12.8438L8.51562 12.6094L8.10938 12.4375L7.65625 12.2188L7.34375 12.0625L7 11.875L6.76562 11.7344L6.5625 11.5781L6.40625 11.4375L6.25 11.2656L6.17188 11.1094L6.09375 10.9062V10.7812L6.1875 10.5L6.34375 10.2812L6.5 10.125L6.67188 9.98438L6.98438 9.78125L7.21875 9.64062L7.46875 9.51562L7.95312 9.28125L8.20312 9.15625L8.57812 8.98438L9.34375 8.64062L9.89062 8.40625L10.4062 8.15625L10.7188 8.01562L11.1094 7.82812L11.4375 7.6875L11.7969 7.53125L12.4375 7.21875L12.875 7.01562L13.25 6.85938L13.7188 6.6875L14.3281 6.45312L14.7031 6.35938L15.3438 6.25L15.6562 6.20312L15.9375 6.1875Z" fill="#619DD2"/>
<path d="M8.23438 20.9219L8.375 20.9375L8.71875 21.0781L9.17188 21.2812L9.57812 21.4531L10.7031 21.9844L10.9531 22.1094L11.3906 22.3125L11.75 22.4844L12.1406 22.6562L12.5469 22.8281L12.9688 23.0312L13.5469 23.2656L13.8594 23.3906L14.2656 23.5156L15.0781 23.6875L15.6094 23.7812L16.1406 23.8281H16.8125L17.1875 23.7969L17.5938 23.7344L18.2031 23.6094L18.625 23.5312L18.9688 23.4219L19.4219 23.2188L19.8594 23.0469L20.25 22.8594L20.7812 22.625L21.0312 22.5156L21.4844 22.2969L21.8594 22.125L22.1562 21.9844L22.3906 21.875L22.75 21.7188L23.2031 21.5L23.5625 21.3438L24.3906 20.9844L24.5312 20.9375H24.6562L25.0312 21.1094L25.25 21.2188L25.7188 21.4219L25.9844 21.5625L26.1406 21.6719L26.2812 21.7812L26.4844 21.9844L26.6094 22.125L26.7344 22.3281L26.8125 22.5156L26.8438 22.6562L26.8281 22.875L26.7344 23.0625L26.5938 23.2344L26.375 23.4531L26.0625 23.6875L25.8594 23.8125L25.5625 23.9531L25.1875 24.1094L24.7656 24.3281L24.2188 24.5781L23.7031 24.8125L22.7656 25.25L22.3594 25.4219L22.0469 25.5625L21.6875 25.7344L21.1719 25.9688L20.7344 26.1719L20.2656 26.375L19.8438 26.5625L19.3125 26.7969L18.9219 26.9531L18.625 27.0469L17.4844 27.3281L17.1562 27.3906L16.875 27.4219L16.4688 27.4375H16.2188L15.8125 27.4219L15.5156 27.3906L15.2188 27.3281L14.4531 27.125L14.0469 27.0156L13.8125 26.9219L13.2031 26.6562L12.875 26.5156L11.7812 26.0156L11.4531 25.8594L11.1406 25.7188L10.7031 25.5156L10.2812 25.3281L9.875 25.1406L9.34375 24.8906L9.09375 24.7812L8.73438 24.6094L8.4375 24.4844L8.03125 24.3125L7.5 24.0625L6.9375 23.7812L6.67188 23.6094L6.5 23.4688L6.34375 23.3281L6.21875 23.1719L6.10938 22.9531L6.0625 22.8125V22.5469L6.125 22.3281L6.23438 22.1406L6.40625 21.9531L6.60938 21.7812L6.76562 21.6719L7.03125 21.5156L7.39062 21.3281L7.64062 21.2031L8 21.0312L8.23438 20.9219Z" fill="#F2B856"/>
<path d="M8.23438 15.1406L8.48438 15.1562L8.75 15.2344L9.1875 15.4062L10.0156 15.7812L10.5625 16.0312L10.9531 16.2031L11.5625 16.5L12.0938 16.75L12.3906 16.8906L12.7031 17.0156L13.0781 17.1875L13.3281 17.3125L13.8906 17.5L14.5625 17.7344L14.8281 17.7969L15.3906 17.8438L16.0312 17.875H16.7031L17.5 17.8438L17.9375 17.8125L18.25 17.75L18.6719 17.6094L19.3125 17.3906L19.6406 17.2656L19.9844 17.0938L20.2812 16.9688L20.7188 16.7969L21.1406 16.5938L21.4531 16.4531L21.9688 16.2031L22.4375 16L23.125 15.6562L23.5312 15.4844L24 15.2812L24.2188 15.2031L24.4375 15.1562H24.7344L25.0469 15.2344L25.2812 15.3281L25.5781 15.4688L25.9375 15.6719L26.125 15.7969L26.3438 15.9688L26.4531 16.0781L26.5938 16.25L26.7344 16.4688L26.7969 16.625L26.8125 16.8438L26.7656 17L26.6719 17.1719L26.4844 17.375L26.4219 17.4531L26.1719 17.6406L25.9688 17.7656L25.5781 17.9844L25.1406 18.1875L24.75 18.3438L24.5156 18.4531L23.9688 18.7031L23.5156 18.9219L22.9844 19.1562L22.5781 19.3281L21.9219 19.625L21.4375 19.8594L21.0312 20.0312L20.5781 20.25L19.5469 20.7188L18.9375 20.9531L18.4062 21.1406L18.125 21.2188L17.7969 21.2812L17.3438 21.3281L16.7812 21.3594H15.7812L15.2344 21.3281L14.875 21.2812L14.5781 21.1875L14.0938 21L13.7031 20.875L13.375 20.7656L12.8438 20.5156L12.3281 20.2812L11.9688 20.1094L11.5625 19.9375L11.1562 19.75L10.7188 19.5469L10.4062 19.4062L9.85938 19.1562L9.39062 18.9531L8.75 18.6562L8.375 18.4844L8.10938 18.3594L7.65625 18.1562L7.40625 18.0312L6.96875 17.7969L6.6875 17.625L6.48438 17.4531L6.32812 17.2969L6.21875 17.1406L6.125 16.9375L6.09375 16.8125V16.6562L6.15625 16.4844L6.28125 16.2656L6.42188 16.1094L6.46875 16.0469H6.5L6.53125 15.9844L6.70312 15.8438L6.84375 15.7344L7.04688 15.6094L7.40625 15.4375L7.9375 15.2031L8.125 15.1562L8.23438 15.1406Z" fill="#D86587"/>
</svg>
