<svg width="354" height="221" viewBox="0 0 354 221" fill="none" xmlns="http://www.w3.org/2000/svg">
<path d="M0 24C0 10.7452 10.7452 0 24 0H330C343.255 0 354 10.7452 354 24V197C354 210.255 343.255 221 330 221H24C10.7452 221 0 210.255 0 197V24Z" fill="white" fill-opacity="0.05"/>
<path fill-rule="evenodd" clip-rule="evenodd" d="M67 48.4315C65.9006 48.8002 64.7236 49 63.5 49C57.4249 49 52.5 44.0751 52.5 38C52.5 36.5888 52.7657 35.2397 53.2499 34H32C29.7909 34 28 35.7909 28 38V56C28 58.2091 29.7909 60 32 60H63C65.2091 60 67 58.2091 67 56V48.4315Z" fill="#FF0000" fill-opacity="0.3"/>
<circle cx="63.5" cy="37.5" r="8.5" fill="white" fill-opacity="0.3"/>
<path d="M66.5 35.75L62.375 40.25L60.5 38.2045" stroke="white" stroke-width="2.5" stroke-linecap="round" stroke-linejoin="round"/>
<path d="M32.212 94V83.38H28.144V81.4H38.53V83.38H34.462V94H32.212ZM42.7173 94.234C41.9613 94.234 41.2893 94.12 40.7013 93.892C40.1133 93.652 39.6153 93.316 39.2073 92.884C38.8113 92.44 38.5113 91.918 38.3073 91.318C38.1033 90.718 38.0013 90.052 38.0013 89.32V89.212C38.0013 88.492 38.1033 87.832 38.3073 87.232C38.5113 86.62 38.8113 86.098 39.2073 85.666C39.6153 85.234 40.1073 84.898 40.6833 84.658C41.2713 84.418 41.9433 84.298 42.6993 84.298C43.4553 84.298 44.1213 84.424 44.6973 84.676C45.2853 84.916 45.7773 85.252 46.1733 85.684C46.5813 86.116 46.8873 86.632 47.0913 87.232C47.2953 87.832 47.3973 88.492 47.3973 89.212V89.32C47.3973 90.028 47.3013 90.682 47.1093 91.282C46.9293 91.882 46.6473 92.404 46.2633 92.848C45.8793 93.28 45.3933 93.622 44.8053 93.874C44.2173 94.114 43.5213 94.234 42.7173 94.234ZM42.7713 92.506C43.1673 92.506 43.5153 92.434 43.8153 92.29C44.1153 92.134 44.3673 91.918 44.5713 91.642C44.7873 91.366 44.9493 91.03 45.0573 90.634C45.1653 90.238 45.2193 89.794 45.2193 89.302V89.194C45.2193 88.75 45.1653 88.336 45.0573 87.952C44.9493 87.556 44.7873 87.214 44.5713 86.926C44.3673 86.638 44.1033 86.416 43.7793 86.26C43.4673 86.104 43.1073 86.026 42.6993 86.026C42.2673 86.026 41.8953 86.104 41.5833 86.26C41.2713 86.416 41.0073 86.638 40.7913 86.926C40.5873 87.202 40.4313 87.538 40.3233 87.934C40.2273 88.318 40.1793 88.738 40.1793 89.194V89.302C40.1793 89.77 40.2333 90.202 40.3413 90.598C40.4493 90.994 40.6113 91.336 40.8273 91.624C41.0553 91.9 41.3253 92.116 41.6373 92.272C41.9613 92.428 42.3393 92.506 42.7713 92.506ZM52.5914 94.144C52.1234 94.144 51.7214 94.102 51.3854 94.018C51.0494 93.934 50.7674 93.802 50.5394 93.622C50.3234 93.442 50.1614 93.214 50.0534 92.938C49.9454 92.65 49.8914 92.308 49.8914 91.912V86.332H48.2354V84.532H49.8914V82.39H51.9794V84.532H54.4454V86.332H51.9794V91.228C51.9794 91.456 52.0034 91.642 52.0514 91.786C52.1114 91.93 52.1834 92.044 52.2674 92.128C52.3634 92.2 52.4774 92.248 52.6094 92.272C52.7534 92.296 52.9214 92.308 53.1134 92.308C53.2814 92.308 53.4974 92.296 53.7614 92.272C54.0254 92.248 54.2534 92.218 54.4454 92.182V93.946C54.2054 94.018 53.9054 94.066 53.5454 94.09C53.1974 94.126 52.8794 94.144 52.5914 94.144ZM58.7453 94.198C58.3373 94.198 57.9413 94.144 57.5573 94.036C57.1853 93.928 56.8553 93.766 56.5673 93.55C56.2913 93.322 56.0633 93.04 55.8833 92.704C55.7153 92.356 55.6313 91.954 55.6313 91.498V91.39C55.6313 90.886 55.7213 90.478 55.9013 90.166C56.0813 89.842 56.3153 89.584 56.6033 89.392C56.9033 89.2 57.2393 89.062 57.6113 88.978C57.9953 88.882 58.3793 88.81 58.7633 88.762C59.1593 88.714 59.5433 88.672 59.9153 88.636C60.2873 88.6 60.6233 88.54 60.9233 88.456C61.2233 88.36 61.4573 88.234 61.6253 88.078C61.8053 87.91 61.8953 87.676 61.8953 87.376V87.268C61.8953 87.052 61.8533 86.86 61.7693 86.692C61.6973 86.524 61.5833 86.386 61.4273 86.278C61.2713 86.17 61.0733 86.092 60.8333 86.044C60.6053 85.996 60.3413 85.972 60.0413 85.972C59.7533 85.972 59.4833 85.996 59.2313 86.044C58.9913 86.092 58.7813 86.182 58.6013 86.314C58.4213 86.434 58.2773 86.602 58.1693 86.818C58.0733 87.022 58.0253 87.292 58.0253 87.628V87.736H56.0093V87.628C56.0093 87.064 56.1173 86.578 56.3333 86.17C56.5493 85.75 56.8373 85.402 57.1973 85.126C57.5693 84.85 58.0073 84.646 58.5113 84.514C59.0153 84.37 59.5613 84.298 60.1493 84.298C60.7373 84.298 61.2653 84.364 61.7333 84.496C62.2133 84.616 62.6153 84.82 62.9393 85.108C63.2753 85.384 63.5333 85.744 63.7133 86.188C63.8933 86.632 63.9833 87.166 63.9833 87.79L63.9473 91.732C63.9473 91.948 63.9533 92.134 63.9653 92.29C63.9893 92.446 64.0193 92.572 64.0553 92.668C64.1033 92.764 64.1573 92.836 64.2173 92.884C64.2893 92.932 64.3793 92.956 64.4873 92.956C64.5353 92.956 64.5833 92.956 64.6313 92.956C64.6793 92.944 64.7333 92.926 64.7933 92.902V94.018C64.6973 94.03 64.5953 94.036 64.4873 94.036C64.3913 94.048 64.2953 94.054 64.1993 94.054C64.1033 94.066 64.0013 94.072 63.8933 94.072C63.7973 94.072 63.6953 94.072 63.5873 94.072C63.3593 94.072 63.1493 94.048 62.9573 94C62.7653 93.94 62.6033 93.856 62.4713 93.748C62.3393 93.628 62.2313 93.478 62.1473 93.298C62.0753 93.106 62.0273 92.872 62.0033 92.596L61.9853 92.398H61.9673C61.8233 92.686 61.6433 92.944 61.4273 93.172C61.2113 93.388 60.9653 93.574 60.6893 93.73C60.4133 93.886 60.1133 94 59.7893 94.072C59.4653 94.156 59.1173 94.198 58.7453 94.198ZM59.5013 92.596C59.8733 92.596 60.2033 92.542 60.4913 92.434C60.7793 92.314 61.0313 92.152 61.2473 91.948C61.4633 91.732 61.6253 91.468 61.7333 91.156C61.8413 90.844 61.8953 90.484 61.8953 90.076V88.636H62.2373C62.1773 88.864 62.0633 89.05 61.8953 89.194C61.7393 89.338 61.5473 89.452 61.3193 89.536C61.1033 89.62 60.8633 89.68 60.5993 89.716C60.3473 89.752 60.0893 89.788 59.8253 89.824C59.5613 89.848 59.3093 89.884 59.0693 89.932C58.8293 89.98 58.6133 90.052 58.4213 90.148C58.2293 90.232 58.0733 90.358 57.9533 90.526C57.8453 90.694 57.7913 90.91 57.7913 91.174V91.246C57.7913 91.462 57.8273 91.654 57.8993 91.822C57.9833 91.99 58.0973 92.134 58.2413 92.254C58.3973 92.362 58.5773 92.446 58.7813 92.506C58.9973 92.566 59.2373 92.596 59.5013 92.596ZM66.5779 94V81.4H68.6839V94H66.5779ZM33.418 117.234C32.626 117.234 31.936 117.12 31.348 116.892C30.76 116.652 30.268 116.316 29.872 115.884C29.488 115.44 29.2 114.912 29.008 114.3C28.816 113.688 28.72 113.016 28.72 112.284V112.176C28.72 111.456 28.816 110.802 29.008 110.214C29.2 109.614 29.488 109.098 29.872 108.666C30.268 108.234 30.754 107.898 31.33 107.658C31.906 107.418 32.572 107.298 33.328 107.298C34.012 107.298 34.618 107.394 35.146 107.586C35.686 107.766 36.142 108.024 36.514 108.36C36.886 108.684 37.168 109.074 37.36 109.53C37.552 109.974 37.648 110.466 37.648 111.006V111.114H35.596V111.006C35.596 110.73 35.542 110.472 35.434 110.232C35.326 109.992 35.176 109.788 34.984 109.62C34.792 109.44 34.558 109.296 34.282 109.188C34.006 109.08 33.706 109.026 33.382 109.026C32.95 109.026 32.572 109.104 32.248 109.26C31.936 109.416 31.678 109.632 31.474 109.908C31.282 110.172 31.138 110.496 31.042 110.88C30.946 111.264 30.898 111.684 30.898 112.14V112.248C30.898 112.704 30.946 113.13 31.042 113.526C31.138 113.91 31.288 114.252 31.492 114.552C31.708 114.852 31.978 115.086 32.302 115.254C32.626 115.422 33.016 115.506 33.472 115.506C33.784 115.506 34.072 115.464 34.336 115.38C34.6 115.284 34.828 115.146 35.02 114.966C35.212 114.786 35.362 114.57 35.47 114.318C35.59 114.066 35.65 113.778 35.65 113.454V113.346H37.702V113.454C37.702 114.042 37.6 114.57 37.396 115.038C37.204 115.506 36.922 115.902 36.55 116.226C36.178 116.55 35.728 116.802 35.2 116.982C34.672 117.15 34.078 117.234 33.418 117.234ZM43.7544 117.234C42.9984 117.234 42.3264 117.12 41.7384 116.892C41.1504 116.652 40.6524 116.316 40.2444 115.884C39.8484 115.44 39.5484 114.918 39.3444 114.318C39.1404 113.718 39.0384 113.052 39.0384 112.32V112.212C39.0384 111.492 39.1404 110.832 39.3444 110.232C39.5484 109.62 39.8484 109.098 40.2444 108.666C40.6524 108.234 41.1444 107.898 41.7204 107.658C42.3084 107.418 42.9804 107.298 43.7364 107.298C44.4924 107.298 45.1584 107.424 45.7344 107.676C46.3224 107.916 46.8144 108.252 47.2104 108.684C47.6184 109.116 47.9244 109.632 48.1284 110.232C48.3324 110.832 48.4344 111.492 48.4344 112.212V112.32C48.4344 113.028 48.3384 113.682 48.1464 114.282C47.9664 114.882 47.6844 115.404 47.3004 115.848C46.9164 116.28 46.4304 116.622 45.8424 116.874C45.2544 117.114 44.5584 117.234 43.7544 117.234ZM43.8084 115.506C44.2044 115.506 44.5524 115.434 44.8524 115.29C45.1524 115.134 45.4044 114.918 45.6084 114.642C45.8244 114.366 45.9864 114.03 46.0944 113.634C46.2024 113.238 46.2564 112.794 46.2564 112.302V112.194C46.2564 111.75 46.2024 111.336 46.0944 110.952C45.9864 110.556 45.8244 110.214 45.6084 109.926C45.4044 109.638 45.1404 109.416 44.8164 109.26C44.5044 109.104 44.1444 109.026 43.7364 109.026C43.3044 109.026 42.9324 109.104 42.6204 109.26C42.3084 109.416 42.0444 109.638 41.8284 109.926C41.6244 110.202 41.4684 110.538 41.3604 110.934C41.2644 111.318 41.2164 111.738 41.2164 112.194V112.302C41.2164 112.77 41.2704 113.202 41.3784 113.598C41.4864 113.994 41.6484 114.336 41.8644 114.624C42.0924 114.9 42.3624 115.116 42.6744 115.272C42.9984 115.428 43.3764 115.506 43.8084 115.506ZM50.3885 117V107.532H52.4765V108.918H52.4945C52.6385 108.666 52.8005 108.444 52.9805 108.252C53.1605 108.048 53.3585 107.88 53.5745 107.748C53.8025 107.616 54.0545 107.52 54.3305 107.46C54.6185 107.388 54.9425 107.352 55.3025 107.352C55.6625 107.352 55.9865 107.394 56.2745 107.478C56.5625 107.562 56.8145 107.676 57.0305 107.82C57.2585 107.964 57.4505 108.138 57.6065 108.342C57.7625 108.534 57.8885 108.756 57.9845 109.008C58.1285 108.732 58.3025 108.492 58.5065 108.288C58.7225 108.072 58.9625 107.898 59.2265 107.766C59.4905 107.622 59.7725 107.52 60.0725 107.46C60.3845 107.388 60.7085 107.352 61.0445 107.352C61.5605 107.352 62.0045 107.424 62.3765 107.568C62.7485 107.712 63.0545 107.928 63.2945 108.216C63.5465 108.504 63.7325 108.864 63.8525 109.296C63.9725 109.728 64.0325 110.232 64.0325 110.808V117H61.9445V111.474C61.9445 111.114 61.9145 110.796 61.8545 110.52C61.8065 110.232 61.7165 109.992 61.5845 109.8C61.4525 109.596 61.2785 109.44 61.0625 109.332C60.8465 109.212 60.5825 109.152 60.2705 109.152C59.8985 109.152 59.5805 109.212 59.3165 109.332C59.0645 109.44 58.8605 109.596 58.7045 109.8C58.5485 109.992 58.4345 110.226 58.3625 110.502C58.2905 110.766 58.2545 111.054 58.2545 111.366V117H56.1665V111.384C56.1665 111.048 56.1425 110.742 56.0945 110.466C56.0465 110.19 55.9565 109.956 55.8245 109.764C55.7045 109.572 55.5365 109.422 55.3205 109.314C55.1045 109.206 54.8285 109.152 54.4925 109.152C54.1085 109.152 53.7845 109.218 53.5205 109.35C53.2685 109.47 53.0645 109.644 52.9085 109.872C52.7525 110.1 52.6385 110.37 52.5665 110.682C52.5065 110.982 52.4765 111.306 52.4765 111.654V117H50.3885ZM66.367 120.24V107.532H68.473V108.99H68.491C68.635 108.69 68.809 108.438 69.013 108.234C69.229 108.018 69.469 107.844 69.733 107.712C69.997 107.568 70.279 107.466 70.579 107.406C70.891 107.334 71.221 107.298 71.569 107.298C72.253 107.298 72.841 107.418 73.333 107.658C73.837 107.898 74.251 108.234 74.575 108.666C74.911 109.098 75.157 109.608 75.313 110.196C75.469 110.784 75.547 111.426 75.547 112.122V112.23C75.547 112.974 75.457 113.652 75.277 114.264C75.109 114.876 74.857 115.404 74.521 115.848C74.197 116.28 73.783 116.616 73.279 116.856C72.787 117.096 72.223 117.216 71.587 117.216C71.239 117.216 70.909 117.18 70.597 117.108C70.285 117.048 69.997 116.952 69.733 116.82C69.469 116.688 69.229 116.52 69.013 116.316C68.809 116.112 68.635 115.872 68.491 115.596H68.473V120.24H66.367ZM71.011 115.488C71.455 115.488 71.827 115.398 72.127 115.218C72.427 115.026 72.667 114.78 72.847 114.48C73.039 114.168 73.171 113.82 73.243 113.436C73.315 113.052 73.351 112.662 73.351 112.266V112.158C73.351 111.738 73.309 111.342 73.225 110.97C73.141 110.586 73.003 110.256 72.811 109.98C72.619 109.692 72.367 109.464 72.055 109.296C71.743 109.116 71.365 109.026 70.921 109.026C70.453 109.026 70.063 109.122 69.751 109.314C69.451 109.494 69.199 109.734 68.995 110.034C68.803 110.334 68.665 110.682 68.581 111.078C68.509 111.462 68.473 111.858 68.473 112.266V112.446C68.473 112.854 68.515 113.244 68.599 113.616C68.695 113.988 68.845 114.318 69.049 114.606C69.253 114.882 69.517 115.098 69.841 115.254C70.165 115.41 70.555 115.488 71.011 115.488ZM77.494 117V104.4H79.6V117H77.494ZM86.3658 117.234C85.5618 117.234 84.8598 117.12 84.2598 116.892C83.6598 116.652 83.1558 116.316 82.7478 115.884C82.3398 115.44 82.0398 114.912 81.8478 114.3C81.6558 113.688 81.5598 113.016 81.5598 112.284V112.176C81.5598 111.456 81.6558 110.802 81.8478 110.214C82.0398 109.614 82.3278 109.098 82.7118 108.666C83.1078 108.234 83.5938 107.898 84.1698 107.658C84.7458 107.418 85.4118 107.298 86.1678 107.298C86.8398 107.298 87.4518 107.406 88.0038 107.622C88.5558 107.826 89.0298 108.126 89.4258 108.522C89.8218 108.906 90.1278 109.38 90.3438 109.944C90.5598 110.496 90.6678 111.12 90.6678 111.816V112.716H83.1078V111.438H88.5798V111.348C88.5798 110.988 88.5198 110.658 88.3998 110.358C88.2798 110.058 88.1118 109.806 87.8958 109.602C87.6918 109.386 87.4398 109.224 87.1398 109.116C86.8518 108.996 86.5338 108.936 86.1858 108.936C85.7418 108.936 85.3578 109.014 85.0338 109.17C84.7218 109.314 84.4638 109.512 84.2598 109.764C84.0678 110.016 83.9238 110.316 83.8278 110.664C83.7318 111 83.6838 111.366 83.6838 111.762V112.554C83.6838 112.95 83.7318 113.334 83.8278 113.706C83.9358 114.078 84.0978 114.402 84.3138 114.678C84.5298 114.954 84.8058 115.176 85.1418 115.344C85.4778 115.512 85.8918 115.596 86.3838 115.596C86.7198 115.596 87.0198 115.56 87.2838 115.488C87.5478 115.404 87.7698 115.296 87.9498 115.164C88.1298 115.02 88.2678 114.864 88.3638 114.696C88.4718 114.528 88.5318 114.348 88.5438 114.156L88.5618 114.066H90.5058V114.174C90.4818 114.594 90.3738 114.99 90.1818 115.362C89.9898 115.734 89.7138 116.058 89.3538 116.334C89.0058 116.61 88.5798 116.832 88.0758 117C87.5718 117.156 87.0018 117.234 86.3658 117.234ZM95.8511 117.144C95.3831 117.144 94.9811 117.102 94.6451 117.018C94.3091 116.934 94.0271 116.802 93.7991 116.622C93.5831 116.442 93.4211 116.214 93.3131 115.938C93.2051 115.65 93.1511 115.308 93.1511 114.912V109.332H91.4951V107.532H93.1511V105.39H95.2391V107.532H97.7051V109.332H95.2391V114.228C95.2391 114.456 95.2631 114.642 95.3111 114.786C95.3711 114.93 95.4431 115.044 95.5271 115.128C95.6231 115.2 95.7371 115.248 95.8691 115.272C96.0131 115.296 96.1811 115.308 96.3731 115.308C96.5411 115.308 96.7571 115.296 97.0211 115.272C97.2851 115.248 97.5131 115.218 97.7051 115.182V116.946C97.4651 117.018 97.1651 117.066 96.8051 117.09C96.4571 117.126 96.1391 117.144 95.8511 117.144ZM103.68 117.234C102.876 117.234 102.174 117.12 101.574 116.892C100.974 116.652 100.47 116.316 100.062 115.884C99.6543 115.44 99.3543 114.912 99.1623 114.3C98.9703 113.688 98.8743 113.016 98.8743 112.284V112.176C98.8743 111.456 98.9703 110.802 99.1623 110.214C99.3543 109.614 99.6423 109.098 100.026 108.666C100.422 108.234 100.908 107.898 101.484 107.658C102.06 107.418 102.726 107.298 103.482 107.298C104.154 107.298 104.766 107.406 105.318 107.622C105.87 107.826 106.344 108.126 106.74 108.522C107.136 108.906 107.442 109.38 107.658 109.944C107.874 110.496 107.982 111.12 107.982 111.816V112.716H100.422V111.438H105.894V111.348C105.894 110.988 105.834 110.658 105.714 110.358C105.594 110.058 105.426 109.806 105.21 109.602C105.006 109.386 104.754 109.224 104.454 109.116C104.166 108.996 103.848 108.936 103.5 108.936C103.056 108.936 102.672 109.014 102.348 109.17C102.036 109.314 101.778 109.512 101.574 109.764C101.382 110.016 101.238 110.316 101.142 110.664C101.046 111 100.998 111.366 100.998 111.762V112.554C100.998 112.95 101.046 113.334 101.142 113.706C101.25 114.078 101.412 114.402 101.628 114.678C101.844 114.954 102.12 115.176 102.456 115.344C102.792 115.512 103.206 115.596 103.698 115.596C104.034 115.596 104.334 115.56 104.598 115.488C104.862 115.404 105.084 115.296 105.264 115.164C105.444 115.02 105.582 114.864 105.678 114.696C105.786 114.528 105.846 114.348 105.858 114.156L105.876 114.066H107.82V114.174C107.796 114.594 107.688 114.99 107.496 115.362C107.304 115.734 107.028 116.058 106.668 116.334C106.32 116.61 105.894 116.832 105.39 117C104.886 117.156 104.316 117.234 103.68 117.234ZM113.416 117.216C112.744 117.216 112.156 117.096 111.652 116.856C111.148 116.616 110.734 116.28 110.41 115.848C110.086 115.416 109.846 114.906 109.69 114.318C109.534 113.73 109.456 113.088 109.456 112.392V112.284C109.456 111.54 109.54 110.862 109.708 110.25C109.876 109.638 110.122 109.116 110.446 108.684C110.782 108.24 111.196 107.898 111.688 107.658C112.192 107.418 112.768 107.298 113.416 107.298C113.764 107.298 114.094 107.334 114.406 107.406C114.718 107.466 115 107.562 115.252 107.694C115.516 107.826 115.75 107.994 115.954 108.198C116.17 108.402 116.356 108.642 116.512 108.918H116.53V104.4H118.618V117H116.53V115.524H116.512C116.356 115.812 116.176 116.064 115.972 116.28C115.768 116.496 115.534 116.676 115.27 116.82C115.006 116.952 114.718 117.048 114.406 117.108C114.106 117.18 113.776 117.216 113.416 117.216ZM114.082 115.488C114.538 115.488 114.922 115.398 115.234 115.218C115.546 115.026 115.798 114.78 115.99 114.48C116.182 114.18 116.32 113.838 116.404 113.454C116.488 113.058 116.53 112.656 116.53 112.248V112.086C116.53 111.654 116.482 111.258 116.386 110.898C116.29 110.526 116.14 110.202 115.936 109.926C115.732 109.65 115.468 109.434 115.144 109.278C114.82 109.11 114.43 109.026 113.974 109.026C113.53 109.026 113.158 109.122 112.858 109.314C112.558 109.506 112.312 109.752 112.12 110.052C111.94 110.352 111.814 110.694 111.742 111.078C111.67 111.462 111.634 111.852 111.634 112.248V112.356C111.634 112.788 111.676 113.196 111.76 113.58C111.844 113.952 111.982 114.282 112.174 114.57C112.378 114.846 112.63 115.068 112.93 115.236C113.242 115.404 113.626 115.488 114.082 115.488ZM29.422 140V127.4H35.182C35.758 127.4 36.286 127.46 36.766 127.58C37.258 127.688 37.678 127.868 38.026 128.12C38.386 128.36 38.656 128.684 38.836 129.092C39.028 129.488 39.124 129.962 39.124 130.514V130.604C39.124 130.964 39.07 131.294 38.962 131.594C38.866 131.882 38.722 132.146 38.53 132.386C38.338 132.614 38.104 132.812 37.828 132.98C37.564 133.136 37.27 133.25 36.946 133.322V133.376C37.378 133.436 37.762 133.556 38.098 133.736C38.446 133.904 38.734 134.12 38.962 134.384C39.19 134.636 39.364 134.93 39.484 135.266C39.604 135.602 39.664 135.968 39.664 136.364V136.472C39.664 137.096 39.55 137.636 39.322 138.092C39.094 138.536 38.776 138.902 38.368 139.19C37.972 139.466 37.492 139.67 36.928 139.802C36.364 139.934 35.734 140 35.038 140H29.422ZM31.654 138.146H34.66C35.044 138.146 35.398 138.122 35.722 138.074C36.046 138.026 36.328 137.936 36.568 137.804C36.808 137.66 36.994 137.468 37.126 137.228C37.27 136.976 37.342 136.658 37.342 136.274V136.166C37.342 135.758 37.27 135.434 37.126 135.194C36.994 134.942 36.808 134.75 36.568 134.618C36.328 134.486 36.046 134.396 35.722 134.348C35.398 134.3 35.038 134.276 34.642 134.276H31.654V138.146ZM31.654 132.71H34.552C34.888 132.71 35.2 132.686 35.488 132.638C35.776 132.578 36.022 132.482 36.226 132.35C36.43 132.206 36.586 132.026 36.694 131.81C36.814 131.594 36.874 131.318 36.874 130.982V130.874C36.874 130.562 36.814 130.304 36.694 130.1C36.586 129.884 36.436 129.716 36.244 129.596C36.052 129.476 35.818 129.392 35.542 129.344C35.266 129.284 34.96 129.254 34.624 129.254H31.654V132.71ZM46.7654 140.288C46.2854 140.288 45.8234 140.246 45.3794 140.162C44.9354 140.09 44.5214 139.97 44.1374 139.802C43.7534 139.622 43.4054 139.4 43.0934 139.136C42.7814 138.86 42.5114 138.53 42.2834 138.146C42.0674 137.75 41.8994 137.294 41.7794 136.778C41.6594 136.262 41.5994 135.68 41.5994 135.032V127.4H43.8674V134.87C43.8674 135.374 43.9094 135.836 43.9934 136.256C44.0774 136.676 44.2214 137.036 44.4254 137.336C44.6414 137.636 44.9414 137.876 45.3254 138.056C45.7094 138.224 46.1954 138.308 46.7834 138.308C47.3714 138.308 47.8514 138.224 48.2234 138.056C48.6074 137.876 48.9074 137.636 49.1234 137.336C49.3514 137.036 49.5014 136.676 49.5734 136.256C49.6574 135.836 49.6994 135.374 49.6994 134.87V127.4H51.9494V135.032C51.9494 135.668 51.8894 136.244 51.7694 136.76C51.6494 137.276 51.4754 137.732 51.2474 138.128C51.0314 138.512 50.7614 138.842 50.4374 139.118C50.1254 139.382 49.7774 139.604 49.3934 139.784C49.0094 139.964 48.5954 140.09 48.1514 140.162C47.7194 140.246 47.2574 140.288 46.7654 140.288ZM59.255 140.288C58.415 140.288 57.659 140.192 56.987 140C56.315 139.82 55.745 139.544 55.277 139.172C54.809 138.8 54.449 138.338 54.197 137.786C53.945 137.222 53.819 136.568 53.819 135.824V135.662H56.141V135.77C56.141 136.19 56.219 136.568 56.375 136.904C56.531 137.228 56.747 137.498 57.023 137.714C57.311 137.93 57.647 138.098 58.031 138.218C58.427 138.326 58.847 138.38 59.291 138.38C59.711 138.38 60.089 138.35 60.425 138.29C60.773 138.23 61.067 138.128 61.307 137.984C61.547 137.84 61.733 137.654 61.865 137.426C61.997 137.186 62.063 136.892 62.063 136.544V136.364C62.063 136.004 61.949 135.716 61.721 135.5C61.505 135.272 61.211 135.086 60.839 134.942C60.479 134.798 60.059 134.684 59.579 134.6C59.111 134.504 58.631 134.408 58.139 134.312C57.659 134.204 57.185 134.078 56.717 133.934C56.249 133.778 55.829 133.574 55.457 133.322C55.097 133.058 54.803 132.728 54.575 132.332C54.359 131.936 54.251 131.444 54.251 130.856V130.73C54.251 130.034 54.395 129.458 54.683 129.002C54.971 128.546 55.349 128.18 55.817 127.904C56.297 127.616 56.837 127.412 57.437 127.292C58.037 127.172 58.655 127.112 59.291 127.112C60.035 127.112 60.707 127.208 61.307 127.4C61.919 127.592 62.435 127.868 62.855 128.228C63.287 128.588 63.617 129.02 63.845 129.524C64.073 130.028 64.187 130.598 64.187 131.234V131.36H61.883V131.252C61.883 130.892 61.817 130.574 61.685 130.298C61.553 130.01 61.367 129.77 61.127 129.578C60.899 129.386 60.617 129.248 60.281 129.164C59.957 129.068 59.591 129.02 59.183 129.02C58.859 129.02 58.541 129.05 58.229 129.11C57.917 129.17 57.641 129.266 57.401 129.398C57.173 129.53 56.987 129.698 56.843 129.902C56.699 130.106 56.627 130.352 56.627 130.64V130.82C56.627 131.168 56.735 131.45 56.951 131.666C57.179 131.87 57.479 132.038 57.851 132.17C58.223 132.29 58.643 132.392 59.111 132.476C59.579 132.56 60.053 132.656 60.533 132.764C61.025 132.86 61.505 132.98 61.973 133.124C62.441 133.268 62.861 133.478 63.233 133.754C63.605 134.018 63.899 134.354 64.115 134.762C64.343 135.17 64.457 135.686 64.457 136.31V136.436C64.457 137.144 64.319 137.744 64.043 138.236C63.767 138.728 63.389 139.13 62.909 139.442C62.441 139.742 61.895 139.958 61.271 140.09C60.647 140.222 59.975 140.288 59.255 140.288ZM71.4372 140H69.1872V135.176L64.6512 127.4H67.2072L70.6452 133.538H70.1052L73.5612 127.4H75.9732L71.4372 135.176V140ZM77.9894 140.162C77.5934 140.162 77.2694 140.042 77.0174 139.802C76.7774 139.55 76.6574 139.244 76.6574 138.884C76.6574 138.692 76.6874 138.518 76.7474 138.362C76.8194 138.206 76.9094 138.068 77.0174 137.948C77.1254 137.828 77.2634 137.738 77.4314 137.678C77.5994 137.618 77.7854 137.588 77.9894 137.588C78.2054 137.588 78.3914 137.624 78.5474 137.696C78.7154 137.756 78.8594 137.846 78.9794 137.966C79.0994 138.074 79.1894 138.212 79.2494 138.38C79.3094 138.536 79.3394 138.704 79.3394 138.884C79.3394 139.064 79.3094 139.232 79.2494 139.388C79.2014 139.544 79.1174 139.682 78.9974 139.802C78.8774 139.91 78.7334 139.994 78.5654 140.054C78.3974 140.126 78.2054 140.162 77.9894 140.162ZM77.9894 133.052C77.5934 133.052 77.2694 132.932 77.0174 132.692C76.7774 132.44 76.6574 132.134 76.6574 131.774C76.6574 131.582 76.6874 131.408 76.7474 131.252C76.8194 131.096 76.9094 130.958 77.0174 130.838C77.1254 130.718 77.2634 130.628 77.4314 130.568C77.5994 130.508 77.7854 130.478 77.9894 130.478C78.2054 130.478 78.3914 130.514 78.5474 130.586C78.7154 130.646 78.8594 130.736 78.9794 130.856C79.0994 130.964 79.1894 131.102 79.2494 131.27C79.3094 131.426 79.3394 131.594 79.3394 131.774C79.3394 131.954 79.3094 132.122 79.2494 132.278C79.2014 132.434 79.1174 132.572 78.9974 132.692C78.8774 132.8 78.7334 132.89 78.5654 132.962C78.3974 133.022 78.2054 133.052 77.9894 133.052Z" fill="white" fill-opacity="0.3"/>
<rect x="28" y="165" width="75" height="28" rx="14" fill="white" fill-opacity="0.1"/>
<path d="M61.441 183.256C60.8543 183.256 60.3103 183.171 59.809 183C59.3183 182.84 58.897 182.611 58.545 182.312C58.2037 182.003 57.9317 181.635 57.729 181.208C57.537 180.781 57.441 180.301 57.441 179.768V179.656H59.233V179.752C59.2437 180.051 59.3023 180.317 59.409 180.552C59.5263 180.787 59.681 180.984 59.873 181.144C60.065 181.304 60.289 181.427 60.545 181.512C60.8117 181.597 61.089 181.64 61.377 181.64C61.7503 181.64 62.0757 181.587 62.353 181.48C62.641 181.373 62.8757 181.219 63.057 181.016C63.249 180.813 63.3877 180.573 63.473 180.296C63.569 180.019 63.617 179.704 63.617 179.352V179.272C63.617 178.92 63.569 178.605 63.473 178.328C63.377 178.051 63.2383 177.816 63.057 177.624C62.8757 177.432 62.6463 177.283 62.369 177.176C62.0917 177.069 61.777 177.016 61.425 177.016C61.1157 177.016 60.849 177.048 60.625 177.112C60.401 177.176 60.209 177.261 60.049 177.368C59.889 177.464 59.761 177.571 59.665 177.688C59.569 177.805 59.4997 177.928 59.457 178.056L59.409 178.152H57.761L58.609 171.8H65.073V173.56H60.033L59.617 176.44H59.633C59.7717 176.312 59.9263 176.2 60.097 176.104C60.2783 176.008 60.4597 175.928 60.641 175.864C60.833 175.789 61.0357 175.741 61.249 175.72C61.4623 175.688 61.6757 175.672 61.889 175.672C62.4543 175.672 62.961 175.757 63.409 175.928C63.8677 176.088 64.257 176.323 64.577 176.632C64.897 176.941 65.1423 177.32 65.313 177.768C65.4837 178.216 65.569 178.723 65.569 179.288V179.384C65.569 180.013 65.4677 180.568 65.265 181.048C65.0623 181.528 64.7797 181.933 64.417 182.264C64.0543 182.584 63.617 182.829 63.105 183C62.6037 183.171 62.049 183.256 61.441 183.256ZM66.2046 183L69.0526 178.632L66.4286 174.584H68.4766L70.5406 177.864H70.0126L72.0606 174.584H74.0926L71.4526 178.632L74.3166 183H72.2366L69.9646 179.464L70.4926 179.448L68.2366 183H66.2046Z" fill="white"/>
<path d="M205.4 34H196.3C195.52 34 195 34.52 195 35.3V44.4C195 45.18 195.52 45.7 196.3 45.7H205.4C206.18 45.7 206.7 45.18 206.7 44.4V35.3C206.7 34.52 206.18 34 205.4 34ZM205.4 48.3H196.3C195.52 48.3 195 48.82 195 49.6V58.7C195 59.48 195.52 60 196.3 60H205.4C206.18 60 206.7 59.48 206.7 58.7V49.6C206.7 48.82 206.18 48.3 205.4 48.3ZM219.7 34H210.6C209.82 34 209.3 34.52 209.3 35.3V44.4C209.3 45.18 209.82 45.7 210.6 45.7H219.7C220.48 45.7 221 45.18 221 44.4V35.3C221 34.52 220.48 34 219.7 34ZM219.7 48.3H210.6C209.82 48.3 209.3 48.82 209.3 49.6V58.7C209.3 59.48 209.82 60 210.6 60H219.7C220.48 60 221 59.48 221 58.7V49.6C221 48.82 220.48 48.3 219.7 48.3Z" fill="white" fill-opacity="0.3"/>
<path fill-rule="evenodd" clip-rule="evenodd" d="M226 34.89V39.44C226 40.22 225.25 41 224.375 41H217.5C216.75 41 216 40.22 216 39.31V34.76C216 33.98 216.75 33.2 217.5 33.2V31.25C217.5 29.43 219.25 28 221 28C222.75 28 224.5 29.43 224.5 31.25V33.2C225.25 33.2 226 33.98 226 34.89ZM221 29.56C222 29.56 222.875 30.21 222.875 31.25V33.2H219.125V31.25C219.125 30.21 220 29.56 221 29.56Z" fill="white"/>
<path d="M197.59 94L202.072 81.4H204.97L209.452 94H207.13L206.032 90.814H200.956L199.858 94H197.59ZM201.532 88.96H205.438L203.368 83.02H203.602L201.532 88.96ZM213.707 94.144C213.239 94.144 212.837 94.102 212.501 94.018C212.165 93.934 211.883 93.802 211.655 93.622C211.439 93.442 211.277 93.214 211.169 92.938C211.061 92.65 211.007 92.308 211.007 91.912V86.332H209.351V84.532H211.007V82.39H213.095V84.532H215.561V86.332H213.095V91.228C213.095 91.456 213.119 91.642 213.167 91.786C213.227 91.93 213.299 92.044 213.383 92.128C213.479 92.2 213.593 92.248 213.725 92.272C213.869 92.296 214.037 92.308 214.229 92.308C214.397 92.308 214.613 92.296 214.877 92.272C215.141 92.248 215.369 92.218 215.561 92.182V93.946C215.321 94.018 215.021 94.066 214.661 94.09C214.313 94.126 213.995 94.144 213.707 94.144ZM220.949 94.144C220.481 94.144 220.079 94.102 219.743 94.018C219.407 93.934 219.125 93.802 218.897 93.622C218.681 93.442 218.519 93.214 218.411 92.938C218.303 92.65 218.249 92.308 218.249 91.912V86.332H216.593V84.532H218.249V82.39H220.337V84.532H222.803V86.332H220.337V91.228C220.337 91.456 220.361 91.642 220.409 91.786C220.469 91.93 220.541 92.044 220.625 92.128C220.721 92.2 220.835 92.248 220.967 92.272C221.111 92.296 221.279 92.308 221.471 92.308C221.639 92.308 221.855 92.296 222.119 92.272C222.383 92.248 222.611 92.218 222.803 92.182V93.946C222.563 94.018 222.263 94.066 221.903 94.09C221.555 94.126 221.237 94.144 220.949 94.144ZM228.778 94.234C227.974 94.234 227.272 94.12 226.672 93.892C226.072 93.652 225.568 93.316 225.16 92.884C224.752 92.44 224.452 91.912 224.26 91.3C224.068 90.688 223.972 90.016 223.972 89.284V89.176C223.972 88.456 224.068 87.802 224.26 87.214C224.452 86.614 224.74 86.098 225.124 85.666C225.52 85.234 226.006 84.898 226.582 84.658C227.158 84.418 227.824 84.298 228.58 84.298C229.252 84.298 229.864 84.406 230.416 84.622C230.968 84.826 231.442 85.126 231.838 85.522C232.234 85.906 232.54 86.38 232.756 86.944C232.972 87.496 233.08 88.12 233.08 88.816V89.716H225.52V88.438H230.992V88.348C230.992 87.988 230.932 87.658 230.812 87.358C230.692 87.058 230.524 86.806 230.308 86.602C230.104 86.386 229.852 86.224 229.552 86.116C229.264 85.996 228.946 85.936 228.598 85.936C228.154 85.936 227.77 86.014 227.446 86.17C227.134 86.314 226.876 86.512 226.672 86.764C226.48 87.016 226.336 87.316 226.24 87.664C226.144 88 226.096 88.366 226.096 88.762V89.554C226.096 89.95 226.144 90.334 226.24 90.706C226.348 91.078 226.51 91.402 226.726 91.678C226.942 91.954 227.218 92.176 227.554 92.344C227.89 92.512 228.304 92.596 228.796 92.596C229.132 92.596 229.432 92.56 229.696 92.488C229.96 92.404 230.182 92.296 230.362 92.164C230.542 92.02 230.68 91.864 230.776 91.696C230.884 91.528 230.944 91.348 230.956 91.156L230.974 91.066H232.918V91.174C232.894 91.594 232.786 91.99 232.594 92.362C232.402 92.734 232.126 93.058 231.766 93.334C231.418 93.61 230.992 93.832 230.488 94C229.984 94.156 229.414 94.234 228.778 94.234ZM235.023 94V84.532H237.111V85.918H237.129C237.273 85.666 237.435 85.444 237.615 85.252C237.795 85.048 237.993 84.88 238.209 84.748C238.437 84.616 238.689 84.52 238.965 84.46C239.253 84.388 239.577 84.352 239.937 84.352C240.297 84.352 240.621 84.394 240.909 84.478C241.197 84.562 241.449 84.676 241.665 84.82C241.893 84.964 242.085 85.138 242.241 85.342C242.397 85.534 242.523 85.756 242.619 86.008C242.763 85.732 242.937 85.492 243.141 85.288C243.357 85.072 243.597 84.898 243.861 84.766C244.125 84.622 244.407 84.52 244.707 84.46C245.019 84.388 245.343 84.352 245.679 84.352C246.195 84.352 246.639 84.424 247.011 84.568C247.383 84.712 247.689 84.928 247.929 85.216C248.181 85.504 248.367 85.864 248.487 86.296C248.607 86.728 248.667 87.232 248.667 87.808V94H246.579V88.474C246.579 88.114 246.549 87.796 246.489 87.52C246.441 87.232 246.351 86.992 246.219 86.8C246.087 86.596 245.913 86.44 245.697 86.332C245.481 86.212 245.217 86.152 244.905 86.152C244.533 86.152 244.215 86.212 243.951 86.332C243.699 86.44 243.495 86.596 243.339 86.8C243.183 86.992 243.069 87.226 242.997 87.502C242.925 87.766 242.889 88.054 242.889 88.366V94H240.801V88.384C240.801 88.048 240.777 87.742 240.729 87.466C240.681 87.19 240.591 86.956 240.459 86.764C240.339 86.572 240.171 86.422 239.955 86.314C239.739 86.206 239.463 86.152 239.127 86.152C238.743 86.152 238.419 86.218 238.155 86.35C237.903 86.47 237.699 86.644 237.543 86.872C237.387 87.1 237.273 87.37 237.201 87.682C237.141 87.982 237.111 88.306 237.111 88.654V94H235.023ZM251.002 97.24V84.532H253.108V85.99H253.126C253.27 85.69 253.444 85.438 253.648 85.234C253.864 85.018 254.104 84.844 254.368 84.712C254.632 84.568 254.914 84.466 255.214 84.406C255.526 84.334 255.856 84.298 256.204 84.298C256.888 84.298 257.476 84.418 257.968 84.658C258.472 84.898 258.886 85.234 259.21 85.666C259.546 86.098 259.792 86.608 259.948 87.196C260.104 87.784 260.182 88.426 260.182 89.122V89.23C260.182 89.974 260.092 90.652 259.912 91.264C259.744 91.876 259.492 92.404 259.156 92.848C258.832 93.28 258.418 93.616 257.914 93.856C257.422 94.096 256.858 94.216 256.222 94.216C255.874 94.216 255.544 94.18 255.232 94.108C254.92 94.048 254.632 93.952 254.368 93.82C254.104 93.688 253.864 93.52 253.648 93.316C253.444 93.112 253.27 92.872 253.126 92.596H253.108V97.24H251.002ZM255.646 92.488C256.09 92.488 256.462 92.398 256.762 92.218C257.062 92.026 257.302 91.78 257.482 91.48C257.674 91.168 257.806 90.82 257.878 90.436C257.95 90.052 257.986 89.662 257.986 89.266V89.158C257.986 88.738 257.944 88.342 257.86 87.97C257.776 87.586 257.638 87.256 257.446 86.98C257.254 86.692 257.002 86.464 256.69 86.296C256.378 86.116 256 86.026 255.556 86.026C255.088 86.026 254.698 86.122 254.386 86.314C254.086 86.494 253.834 86.734 253.63 87.034C253.438 87.334 253.3 87.682 253.216 88.078C253.144 88.462 253.108 88.858 253.108 89.266V89.446C253.108 89.854 253.15 90.244 253.234 90.616C253.33 90.988 253.48 91.318 253.684 91.606C253.888 91.882 254.152 92.098 254.476 92.254C254.8 92.41 255.19 92.488 255.646 92.488ZM265.369 94.144C264.901 94.144 264.499 94.102 264.163 94.018C263.827 93.934 263.545 93.802 263.317 93.622C263.101 93.442 262.939 93.214 262.831 92.938C262.723 92.65 262.669 92.308 262.669 91.912V86.332H261.013V84.532H262.669V82.39H264.757V84.532H267.223V86.332H264.757V91.228C264.757 91.456 264.781 91.642 264.829 91.786C264.889 91.93 264.961 92.044 265.045 92.128C265.141 92.2 265.255 92.248 265.387 92.272C265.531 92.296 265.699 92.308 265.891 92.308C266.059 92.308 266.275 92.296 266.539 92.272C266.803 92.248 267.031 92.218 267.223 92.182V93.946C266.983 94.018 266.683 94.066 266.323 94.09C265.975 94.126 265.657 94.144 265.369 94.144ZM272.496 94.234C271.884 94.234 271.32 94.168 270.804 94.036C270.288 93.916 269.844 93.724 269.472 93.46C269.112 93.184 268.824 92.854 268.608 92.47C268.392 92.074 268.272 91.618 268.248 91.102V90.976H270.354L270.372 91.084C270.372 91.348 270.432 91.582 270.552 91.786C270.672 91.978 270.828 92.14 271.02 92.272C271.224 92.392 271.458 92.488 271.722 92.56C271.986 92.632 272.268 92.668 272.568 92.668C272.832 92.668 273.078 92.65 273.306 92.614C273.534 92.566 273.732 92.494 273.9 92.398C274.068 92.29 274.2 92.158 274.296 92.002C274.392 91.846 274.44 91.642 274.44 91.39V91.3C274.44 91.024 274.356 90.814 274.188 90.67C274.02 90.514 273.798 90.388 273.522 90.292C273.246 90.184 272.934 90.094 272.586 90.022C272.238 89.95 271.878 89.878 271.506 89.806C271.146 89.722 270.792 89.626 270.444 89.518C270.096 89.398 269.784 89.236 269.508 89.032C269.232 88.828 269.01 88.576 268.842 88.276C268.674 87.964 268.59 87.58 268.59 87.124V87.016C268.59 86.512 268.698 86.086 268.914 85.738C269.13 85.39 269.418 85.108 269.778 84.892C270.15 84.676 270.57 84.526 271.038 84.442C271.518 84.346 272.004 84.298 272.496 84.298C273.048 84.298 273.558 84.358 274.026 84.478C274.506 84.598 274.92 84.778 275.268 85.018C275.628 85.258 275.91 85.558 276.114 85.918C276.318 86.278 276.426 86.704 276.438 87.196L276.456 87.358H274.35L274.332 87.232C274.332 87.016 274.284 86.824 274.188 86.656C274.092 86.488 273.954 86.344 273.774 86.224C273.606 86.104 273.408 86.014 273.18 85.954C272.964 85.894 272.718 85.864 272.442 85.864C272.214 85.864 271.992 85.882 271.776 85.918C271.572 85.954 271.392 86.02 271.236 86.116C271.08 86.2 270.954 86.314 270.858 86.458C270.774 86.59 270.732 86.758 270.732 86.962V87.052C270.732 87.304 270.816 87.508 270.984 87.664C271.152 87.82 271.368 87.946 271.632 88.042C271.908 88.138 272.22 88.222 272.568 88.294C272.928 88.366 273.288 88.444 273.648 88.528C274.02 88.6 274.38 88.696 274.728 88.816C275.088 88.924 275.4 89.08 275.664 89.284C275.94 89.476 276.162 89.728 276.33 90.04C276.498 90.34 276.582 90.718 276.582 91.174V91.282C276.582 91.81 276.474 92.266 276.258 92.65C276.054 93.022 275.766 93.328 275.394 93.568C275.034 93.796 274.602 93.964 274.098 94.072C273.606 94.18 273.072 94.234 272.496 94.234ZM286.058 94.144C285.59 94.144 285.188 94.102 284.852 94.018C284.516 93.934 284.234 93.802 284.006 93.622C283.79 93.442 283.628 93.214 283.52 92.938C283.412 92.65 283.358 92.308 283.358 91.912V86.332H281.702V84.532H283.358V82.39H285.446V84.532H287.912V86.332H285.446V91.228C285.446 91.456 285.47 91.642 285.518 91.786C285.578 91.93 285.65 92.044 285.734 92.128C285.83 92.2 285.944 92.248 286.076 92.272C286.22 92.296 286.388 92.308 286.58 92.308C286.748 92.308 286.964 92.296 287.228 92.272C287.492 92.248 287.72 92.218 287.912 92.182V93.946C287.672 94.018 287.372 94.066 287.012 94.09C286.664 94.126 286.346 94.144 286.058 94.144ZM293.797 94.234C293.041 94.234 292.369 94.12 291.781 93.892C291.193 93.652 290.695 93.316 290.287 92.884C289.891 92.44 289.591 91.918 289.387 91.318C289.183 90.718 289.081 90.052 289.081 89.32V89.212C289.081 88.492 289.183 87.832 289.387 87.232C289.591 86.62 289.891 86.098 290.287 85.666C290.695 85.234 291.187 84.898 291.763 84.658C292.351 84.418 293.023 84.298 293.779 84.298C294.535 84.298 295.201 84.424 295.777 84.676C296.365 84.916 296.857 85.252 297.253 85.684C297.661 86.116 297.967 86.632 298.171 87.232C298.375 87.832 298.477 88.492 298.477 89.212V89.32C298.477 90.028 298.381 90.682 298.189 91.282C298.009 91.882 297.727 92.404 297.343 92.848C296.959 93.28 296.473 93.622 295.885 93.874C295.297 94.114 294.601 94.234 293.797 94.234ZM293.851 92.506C294.247 92.506 294.595 92.434 294.895 92.29C295.195 92.134 295.447 91.918 295.651 91.642C295.867 91.366 296.029 91.03 296.137 90.634C296.245 90.238 296.299 89.794 296.299 89.302V89.194C296.299 88.75 296.245 88.336 296.137 87.952C296.029 87.556 295.867 87.214 295.651 86.926C295.447 86.638 295.183 86.416 294.859 86.26C294.547 86.104 294.187 86.026 293.779 86.026C293.347 86.026 292.975 86.104 292.663 86.26C292.351 86.416 292.087 86.638 291.871 86.926C291.667 87.202 291.511 87.538 291.403 87.934C291.307 88.318 291.259 88.738 291.259 89.194V89.302C291.259 89.77 291.313 90.202 291.421 90.598C291.529 90.994 291.691 91.336 291.907 91.624C292.135 91.9 292.405 92.116 292.717 92.272C293.041 92.428 293.419 92.506 293.851 92.506ZM202.936 117.234C202.18 117.234 201.508 117.12 200.92 116.892C200.332 116.652 199.834 116.316 199.426 115.884C199.03 115.44 198.73 114.918 198.526 114.318C198.322 113.718 198.22 113.052 198.22 112.32V112.212C198.22 111.492 198.322 110.832 198.526 110.232C198.73 109.62 199.03 109.098 199.426 108.666C199.834 108.234 200.326 107.898 200.902 107.658C201.49 107.418 202.162 107.298 202.918 107.298C203.674 107.298 204.34 107.424 204.916 107.676C205.504 107.916 205.996 108.252 206.392 108.684C206.8 109.116 207.106 109.632 207.31 110.232C207.514 110.832 207.616 111.492 207.616 112.212V112.32C207.616 113.028 207.52 113.682 207.328 114.282C207.148 114.882 206.866 115.404 206.482 115.848C206.098 116.28 205.612 116.622 205.024 116.874C204.436 117.114 203.74 117.234 202.936 117.234ZM202.99 115.506C203.386 115.506 203.734 115.434 204.034 115.29C204.334 115.134 204.586 114.918 204.79 114.642C205.006 114.366 205.168 114.03 205.276 113.634C205.384 113.238 205.438 112.794 205.438 112.302V112.194C205.438 111.75 205.384 111.336 205.276 110.952C205.168 110.556 205.006 110.214 204.79 109.926C204.586 109.638 204.322 109.416 203.998 109.26C203.686 109.104 203.326 109.026 202.918 109.026C202.486 109.026 202.114 109.104 201.802 109.26C201.49 109.416 201.226 109.638 201.01 109.926C200.806 110.202 200.65 110.538 200.542 110.934C200.446 111.318 200.398 111.738 200.398 112.194V112.302C200.398 112.77 200.452 113.202 200.56 113.598C200.668 113.994 200.83 114.336 201.046 114.624C201.274 114.9 201.544 115.116 201.856 115.272C202.18 115.428 202.558 115.506 202.99 115.506ZM209.57 120.24V107.532H211.676V108.99H211.694C211.838 108.69 212.012 108.438 212.216 108.234C212.432 108.018 212.672 107.844 212.936 107.712C213.2 107.568 213.482 107.466 213.782 107.406C214.094 107.334 214.424 107.298 214.772 107.298C215.456 107.298 216.044 107.418 216.536 107.658C217.04 107.898 217.454 108.234 217.778 108.666C218.114 109.098 218.36 109.608 218.516 110.196C218.672 110.784 218.75 111.426 218.75 112.122V112.23C218.75 112.974 218.66 113.652 218.48 114.264C218.312 114.876 218.06 115.404 217.724 115.848C217.4 116.28 216.986 116.616 216.482 116.856C215.99 117.096 215.426 117.216 214.79 117.216C214.442 117.216 214.112 117.18 213.8 117.108C213.488 117.048 213.2 116.952 212.936 116.82C212.672 116.688 212.432 116.52 212.216 116.316C212.012 116.112 211.838 115.872 211.694 115.596H211.676V120.24H209.57ZM214.214 115.488C214.658 115.488 215.03 115.398 215.33 115.218C215.63 115.026 215.87 114.78 216.05 114.48C216.242 114.168 216.374 113.82 216.446 113.436C216.518 113.052 216.554 112.662 216.554 112.266V112.158C216.554 111.738 216.512 111.342 216.428 110.97C216.344 110.586 216.206 110.256 216.014 109.98C215.822 109.692 215.57 109.464 215.258 109.296C214.946 109.116 214.568 109.026 214.124 109.026C213.656 109.026 213.266 109.122 212.954 109.314C212.654 109.494 212.402 109.734 212.198 110.034C212.006 110.334 211.868 110.682 211.784 111.078C211.712 111.462 211.676 111.858 211.676 112.266V112.446C211.676 112.854 211.718 113.244 211.802 113.616C211.898 113.988 212.048 114.318 212.252 114.606C212.456 114.882 212.72 115.098 213.044 115.254C213.368 115.41 213.758 115.488 214.214 115.488ZM225.034 117.234C224.23 117.234 223.528 117.12 222.928 116.892C222.328 116.652 221.824 116.316 221.416 115.884C221.008 115.44 220.708 114.912 220.516 114.3C220.324 113.688 220.228 113.016 220.228 112.284V112.176C220.228 111.456 220.324 110.802 220.516 110.214C220.708 109.614 220.996 109.098 221.38 108.666C221.776 108.234 222.262 107.898 222.838 107.658C223.414 107.418 224.08 107.298 224.836 107.298C225.508 107.298 226.12 107.406 226.672 107.622C227.224 107.826 227.698 108.126 228.094 108.522C228.49 108.906 228.796 109.38 229.012 109.944C229.228 110.496 229.336 111.12 229.336 111.816V112.716H221.776V111.438H227.248V111.348C227.248 110.988 227.188 110.658 227.068 110.358C226.948 110.058 226.78 109.806 226.564 109.602C226.36 109.386 226.108 109.224 225.808 109.116C225.52 108.996 225.202 108.936 224.854 108.936C224.41 108.936 224.026 109.014 223.702 109.17C223.39 109.314 223.132 109.512 222.928 109.764C222.736 110.016 222.592 110.316 222.496 110.664C222.4 111 222.352 111.366 222.352 111.762V112.554C222.352 112.95 222.4 113.334 222.496 113.706C222.604 114.078 222.766 114.402 222.982 114.678C223.198 114.954 223.474 115.176 223.81 115.344C224.146 115.512 224.56 115.596 225.052 115.596C225.388 115.596 225.688 115.56 225.952 115.488C226.216 115.404 226.438 115.296 226.618 115.164C226.798 115.02 226.936 114.864 227.032 114.696C227.14 114.528 227.2 114.348 227.212 114.156L227.23 114.066H229.174V114.174C229.15 114.594 229.042 114.99 228.85 115.362C228.658 115.734 228.382 116.058 228.022 116.334C227.674 116.61 227.248 116.832 226.744 117C226.24 117.156 225.67 117.234 225.034 117.234ZM231.279 117V107.532H233.385V108.918H233.403C233.535 108.654 233.697 108.426 233.889 108.234C234.093 108.042 234.321 107.88 234.573 107.748C234.825 107.616 235.101 107.52 235.401 107.46C235.713 107.388 236.049 107.352 236.409 107.352C236.925 107.352 237.375 107.424 237.759 107.568C238.155 107.712 238.485 107.934 238.749 108.234C239.013 108.522 239.211 108.882 239.343 109.314C239.475 109.746 239.541 110.25 239.541 110.826V117H237.453V111.474C237.453 111.114 237.417 110.796 237.345 110.52C237.273 110.232 237.159 109.992 237.003 109.8C236.859 109.596 236.667 109.44 236.427 109.332C236.199 109.212 235.923 109.152 235.599 109.152C235.203 109.152 234.867 109.218 234.591 109.35C234.315 109.47 234.087 109.638 233.907 109.854C233.727 110.07 233.595 110.334 233.511 110.646C233.427 110.958 233.385 111.294 233.385 111.654V117H231.279ZM251.441 117.216C251.093 117.216 250.757 117.18 250.433 117.108C250.121 117.048 249.833 116.952 249.569 116.82C249.317 116.688 249.083 116.52 248.867 116.316C248.651 116.112 248.471 115.872 248.327 115.596H248.309V117H246.203V104.4H248.309V108.99H248.327C248.471 108.69 248.645 108.438 248.849 108.234C249.065 108.018 249.305 107.844 249.569 107.712C249.833 107.568 250.121 107.466 250.433 107.406C250.745 107.334 251.081 107.298 251.441 107.298C252.113 107.298 252.695 107.418 253.187 107.658C253.679 107.898 254.087 108.234 254.411 108.666C254.747 109.098 254.993 109.608 255.149 110.196C255.305 110.784 255.383 111.426 255.383 112.122V112.23C255.383 112.974 255.293 113.652 255.113 114.264C254.945 114.876 254.693 115.404 254.357 115.848C254.033 116.28 253.625 116.616 253.133 116.856C252.641 117.096 252.077 117.216 251.441 117.216ZM250.847 115.488C251.291 115.488 251.663 115.398 251.963 115.218C252.263 115.026 252.503 114.78 252.683 114.48C252.875 114.168 253.007 113.82 253.079 113.436C253.151 113.052 253.187 112.662 253.187 112.266V112.158C253.187 111.738 253.145 111.342 253.061 110.97C252.977 110.586 252.839 110.256 252.647 109.98C252.455 109.692 252.203 109.464 251.891 109.296C251.579 109.116 251.201 109.026 250.757 109.026C250.289 109.026 249.899 109.122 249.587 109.314C249.287 109.494 249.035 109.734 248.831 110.034C248.639 110.334 248.501 110.682 248.417 111.078C248.345 111.462 248.309 111.858 248.309 112.266V112.446C248.309 112.854 248.351 113.244 248.435 113.616C248.531 113.988 248.681 114.318 248.885 114.606C249.089 114.882 249.353 115.098 249.677 115.254C250.001 115.41 250.391 115.488 250.847 115.488ZM257.33 117V104.4H259.436V117H257.33ZM266.112 117.234C265.356 117.234 264.684 117.12 264.096 116.892C263.508 116.652 263.01 116.316 262.602 115.884C262.206 115.44 261.906 114.918 261.702 114.318C261.498 113.718 261.396 113.052 261.396 112.32V112.212C261.396 111.492 261.498 110.832 261.702 110.232C261.906 109.62 262.206 109.098 262.602 108.666C263.01 108.234 263.502 107.898 264.078 107.658C264.666 107.418 265.338 107.298 266.094 107.298C266.85 107.298 267.516 107.424 268.092 107.676C268.68 107.916 269.172 108.252 269.568 108.684C269.976 109.116 270.282 109.632 270.486 110.232C270.69 110.832 270.792 111.492 270.792 112.212V112.32C270.792 113.028 270.696 113.682 270.504 114.282C270.324 114.882 270.042 115.404 269.658 115.848C269.274 116.28 268.788 116.622 268.2 116.874C267.612 117.114 266.916 117.234 266.112 117.234ZM266.166 115.506C266.562 115.506 266.91 115.434 267.21 115.29C267.51 115.134 267.762 114.918 267.966 114.642C268.182 114.366 268.344 114.03 268.452 113.634C268.56 113.238 268.614 112.794 268.614 112.302V112.194C268.614 111.75 268.56 111.336 268.452 110.952C268.344 110.556 268.182 110.214 267.966 109.926C267.762 109.638 267.498 109.416 267.174 109.26C266.862 109.104 266.502 109.026 266.094 109.026C265.662 109.026 265.29 109.104 264.978 109.26C264.666 109.416 264.402 109.638 264.186 109.926C263.982 110.202 263.826 110.538 263.718 110.934C263.622 111.318 263.574 111.738 263.574 112.194V112.302C263.574 112.77 263.628 113.202 263.736 113.598C263.844 113.994 264.006 114.336 264.222 114.624C264.45 114.9 264.72 115.116 265.032 115.272C265.356 115.428 265.734 115.506 266.166 115.506ZM276.975 117.234C276.183 117.234 275.493 117.12 274.905 116.892C274.317 116.652 273.825 116.316 273.429 115.884C273.045 115.44 272.757 114.912 272.565 114.3C272.373 113.688 272.277 113.016 272.277 112.284V112.176C272.277 111.456 272.373 110.802 272.565 110.214C272.757 109.614 273.045 109.098 273.429 108.666C273.825 108.234 274.311 107.898 274.887 107.658C275.463 107.418 276.129 107.298 276.885 107.298C277.569 107.298 278.175 107.394 278.703 107.586C279.243 107.766 279.699 108.024 280.071 108.36C280.443 108.684 280.725 109.074 280.917 109.53C281.109 109.974 281.205 110.466 281.205 111.006V111.114H279.153V111.006C279.153 110.73 279.099 110.472 278.991 110.232C278.883 109.992 278.733 109.788 278.541 109.62C278.349 109.44 278.115 109.296 277.839 109.188C277.563 109.08 277.263 109.026 276.939 109.026C276.507 109.026 276.129 109.104 275.805 109.26C275.493 109.416 275.235 109.632 275.031 109.908C274.839 110.172 274.695 110.496 274.599 110.88C274.503 111.264 274.455 111.684 274.455 112.14V112.248C274.455 112.704 274.503 113.13 274.599 113.526C274.695 113.91 274.845 114.252 275.049 114.552C275.265 114.852 275.535 115.086 275.859 115.254C276.183 115.422 276.573 115.506 277.029 115.506C277.341 115.506 277.629 115.464 277.893 115.38C278.157 115.284 278.385 115.146 278.577 114.966C278.769 114.786 278.919 114.57 279.027 114.318C279.147 114.066 279.207 113.778 279.207 113.454V113.346H281.259V113.454C281.259 114.042 281.157 114.57 280.953 115.038C280.761 115.506 280.479 115.902 280.107 116.226C279.735 116.55 279.285 116.802 278.757 116.982C278.229 117.15 277.635 117.234 276.975 117.234ZM285.293 117H283.187V104.4H285.293V117ZM286.625 112.302L284.915 114.174L284.591 112.644L289.127 107.532H291.665L287.345 112.14L286.625 112.302ZM291.773 117H289.289L285.977 112.194L287.615 111.024L291.773 117ZM296.876 117.234C296.072 117.234 295.37 117.12 294.77 116.892C294.17 116.652 293.666 116.316 293.258 115.884C292.85 115.44 292.55 114.912 292.358 114.3C292.166 113.688 292.07 113.016 292.07 112.284V112.176C292.07 111.456 292.166 110.802 292.358 110.214C292.55 109.614 292.838 109.098 293.222 108.666C293.618 108.234 294.104 107.898 294.68 107.658C295.256 107.418 295.922 107.298 296.678 107.298C297.35 107.298 297.962 107.406 298.514 107.622C299.066 107.826 299.54 108.126 299.936 108.522C300.332 108.906 300.638 109.38 300.854 109.944C301.07 110.496 301.178 111.12 301.178 111.816V112.716H293.618V111.438H299.09V111.348C299.09 110.988 299.03 110.658 298.91 110.358C298.79 110.058 298.622 109.806 298.406 109.602C298.202 109.386 297.95 109.224 297.65 109.116C297.362 108.996 297.044 108.936 296.696 108.936C296.252 108.936 295.868 109.014 295.544 109.17C295.232 109.314 294.974 109.512 294.77 109.764C294.578 110.016 294.434 110.316 294.338 110.664C294.242 111 294.194 111.366 294.194 111.762V112.554C294.194 112.95 294.242 113.334 294.338 113.706C294.446 114.078 294.608 114.402 294.824 114.678C295.04 114.954 295.316 115.176 295.652 115.344C295.988 115.512 296.402 115.596 296.894 115.596C297.23 115.596 297.53 115.56 297.794 115.488C298.058 115.404 298.28 115.296 298.46 115.164C298.64 115.02 298.778 114.864 298.874 114.696C298.982 114.528 299.042 114.348 299.054 114.156L299.072 114.066H301.016V114.174C300.992 114.594 300.884 114.99 300.692 115.362C300.5 115.734 300.224 116.058 299.864 116.334C299.516 116.61 299.09 116.832 298.586 117C298.082 117.156 297.512 117.234 296.876 117.234ZM306.612 117.216C305.94 117.216 305.352 117.096 304.848 116.856C304.344 116.616 303.93 116.28 303.606 115.848C303.282 115.416 303.042 114.906 302.886 114.318C302.73 113.73 302.652 113.088 302.652 112.392V112.284C302.652 111.54 302.736 110.862 302.904 110.25C303.072 109.638 303.318 109.116 303.642 108.684C303.978 108.24 304.392 107.898 304.884 107.658C305.388 107.418 305.964 107.298 306.612 107.298C306.96 107.298 307.29 107.334 307.602 107.406C307.914 107.466 308.196 107.562 308.448 107.694C308.712 107.826 308.946 107.994 309.15 108.198C309.366 108.402 309.552 108.642 309.708 108.918H309.726V104.4H311.814V117H309.726V115.524H309.708C309.552 115.812 309.372 116.064 309.168 116.28C308.964 116.496 308.73 116.676 308.466 116.82C308.202 116.952 307.914 117.048 307.602 117.108C307.302 117.18 306.972 117.216 306.612 117.216ZM307.278 115.488C307.734 115.488 308.118 115.398 308.43 115.218C308.742 115.026 308.994 114.78 309.186 114.48C309.378 114.18 309.516 113.838 309.6 113.454C309.684 113.058 309.726 112.656 309.726 112.248V112.086C309.726 111.654 309.678 111.258 309.582 110.898C309.486 110.526 309.336 110.202 309.132 109.926C308.928 109.65 308.664 109.434 308.34 109.278C308.016 109.11 307.626 109.026 307.17 109.026C306.726 109.026 306.354 109.122 306.054 109.314C305.754 109.506 305.508 109.752 305.316 110.052C305.136 110.352 305.01 110.694 304.938 111.078C304.866 111.462 304.83 111.852 304.83 112.248V112.356C304.83 112.788 304.872 113.196 304.956 113.58C305.04 113.952 305.178 114.282 305.37 114.57C305.574 114.846 305.826 115.068 306.126 115.236C306.438 115.404 306.822 115.488 307.278 115.488ZM201.298 140.198C200.89 140.198 200.494 140.144 200.11 140.036C199.738 139.928 199.408 139.766 199.12 139.55C198.844 139.322 198.616 139.04 198.436 138.704C198.268 138.356 198.184 137.954 198.184 137.498V137.39C198.184 136.886 198.274 136.478 198.454 136.166C198.634 135.842 198.868 135.584 199.156 135.392C199.456 135.2 199.792 135.062 200.164 134.978C200.548 134.882 200.932 134.81 201.316 134.762C201.712 134.714 202.096 134.672 202.468 134.636C202.84 134.6 203.176 134.54 203.476 134.456C203.776 134.36 204.01 134.234 204.178 134.078C204.358 133.91 204.448 133.676 204.448 133.376V133.268C204.448 133.052 204.406 132.86 204.322 132.692C204.25 132.524 204.136 132.386 203.98 132.278C203.824 132.17 203.626 132.092 203.386 132.044C203.158 131.996 202.894 131.972 202.594 131.972C202.306 131.972 202.036 131.996 201.784 132.044C201.544 132.092 201.334 132.182 201.154 132.314C200.974 132.434 200.83 132.602 200.722 132.818C200.626 133.022 200.578 133.292 200.578 133.628V133.736H198.562V133.628C198.562 133.064 198.67 132.578 198.886 132.17C199.102 131.75 199.39 131.402 199.75 131.126C200.122 130.85 200.56 130.646 201.064 130.514C201.568 130.37 202.114 130.298 202.702 130.298C203.29 130.298 203.818 130.364 204.286 130.496C204.766 130.616 205.168 130.82 205.492 131.108C205.828 131.384 206.086 131.744 206.266 132.188C206.446 132.632 206.536 133.166 206.536 133.79L206.5 137.732C206.5 137.948 206.506 138.134 206.518 138.29C206.542 138.446 206.572 138.572 206.608 138.668C206.656 138.764 206.71 138.836 206.77 138.884C206.842 138.932 206.932 138.956 207.04 138.956C207.088 138.956 207.136 138.956 207.184 138.956C207.232 138.944 207.286 138.926 207.346 138.902V140.018C207.25 140.03 207.148 140.036 207.04 140.036C206.944 140.048 206.848 140.054 206.752 140.054C206.656 140.066 206.554 140.072 206.446 140.072C206.35 140.072 206.248 140.072 206.14 140.072C205.912 140.072 205.702 140.048 205.51 140C205.318 139.94 205.156 139.856 205.024 139.748C204.892 139.628 204.784 139.478 204.7 139.298C204.628 139.106 204.58 138.872 204.556 138.596L204.538 138.398H204.52C204.376 138.686 204.196 138.944 203.98 139.172C203.764 139.388 203.518 139.574 203.242 139.73C202.966 139.886 202.666 140 202.342 140.072C202.018 140.156 201.67 140.198 201.298 140.198ZM202.054 138.596C202.426 138.596 202.756 138.542 203.044 138.434C203.332 138.314 203.584 138.152 203.8 137.948C204.016 137.732 204.178 137.468 204.286 137.156C204.394 136.844 204.448 136.484 204.448 136.076V134.636H204.79C204.73 134.864 204.616 135.05 204.448 135.194C204.292 135.338 204.1 135.452 203.872 135.536C203.656 135.62 203.416 135.68 203.152 135.716C202.9 135.752 202.642 135.788 202.378 135.824C202.114 135.848 201.862 135.884 201.622 135.932C201.382 135.98 201.166 136.052 200.974 136.148C200.782 136.232 200.626 136.358 200.506 136.526C200.398 136.694 200.344 136.91 200.344 137.174V137.246C200.344 137.462 200.38 137.654 200.452 137.822C200.536 137.99 200.65 138.134 200.794 138.254C200.95 138.362 201.13 138.446 201.334 138.506C201.55 138.566 201.79 138.596 202.054 138.596ZM209.131 143.24V130.532H211.237V131.99H211.255C211.399 131.69 211.573 131.438 211.777 131.234C211.993 131.018 212.233 130.844 212.497 130.712C212.761 130.568 213.043 130.466 213.343 130.406C213.655 130.334 213.985 130.298 214.333 130.298C215.017 130.298 215.605 130.418 216.097 130.658C216.601 130.898 217.015 131.234 217.339 131.666C217.675 132.098 217.921 132.608 218.077 133.196C218.233 133.784 218.311 134.426 218.311 135.122V135.23C218.311 135.974 218.221 136.652 218.041 137.264C217.873 137.876 217.621 138.404 217.285 138.848C216.961 139.28 216.547 139.616 216.043 139.856C215.551 140.096 214.987 140.216 214.351 140.216C214.003 140.216 213.673 140.18 213.361 140.108C213.049 140.048 212.761 139.952 212.497 139.82C212.233 139.688 211.993 139.52 211.777 139.316C211.573 139.112 211.399 138.872 211.255 138.596H211.237V143.24H209.131ZM213.775 138.488C214.219 138.488 214.591 138.398 214.891 138.218C215.191 138.026 215.431 137.78 215.611 137.48C215.803 137.168 215.935 136.82 216.007 136.436C216.079 136.052 216.115 135.662 216.115 135.266V135.158C216.115 134.738 216.073 134.342 215.989 133.97C215.905 133.586 215.767 133.256 215.575 132.98C215.383 132.692 215.131 132.464 214.819 132.296C214.507 132.116 214.129 132.026 213.685 132.026C213.217 132.026 212.827 132.122 212.515 132.314C212.215 132.494 211.963 132.734 211.759 133.034C211.567 133.334 211.429 133.682 211.345 134.078C211.273 134.462 211.237 134.858 211.237 135.266V135.446C211.237 135.854 211.279 136.244 211.363 136.616C211.459 136.988 211.609 137.318 211.813 137.606C212.017 137.882 212.281 138.098 212.605 138.254C212.929 138.41 213.319 138.488 213.775 138.488ZM220.258 143.24V130.532H222.364V131.99H222.382C222.526 131.69 222.7 131.438 222.904 131.234C223.12 131.018 223.36 130.844 223.624 130.712C223.888 130.568 224.17 130.466 224.47 130.406C224.782 130.334 225.112 130.298 225.46 130.298C226.144 130.298 226.732 130.418 227.224 130.658C227.728 130.898 228.142 131.234 228.466 131.666C228.802 132.098 229.048 132.608 229.204 133.196C229.36 133.784 229.438 134.426 229.438 135.122V135.23C229.438 135.974 229.348 136.652 229.168 137.264C229 137.876 228.748 138.404 228.412 138.848C228.088 139.28 227.674 139.616 227.17 139.856C226.678 140.096 226.114 140.216 225.478 140.216C225.13 140.216 224.8 140.18 224.488 140.108C224.176 140.048 223.888 139.952 223.624 139.82C223.36 139.688 223.12 139.52 222.904 139.316C222.7 139.112 222.526 138.872 222.382 138.596H222.364V143.24H220.258ZM224.902 138.488C225.346 138.488 225.718 138.398 226.018 138.218C226.318 138.026 226.558 137.78 226.738 137.48C226.93 137.168 227.062 136.82 227.134 136.436C227.206 136.052 227.242 135.662 227.242 135.266V135.158C227.242 134.738 227.2 134.342 227.116 133.97C227.032 133.586 226.894 133.256 226.702 132.98C226.51 132.692 226.258 132.464 225.946 132.296C225.634 132.116 225.256 132.026 224.812 132.026C224.344 132.026 223.954 132.122 223.642 132.314C223.342 132.494 223.09 132.734 222.886 133.034C222.694 133.334 222.556 133.682 222.472 134.078C222.4 134.462 222.364 134.858 222.364 135.266V135.446C222.364 135.854 222.406 136.244 222.49 136.616C222.586 136.988 222.736 137.318 222.94 137.606C223.144 137.882 223.408 138.098 223.732 138.254C224.056 138.41 224.446 138.488 224.902 138.488ZM234.967 140.234C234.355 140.234 233.791 140.168 233.275 140.036C232.759 139.916 232.315 139.724 231.943 139.46C231.583 139.184 231.295 138.854 231.079 138.47C230.863 138.074 230.743 137.618 230.719 137.102V136.976H232.825L232.843 137.084C232.843 137.348 232.903 137.582 233.023 137.786C233.143 137.978 233.299 138.14 233.491 138.272C233.695 138.392 233.929 138.488 234.193 138.56C234.457 138.632 234.739 138.668 235.039 138.668C235.303 138.668 235.549 138.65 235.777 138.614C236.005 138.566 236.203 138.494 236.371 138.398C236.539 138.29 236.671 138.158 236.767 138.002C236.863 137.846 236.911 137.642 236.911 137.39V137.3C236.911 137.024 236.827 136.814 236.659 136.67C236.491 136.514 236.269 136.388 235.993 136.292C235.717 136.184 235.405 136.094 235.057 136.022C234.709 135.95 234.349 135.878 233.977 135.806C233.617 135.722 233.263 135.626 232.915 135.518C232.567 135.398 232.255 135.236 231.979 135.032C231.703 134.828 231.481 134.576 231.313 134.276C231.145 133.964 231.061 133.58 231.061 133.124V133.016C231.061 132.512 231.169 132.086 231.385 131.738C231.601 131.39 231.889 131.108 232.249 130.892C232.621 130.676 233.041 130.526 233.509 130.442C233.989 130.346 234.475 130.298 234.967 130.298C235.519 130.298 236.029 130.358 236.497 130.478C236.977 130.598 237.391 130.778 237.739 131.018C238.099 131.258 238.381 131.558 238.585 131.918C238.789 132.278 238.897 132.704 238.909 133.196L238.927 133.358H236.821L236.803 133.232C236.803 133.016 236.755 132.824 236.659 132.656C236.563 132.488 236.425 132.344 236.245 132.224C236.077 132.104 235.879 132.014 235.651 131.954C235.435 131.894 235.189 131.864 234.913 131.864C234.685 131.864 234.463 131.882 234.247 131.918C234.043 131.954 233.863 132.02 233.707 132.116C233.551 132.2 233.425 132.314 233.329 132.458C233.245 132.59 233.203 132.758 233.203 132.962V133.052C233.203 133.304 233.287 133.508 233.455 133.664C233.623 133.82 233.839 133.946 234.103 134.042C234.379 134.138 234.691 134.222 235.039 134.294C235.399 134.366 235.759 134.444 236.119 134.528C236.491 134.6 236.851 134.696 237.199 134.816C237.559 134.924 237.871 135.08 238.135 135.284C238.411 135.476 238.633 135.728 238.801 136.04C238.969 136.34 239.053 136.718 239.053 137.174V137.282C239.053 137.81 238.945 138.266 238.729 138.65C238.525 139.022 238.237 139.328 237.865 139.568C237.505 139.796 237.073 139.964 236.569 140.072C236.077 140.18 235.543 140.234 234.967 140.234ZM242.603 140.162C242.207 140.162 241.883 140.042 241.631 139.802C241.391 139.55 241.271 139.244 241.271 138.884C241.271 138.692 241.301 138.518 241.361 138.362C241.433 138.206 241.523 138.068 241.631 137.948C241.739 137.828 241.877 137.738 242.045 137.678C242.213 137.618 242.399 137.588 242.603 137.588C242.819 137.588 243.005 137.624 243.161 137.696C243.329 137.756 243.473 137.846 243.593 137.966C243.713 138.074 243.803 138.212 243.863 138.38C243.923 138.536 243.953 138.704 243.953 138.884C243.953 139.064 243.923 139.232 243.863 139.388C243.815 139.544 243.731 139.682 243.611 139.802C243.491 139.91 243.347 139.994 243.179 140.054C243.011 140.126 242.819 140.162 242.603 140.162ZM242.603 133.052C242.207 133.052 241.883 132.932 241.631 132.692C241.391 132.44 241.271 132.134 241.271 131.774C241.271 131.582 241.301 131.408 241.361 131.252C241.433 131.096 241.523 130.958 241.631 130.838C241.739 130.718 241.877 130.628 242.045 130.568C242.213 130.508 242.399 130.478 242.603 130.478C242.819 130.478 243.005 130.514 243.161 130.586C243.329 130.646 243.473 130.736 243.593 130.856C243.713 130.964 243.803 131.102 243.863 131.27C243.923 131.426 243.953 131.594 243.953 131.774C243.953 131.954 243.923 132.122 243.863 132.278C243.815 132.434 243.731 132.572 243.611 132.692C243.491 132.8 243.347 132.89 243.179 132.962C243.011 133.022 242.819 133.052 242.603 133.052Z" fill="white" fill-opacity="0.3"/>
<rect x="195" y="165" width="75" height="28" rx="14" fill="white" fill-opacity="0.1"/>
<path d="M228.442 183.256C227.748 183.256 227.135 183.171 226.602 183C226.068 182.819 225.626 182.563 225.274 182.232C224.932 181.891 224.671 181.485 224.49 181.016C224.308 180.547 224.218 180.019 224.218 179.432V179.288H226.042V179.384C226.042 179.725 226.09 180.04 226.186 180.328C226.282 180.616 226.42 180.861 226.602 181.064C226.783 181.267 227.012 181.421 227.29 181.528C227.578 181.635 227.908 181.688 228.282 181.688C228.655 181.688 228.97 181.64 229.226 181.544C229.492 181.448 229.716 181.32 229.898 181.16C230.079 180.989 230.212 180.792 230.298 180.568C230.383 180.333 230.426 180.072 230.426 179.784V179.704C230.426 179.373 230.372 179.096 230.266 178.872C230.159 178.637 230.015 178.451 229.834 178.312C229.652 178.163 229.434 178.056 229.178 177.992C228.922 177.928 228.639 177.896 228.33 177.896H227.626V176.456H228.09C228.378 176.456 228.639 176.429 228.874 176.376C229.119 176.323 229.327 176.232 229.498 176.104C229.668 175.965 229.802 175.789 229.898 175.576C229.994 175.363 230.042 175.101 230.042 174.792V174.696C230.042 174.44 229.999 174.216 229.914 174.024C229.828 173.821 229.711 173.656 229.562 173.528C229.412 173.389 229.226 173.288 229.002 173.224C228.788 173.149 228.543 173.112 228.266 173.112C227.924 173.112 227.626 173.16 227.37 173.256C227.114 173.352 226.9 173.496 226.73 173.688C226.559 173.869 226.436 174.099 226.362 174.376C226.287 174.643 226.25 174.952 226.25 175.304V175.48H224.426V175.272C224.426 174.696 224.511 174.179 224.682 173.72C224.852 173.261 225.098 172.872 225.418 172.552C225.748 172.232 226.154 171.987 226.634 171.816C227.114 171.635 227.668 171.544 228.298 171.544C228.831 171.544 229.322 171.603 229.77 171.72C230.228 171.837 230.618 172.019 230.938 172.264C231.268 172.499 231.524 172.803 231.706 173.176C231.887 173.549 231.978 173.997 231.978 174.52V174.616C231.978 174.904 231.94 175.176 231.866 175.432C231.791 175.688 231.674 175.917 231.514 176.12C231.364 176.323 231.183 176.499 230.97 176.648C230.756 176.797 230.506 176.915 230.218 177V177.048C230.58 177.123 230.895 177.245 231.162 177.416C231.428 177.576 231.652 177.779 231.834 178.024C232.015 178.259 232.148 178.525 232.234 178.824C232.319 179.112 232.362 179.416 232.362 179.736V179.832C232.362 180.429 232.266 180.941 232.074 181.368C231.882 181.795 231.61 182.152 231.258 182.44C230.906 182.717 230.49 182.92 230.01 183.048C229.54 183.187 229.018 183.256 228.442 183.256ZM233.236 183L236.084 178.632L233.46 174.584H235.508L237.572 177.864H237.044L239.092 174.584H241.124L238.484 178.632L241.348 183H239.268L236.996 179.464L237.524 179.448L235.268 183H233.236Z" fill="white"/>
</svg>
