<svg width="24" height="24" viewBox="0 0 24 24" fill="none" xmlns="http://www.w3.org/2000/svg">
<path fill-rule="evenodd" clip-rule="evenodd" d="M8.72713 3C8.61794 3.00001 8.50985 3.02188 8.40923 3.06432C8.30862 3.10675 8.21752 3.1689 8.1413 3.2471L3.23212 8.28391C3.08316 8.4367 2.99978 8.64163 2.99976 8.85502V15.2729C2.9998 15.4899 3.08604 15.698 3.23949 15.8514L8.14867 20.7606C8.30207 20.914 8.51015 21.0003 8.72713 21.0003H15.2727C15.4897 21.0003 15.6978 20.914 15.8512 20.7606L20.7604 15.8514C20.9138 15.698 21 15.4899 21.0001 15.2729V8.85502C21.0001 8.64163 20.9167 8.4367 20.7677 8.28391L15.8585 3.2471C15.7823 3.1689 15.6912 3.10675 15.5906 3.06432C15.49 3.02188 15.3819 3.00001 15.2727 3H8.72713ZM8.72713 11.182C8.51013 11.182 8.30202 11.2682 8.14858 11.4216C7.99514 11.5751 7.90894 11.7832 7.90894 12.0002C7.90894 12.2172 7.99514 12.4253 8.14858 12.5787C8.30202 12.7322 8.51013 12.8184 8.72713 12.8184H15.2727C15.4897 12.8184 15.6978 12.7322 15.8513 12.5787C16.0047 12.4253 16.0909 12.2172 16.0909 12.0002C16.0909 11.7832 16.0047 11.5751 15.8513 11.4216C15.6978 11.2682 15.4897 11.182 15.2727 11.182H8.72713Z" fill="white" fill-opacity="0.5"/>
</svg>
