<svg width="176" height="58" viewBox="0 0 176 58" fill="none" xmlns="http://www.w3.org/2000/svg">
<path fill-rule="evenodd" clip-rule="evenodd" d="M13.7375 0.690186H162.262C169.503 0.690186 175.373 6.55987 175.373 13.8005V44.1995C175.373 51.4401 169.503 57.3098 162.262 57.3098H13.7375C6.49688 57.3098 0.627197 51.4401 0.627197 44.1995V13.8005C0.627197 6.55987 6.49688 0.690186 13.7375 0.690186ZM125.195 27.2375C126.283 27.6664 127.24 28.2338 128.064 28.9437L128.066 28.9474C128.89 29.6572 129.559 30.5487 130.07 31.62C130.58 32.6932 130.836 34.0211 130.836 35.6037V37.0889C130.836 38.7708 130.522 40.2466 129.896 41.5165C129.269 42.7863 128.362 43.8257 127.175 44.633C125.987 45.4402 124.603 46.0507 123.019 46.4628C121.434 46.8748 119.67 47.0808 117.724 47.0808C115.48 47.0808 113.503 46.8261 111.787 46.3148C110.071 45.8054 108.654 45.0787 107.532 44.1385C106.41 43.1983 105.569 42.0278 105.009 40.625C104.449 39.224 104.168 37.6489 104.168 35.8996V35.6468H111.838C111.843 36.4222 111.972 37.1245 112.233 37.7557C112.497 38.3999 112.892 38.9356 113.42 39.3645C113.946 39.7953 114.583 40.1324 115.325 40.3796C116.068 40.6268 116.885 40.7504 117.775 40.7504C118.599 40.7504 119.335 40.6849 119.977 40.5519C120.621 40.4208 121.165 40.2054 121.61 39.9095C122.054 39.6117 122.384 39.2334 122.599 38.7708C122.815 38.3082 122.921 37.765 122.921 37.1376V35.8509C122.921 35.0606 122.667 34.4088 122.155 33.8975C121.644 33.3862 120.968 32.9648 120.127 32.6352C119.286 32.3074 118.329 32.0171 117.258 31.7699C116.185 31.5227 115.089 31.2436 113.967 30.9289C112.845 30.6162 111.748 30.2453 110.676 29.8164C109.603 29.3875 108.639 28.8107 107.781 28.084C106.923 27.3573 106.254 26.4677 105.777 25.4114C105.299 24.3569 105.06 23.0534 105.06 21.5026V20.4145C105.06 18.7645 105.382 17.3542 106.024 16.1836C106.666 15.013 107.582 14.0391 108.77 13.2637C109.955 12.4884 111.317 11.9115 112.851 11.5313C114.385 11.153 116.042 10.962 117.823 10.962C119.902 10.962 121.715 11.2279 123.266 11.7542C124.817 12.2824 126.111 13.024 127.15 13.9811C128.19 14.9381 128.98 16.0581 129.525 17.3448C130.07 18.6315 130.342 20.0156 130.342 21.5008V23.0834H122.624V21.8473C122.624 21.0887 122.507 20.4295 122.277 19.8676C122.047 19.3057 121.717 18.845 121.288 18.4817C120.859 18.1202 120.34 17.8318 119.73 17.6164C119.119 17.401 118.419 17.2942 117.627 17.2942C116.966 17.2942 116.347 17.3691 115.771 17.5171C115.192 17.6651 114.69 17.8804 114.261 18.1595C113.832 18.4404 113.503 18.7869 113.272 19.199C113.042 19.611 112.926 20.098 112.926 20.658V21.4989C112.926 22.323 113.18 22.9747 113.692 23.4523C114.203 23.9299 114.879 24.327 115.72 24.6397C116.561 24.9544 117.526 25.2185 118.614 25.432C119.702 25.6455 120.799 25.8946 121.904 26.1737C123.009 26.4546 124.107 26.8086 125.195 27.2375ZM92.917 33.6202C92.917 34.5773 92.8346 35.4688 92.6697 36.2928C92.5049 37.1169 92.224 37.8267 91.8288 38.4205C91.4336 39.0142 90.8811 39.4936 90.1713 39.8551C89.4615 40.2184 88.5625 40.4001 87.4743 40.4001C86.3862 40.4001 85.4216 40.2278 84.6781 39.8813C83.9364 39.5348 83.367 39.0572 82.97 38.4467C82.5748 37.8361 82.3014 37.1188 82.1534 36.2947C82.0054 35.4706 81.9305 34.596 81.9305 33.6726V11.6998H74.3603V34.0641C74.3603 35.7459 74.5326 37.248 74.8791 38.5665C75.2255 39.8869 75.7125 41.0238 76.3381 41.9808C76.9636 42.9379 77.6978 43.7376 78.5406 44.38C79.3815 45.0224 80.288 45.5431 81.2619 45.9383C82.2339 46.3334 83.2416 46.6219 84.281 46.8035C85.3205 46.9852 86.3506 47.0751 87.3732 47.0751C88.3958 47.0751 89.4839 46.9833 90.5403 46.8035C91.5947 46.6219 92.6098 46.326 93.5837 45.9139C94.5558 45.5019 95.4641 44.9737 96.305 44.3313C97.146 43.6889 97.8708 42.8892 98.4813 41.9321C99.0919 40.9751 99.5695 39.8457 99.916 38.5422C100.262 37.2386 100.435 35.7459 100.435 34.0641V11.6998H92.9132V33.6183L92.917 33.6202ZM67.008 29.0188C67.8002 29.4477 68.4595 29.9759 68.9876 30.6014L68.9858 30.6033C69.512 31.2288 69.9166 31.9555 70.1975 32.7796C70.4785 33.6055 70.6189 34.4952 70.6189 35.4522V37.1341C70.6189 38.6848 70.3642 40.0371 69.8529 41.1908C69.3416 42.3445 68.5906 43.3015 67.6017 44.0601C66.6109 44.8186 65.3992 45.3879 63.9645 45.7663C62.5299 46.1465 60.8724 46.3356 58.992 46.3356H44.7429V11.702H59.2392C60.8555 11.702 62.2995 11.8593 63.5693 12.1721C64.8392 12.4848 65.9105 12.9718 66.7851 13.6311C67.6579 14.2922 68.334 15.1406 68.8135 16.1801C69.291 17.2195 69.5308 18.4482 69.5308 19.8659V21.2013C69.5308 22.0928 69.3997 22.9169 69.1356 23.6754C68.8715 24.4339 68.5082 25.1026 68.0474 25.6794C67.5848 26.2563 67.0323 26.7357 66.3899 27.1141C65.7475 27.4943 65.0302 27.7995 64.238 28.0299V28.1292C65.2924 28.294 66.2157 28.5899 67.008 29.0188ZM57.4094 17.787H52.2139H52.2121V25.9997H57.2595C58.0181 25.9997 58.6942 25.9341 59.2879 25.8012C59.8835 25.6701 60.3779 25.464 60.7731 25.1831C61.1701 24.904 61.4661 24.5482 61.6646 24.1193C61.8612 23.6904 61.9605 23.1473 61.9605 22.4861V21.2987C61.9605 20.6057 61.8631 20.0457 61.6646 19.6168C61.4661 19.1879 61.187 18.834 60.8237 18.553C60.4603 18.274 59.9902 18.0754 59.4134 17.9593C58.8365 17.8451 58.1679 17.787 57.4094 17.787ZM62.4812 38.2709C62.7284 37.7428 62.852 37.1172 62.852 36.3905V36.3887V34.8548C62.852 34.0307 62.7359 33.3695 62.5055 32.8751C62.2752 32.3807 61.9193 31.993 61.4417 31.712C60.9641 31.433 60.4023 31.2344 59.7599 31.1183C59.1156 31.0041 58.3814 30.946 57.5573 30.946H52.2139V40.2487H57.6079C58.4001 40.2487 59.1174 40.1925 59.7599 40.0764C60.4023 39.9622 60.9548 39.7636 61.4174 39.4827C61.8781 39.2036 62.234 38.7991 62.4812 38.2709ZM37.2699 29.0004L15.342 46.3007V11.6866L37.2699 29.0004ZM153.13 11.6998V13.6982H153.12V19.9668C153.098 20.7515 153.021 21.4932 152.882 22.1843C152.718 23.0084 152.437 23.7182 152.041 24.3119C151.646 24.9056 151.094 25.3851 150.384 25.7465C149.674 26.1099 148.775 26.2915 147.687 26.2915C146.599 26.2915 145.634 26.1192 144.891 25.7728C144.149 25.4263 143.58 24.9487 143.183 24.3381C142.787 23.7275 142.514 23.0102 142.366 22.1861C142.218 21.3621 142.143 20.4874 142.143 19.5641V11.7017H134.573V19.9593C134.573 21.6411 134.745 23.1432 135.092 24.4617C135.438 25.7821 135.925 26.919 136.551 27.876C137.176 28.8331 137.91 29.6328 138.753 30.2752C139.594 30.9176 140.501 31.4383 141.475 31.8335C142.447 32.2286 143.454 32.5171 144.494 32.6987C145.533 32.8804 146.563 32.9703 147.586 32.9703C148.608 32.9703 149.697 32.8785 150.753 32.6987C151.566 32.5583 152.354 32.3504 153.118 32.0732V37.1319C153.118 37.7593 153.012 38.3025 152.796 38.7651C152.581 39.2277 152.251 39.606 151.807 39.9038C151.362 40.1997 150.818 40.4151 150.174 40.5462C149.532 40.6792 149.005 40.7447 148.181 40.7447C147.292 40.7447 146.475 40.6211 145.732 40.3739C144.99 40.1267 144.353 39.7895 143.827 39.3588C143.299 38.9299 142.904 38.3942 142.64 37.7499C142.379 37.1188 142.25 36.4164 142.244 35.6411H134.575V35.8939C134.575 37.6432 134.856 39.2183 135.416 40.6192C135.976 42.022 136.817 43.1926 137.939 44.1328C139.06 45.073 140.478 45.7997 142.194 46.3091C143.909 46.8204 145.887 47.0751 148.131 47.0751C150.077 47.0751 151.247 46.8691 152.832 46.4571C154.416 46.045 155.8 45.4345 156.988 44.6272C158.175 43.82 159.082 42.7806 159.709 41.5107C160.335 40.2409 160.649 38.7651 160.649 37.0832V11.6998H153.13Z" fill="white"/>
</svg>
