<svg width="48" height="48" viewBox="0 0 48 48" fill="none" xmlns="http://www.w3.org/2000/svg">
<path d="M24 42.7098C21.4386 42.7098 19.0373 42.2236 16.7961 41.2512C14.5549 40.2907 12.5805 38.9566 10.8729 37.249C9.17718 35.5533 7.84905 33.5908 6.88853 31.3614C5.92801 29.1202 5.44776 26.7189 5.44776 24.1575C5.44776 21.5961 5.92801 19.1948 6.88853 16.9536C7.84905 14.7124 9.17718 12.7439 10.8729 11.0482C12.5805 9.34061 14.5549 8.00656 16.7961 7.04604C19.0373 6.08552 21.4386 5.60526 24 5.60526C26.5614 5.60526 28.9627 6.08552 31.2039 7.04604C33.4451 8.00656 35.4136 9.34061 37.1093 11.0482C38.805 12.7439 40.1332 14.7124 41.0937 16.9536C42.0661 19.1948 42.5522 21.5961 42.5522 24.1575C42.5522 26.7189 42.0661 29.1202 41.0937 31.3614C40.1332 33.5908 38.805 35.5533 37.1093 37.249C35.4136 38.9566 33.4451 40.2907 31.2039 41.2512C28.9627 42.2236 26.5614 42.7098 24 42.7098ZM33.2494 26.3098C33.2494 24.9105 32.9411 23.6891 32.3245 22.6456C31.7197 21.6021 30.86 20.7898 29.7453 20.2087C28.6425 19.6277 27.3559 19.3371 25.8855 19.3371H20.6382L19.0017 19.4438L20.1757 18.5545L21.9545 16.8825C22.2746 16.6097 22.4347 16.2658 22.4347 15.8508C22.4347 15.4239 22.2806 15.0622 21.9722 14.7658C21.6758 14.4693 21.326 14.3211 20.9228 14.3211C20.5077 14.3211 20.152 14.4634 19.8555 14.748L15.0529 19.6217C14.7209 19.9893 14.5549 20.3866 14.5549 20.8135C14.5549 21.2641 14.7209 21.6613 15.0529 22.0052L19.8733 26.8968C20.1579 27.1814 20.5196 27.3237 20.9584 27.3237C21.3497 27.3237 21.6936 27.1754 21.99 26.879C22.2865 26.5707 22.4347 26.209 22.4347 25.7939C22.4347 25.3908 22.2746 25.0409 21.9545 24.7445L19.9267 22.8946L19.0195 22.272L20.6382 22.361H25.8855C27.1662 22.361 28.1919 22.7286 28.9627 23.4638C29.7335 24.1872 30.1189 25.1358 30.1189 26.3098C30.1189 27.5549 29.7275 28.5569 28.9449 29.3158C28.1741 30.0748 27.1602 30.4542 25.9033 30.4542H23.3419C22.832 30.4542 22.4229 30.5965 22.1145 30.8811C21.8181 31.1657 21.6699 31.5333 21.6699 31.984C21.6699 32.4583 21.824 32.8437 22.1323 33.1401C22.4406 33.4247 22.8497 33.567 23.3597 33.567H25.9033C27.3618 33.567 28.6425 33.2646 29.7453 32.6599C30.86 32.0551 31.7197 31.2132 32.3245 30.1341C32.9411 29.0431 33.2494 27.7683 33.2494 26.3098Z" fill="white" fill-opacity="0.3"/>
</svg>
