<svg width="48" height="48" viewBox="0 0 48 48" fill="none" xmlns="http://www.w3.org/2000/svg">
<path fill-rule="evenodd" clip-rule="evenodd" d="M18 24.5C18 26.433 16.433 28 14.5 28C12.567 28 11 26.433 11 24.5C11 22.567 12.567 21 14.5 21C16.433 21 18 22.567 18 24.5ZM28 24.5C28 26.433 26.433 28 24.5 28C22.567 28 21 26.433 21 24.5C21 22.567 22.567 21 24.5 21C26.433 21 28 22.567 28 24.5ZM34.5 28C36.433 28 38 26.433 38 24.5C38 22.567 36.433 21 34.5 21C32.567 21 31 22.567 31 24.5C31 26.433 32.567 28 34.5 28Z" fill="white" fill-opacity="0.3"/>
</svg>
