<svg width="216" height="95" viewBox="0 0 216 95" fill="none" xmlns="http://www.w3.org/2000/svg">
<g clip-path="url(#clip0_1745_36354)">
<path d="M195.754 5.92261C203.633 5.92261 210.045 12.3489 210.045 20.2457V58.8964C210.045 66.7932 203.633 73.2195 195.754 73.2195H20.2457C12.3665 73.2195 5.95459 66.7932 5.95459 58.8964V20.2457C5.95459 12.3489 12.3665 5.92261 20.2457 5.92261H195.754Z" fill="black"/>
<path d="M85.3438 38.7796C87.6637 37.1515 88.6284 35.1201 88.6284 31.9761V30.5773C88.6284 23.886 85.3867 20.7708 78.4293 20.7708H60.2153V58.4738H79.413C86.2751 58.4738 89.6121 55.2654 89.6121 48.6673V46.6979C89.6121 42.611 88.3259 40.1904 85.3438 38.782V38.7796ZM67.6348 36.1107V27.3212H76.6215C80.1823 27.3212 81.2137 28.2713 81.2137 31.5608V32.2865C81.2137 35.533 80.0108 36.1107 76.6215 36.1107H67.6348ZM82.195 46.643V47.7315C82.195 50.9804 81.1113 51.9711 77.5528 51.9711H67.6348V42.4558H77.5528C81.1541 42.4558 82.195 43.394 82.195 46.643Z" fill="white"/>
<path d="M115.522 20.7684V48.2496C115.522 51.4985 114.45 52.4892 110.93 52.4892H105.449C101.89 52.4892 100.807 51.4985 100.807 48.2496V20.7684H93.3896V49.2331C93.3896 55.7978 96.7433 58.9871 103.641 58.9871H112.742C116.232 58.9871 118.747 58.2017 120.433 56.588C122.119 54.9719 122.939 52.568 122.939 49.2331V20.7684H115.522Z" fill="white"/>
<path d="M148.73 36.6884L139.786 35.3922C135.582 34.7691 135.125 34.0768 135.125 31.6157V30.9926C135.125 27.7437 136.223 26.753 139.819 26.753H145.662C149.223 26.753 150.254 27.6434 150.254 30.7253V31.2027H157.671V29.9041C157.671 23.3751 154.334 20.2002 147.472 20.2002H137.904C131.042 20.2002 127.705 23.4086 127.705 30.0067V33.2198C127.705 38.8297 130.199 41.2766 136.904 42.2434L145.853 43.5396C149.854 44.1054 150.459 44.8955 150.459 47.3161V48.197C150.459 51.4459 149.387 52.4366 145.867 52.4366H139.557C135.999 52.4366 134.915 51.4579 134.915 48.2352V47.7577H127.515L127.508 48.228C127.508 48.228 127.498 48.8702 127.498 49.2354C127.498 55.7643 130.852 58.9393 137.75 58.9393H147.679C151.169 58.9393 153.684 58.1539 155.37 56.5402C157.057 54.924 157.876 52.5202 157.876 49.1853V45.7645C157.876 40.0305 155.482 37.6552 148.727 36.6884H148.73Z" fill="white"/>
<path d="M184.409 20.7683V33.4967C184.409 36.7457 183.338 37.7363 179.817 37.7363H174.337C170.778 37.7363 169.694 36.7457 169.694 33.4967V20.7683H162.277V34.4802C162.277 41.045 165.631 44.2342 172.529 44.2342H181.63C182.637 44.2342 183.561 44.1674 184.412 44.0337V48.1993C184.412 51.4483 183.34 52.439 179.82 52.439H174.351C170.792 52.439 169.709 51.4602 169.709 48.2375V47.7601H162.275L162.292 49.2378C162.292 55.7667 165.645 58.9416 172.543 58.9416H181.632C185.122 58.9416 187.637 58.1562 189.323 56.5425C191.009 54.9264 191.829 52.5225 191.829 49.1876V20.7683H184.412H184.409Z" fill="white"/>
<path d="M50.6859 39.6057L24.1831 20.7542V58.4596L50.6859 39.6057Z" fill="white"/>
<path d="M195.754 0H20.2457C9.0653 0 0 9.08559 0 20.291V35.2633V74.7066C0 85.912 9.0653 94.9976 20.2457 94.9976H195.754C206.935 94.9976 216 85.912 216 74.7066V20.291C216 9.08559 206.935 0 195.754 0ZM210.045 20.8926V58.9417C210.045 66.8385 203.633 73.2648 195.754 73.2648H20.2457C12.3665 73.2648 5.95461 66.8385 5.95461 58.9417V20.291C5.95461 12.3942 12.3665 5.96794 20.2457 5.96794H195.754C203.633 5.96794 210.045 12.3942 210.045 20.291V20.8926Z" fill="white"/>
</g>
<defs>
<clipPath id="clip0_1745_36354">
<rect width="216" height="95" fill="black"/>
</clipPath>
</defs>
</svg>
