<svg width="64" height="64" viewBox="0 0 64 64" fill="none" xmlns="http://www.w3.org/2000/svg">
<path d="M43.9401 11.1523H51.5858L51.6177 11.1842V12.6496L53.115 12.6815V14.2106H54.6123L54.676 14.2425V15.7716H56.2051V17.2689H57.0971L57.7342 17.3008L57.7661 17.9379V20.8369L57.7342 21.8563L56.237 21.8882L56.2051 23.4173H54.676V24.9146L54.6441 24.9464L53.1468 24.9783L53.115 26.4437L53.0831 26.4756L51.6495 26.5074L51.6177 26.5393V27.941L51.5858 27.9729L50.9805 28.0047H50.0886V29.502L48.5913 29.5339L48.5594 30.9993L48.4957 31.0311H47.0621V31.6046L47.0303 32.5603L45.5011 32.5921L45.4693 34.0894L45.1826 34.1213L43.972 34.1531L43.9401 35.6504L43.7171 35.6823H42.411V37.1477L42.3792 37.1795L40.9137 37.2114V38.6768L40.8819 38.7087H39.4164L39.3846 40.1741L39.3527 40.206L37.8873 40.2378L37.8555 41.7351H36.3263V43.2642L36.2945 43.2961L34.7653 43.3279V44.8252L34.6379 44.8571H33.2362V46.3225L33.2043 46.3544L31.7708 46.3862L31.7389 46.5136L31.707 47.8516L31.6752 47.8835L30.2098 47.9154V49.3489L30.1779 49.3808L28.7125 49.4126L28.6806 50.9099H22.5322L22.5004 50.5276L22.4685 49.4126L21.0031 49.3808L20.9712 49.1578V47.8835H19.5058L19.4739 47.8516L19.4421 46.3544H17.9767L17.9448 45.9084V44.8571H16.6387L16.4475 44.8252L16.4157 44.6659L16.3838 43.3279L14.9184 43.2961L14.8865 43.2324V41.7351H13.3574L13.3255 40.206H11.8283L11.7964 39.9511V38.7087H10.331L10.2673 38.5494V37.2114L8.80184 37.1795L8.76999 37.1477L8.73813 35.6823H7.30456L7.27271 35.6504V31.0311L8.73813 30.9993L8.76999 29.502L10.2673 29.4701V27.9729L11.7964 27.941L11.8283 26.4756L11.8601 26.4437H13.3255L13.3574 24.9464L13.4848 24.9146H17.3077L17.9767 24.9464V26.4437H19.5058L19.5377 27.9091L19.9837 27.941L20.9712 27.9729L21.0349 28.0366V29.4701H22.5004L22.5641 29.5339V30.9674L23.8065 30.9993H25.5586L25.5905 29.502L25.6224 29.4701H27.0878L27.1196 28.0047L27.1515 27.9729H28.6488V26.4756L28.6806 26.4437H30.1461L30.1779 24.9464L31.5159 24.9146H31.6752V23.4173L33.1725 23.3854L33.2043 21.9837L33.2362 21.8563H34.7653V20.3272L34.7972 20.2953L36.2945 20.3272V18.9573L36.3263 18.798L37.8236 18.7662V17.3008L37.8555 17.2689H39.3527V15.8353L39.3846 15.7716H40.85L40.8819 14.2106H42.3792V12.8089L42.411 12.6815L43.9083 12.6496V11.3435L43.9401 11.1523Z" fill="#1AD110"/>
<path d="M44.004 11.1836H50.0569L50.0887 11.2155L50.0569 12.7127H48.5277V14.21L46.9986 14.2419V15.771L45.5013 15.8029L45.4694 17.3001H43.9403V18.8293H42.4112V20.3266L41.6785 20.3584H40.882V21.8876H39.3848L39.3529 23.3848L37.8238 23.4167V24.914L36.2946 24.9458V26.3475L36.2628 26.4431L34.7973 26.475L34.7655 28.0041H33.2363V29.5014L33.2045 29.5332H31.7072V30.3297L31.6754 31.0305L30.6878 31.0624H30.1781V32.1137L30.1462 32.5597L28.6489 32.5915V34.0251L28.6171 34.1207L25.6225 34.0888L25.5907 33.8658V32.5915H24.0934L24.0615 31.0624L25.2402 31.0305L25.5588 30.9987L25.5907 29.5014L25.6225 29.4695H27.0879L27.1198 28.0041L27.1517 27.9723H28.6489V26.475L28.6808 26.4431H30.1462L30.1781 24.9458L31.5161 24.914H31.6754V23.4167L33.1726 23.3848L33.2045 21.9831L33.2363 21.8557H34.7655V20.3266L34.7973 20.2947L36.2946 20.3266V18.9567L36.3265 18.7974L37.8238 18.7656V17.3001L37.8556 17.2683H39.3529V15.8347L39.3848 15.771H40.8502L40.882 14.21H42.3793V12.8083L42.4112 12.6809H43.9722V11.2155L44.004 11.1836Z" fill="#17A40C"/>
<path d="M13.3893 24.9141L16.4157 24.9459L16.4475 24.9778V25.4238L16.4157 26.4751L15.014 26.5069L14.9184 26.5706L14.8865 28.0042L13.3893 28.0361V29.5333L13.3574 29.5652H11.8601L11.8283 31.0625L11.2548 31.0943H10.331V31.8589L10.3628 34.0889H11.8283L11.8601 34.1845V34.8216L11.892 35.5862L12.7203 35.618H13.3255L13.3893 35.7136V37.0835L13.5804 37.1153H14.8547L14.9184 37.2109V38.5489L14.9502 38.6444H16.4157L16.4794 38.6763V40.2054H17.9448L17.9767 40.2373V41.1293L18.0085 41.7027H19.4421L19.5058 41.8301V43.2L20.9394 43.2319L21.0349 43.3274V44.2194L21.0668 44.7291L21.1624 44.761H22.0544L22.4048 44.7291L22.5641 44.7929L22.5959 44.9203V46.2264L22.6278 46.322L23.6472 46.2901L24.0295 46.322L24.0932 46.3538V47.2458L24.1251 47.8193L25.5586 47.8511L25.5905 47.883L25.6224 49.221L25.6542 49.3484L27.1196 49.3803L27.1515 49.6351V50.6864L27.1196 50.8775L22.5322 50.9094L22.5004 50.5271L22.4685 49.4121L21.0031 49.3803L20.9712 49.1573V47.883H19.5058L19.4739 47.8511L19.4421 46.3538H17.9767L17.9448 45.9078V44.8566H16.6387L16.4475 44.8247L16.4157 44.6654L16.3838 43.3274L14.9184 43.2956L14.8865 43.2319V41.7346H13.3574L13.3255 40.2054H11.8283L11.7964 39.9506V38.7082H10.331L10.2673 38.5489V37.2109L8.80184 37.179L8.76999 37.1472L8.73813 35.6817H7.30456L7.27271 35.6499V31.0306L8.73813 30.9988L8.76999 29.5015L10.2673 29.4696V27.9723L11.7964 27.9405L11.8283 26.4751L11.8601 26.4432H13.3255L13.3574 24.9459L13.3893 24.9141Z" fill="#19A50E"/>
<path d="M13.3892 24.9141L16.4156 24.9459L16.4475 24.9778V25.4238L16.4156 26.4751L15.0139 26.5069L14.9183 26.5706L14.8865 26.8573L14.8546 27.9723L13.3573 28.0042L13.3255 28.2591V29.5015L11.9875 29.5333L11.7963 29.597V30.9988L11.7326 31.0306H11.1273L10.2991 31.0625L10.2672 31.1262V31.7315L10.2354 33.9615L10.1398 34.0889L9.91678 34.1207H8.80178L8.76993 32.7509V32.6235H7.81422L7.3045 32.6553V31.0943L7.33636 31.0625H8.76993V29.5015L10.2672 29.4696V27.9723L11.7963 27.9405L11.8282 26.4751L11.8601 26.4432H13.3255L13.3573 24.9459L13.3892 24.9141Z" fill="#068A10"/>
<path d="M14.0901 24.9141H17.3077L17.9767 24.9459V26.4432H19.5058L19.5377 27.9086L19.9837 27.9405L20.9713 27.9723L21.035 28.0361V29.4696H22.5004L22.5641 29.5333V30.9669L25.2401 31.0306V31.0625L24.0933 31.0943V32.5916L24.157 32.5597H25.2401L25.5905 32.5916L25.6224 34.0889H28.3621L28.6807 34.1526L28.617 35.6499L28.4577 35.6817L25.8135 35.6499L25.5905 35.5862L25.5587 34.1526L24.157 34.1207L24.0933 34.0889L24.0295 32.6235L23.8065 32.5916H22.596L22.5641 32.5597L22.5004 31.1262L22.4367 31.0943L21.5128 31.0625L21.035 31.0306L20.9713 29.597L20.8438 29.5015H19.5696L19.5377 29.4696L19.474 28.5139V28.0361L19.3466 28.0042L18.0404 27.9723L18.0086 27.7812L17.9767 26.7936L17.9448 26.4751L16.4476 26.4432L16.4157 26.4113V24.9778L14.0901 24.9459V24.9141Z" fill="#27F219"/>
<path d="M43.9401 11.1523H51.5858L51.6177 11.1842V12.6496L51.6495 12.7452L51.554 12.7771L51.0761 12.7452L50.1522 12.7133L50.0885 12.9045L50.0567 14.2106H48.655L48.5275 14.1788V12.7133L48.655 12.6815H49.4832L50.0567 12.7133V11.2161H44.0038L43.972 12.6815L43.9083 12.6496V11.3435L43.9401 11.1523Z" fill="#2BEF1E"/>
<path d="M34.7653 26.4746H36.2945L36.3263 26.5065V27.3666L36.2945 28.0037H34.7972L34.7653 27.9719V26.4746Z" fill="#21F213"/>
<path d="M42.5065 18.7988H43.9082L43.9401 18.8625V20.328L43.9082 20.3598H42.9207L42.4428 20.328L42.4109 20.2324V18.8307L42.5065 18.7988Z" fill="#21F113"/>
<path d="M44.45 17.2695H45.4057L45.5013 17.3332L45.4694 18.512L45.4376 18.7987L45.3739 18.8305H44.2907L43.9722 18.7987L43.9403 18.735V17.3014L44.45 17.2695Z" fill="#21F213"/>
<path d="M40.8822 20.3594H42.4113L42.4432 20.3912V21.3151L42.4113 21.8567L41.9016 21.8885H40.9141L40.8822 21.8567V20.3594Z" fill="#21F213"/>
<path d="M36.3901 24.9141H37.7918L37.8236 24.9459V26.4432L37.5688 26.4751H36.7405L36.2945 26.4432V24.9459L36.3901 24.9141Z" fill="#21F213"/>
<path d="M39.9579 21.8555H40.5951L40.8499 21.8873L40.9137 21.9829L40.8818 23.4165H39.7987L39.3527 23.3846V21.951L39.3845 21.8873L39.9579 21.8555Z" fill="#21F213"/>
<path d="M37.8236 23.418H39.3527L39.3846 23.4498L39.3527 24.9152L39.3209 24.9471H38.0466L37.8236 24.9152L37.7917 24.8515L37.8236 23.418Z" fill="#21F213"/>
<path d="M28.6489 32.5918H30.178V34.0891L30.1461 34.1209H28.6489V32.5918Z" fill="#21F213"/>
<path d="M46.9985 14.2422H48.5277V15.7395L48.3684 15.7713H47.126L46.9985 15.7395V14.2422Z" fill="#21F213"/>
<path d="M48.655 12.6816H50.0886L50.1204 12.7772L50.0886 12.9046L50.0567 14.2108H48.655L48.5276 14.1789V12.7135L48.655 12.6816Z" fill="#21F213"/>
<path d="M33.3638 27.9727H34.3195L34.7337 28.0045L34.7974 28.0364L34.7337 29.5018L34.4788 29.5337L33.2364 29.5018V28.0045L33.3638 27.9727Z" fill="#21F213"/>
<path d="M45.5012 15.7734H46.9348L47.0304 15.869L46.9985 16.3469L46.9666 17.2707L46.9348 17.3026H46.0428L45.4694 17.2707V15.8053L45.5012 15.7734Z" fill="#21F213"/>
<path d="M31.7069 29.5352H33.2042L33.2679 29.5989L33.236 31.0006L33.2042 31.0324H31.7388L31.7069 31.0006V29.5352Z" fill="#21F213"/>
<path d="M30.1777 31.0625H31.675V32.5598H30.1777V31.0625Z" fill="#21F213"/>
<path d="M13.74 37.2109H14.8231L14.8549 37.3702V38.6445H14.7912L14.7594 38.7401H14.0585L13.5807 38.7082L13.4214 38.6764L13.3577 38.2622V37.5932L13.4214 37.2747L13.4532 37.2428L13.74 37.2109Z" fill="#04890E"/>
<path d="M14.982 38.7402H16.32L16.3519 38.7721V40.1738L16.2245 40.2375H15.1413L15.0139 40.2057L14.9502 40.2375L14.9183 39.9189V38.7721L14.982 38.7402Z" fill="#04890E"/>
<path d="M11.9239 35.6816H13.2301L13.2938 35.7135V37.0196L13.1982 37.1471L12.9752 37.1789H11.9239L11.8602 37.0515V35.7135L11.9239 35.6816Z" fill="#04890E"/>
<path d="M21.258 44.8574H22.373L22.4686 44.8893V45.2716L22.5005 45.8768L22.4686 46.2273L22.4049 46.3228L22.2775 46.3547H21.2262L21.0669 46.291L21.035 45.7494V44.9211L21.258 44.8574Z" fill="#04890D"/>
<path d="M19.7923 43.3281H20.9073L20.9392 43.36L20.971 44.4113L20.9392 44.6343L20.8755 44.7617L20.6525 44.7935L20.079 44.8254L19.6649 44.7935L19.5375 44.6343L19.4738 44.3794L19.5056 43.4556L19.6012 43.36L19.7923 43.3281Z" fill="#04890E"/>
<path d="M10.6493 34.1543H11.7643V35.5241L11.7006 35.6197L11.2865 35.6516H10.7767L10.4582 35.6197L10.3626 35.4604L10.3307 35.2374V34.5684L10.3626 34.2817L10.4582 34.1862L10.6493 34.1543Z" fill="#04890E"/>
<path d="M16.5752 40.2695H17.8813L17.9132 41.3208L17.8813 41.6712L17.8176 41.735L17.1486 41.7668L16.607 41.735L16.5115 41.6075L16.4796 41.3527V40.3332L16.5752 40.2695Z" fill="#04890E"/>
<path d="M18.0725 41.7988H19.3786L19.4105 41.8307V42.882L19.3149 43.1687H19.2194V43.2324L19.0601 43.2643H18.1999L18.0406 43.1687L18.0088 43.0731L17.9769 41.9263L18.0088 41.8307L18.0725 41.7988Z" fill="#04890E"/>
<path d="M25.75 49.4453H27.0561L27.088 49.7957V50.5603L27.0561 50.7833H26.9287V50.847L27.0561 50.8789H25.6863V50.6559L25.6226 50.3373V49.5727L25.75 49.4453Z" fill="#04890D"/>
<path d="M23.7108 46.3867L23.9657 46.4186L23.9975 46.6416L23.9657 47.1194L23.9975 47.2469V47.5336L23.902 47.7247L23.7108 47.8203L22.787 47.7884L22.6914 47.7566L22.6277 47.661L22.564 47.3106L22.5958 46.5779L22.6595 46.4504L22.7233 46.4186L23.7108 46.3867Z" fill="#04890E"/>
<path d="M24.2208 47.916H25.4314L25.527 47.9797V49.031L25.4314 49.254L25.3358 49.3177H24.3482L24.1571 48.9673L24.1252 48.7762V47.9797L24.2208 47.916Z" fill="#04890E"/>
<path d="M14.8546 26.8574H14.8865V28.0043L13.3892 28.0361V29.5334L13.3573 29.5653H11.8601L11.8282 31.0626L11.2548 31.0944H10.3309V31.4448L10.2991 31.7315L10.2354 31.6997V31.1263L10.2991 31.0307L11.2548 30.9988H11.7963L11.7645 29.5971L11.8282 29.5334L11.9875 29.5016H13.3255L13.2936 28.4821V28.1954L13.3573 28.0043L13.4211 27.9724H14.8546V26.8574Z" fill="#16A40B"/>
<path d="M31.7387 46.3223H32.79V46.3541L31.7705 46.386L31.7387 46.5134L31.675 47.6921L31.6113 47.7877L31.452 47.8195L31.5475 47.6284V46.8001L31.6113 46.7046L31.6431 46.386L31.7387 46.3223Z" fill="#56F44B"/>
<path d="M36.2943 41.7656H36.3262V42.6576L36.2943 43.1036L36.135 43.231H35.7846V43.1992H36.0076V43.1355L36.135 43.1036V42.5939L36.1669 42.4028L36.1987 42.3391V42.0523L36.2625 41.9568L36.2943 41.7656Z" fill="#43F237"/>
<path d="M40.8819 37.1797H41.296V37.2115H40.9137V38.677L40.8819 38.7088H40.7226L40.85 38.6133V38.4858L40.7545 38.6451L40.627 38.677L40.181 38.6451V38.6133L40.627 38.5814L40.6589 38.454H40.7545L40.7863 38.0717L40.8182 38.008H40.8819L40.85 37.2434L40.8819 37.1797Z" fill="#22F314"/>
<path d="M40.8817 14.2109H42.3471V14.2428L40.9773 14.2747L40.9454 15.6126L40.8817 15.7401H40.8499L40.8817 14.2109Z" fill="#7DE477"/>
<path d="M28.6488 49.4141H28.6806V50.9113L28.6169 50.8795V50.4335L28.5851 50.3379V50.0831H28.5214L28.4895 49.8601L28.5532 49.6052L28.6169 49.4778L28.6488 49.4141Z" fill="#80F578"/>
<path d="M50.0249 28.0039L50.0886 28.1313V29.5012L49.993 29.4693L50.0249 29.31L49.9612 29.1826L49.9293 28.9278L49.9612 28.8959V28.5773L49.9293 28.418L49.993 28.3862L50.0249 28.0039Z" fill="#74F76B"/>
<path d="M43.8762 34.2812L43.9399 34.3131V34.9821L43.9081 35.46L43.8125 35.3325L43.7806 34.7272L43.8125 34.5042H43.8762V34.2812Z" fill="#22F314"/>
<path d="M27.1514 27.9727H27.8841V28.0045L27.1832 28.0364V29.3744L27.1514 29.5018L27.0876 29.4699L27.1195 28.0045L27.1514 27.9727Z" fill="#87E681"/>
<path d="M37.8551 17.2695H38.11V17.3014L37.9188 17.3332L37.887 18.6712L37.8232 18.7668V17.3014L37.8551 17.2695Z" fill="#97E993"/>
<path d="M27.0876 49.7949H27.1195L27.1513 50.1772V50.6869L27.1195 50.8781L26.9283 50.8462V50.7825H27.0558V49.8268L27.0876 49.7949Z" fill="#16A40B"/>
<path d="M40.7862 37.3066L40.8181 37.3704H40.8818V38.0075L40.7544 37.9756L40.7225 37.5934L40.7862 37.3066Z" fill="#20ED13"/>
<path d="M40.8818 37.1797H41.296V37.2115H40.9137V38.677L40.8818 38.7088H40.7225L40.85 38.6133V37.2434L40.8818 37.1797Z" fill="#FEFEFE"/>
<path d="M30.178 47.9473H30.2099L30.178 48.457L30.1462 48.7755L30.0506 48.68V48.2658H30.1143V48.0428L30.178 47.9473Z" fill="#39F12D"/>
<path d="M56.0778 15.9629L56.1415 15.9947V16.5045L56.0778 16.7275L56.014 16.6V16.2496L56.0778 15.9629Z" fill="#22F314"/>
<path d="M28.5533 33.8047L28.617 33.8684V34.1233L28.0117 34.0914V34.0595L28.394 34.0277L28.4577 33.9958L28.5533 33.8047Z" fill="#068C0D"/>
<path d="M37.7599 40.4922H37.8236L37.7917 41.193L37.728 41.3842H37.6962V40.97L37.728 40.8745L37.7599 40.4922Z" fill="#22F314"/>
<path d="M31.6755 47.7559L31.7074 47.8514L31.6755 47.8833H30.3375V47.8514L31.6118 47.8196L31.6755 47.7559Z" fill="#FEFEFE"/>
<path d="M54.6439 24.7871L54.6758 24.9145L54.6439 24.9464H53.3696V24.9145L54.5802 24.8827L54.6439 24.7871Z" fill="#FEFEFE"/>
<path d="M33.2041 45.9727H33.2359V46.3231L33.2041 46.3549L32.8536 46.3231V46.2594L33.0766 46.2275L33.1085 46.0682L33.1722 46.1319L33.1085 46.2912H33.1722L33.2041 45.9727Z" fill="#7CF773"/>
<path d="M39.2574 39.6328H39.3211V40.0788L39.1937 40.1744H38.8433V40.1425L39.13 40.0788L39.2255 40.047L39.2574 39.9832V39.6328Z" fill="#22F314"/>
<path d="M34.6697 43.3906H34.7015L34.7334 43.8048V44.3782H34.7015V43.9003L34.6378 43.8685L34.6697 43.3906Z" fill="#22F314"/>
<path d="M28.5851 50.5586H28.617V50.8135L28.4896 50.8772H28.0117V50.8453L28.394 50.8135L28.4896 50.7816L28.5851 50.5586Z" fill="#22F314"/>
<path d="M57.6704 21.4102L57.7022 21.5057L57.6704 21.7287L57.5429 21.8243H57.2562V21.7924L57.5429 21.7606L57.5748 21.6013H57.6067L57.6704 21.4102Z" fill="#22F314"/>
<path d="M51.4266 27.75L51.4903 27.8137L51.4266 27.9411H50.9487V27.9093H51.331L51.3629 27.8137H51.4266V27.75Z" fill="#22F314"/>
<path d="M30.0502 49.0938H30.0821V49.2849L30.0184 49.3486H29.5724V49.3167L29.9228 49.2849L30.0184 49.2212L30.0502 49.0938Z" fill="#22F314"/>
</svg>
